<svg width="21" height="20" viewBox="0 0 21 20" fill="none" xmlns="http://www.w3.org/2000/svg">
<path d="M18.8084 15.275C18.8084 15.575 18.7417 15.8833 18.6001 16.1833C18.4584 16.4833 18.2751 16.7666 18.0334 17.0333C17.6251 17.4833 17.1751 17.8083 16.6667 18.0166C16.1667 18.225 15.6251 18.3333 15.0417 18.3333C14.1917 18.3333 13.2834 18.1333 12.3251 17.725C11.3667 17.3166 10.4084 16.7666 9.45841 16.075C8.49017 15.3667 7.57649 14.5867 6.72508 13.7416C5.88239 12.8933 5.10516 11.9824 4.40008 11.0166C3.71675 10.0666 3.16675 9.11663 2.76675 8.17496C2.36675 7.22496 2.16675 6.31663 2.16675 5.44996C2.16675 4.88329 2.26675 4.34163 2.46675 3.84163C2.66675 3.33329 2.98341 2.86663 3.42508 2.44996C3.95841 1.92496 4.54175 1.66663 5.15841 1.66663C5.39175 1.66663 5.62508 1.71663 5.83341 1.81663C6.05008 1.91663 6.24175 2.06663 6.39175 2.28329L8.32508 5.00829C8.47508 5.21663 8.58341 5.40829 8.65841 5.59163C8.73341 5.76663 8.77508 5.94163 8.77508 6.09996C8.77508 6.29996 8.71675 6.49996 8.60008 6.69163C8.49175 6.88329 8.33341 7.08329 8.13341 7.28329L7.50008 7.94163C7.40841 8.03329 7.36675 8.14163 7.36675 8.27496C7.36675 8.34163 7.37508 8.39996 7.39175 8.46663C7.41675 8.53329 7.44175 8.58329 7.45841 8.63329C7.60841 8.90829 7.86675 9.26663 8.23341 9.69996C8.60841 10.1333 9.00841 10.575 9.44175 11.0166C9.89175 11.4583 10.3251 11.8666 10.7667 12.2416C11.2001 12.6083 11.5584 12.8583 11.8417 13.0083C11.8834 13.025 11.9334 13.05 11.9917 13.075C12.0584 13.1 12.1251 13.1083 12.2001 13.1083C12.3417 13.1083 12.4501 13.0583 12.5417 12.9666L13.1751 12.3416C13.3834 12.1333 13.5834 11.975 13.7751 11.875C13.9667 11.7583 14.1584 11.7 14.3667 11.7C14.5251 11.7 14.6917 11.7333 14.8751 11.8083C15.0584 11.8833 15.2501 11.9916 15.4584 12.1333L18.2167 14.0916C18.4334 14.2416 18.5834 14.4166 18.6751 14.625C18.7584 14.8333 18.8084 15.0416 18.8084 15.275Z" stroke="#4D5139" stroke-width="1.5" stroke-miterlimit="10"/>
</svg>
