<svg width="21" height="20" viewBox="0 0 21 20" fill="none" xmlns="http://www.w3.org/2000/svg">
<path d="M3.83336 6.66661H3.00002M18 6.66661H17.1667M10.5 2.49994V4.16661M9.25002 4.16661H11.75M5.50002 12.4999H8.00002M13 12.4999H15.5M13.425 2.35828H7.57502C5.50002 2.35828 5.04169 3.39161 4.77502 4.65828L3.83336 9.16661H17.1667L16.225 4.65828C15.9584 3.39161 15.5 2.35828 13.425 2.35828ZM18.825 16.5166C18.9167 17.4916 18.1334 18.3333 17.1334 18.3333H15.5667C14.6667 18.3333 14.5417 17.9499 14.3834 17.4749L14.2167 16.9749C13.9834 16.2916 13.8334 15.8333 12.6334 15.8333H8.36669C7.16669 15.8333 6.99169 16.3499 6.78336 16.9749L6.61669 17.4749C6.45836 17.9499 6.33336 18.3333 5.43336 18.3333H3.86669C2.86669 18.3333 2.08336 17.4916 2.17502 16.5166L2.64169 11.4416C2.75836 10.1916 3.00002 9.16661 5.18336 9.16661H15.8167C18 9.16661 18.2417 10.1916 18.3584 11.4416L18.825 16.5166Z" stroke="#4D5139" stroke-width="1.5" stroke-linecap="round" stroke-linejoin="round"/>
</svg>
