<svg width="21" height="20" viewBox="0 0 21 20" fill="none" xmlns="http://www.w3.org/2000/svg">
<path d="M10.4999 11.1917C10.8413 11.1917 11.1794 11.1244 11.4949 10.9938C11.8103 10.8631 12.0969 10.6716 12.3384 10.4302C12.5798 10.1887 12.7713 9.90212 12.902 9.58668C13.0327 9.27123 13.0999 8.93314 13.0999 8.5917C13.0999 8.25026 13.0327 7.91217 12.902 7.59672C12.7713 7.28128 12.5798 6.99465 12.3384 6.75322C12.0969 6.51179 11.8103 6.32027 11.4949 6.18961C11.1794 6.05895 10.8413 5.9917 10.4999 5.9917C9.81034 5.9917 9.14902 6.26563 8.66142 6.75322C8.17383 7.24082 7.8999 7.90214 7.8999 8.5917C7.8999 9.28126 8.17383 9.94258 8.66142 10.4302C9.14902 10.9178 9.81034 11.1917 10.4999 11.1917Z" stroke="#4D5139" stroke-width="1.5"/>
<path d="M3.51675 7.07496C5.15842 -0.141706 15.8501 -0.133372 17.4834 7.08329C18.4418 11.3166 15.8084 14.9 13.5001 17.1166C12.6935 17.8946 11.6165 18.3293 10.4959 18.3293C9.37529 18.3293 8.29835 17.8946 7.49175 17.1166C5.19175 14.9 2.55842 11.3083 3.51675 7.07496Z" stroke="#4D5139" stroke-width="1.5"/>
</svg>
