<svg width="40" height="40" viewBox="0 0 40 40" fill="none" xmlns="http://www.w3.org/2000/svg">
<rect width="40" height="40" rx="10" fill="#FFFCF5"/>
<path fill-rule="evenodd" clip-rule="evenodd" d="M20.066 22.5971C19.0625 22.5971 18.062 22.2656 17.225 21.6026L10.4975 16.1786C10.013 15.7886 9.93798 15.0791 10.3265 14.5961C10.718 14.1146 11.426 14.0381 11.909 14.4266L18.6305 19.8446C19.475 20.5136 20.6645 20.5136 21.515 19.8386L28.169 14.4296C28.652 14.0351 29.36 14.1101 29.753 14.5931C30.1445 15.0746 30.071 15.7826 29.5895 16.1756L22.9235 21.5936C22.0805 22.2626 21.0725 22.5971 20.066 22.5971" fill="#445251"/>
<path d="M20.066 22.5971C19.0625 22.5971 18.062 22.2656 17.225 21.6026L10.4975 16.1786C10.013 15.7886 9.93798 15.0791 10.3265 14.5961C10.718 14.1146 11.426 14.0381 11.909 14.4266L18.6305 19.8446C19.475 20.5136 20.6645 20.5136 21.515 19.8386L28.169 14.4296C28.652 14.0351 29.36 14.1101 29.753 14.5931C30.1445 15.0746 30.071 15.7826 29.5895 16.1756L22.9235 21.5936C22.0805 22.2626 21.0725 22.5971 20.066 22.5971" stroke="#445251"/>
<mask id="mask0_585_1916" style="mask-type:luminance" maskUnits="userSpaceOnUse" x="3" y="4" width="34" height="32">
<path fill-rule="evenodd" clip-rule="evenodd" d="M3.90039 5.3999H36.1502V34.6499H3.90039V5.3999Z" fill="white" stroke="white"/>
</mask>
<g mask="url(#mask0_585_1916)">
<path fill-rule="evenodd" clip-rule="evenodd" d="M12.6589 32.3999H27.3889C27.3919 32.3969 27.4039 32.3999 27.4129 32.3999C29.1244 32.3999 30.6424 31.7879 31.8064 30.6254C33.1579 29.2799 33.9004 27.3464 33.9004 25.1819V14.8799C33.9004 10.6904 31.1614 7.6499 27.3889 7.6499H12.6619C8.88939 7.6499 6.15039 10.6904 6.15039 14.8799V25.1819C6.15039 27.3464 6.89439 29.2799 8.24439 30.6254C9.40839 31.7879 10.9279 32.3999 12.6379 32.3999H12.6589ZM12.6334 34.6499C10.3189 34.6499 8.25189 33.8099 6.65589 32.2199C4.87839 30.4469 3.90039 27.9479 3.90039 25.1819V14.8799C3.90039 9.4754 7.66689 5.3999 12.6619 5.3999H27.3889C32.3839 5.3999 36.1504 9.4754 36.1504 14.8799V25.1819C36.1504 27.9479 35.1724 30.4469 33.3949 32.2199C31.8004 33.8084 29.7319 34.6499 27.4129 34.6499H27.3889H12.6619H12.6334Z" fill="#445251"/>
<path d="M27.3889 32.3999V32.8999H27.596L27.7424 32.7535L27.3889 32.3999ZM31.8064 30.6254L31.4536 30.2711L31.4531 30.2716L31.8064 30.6254ZM8.24439 30.6254L8.59772 30.2716L8.59735 30.2713L8.24439 30.6254ZM6.65589 32.2199L6.30279 32.5739L6.303 32.5741L6.65589 32.2199ZM33.3949 32.2199L33.7478 32.5741L33.748 32.5739L33.3949 32.2199ZM12.6589 32.8999H27.3889V31.8999H12.6589V32.8999ZM27.7424 32.7535C27.6697 32.8262 27.5919 32.8593 27.5446 32.8747C27.4965 32.8903 27.4563 32.8951 27.4342 32.8969C27.3922 32.9004 27.3598 32.8973 27.3571 32.8971C27.3531 32.8967 27.3502 32.8964 27.3509 32.8965C27.351 32.8965 27.3511 32.8965 27.3515 32.8965C27.3518 32.8966 27.3523 32.8966 27.3529 32.8967C27.354 32.8968 27.3558 32.897 27.3579 32.8972C27.3641 32.8978 27.3859 32.8999 27.4129 32.8999V31.8999C27.4354 31.8999 27.4523 31.9016 27.4536 31.9018C27.4667 31.903 27.4443 31.9008 27.4402 31.9005C27.433 31.8999 27.3964 31.8966 27.3511 31.9004C27.3273 31.9023 27.2856 31.9074 27.2363 31.9234C27.1877 31.9391 27.1088 31.9729 27.0353 32.0463L27.7424 32.7535ZM27.4129 32.8999C29.2506 32.8999 30.8976 32.2397 32.1597 30.9792L31.4531 30.2716C30.3872 31.3361 28.9982 31.8999 27.4129 31.8999V32.8999ZM32.1592 30.9797C33.6181 29.5272 34.4004 27.4595 34.4004 25.1819H33.4004C33.4004 27.2333 32.6976 29.0326 31.4536 30.2711L32.1592 30.9797ZM34.4004 25.1819V14.8799H33.4004V25.1819H34.4004ZM34.4004 14.8799C34.4004 10.4647 31.4854 7.1499 27.3889 7.1499V8.1499C30.8373 8.1499 33.4004 10.9161 33.4004 14.8799H34.4004ZM27.3889 7.1499H12.6619V8.1499H27.3889V7.1499ZM12.6619 7.1499C8.56534 7.1499 5.65039 10.4647 5.65039 14.8799H6.65039C6.65039 10.9161 9.21344 8.1499 12.6619 8.1499V7.1499ZM5.65039 14.8799V25.1819H6.65039V14.8799H5.65039ZM5.65039 25.1819C5.65039 27.4597 6.43429 29.5273 7.89143 30.9795L8.59735 30.2713C7.35449 29.0325 6.65039 27.2331 6.65039 25.1819H5.65039ZM7.89107 30.9792C9.15324 32.2397 10.8018 32.8999 12.6379 32.8999V31.8999C11.054 31.8999 9.66354 31.3361 8.59772 30.2716L7.89107 30.9792ZM12.6379 32.8999H12.6589V31.8999H12.6379V32.8999ZM12.6334 34.1499C10.4471 34.1499 8.50819 33.3595 7.00878 31.8657L6.303 32.5741C7.99559 34.2603 10.1907 35.1499 12.6334 35.1499V34.1499ZM7.009 31.8659C5.33561 30.1967 4.40039 27.83 4.40039 25.1819H3.40039C3.40039 28.0658 4.42117 30.6971 6.30279 32.5739L7.009 31.8659ZM4.40039 25.1819V14.8799H3.40039V25.1819H4.40039ZM4.40039 14.8799C4.40039 9.7137 7.97941 5.8999 12.6619 5.8999V4.8999C7.35437 4.8999 3.40039 9.2371 3.40039 14.8799H4.40039ZM12.6619 5.8999H27.3889V4.8999H12.6619V5.8999ZM27.3889 5.8999C32.0714 5.8999 35.6504 9.7137 35.6504 14.8799H36.6504C36.6504 9.2371 32.6964 4.8999 27.3889 4.8999V5.8999ZM35.6504 14.8799V25.1819H36.6504V14.8799H35.6504ZM35.6504 25.1819C35.6504 27.83 34.7152 30.1967 33.0418 31.8659L33.748 32.5739C35.6296 30.6971 36.6504 28.0658 36.6504 25.1819H35.6504ZM33.042 31.8657C31.5441 33.3579 29.6038 34.1499 27.4129 34.1499V35.1499C29.86 35.1499 32.0566 34.2589 33.7478 32.5741L33.042 31.8657ZM27.4129 34.1499H27.3889V35.1499H27.4129V34.1499ZM27.3889 34.1499H12.6619V35.1499H27.3889V34.1499ZM12.6619 34.1499H12.6334V35.1499H12.6619V34.1499Z" fill="#445251"/>
</g>
</svg>
