<svg width="40" height="40" viewBox="0 0 40 40" fill="none" xmlns="http://www.w3.org/2000/svg">
<path fill-rule="evenodd" clip-rule="evenodd" d="M31.6667 40H8.33333C3.73167 40 0 36.2683 0 31.6667V8.33333C0 3.73167 3.73167 0 8.33333 0H31.6667C36.27 0 40 3.73167 40 8.33333V31.6667C40 36.2683 36.27 40 31.6667 40ZM33.3333 19.1533C33.3333 13.1867 27.3517 8.33333 20 8.33333C12.6483 8.33333 6.66667 13.1867 6.66667 19.1533C6.66667 24.5017 11.41 28.9817 17.8183 29.8283C18.2517 29.9217 18.8433 30.115 18.9917 30.4867C19.1267 30.8233 19.08 31.3517 19.035 31.6917L18.845 32.8333C18.7867 33.17 18.5767 34.1517 20 33.5517C21.4233 32.9517 27.6783 29.03 30.4767 25.81C32.41 23.6917 33.3333 21.5417 33.3333 19.1533ZM15.0367 22.5983H11.3L11.12 22.5267L11.1183 22.5233L11.1133 22.5183L11.04 22.34V16.53C11.04 16.3867 11.1567 16.27 11.3 16.27H12.2367C12.3783 16.27 12.495 16.3867 12.495 16.53V21.1433H15.0367C15.18 21.1433 15.295 21.26 15.295 21.4033V22.3383C15.295 22.4817 15.18 22.5983 15.0367 22.5983ZM28.8933 22.5983H25.1567L24.9767 22.5267L24.97 22.5183L24.8967 22.34V16.53L24.97 16.3517L24.9767 16.3433L25.1567 16.27H28.8933C29.0367 16.27 29.1517 16.3867 29.1517 16.53V17.465C29.1517 17.6083 29.0367 17.725 28.8933 17.725H26.3517V18.7067H28.8933C29.0367 18.7067 29.1517 18.8233 29.1517 18.9667V19.9017C29.1517 20.045 29.0367 20.1617 28.8933 20.1617H26.3517V21.1433H28.8933C29.0367 21.1433 29.1517 21.26 29.1517 21.4033V22.3383C29.1517 22.4817 29.0367 22.5983 28.8933 22.5983ZM17.2917 22.5983H16.355C16.2117 22.5983 16.095 22.4833 16.095 22.34V16.53C16.095 16.3867 16.2117 16.27 16.355 16.27H17.2917C17.435 16.27 17.55 16.3867 17.55 16.53V22.34C17.55 22.4817 17.435 22.5983 17.2917 22.5983ZM19.655 22.5983H18.72C18.5767 22.5983 18.46 22.4833 18.46 22.34V16.53C18.46 16.3867 18.5767 16.27 18.72 16.27H19.655L19.6767 16.2717L19.7017 16.275L19.7167 16.2783L19.7417 16.285L19.75 16.2883L19.7733 16.2983L19.795 16.3117L19.8083 16.32L19.8283 16.3367L19.8333 16.3417L19.85 16.36L19.8717 16.385L22.5333 19.9817V16.53C22.5333 16.3867 22.65 16.27 22.7933 16.27H23.7283C23.8717 16.27 23.9883 16.3867 23.9883 16.53V22.34C23.9883 22.4817 23.8717 22.5983 23.7283 22.5983H22.7933L22.7267 22.59L22.7233 22.5883L22.6967 22.58L22.685 22.575L22.665 22.565L22.6483 22.555L22.6467 22.5533L22.58 22.4883L19.915 18.8883V22.34C19.915 22.4817 19.7983 22.5983 19.655 22.5983Z" fill="#FFFCF5"/>
</svg>
