<svg width="1404" height="294" viewBox="0 0 1404 294" fill="none" xmlns="http://www.w3.org/2000/svg">
<path d="M1.90377 263.891C6.07915 258.865 10.8123 254.532 14.5119 249.095C18.474 243.27 23.0104 237.923 27.4647 232.478C36.406 221.537 45.2572 210.514 52.9107 198.618C56.6595 192.794 60.6298 187.093 64.4524 181.309C68.3079 175.485 71.8434 169.462 75.6989 163.638C79.6774 157.624 83.3688 151.552 86.5844 145.093C89.595 139.046 92.4004 132.851 96.0344 127.142C103.343 115.649 112.818 106.101 122.424 96.5776C127.469 91.5769 133.334 87.8614 139.519 84.4507C145.524 81.1471 151.258 77.7859 157.779 75.578C164.284 73.3701 170.806 70.7997 177.622 69.7617C181.117 69.2262 184.636 68.8802 188.163 68.6743C191.888 68.4601 195.653 68.6413 199.361 68.2211C206.243 67.4385 213.125 67.6939 220.049 67.6527C227.161 67.6115 234.24 68.2047 241.328 68.6495C244.863 68.872 248.366 69.531 251.901 69.8029C255.486 70.083 259.096 70.0336 262.689 70.1654C266.183 70.289 269.768 70.3054 273.205 70.9645C276.823 71.6565 280.727 72.0108 284.148 73.3701C290.243 75.784 296.723 77.3657 303.015 79.2111C309.463 81.0977 314.877 85.2334 321.25 87.3012C324.122 88.2321 326.976 89.2043 330.003 89.4349C333.596 89.6986 337.082 90.3164 340.659 90.7201C343.817 91.0826 346.959 91.4698 350.101 91.9394C353.653 92.4667 357.254 92.3513 360.83 92.3678C364.12 92.3843 367.524 92.6479 370.773 91.9971C373.759 91.3957 376.597 90.2505 379.534 89.4844C386.793 87.5978 394.693 85.8512 402.223 86.2632C408.154 86.5845 414.019 87.8367 419.811 89.0807C424.716 90.1352 429.712 91.2062 434.437 92.9362C436.914 93.8425 439.342 94.9464 441.77 95.9762C444.379 97.0802 447.775 98.5878 449.112 101.298C449.629 102.353 449.998 104.412 449.408 105.524C448.883 106.513 447.357 106.768 446.34 107.115C442.952 108.251 439.441 107.963 435.946 108.49C431.853 109.108 427.727 109.537 423.633 110.13C418.351 110.888 413.117 112.28 407.99 113.738C404.553 114.71 401.206 115.691 397.671 116.284C394.258 116.852 390.829 117.314 387.466 118.154C384.439 118.912 381.601 119.769 378.467 119.925C374.899 120.106 371.396 120.724 367.844 121.029C360.839 121.639 353.792 121.466 346.77 121.367C343.317 121.317 339.789 121.128 336.344 121.408C333.342 121.655 330.438 122.471 327.526 123.163C313.556 126.475 299.168 125.338 285.124 127.875C278.439 129.078 271.974 131.138 265.387 132.769C258.226 134.548 250.901 135.158 243.69 136.666C233.633 138.766 223.896 141.732 214.134 144.838C212.338 145.406 210.517 145.967 208.671 146.337C207.957 146.477 207.219 146.634 206.489 146.642C205.956 146.642 205.447 146.379 205.562 146.725C205.456 147.12 205.341 147.507 205.234 147.903C206.776 146.197 209.024 145.917 211.075 145.102C213.47 144.154 215.775 143.174 218.261 142.49C223.478 141.057 228.859 140.34 234.216 139.656C244.65 138.33 255.051 136.962 265.56 136.311C276.585 135.627 287.798 135.166 298.823 136.081C303.885 136.501 308.938 137.143 314.024 137.259C319.438 137.382 324.86 137.209 330.274 137.209C341.422 137.209 352.57 137.185 363.718 137.209C368.714 137.226 373.332 136.493 378.237 135.586C383.405 134.631 388.426 132.983 393.577 131.928C409.877 128.608 427.669 127.01 443.977 130.981C447.923 131.937 452.254 132.752 456.142 131.121C459.202 129.836 462.549 126.804 463.041 123.377C463.582 119.645 461.113 116.07 459.079 113.17C457.159 110.426 454.69 107.732 451.22 107.205C448.809 106.834 446.315 107.255 443.879 107.007C441.483 106.768 439.113 106.447 436.701 106.414C433.379 106.365 430.056 106.398 426.734 106.373C418.424 106.324 410.205 106.406 401.928 107.156C390.919 108.153 379.878 108.861 368.919 110.311C358.37 111.703 347.878 113.557 337.468 115.748C316.247 120.222 295.362 126.096 274.083 130.363C263.197 132.546 252.295 134.598 241.393 136.698C236.504 137.638 231.459 138.313 226.718 139.887C222.1 141.427 217.777 143.734 213.363 145.769C209.327 147.631 204.496 149.295 201.174 152.343C197.917 155.334 195.448 159.626 193.323 163.457C190.911 167.815 188.885 172.387 186.449 176.737C183.873 181.334 181.109 185.824 178.508 190.413C173.185 199.821 167.656 209.114 162.16 218.423C157.147 226.909 151.061 234.768 147.181 243.888C145.212 248.518 143.973 253.403 142.046 258.05C140.126 262.68 137.969 267.203 136.344 271.956C134.983 275.943 133.908 280.005 132.719 284.033C132.505 284.75 132.3 285.772 131.759 286.307C131.701 286.381 131.652 286.464 131.595 286.538C131.152 287.049 130.963 287.032 131.021 286.505C130.799 286.324 130.504 285.253 130.487 285.179C129.921 283.3 129.987 281.241 130.085 279.296C130.332 274.164 132.21 269.74 134.253 265.102C136.361 260.323 138.543 255.595 141.028 250.998C146.057 241.697 151.233 232.338 157.59 223.877C163.915 215.466 170.978 207.705 177.606 199.549C183.857 191.863 189.336 183.443 194.496 174.999C199.836 166.258 203.93 157.237 205.931 147.153C206.948 142.02 207.67 136.83 208.704 131.698C209.787 126.351 211.362 121.128 212.748 115.864C215.488 105.45 218.097 94.9134 222.116 84.9038C226.078 75.0178 231.73 66.0544 237.776 57.3547C246.118 45.3596 255.847 32.6643 257.783 17.6787C258.579 11.5329 257.25 4.8351 251.516 1.46561C245.405 -2.12632 238.104 1.53976 233.108 5.4118C227.464 9.78637 222.994 15.5697 217.596 20.2656C211.001 26.0077 203.946 31.2556 196.629 36.0338C189.829 40.4661 182.429 43.8026 176.605 49.5942C173.923 52.2552 171.527 55.1963 168.862 57.8737C165.269 61.4821 161.175 64.2091 156.959 67.0019C154.867 68.3859 152.783 69.7947 150.7 71.1952C148.813 72.4721 146.738 73.6337 145.138 75.2732C143.719 76.7149 142.636 78.3461 141.11 79.689C140.003 80.6528 139.281 81.559 139.142 83.0502C138.994 84.6484 141.381 84.2612 141.512 82.8195C141.611 81.8062 142.923 81.1471 143.604 80.5128C144.31 79.8537 144.876 79.0875 145.474 78.3378C147.082 76.3442 148.994 75.0919 151.102 73.6667C155.458 70.7256 160.002 67.9822 164.227 64.8516C170.707 60.0569 175.219 53.3097 181.42 48.2513C184.62 45.6398 188.245 43.7944 191.789 41.7183C195.202 39.7246 198.516 37.5662 201.764 35.3253C208.565 30.6377 215.143 25.5546 221.279 20.0102C226.562 15.2319 230.918 9.3003 236.988 5.46122C240.032 3.54168 243.805 1.86106 247.48 2.58604C250.999 3.26983 253.805 6.21916 254.928 9.5557C257.094 16.0063 254.494 23.6268 252 29.5996C249.449 35.7043 246.143 41.4958 242.378 46.9249C236.529 55.3528 230.368 63.6077 225.43 72.6369C220.549 81.5673 217.194 91.132 214.405 100.903C211.534 110.929 208.482 121.12 206.423 131.344C204.348 141.65 203.372 152.112 199.032 161.809C194.997 170.838 189.386 179.151 183.857 187.307C178.033 195.908 171.158 203.536 164.547 211.519C158.156 219.247 151.955 227.156 146.992 235.897C141.923 244.811 136.812 253.642 132.686 263.05C129.601 270.094 125.795 278.423 128.273 286.299C128.584 287.296 129.183 288.935 130.291 289.273C131.414 289.611 132.71 288.705 133.383 287.906C135.221 285.722 135.614 282.13 136.41 279.469C137.903 274.485 139.519 269.6 141.586 264.822C143.522 260.356 145.417 255.941 146.877 251.294C148.346 246.598 150.306 242.1 152.693 237.8C155.088 233.475 158.009 229.487 160.634 225.302C166.097 216.602 171.273 207.656 176.384 198.742C181.494 189.828 186.966 181.021 191.568 171.835C193.774 167.419 195.981 163.037 198.754 158.95C200 157.113 201.272 155.227 202.962 153.768C205.004 152.005 207.72 150.934 210.131 149.789C214.577 147.688 219.007 145.472 223.535 143.569C228.285 141.576 233.215 140.669 238.243 139.697C259.038 135.685 279.89 131.937 300.48 126.952C321.275 121.919 341.963 116.655 363.152 113.524C373.603 111.975 384.078 111.176 394.594 110.245C403.634 109.438 412.584 108.729 421.665 108.762C425.315 108.779 428.965 108.803 432.608 108.82C436.726 108.836 440.737 109.273 444.838 109.545C446.914 109.685 449.145 109.199 451.171 109.718C453.394 110.286 455.084 112.025 456.421 113.804C457.504 115.246 458.554 116.819 459.407 118.409C460.949 121.309 461.236 123.871 458.899 126.409C455.699 129.877 451.458 130.05 447.07 129.185C442.976 128.378 439.055 127.216 434.872 126.862C427.481 126.244 419.926 126.228 412.526 126.804C403.003 127.554 393.561 129.375 384.332 131.788C379.476 133.057 374.316 134.285 369.304 134.754C364.3 135.224 359.1 134.828 354.079 134.828C343.136 134.828 332.193 134.73 321.259 134.87C310.636 135.001 300.177 133.354 289.57 133.28C268.792 133.139 248.038 134.985 227.514 138.206C223.018 138.915 218.433 139.771 214.151 141.353C212.034 142.136 210.008 143.067 207.867 143.767C206.161 144.327 204.807 145.036 203.593 146.387C203.323 146.683 203.126 147.161 203.265 147.565C204.118 150.102 208.187 148.875 209.984 148.446C213.413 147.639 216.727 146.453 220.049 145.291C225.898 143.24 231.993 141.839 238.014 140.398C245.216 138.676 252.509 137.86 259.76 136.435C266.93 135.026 273.869 132.719 280.99 131.121C288.307 129.473 295.747 128.979 303.22 128.534C310.455 128.098 317.526 127.521 324.663 126.195C327.911 125.593 331.07 124.572 334.334 124.061C337.837 123.517 341.455 123.707 344.99 123.748C352.455 123.838 359.936 124.086 367.393 123.476C374.095 122.924 380.805 122.347 387.294 120.625C390.837 119.686 394.463 119.233 398.073 118.615C401.378 118.055 404.537 117.174 407.752 116.243C413.396 114.603 419.122 113.137 424.954 112.346C429.367 111.744 433.846 110.945 438.284 110.608C441.729 110.344 444.756 110.171 448.054 108.985C449.736 108.375 451.204 107.774 451.737 105.92C453.255 100.664 449.514 96.9813 445.208 94.7817C440.466 92.3678 435.265 90.4318 430.138 89.0313C425.307 87.7131 420.393 86.6504 415.48 85.6865C408.54 84.3272 401.395 83.1738 394.332 84.2036C387.171 85.2416 380.206 86.9305 373.283 88.9818C369.731 90.0363 366.302 90.0199 362.635 89.9952C358.845 89.9705 354.998 90.1599 351.233 89.6327C344.129 88.6441 337.033 87.6967 329.905 87.0046C322.99 86.3373 316.862 82.6548 310.792 79.6066C307.724 78.066 304.59 77.1186 301.309 76.1547C297.904 75.1578 294.582 74.0209 291.153 73.1394C287.79 72.2744 284.648 70.4373 281.219 69.8853C277.848 69.3416 274.419 68.493 271.023 68.2047C263.394 67.5621 255.732 67.8916 248.128 66.9607C244.65 66.5323 241.229 66.2687 237.735 66.1286C234.076 65.9803 230.45 65.4201 226.784 65.313C219.475 65.0988 212.002 64.9752 204.701 65.28C201.256 65.4283 197.892 66.0215 194.431 66.0709C190.616 66.1204 186.802 66.3181 183.004 66.7053C175.892 67.4302 169.411 69.2674 162.66 71.5412C156.138 73.7408 149.929 75.9734 143.916 79.3841C137.837 82.8278 131.595 86.0654 126.05 90.3576C123.466 92.3595 121.185 94.7075 118.872 97.0142C116.46 99.4198 113.934 101.702 111.579 104.165C101.793 114.389 93.6801 125.692 87.4211 138.387C84.1973 144.92 81.0063 151.429 77.0606 157.574C73.1313 163.687 69.2677 169.85 65.3384 175.963C61.3435 182.174 57.2665 188.345 53.0829 194.433C48.8912 200.546 45.0357 206.774 40.4501 212.615C35.8072 218.53 31.1807 224.454 26.4393 230.278C22.0342 235.691 17.5143 240.996 13.503 246.722C11.4604 249.647 9.47524 252.472 7.03893 255.092C4.78307 257.514 2.43697 259.837 0.320576 262.375C-0.696606 263.602 0.93581 265.143 1.9612 263.907L1.90377 263.891Z" fill="#4D5139" fill-opacity="0.6"/>
<path d="M320.34 87.3178C320.34 87.9521 320.931 88.4876 321.554 88.4217C322.243 88.3476 322.588 87.6473 322.588 87.0212C322.588 86.3951 321.997 85.8513 321.374 85.9172C320.684 85.9914 320.34 86.6917 320.34 87.3178Z" fill="#4D5139" fill-opacity="0.6"/>
<path d="M253.567 137.844C253.6 137.621 253.452 138.165 253.534 137.959C253.476 138.099 253.435 138.223 253.362 138.363C253.362 138.363 253.345 138.437 253.271 138.462C253.542 138.371 253.468 138.289 253.723 138.206C254.215 138.05 254.74 138.008 255.257 138.008C256.946 138.017 258.644 138.396 260.277 138.783C264.624 139.813 268.865 141.287 273.057 142.828C276.166 143.973 279.251 145.176 282.319 146.445C284.919 147.524 287.544 148.529 290.161 149.559C292.138 150.341 294.115 151.14 296.042 152.038C297.896 152.895 299.701 153.867 301.579 154.675C303.376 155.449 305.197 156.166 306.952 157.047C308.741 157.937 310.398 159.066 312.194 159.939C314.007 160.812 315.91 161.521 317.895 161.891C319.946 162.27 322.013 162.139 324.081 162.147C328.371 162.163 332.784 162.526 337.05 161.908C341.045 161.331 344.867 159.964 348.682 158.72C350.626 158.085 352.586 157.476 354.58 156.998C356.581 156.52 358.607 156.256 360.642 155.993C365.006 155.424 369.378 154.914 373.685 153.999C375.793 153.554 377.852 152.837 379.968 152.467C382.109 152.088 384.3 152.063 386.465 151.882C390.599 151.536 394.562 150.292 398.737 150.193C400.706 150.144 402.683 150.275 404.643 150.045C406.497 149.83 408.162 149.196 409.828 148.389C410.853 147.894 411.887 147.367 412.682 146.519C413.544 145.604 414.011 144.368 414.233 143.149C414.495 141.691 414.413 140.183 414.405 138.709C414.388 137.201 414.339 135.669 413.88 134.219C412.813 130.841 409.499 129.523 406.267 129.086C404.602 128.864 402.921 128.823 401.239 128.823C400.386 128.823 399.902 131.236 400.509 131.245C403.765 131.253 407.613 131.228 410.426 133.107C413.306 135.026 413.125 138.42 413.142 141.501C413.142 142.103 413.15 142.713 413.068 143.314C413.002 143.759 412.961 143.957 412.74 144.27C412.133 145.135 410.984 145.621 410.065 146.057C408.417 146.848 406.76 147.441 404.93 147.639C403.011 147.845 401.083 147.73 399.155 147.771C397.17 147.82 395.193 148.059 393.241 148.405C391.174 148.776 389.148 149.27 387.048 149.452C384.931 149.633 382.807 149.657 380.707 149.995C378.533 150.341 376.425 151.083 374.267 151.552C370.018 152.467 365.695 152.978 361.38 153.538C359.337 153.801 357.295 154.057 355.285 154.518C353.341 154.963 351.43 155.556 349.535 156.166C345.753 157.385 341.98 158.753 338.05 159.403C333.809 160.104 329.421 159.758 325.139 159.733C323.063 159.717 320.963 159.873 318.913 159.527C316.927 159.189 315.008 158.514 313.195 157.649C311.423 156.817 309.807 155.721 308.068 154.823C306.288 153.9 304.426 153.159 302.58 152.376C300.743 151.593 298.987 150.671 297.191 149.822C295.312 148.933 293.393 148.142 291.465 147.375C288.701 146.28 285.92 145.225 283.18 144.08C280.251 142.869 277.298 141.707 274.321 140.612C270.145 139.063 265.912 137.588 261.589 136.509C259.916 136.097 258.21 135.71 256.487 135.611C255.462 135.553 254.223 135.512 253.378 136.212C252.804 136.682 252.484 137.465 252.377 138.181C252.328 138.494 252.246 139.277 252.755 139.219C253.222 139.17 253.517 138.19 253.567 137.844Z" fill="#4D5139" fill-opacity="0.6"/>
<path d="M1330.6 291.704C1329.55 289.562 1328.62 288.17 1326.78 286.687C1324.7 285.015 1322.72 283.202 1320.82 281.332C1317.36 277.921 1314.14 274.288 1310.74 270.812C1309 269.032 1307.26 267.145 1305.21 265.728C1303.26 264.377 1301.28 263.067 1299.28 261.766C1295.02 258.973 1290.76 256.188 1286.74 253.041C1279.58 247.439 1278.75 237.397 1273.14 230.542C1268.08 224.355 1260.69 220.871 1253.4 218.078C1249.25 216.488 1245.08 214.799 1240.88 213.382C1236.23 211.817 1231.4 210.927 1226.55 210.375C1221.67 209.823 1216.78 209.592 1211.88 209.345C1209.21 209.205 1206.72 208.81 1204.11 208.225C1201.75 207.697 1199.36 207.014 1196.93 206.89C1192.03 206.635 1187.29 208.06 1182.43 208.365C1181.15 208.447 1180.17 208.464 1178.97 208.908C1177.87 209.32 1176.79 209.782 1175.69 210.194C1173.3 211.083 1170.66 211.627 1168.11 211.866C1166.92 211.981 1165.77 211.94 1164.61 212.22C1163.53 212.484 1162.45 212.739 1161.36 212.962C1158.44 213.547 1155.49 213.942 1152.56 214.436C1150.05 214.857 1147.54 215.326 1145.09 216.01C1142.55 216.71 1140.21 217.806 1137.75 218.704C1118.58 225.715 1097.82 222.905 1077.9 222.386C1072.95 222.255 1068 222.255 1063.05 222.568C1062.06 222.634 1061.02 222.634 1060.06 222.881C1059.08 223.128 1058.19 223.696 1057.22 223.919C1055.09 224.421 1054.34 222.189 1054.05 220.467C1052.45 211.042 1060.65 204.163 1068.53 201.049C1076.87 197.762 1085.98 197.507 1094.8 196.798C1099.61 196.411 1104.24 195.925 1108.97 194.903C1111.3 194.401 1113.64 193.923 1116.01 193.717C1118.46 193.503 1120.59 193.494 1122.92 192.539C1125.15 191.624 1127.23 190.29 1129.4 189.235C1131.83 188.049 1134.31 186.961 1136.82 185.948C1141.61 184.004 1146.49 182.307 1151.38 180.626C1153.83 179.786 1156.3 178.978 1158.74 178.08C1160.85 177.306 1162.56 175.774 1164.63 174.876C1166.58 174.035 1168.57 173.055 1170.61 172.47C1173.5 171.638 1176.55 171.432 1179.55 171.391C1184.46 171.325 1189.2 171.86 1193.99 170.501C1198.23 169.298 1202.25 166.753 1206.1 164.644C1214.22 160.203 1222.12 155.359 1230.4 151.248C1238.69 147.129 1247.47 143.817 1256.67 142.491C1267.18 140.975 1277.9 142.178 1287.92 145.704C1290.11 146.478 1292.37 147.269 1294.38 148.455C1296.66 149.798 1298.89 151.223 1301.17 152.558C1303.32 153.81 1305.52 154.997 1307.81 155.952C1310.27 156.974 1312.45 158.407 1314.6 159.973C1318.99 163.169 1323.04 166.843 1327.13 170.411C1331.34 174.077 1335.52 177.759 1339.75 181.401C1347.57 188.14 1356.14 194.104 1362.76 202.112C1365.92 205.926 1368.78 209.979 1371.82 213.893C1374.99 217.971 1378.51 221.53 1382.41 224.891C1386.12 228.079 1389.94 231.152 1393.33 234.695C1396.53 238.039 1399.8 242.29 1400.57 246.986C1400.71 247.884 1400.73 248.757 1400.93 249.622C1401.06 250.125 1401.24 250.751 1400.96 251.245C1400.03 252.918 1396.08 251.278 1394.84 250.809C1390.37 249.095 1386.68 245.907 1383.13 242.768C1367.82 229.241 1355.5 212.855 1342.23 197.424C1335.22 189.276 1329.22 180.264 1324.01 170.847C1318.93 161.637 1314.75 151.759 1308.85 143.034C1305.75 138.446 1302.47 133.98 1299.17 129.54C1296.12 125.446 1292.54 121.878 1288.8 118.418C1285.07 114.958 1281.18 111.687 1277.26 108.45C1273.25 105.146 1269.69 101.389 1266.03 97.7069C1258.33 89.9711 1250.16 82.7213 1242.43 75.0102C1238.78 71.3688 1235.38 67.4391 1231.52 64.0449C1229.98 62.6938 1228.54 61.2521 1226.83 60.1235C1224.93 58.863 1222.74 58.1545 1220.67 57.2153C1211.46 53.0384 1202.81 47.7247 1193.95 42.8476C1189.85 40.582 1185.6 38.6378 1181.46 36.4546C1177.85 34.5433 1174.55 31.9812 1170.64 30.6795C1166.8 29.3943 1162.97 29.9216 1159.71 32.3519C1157.49 33.9996 1155.67 36.2239 1155.01 38.9508C1153.71 44.2811 1156.72 49.6442 1159.79 53.7634C1163.5 58.7394 1168.08 63.0398 1172.82 67.019C1174.9 68.7573 1176.97 70.4709 1179.28 71.8961C1183.68 74.5983 1188.23 77.0204 1192.67 79.6566C1196.96 82.2023 1201.69 84.8633 1204.98 88.7024C1206.71 90.7125 1207.66 93.2499 1208.74 95.6473C1209.79 97.9623 1210.84 100.269 1211.97 102.551C1211.99 102.172 1212.02 101.793 1212.03 101.414C1211.86 101.768 1211.71 102.254 1211.47 102.559C1211.33 102.823 1211.33 102.831 1211.47 102.576C1211.74 102.197 1211.5 102.18 1210.76 102.543C1210.28 102.625 1209.79 102.683 1209.29 102.741C1207.19 102.979 1205.09 103.087 1202.99 103.375C1201.57 103.573 1201.22 105.879 1202.84 105.649C1205.23 105.319 1207.64 105.237 1210.02 104.899C1210.86 104.784 1212.17 104.751 1212.9 104.289C1213.44 103.943 1213.69 103.26 1213.94 102.699C1214.68 101.043 1213.17 99.2887 1212.46 97.7563C1211.32 95.2931 1210.24 92.8051 1209.06 90.3665C1206.78 85.6706 1202.14 82.7378 1197.9 80.0109C1193.36 77.0945 1188.61 74.5571 1183.95 71.8467C1178.33 68.5678 1173.38 64.5063 1168.7 59.9752C1164.29 55.7159 1159.42 50.6246 1157.66 44.5776C1156.93 42.0897 1156.88 39.4369 1158.21 37.1384C1160.16 33.7689 1164.11 31.6516 1167.97 32.3931C1172.27 33.2252 1175.9 36.1992 1179.66 38.2588C1183.73 40.4832 1187.99 42.3615 1192.07 44.5941C1201.11 49.5536 1209.93 54.9909 1219.33 59.2584C1221.46 60.2223 1223.76 60.9473 1225.68 62.3149C1227.54 63.633 1229.19 65.2889 1230.9 66.7883C1232.86 68.5019 1234.56 70.5779 1236.38 72.4481C1238.4 74.5241 1240.44 76.5755 1242.5 78.6104C1250.41 86.3956 1258.64 93.8349 1266.46 101.703C1268.31 103.556 1270.12 105.467 1272.01 107.272C1273.99 109.175 1276.23 110.831 1278.34 112.602C1282.42 116.021 1286.43 119.522 1290.23 123.262C1294.23 127.2 1297.53 131.525 1300.83 136.065C1304.16 140.637 1307.42 145.234 1310.19 150.169C1315.44 159.519 1319.7 169.529 1325.57 178.517C1328.5 183.007 1331.22 187.629 1334.42 191.946C1337.56 196.188 1341.19 200.069 1344.6 204.105C1351.38 212.171 1358.01 220.384 1365.05 228.227C1368.56 232.116 1372.16 235.922 1375.92 239.555C1379.58 243.089 1383.36 246.665 1387.52 249.59C1390.76 251.863 1395.38 254.533 1399.5 254.219C1402.7 253.972 1403.81 251.509 1403.21 248.692C1402.81 246.83 1402.76 245.009 1402.04 243.18C1401.18 240.956 1399.91 238.929 1398.49 237.026C1395.46 232.964 1391.7 229.587 1387.86 226.316C1383.96 223.004 1379.89 219.767 1376.54 215.878C1373.26 212.072 1370.4 207.895 1367.33 203.924C1364.29 200.003 1361.08 196.197 1357.38 192.885C1353.27 189.194 1348.76 185.89 1344.55 182.307C1335.99 175.04 1327.81 167.247 1319.03 160.261C1317.08 158.712 1315.03 157.246 1312.93 155.919C1310.64 154.469 1308.12 153.588 1305.71 152.344C1301.14 149.988 1297.02 146.742 1292.24 144.83C1282.58 140.958 1272.14 139.031 1261.74 139.731C1242.66 141.008 1226.21 150.82 1209.96 160.005C1205.81 162.353 1201.62 164.66 1197.34 166.769C1195.11 167.873 1192.86 168.689 1190.39 169.076C1187.74 169.488 1184.99 169.199 1182.31 169.158C1176.91 169.076 1171.85 169.521 1166.83 171.597C1164.85 172.412 1162.78 173.129 1160.97 174.299C1160.06 174.884 1159.24 175.551 1158.23 175.955C1156.82 176.507 1155.37 176.952 1153.93 177.446C1143.82 180.931 1133.61 184.342 1124.19 189.491C1121.93 190.726 1119.96 191.287 1117.4 191.402C1114.79 191.517 1112.22 191.995 1109.66 192.531C1107.21 193.041 1104.77 193.651 1102.29 193.972C1099.86 194.294 1097.37 194.368 1094.92 194.565C1085.89 195.29 1076.55 195.571 1068.02 198.932C1064.09 200.481 1060.05 202.656 1057.06 205.704C1054.18 208.637 1051.61 212.945 1051.36 217.147C1051.2 219.907 1051.49 223.787 1053.86 225.599C1055.22 226.637 1056.59 226.522 1058.12 225.97C1059.09 225.624 1059.98 225.179 1061.01 225.031C1062.42 224.825 1063.9 224.833 1065.32 224.767C1075.69 224.322 1086.06 225.097 1096.42 225.484C1106.59 225.863 1116.83 225.863 1126.87 223.993C1131.99 223.037 1136.88 221.497 1141.69 219.528C1146.95 217.377 1152.67 216.768 1158.23 215.837C1160.82 215.409 1163.44 214.56 1166.05 214.321C1168.52 214.099 1170.9 213.827 1173.33 213.242C1175.64 212.69 1177.72 211.52 1179.99 210.919C1181.3 210.573 1182.77 210.68 1184.1 210.531C1185.51 210.375 1186.89 210.144 1188.29 209.922C1190.46 209.576 1192.64 209.238 1194.85 209.197C1197.74 209.139 1200.5 209.897 1203.31 210.523C1205.71 211.059 1207.99 211.487 1210.44 211.619C1213.14 211.759 1215.84 211.882 1218.54 212.055C1223.85 212.393 1229.17 212.912 1234.37 214.09C1239.17 215.178 1243.67 217.106 1248.27 218.786C1256.03 221.62 1264.17 224.66 1269.98 230.823C1273.17 234.217 1275.03 238.385 1276.84 242.62C1278.51 246.55 1280.24 250.693 1283.46 253.643C1287.18 257.053 1291.69 259.789 1295.89 262.548C1297.94 263.891 1300 265.226 1302.04 266.602C1304.43 268.225 1306.44 270.095 1308.47 272.154C1311.87 275.615 1315.1 279.256 1318.54 282.683C1320.28 284.421 1322.08 286.102 1323.97 287.676C1324.89 288.45 1326.04 289.125 1326.79 290.073C1327.47 290.938 1327.91 292.05 1328.39 293.03C1329.02 294.316 1331.2 293.055 1330.58 291.762L1330.6 291.704Z" fill="#4D5139" fill-opacity="0.6"/>
<path d="M1203.59 103.416C1201.82 103.4 1200.04 103.21 1198.27 103.268C1196.58 103.325 1194.9 103.688 1193.27 104.125C1189.84 105.031 1186.54 106.184 1183.02 106.679C1181.3 106.926 1179.56 107.049 1177.82 107.115C1176.07 107.181 1174.53 107.708 1172.86 108.153C1171.19 108.606 1169.48 108.59 1167.77 108.615C1166.04 108.631 1164.38 108.886 1162.7 109.274C1159.72 109.966 1156.65 110.493 1154.19 112.445C1153.01 113.376 1152.27 114.513 1151.47 115.749C1150.59 117.1 1149.62 118.484 1149.2 120.058C1149 120.799 1149.13 121.623 1148.87 122.34C1148.62 123.04 1148.02 123.592 1147.73 124.284C1147.06 125.841 1146.65 127.653 1146.26 129.301C1145.43 132.794 1145.29 136.403 1145.26 139.978C1145.24 143.553 1145.15 147.178 1145.51 150.737C1145.7 152.525 1145.99 154.222 1145.97 156.018C1145.96 156.858 1145.96 157.691 1146.11 158.523C1146.25 159.363 1146.52 160.17 1146.68 161.011C1147.01 162.807 1146.82 164.751 1146.78 166.571C1146.75 167.931 1146.77 169.265 1146.86 170.617C1146.94 171.836 1147.05 173.088 1146.81 174.299C1146.55 175.642 1145.66 175.906 1144.51 176.392C1143.91 176.647 1143.36 176.96 1142.87 177.413C1142.41 177.842 1142 178.418 1141.45 178.731C1140.3 179.366 1138.44 179.209 1137.17 179.234C1133.92 179.3 1130.72 178.929 1127.49 178.55C1120.01 177.677 1112.55 177.421 1105.02 177.421L1093.49 177.421C1091.69 177.421 1089.87 177.397 1088.07 177.479C1086.3 177.561 1084.52 177.702 1082.76 177.496C1079.17 177.084 1075.74 175.724 1072.25 174.843C1068.77 173.953 1065.18 173.319 1061.65 172.585C1059.85 172.207 1058.03 171.885 1056.2 171.655C1054.4 171.432 1052.66 171.457 1050.85 171.498C1049.04 171.539 1047.36 171.201 1045.58 170.963C1043.85 170.732 1042.14 170.724 1040.39 170.691C1036.73 170.641 1033.09 170.106 1029.42 169.966C1025.72 169.826 1022.01 169.933 1018.31 169.949C1016.72 169.949 1015.13 170.032 1013.54 170.073C1012.34 170.106 1011.07 170.048 1010.18 169.125C1008.13 166.983 1008.05 163.334 1008.27 160.557C1008.64 156.035 1013.57 154 1017.3 152.83C1019.52 152.138 1021.8 151.644 1024.08 151.1C1027.67 150.243 1031.25 149.329 1034.85 148.579C1038.42 147.837 1042.02 147.269 1045.67 147.088C1049.44 146.898 1053.25 147.022 1057.03 146.981C1060.78 146.939 1064.53 146.906 1068.29 146.997C1071.93 147.079 1075.5 147.78 1079.15 147.78C1082.95 147.78 1086.74 147.747 1090.54 147.78C1094.26 147.813 1097.92 147.434 1101.59 146.816C1105.21 146.198 1108.81 145.374 1112.44 144.822C1116.16 144.254 1119.93 144.081 1123.69 143.842C1125.53 143.726 1127.38 143.578 1129.22 143.38C1130.94 143.191 1132.65 143.306 1134.37 143.397C1136.15 143.488 1137.85 143.455 1139.6 143.117C1141.14 142.82 1142.73 142.721 1144.26 142.375C1145.34 142.128 1147.03 141.444 1147.38 140.25C1147.75 138.981 1146.83 137.647 1145.58 137.432C1145 137.334 1144.33 137.663 1144.29 138.339C1144.19 140.093 1144.66 141.815 1144.58 143.562C1144.56 144.114 1144.46 144.715 1143.97 145.036C1143.12 145.597 1141.66 145.349 1140.69 145.432C1137.62 145.712 1134.6 146.42 1131.53 146.725C1128.39 147.038 1125.2 147.071 1122.05 147.014C1115.63 146.915 1109.06 146.478 1102.77 145.193C1096.57 143.924 1090.33 142.87 1084.11 141.716C1071.47 139.36 1058.79 137.086 1045.9 136.963C1039.32 136.897 1032.74 137.235 1026.17 137.408C1022.94 137.498 1019.72 137.548 1016.5 137.49C1013.4 137.441 1010.2 137.441 1007.14 136.979C1004.2 136.543 1001.47 134.961 1000.54 131.995C999.688 129.276 1000.45 126.195 1001.91 123.823C1002.79 122.389 1003.94 121.129 1005.28 120.124C1006.85 118.954 1008.55 118.319 1010.39 117.718C1013.11 116.82 1015.7 115.601 1018.37 114.546C1019.65 114.035 1020.97 113.558 1022.3 113.187C1023.77 112.783 1025.26 112.61 1026.76 112.363C1029.79 111.869 1032.72 111.086 1035.81 110.987C1038.89 110.888 1041.97 111.127 1045.04 111.135C1051.65 111.152 1058.25 111.07 1064.85 111.135C1071.16 111.201 1077.37 112.412 1083.56 113.558C1086.6 114.118 1089.53 115.189 1092.58 115.617C1095.55 116.037 1098.53 116.49 1101.51 116.845C1107.71 117.57 1113.99 117.314 1120.19 116.729C1126.62 116.12 1133.04 115.362 1139.44 114.554C1142.67 114.151 1145.9 113.772 1149.11 113.22C1150.71 112.94 1152.31 112.635 1153.93 112.61C1155.48 112.585 1157.03 112.684 1158.58 112.676C1161.78 112.651 1164.86 111.926 1168 111.449C1169.52 111.218 1171.03 111.119 1172.56 111.135C1173.73 111.144 1174.89 111.053 1175.99 110.625C1177.24 110.139 1178.32 109.298 1179.66 109.109C1180.74 108.961 1181.89 108.903 1182.75 108.145C1183.44 107.544 1183.31 106.061 1182.28 105.871C1178.33 105.121 1174.31 104.99 1170.3 104.85C1166.08 104.71 1161.89 104.24 1157.68 103.853C1149.18 103.07 1140.64 103.441 1132.13 103.4C1127.79 103.383 1123.44 103.268 1119.11 103.531C1114.97 103.779 1111.01 104.619 1106.98 105.509C1102.9 106.407 1098.73 106.81 1094.61 107.502C1090.48 108.203 1086.35 108.944 1082.23 109.727C1077.86 110.559 1073.34 109.134 1068.96 108.853C1067.47 108.755 1067.76 111.259 1069.16 111.35C1070.96 111.465 1072.75 111.77 1074.53 111.984C1076.53 112.223 1078.62 112.602 1080.64 112.528C1082.11 112.478 1083.63 112.017 1085.08 111.737C1087.21 111.325 1089.34 110.954 1091.47 110.584C1095.59 109.875 1099.73 109.34 1103.84 108.672C1107.86 108.021 1111.78 106.802 1115.84 106.333C1120.02 105.846 1124.24 105.846 1128.44 105.879C1136.97 105.945 1145.53 105.55 1154.05 106.061C1158.8 106.341 1163.51 107.025 1168.27 107.272C1172.83 107.511 1177.41 107.453 1181.91 108.301C1181.76 107.544 1181.6 106.786 1181.44 106.028C1180.62 106.753 1179.31 106.547 1178.3 106.827C1176.93 107.206 1175.8 108.153 1174.41 108.499C1173.11 108.82 1171.72 108.598 1170.39 108.68C1168.8 108.779 1167.22 109.051 1165.65 109.331C1164.04 109.62 1162.41 109.941 1160.77 110.089C1159.17 110.237 1157.56 110.205 1155.95 110.163C1154.3 110.13 1152.7 110.13 1151.06 110.369C1149.41 110.608 1147.78 110.938 1146.13 111.168C1139.51 112.083 1132.87 112.874 1126.22 113.599C1119.71 114.307 1113.19 114.983 1106.63 114.76C1103.42 114.653 1100.3 114.184 1097.12 113.731C1095.62 113.516 1094.1 113.393 1092.6 113.162C1091.05 112.931 1089.61 112.478 1088.12 112.066C1084.99 111.21 1081.74 110.732 1078.56 110.172C1075.43 109.62 1072.28 109.134 1069.11 108.87C1065.8 108.59 1062.47 108.647 1059.16 108.647C1055.76 108.647 1052.35 108.647 1048.96 108.647C1045.72 108.647 1042.48 108.59 1039.24 108.507C1036.07 108.425 1033 108.582 1029.89 109.208C1026.9 109.809 1023.8 110.089 1020.87 110.979C1018.09 111.819 1015.45 113.055 1012.76 114.142C1010.51 115.057 1008.1 115.625 1005.94 116.762C1004.28 117.636 1002.81 118.814 1001.58 120.214C997.309 125.058 996.177 133.429 1002 137.564C1003.46 138.602 1005.23 139.187 1006.99 139.443C1010.11 139.887 1013.35 139.937 1016.5 139.995C1023.21 140.11 1029.91 139.78 1036.62 139.591C1043.31 139.401 1050 139.385 1056.68 139.978C1063.3 140.563 1069.87 141.626 1076.4 142.796C1082.98 143.974 1089.54 145.267 1096.12 146.371C1099.24 146.89 1102.31 147.714 1105.44 148.183C1108.67 148.67 1111.92 148.974 1115.17 149.205C1121.67 149.675 1128.33 149.839 1134.79 148.818C1136.34 148.571 1137.88 148.291 1139.44 148.093C1140.87 147.912 1142.36 147.969 1143.78 147.73C1145.65 147.409 1146.66 145.959 1146.77 144.114C1146.88 142.384 1146.38 140.678 1146.48 138.956C1146.06 139.261 1145.62 139.558 1145.19 139.863C1145.61 139.937 1145.19 139.352 1145.19 139.821C1145.28 139.533 1145.36 139.237 1145.44 138.948C1144.47 140.102 1142.81 140.052 1141.45 140.258C1139.8 140.505 1138.17 140.934 1136.48 140.975C1134.75 141.008 1133.03 140.81 1131.3 140.785C1129.51 140.769 1127.73 141.049 1125.95 141.189C1122.2 141.486 1118.44 141.601 1114.7 142.021C1111 142.433 1107.37 143.224 1103.73 143.908C1100.11 144.592 1096.46 145.185 1092.78 145.3C1088.95 145.415 1085.11 145.284 1081.28 145.3C1079.42 145.3 1077.56 145.366 1075.71 145.218C1073.95 145.078 1072.22 144.806 1070.46 144.649C1066.72 144.311 1062.89 144.451 1059.13 144.484C1055.31 144.517 1051.5 144.542 1047.68 144.559C1044.09 144.575 1040.52 145.012 1036.99 145.638C1033.35 146.28 1029.76 147.154 1026.18 148.027C1023.5 148.678 1020.8 149.254 1018.15 149.979C1014.04 151.092 1009.26 152.78 1007.05 156.718C1005.81 158.935 1005.86 161.637 1006.05 164.108C1006.26 166.901 1007.31 170.435 1009.93 171.885C1011.05 172.503 1012.33 172.635 1013.58 172.61C1015.16 172.577 1016.72 172.487 1018.29 172.487C1021.99 172.478 1025.71 172.371 1029.41 172.503C1033.13 172.635 1036.83 173.187 1040.56 173.236C1042.28 173.261 1043.98 173.253 1045.68 173.5C1047.42 173.755 1049.07 174.077 1050.84 174.044C1052.7 174.011 1054.52 173.961 1056.38 174.2C1058.2 174.431 1060.01 174.785 1061.81 175.172C1065.39 175.93 1069.05 176.556 1072.57 177.504C1076 178.426 1079.39 179.662 1082.94 180.049C1084.71 180.239 1086.49 180.115 1088.25 180.033C1090.05 179.951 1091.86 179.975 1093.67 179.975C1101.25 179.975 1108.86 179.786 1116.44 180.157C1120.2 180.338 1123.94 180.667 1127.67 181.104C1130.91 181.483 1134.1 181.854 1137.35 181.788C1138.81 181.755 1140.53 181.804 1141.92 181.31C1143.17 180.873 1143.74 179.728 1144.83 179.069C1145.96 178.385 1147.28 178.262 1148.13 177.133C1148.86 176.169 1149.07 174.892 1149.14 173.706C1149.21 172.437 1149.12 171.168 1149.03 169.9C1148.93 168.417 1148.99 166.934 1149.03 165.451C1149.06 163.688 1149.12 161.917 1148.74 160.187C1148.57 159.412 1148.31 158.646 1148.23 157.855C1148.13 156.883 1148.21 155.903 1148.21 154.931C1148.19 153.176 1147.78 151.438 1147.65 149.691C1147.52 147.961 1147.49 146.223 1147.49 144.493C1147.49 140.81 1147.4 137.111 1147.85 133.445C1148.07 131.633 1148.47 129.87 1148.98 128.123C1149.21 127.365 1149.39 126.591 1149.67 125.849C1149.95 125.075 1150.53 124.49 1150.86 123.74C1151.19 123.015 1151.17 122.282 1151.27 121.516C1151.36 120.667 1151.76 119.893 1152.18 119.168C1152.92 117.874 1153.74 116.392 1154.77 115.296C1156.92 113.014 1160.07 112.544 1162.95 111.852C1164.69 111.432 1166.37 111.185 1168.16 111.16C1169.89 111.144 1171.61 111.103 1173.31 110.699C1174.98 110.295 1176.48 109.718 1178.22 109.661C1179.96 109.595 1181.69 109.455 1183.41 109.199C1186.95 108.689 1190.28 107.609 1193.72 106.67C1195.34 106.225 1196.97 105.855 1198.66 105.822C1200.38 105.781 1202.09 105.962 1203.81 105.97C1205.31 105.978 1205.02 103.482 1203.61 103.474L1203.59 103.416Z" fill="#4D5139" fill-opacity="0.6"/>
</svg>
