<svg width="114" height="158" viewBox="0 0 114 158" fill="none" xmlns="http://www.w3.org/2000/svg">
<rect width="113.746" height="157.308" rx="56.8728" fill="#CBA794"/>
<path fill-rule="evenodd" clip-rule="evenodd" d="M46.2512 25.3729C42.3768 26.8601 40.9239 32.4628 43.0061 37.8869C45.0859 43.305 53.5659 47.2659 53.5659 47.2659C53.5659 47.2659 62.4708 43.305 64.5506 37.8869C66.6327 32.4628 65.1798 26.8601 61.3055 25.3729C58.8669 24.4368 56.0502 25.3542 53.7783 27.5153C53.7783 27.5153 48.6898 24.4368 46.2512 25.3729Z" stroke="#FFFCF5" stroke-width="1.5" stroke-linecap="round" stroke-linejoin="round"/>
<path d="M59.4634 94.3285C63.0257 96.4153 67.1731 97.6115 71.5998 97.6115C84.8798 97.6115 95.6454 86.8459 95.6454 73.5659C95.6454 60.2858 84.8798 49.5203 71.5998 49.5203C58.3198 49.5203 47.5542 60.2858 47.5542 73.5659C47.5542 78.4186 48.9917 82.9355 51.4641 86.7142" stroke="#FFFCF5" stroke-width="1.5" stroke-linecap="round" stroke-linejoin="round"/>
<path d="M49.3053 54.2519C46.6898 53.1406 43.8123 52.5259 40.7913 52.5259C28.7563 52.5259 19 62.2822 19 74.3172C19 86.3522 28.7563 96.1085 40.7913 96.1085C52.8263 96.1085 62.5826 86.3522 62.5826 74.3172C62.5826 69.3269 60.9052 64.7284 58.0834 61.0548" stroke="#FFFCF5" stroke-width="1.5" stroke-linecap="round" stroke-linejoin="round"/>
<path d="M37.1658 120.992L37.7418 120.368L39.0058 121.344C38.8938 121.472 38.6378 121.584 38.3338 121.648V126.752C38.3178 126.848 37.8058 127.088 37.4698 127.088H37.3258V120.992H37.1658ZM32.7978 126.944C32.7978 127.056 32.3978 127.296 31.9818 127.296H31.8058V120.512L32.8778 120.992H37.8218V121.472H32.7978V126.944ZM31.4538 113.488L32.6058 114.096H32.4138V115.04C32.4138 115.04 32.0938 115.04 31.4538 115.04V113.488ZM31.2298 119.584C31.9178 119.44 33.4858 119.04 35.0218 118.592L35.0858 118.816C34.3978 119.168 32.9898 119.872 31.5978 120.48L31.2298 119.584ZM32.1898 114.56L32.4138 114.688V119.84L31.5178 120L31.8698 119.664C32.0138 120.288 31.6458 120.64 31.4218 120.736L30.9258 119.664C31.3738 119.44 31.4538 119.344 31.4538 119.088V114.56H32.1898ZM35.5498 113.776C35.5498 116.064 36.3978 118.56 38.4778 119.424C38.7018 119.536 38.8298 119.504 38.9098 119.312C39.0538 119.04 39.2138 118.544 39.3578 118.064L39.5498 118.096L39.4378 119.712C39.7898 120.048 39.8538 120.208 39.7258 120.432C39.4858 120.832 38.7658 120.672 38.1578 120.368C35.5338 119.152 34.7338 116.608 34.5898 113.776H35.5498ZM38.8618 113.728C38.7018 113.856 38.4298 113.84 38.0778 113.68C36.4938 113.936 34.1098 114.176 32.0298 114.208L31.9818 113.92C33.9658 113.648 36.4458 113.072 37.7738 112.608L38.8618 113.728ZM38.4458 115.632C38.4458 115.632 39.1818 116.192 39.6298 116.64C39.5978 116.816 39.4378 116.896 39.2138 116.896H32.0778V116.416H37.8058L38.4458 115.632ZM37.9018 125.84V126.304H32.4138V125.84H37.9018ZM37.9018 123.44V123.92H32.4138V123.44H37.9018ZM31.0538 115.184C30.9898 115.456 30.7978 115.584 30.4298 115.6C30.2538 120.176 29.3418 124.752 25.2618 127.264L25.0698 127.088C28.5898 124.384 29.4218 119.664 29.4218 114.912L31.0538 115.184ZM24.9578 116.88C26.2218 116.88 28.8458 116.672 31.2778 116.4L31.3098 116.672C29.9498 117.04 28.1898 117.456 25.8378 117.84C25.7418 118.048 25.5818 118.144 25.4538 118.176L24.9578 116.88ZM25.8858 121.28C31.9978 123.776 31.1658 126.096 29.9818 125.44C29.1978 124.16 27.1018 122.48 25.6138 121.504L25.8858 121.28ZM25.6138 121.504C26.1738 119.456 27.0218 114.752 27.1978 112.64L28.8138 112.944C28.7498 113.168 28.6058 113.344 28.0458 113.328L28.2378 113.088C27.9498 115.088 27.1658 119.184 26.4458 121.728L25.6138 121.504ZM54.4778 124.544C54.3978 124.72 54.2058 124.832 53.8698 124.8C53.5018 125.296 52.8938 125.888 52.3498 126.384H51.9818C52.3658 125.728 52.8298 124.736 53.1018 124.016L54.4778 124.544ZM48.9738 124.128C51.3578 125.088 50.3178 126.672 49.4858 125.936C49.4218 125.376 49.0698 124.672 48.7818 124.224L48.9738 124.128ZM54.3818 123.152V123.616H48.4138V123.152H54.3818ZM47.9658 120.736L49.1018 121.232H53.8378L54.3178 120.656L55.4218 121.488C55.3258 121.616 55.1658 121.696 54.8778 121.744V123.856C54.8778 123.92 54.4938 124.128 54.0458 124.128H53.8698V121.696H48.9098V123.984C48.9098 124.048 48.6058 124.272 48.1098 124.272H47.9658V120.736ZM55.1658 125.216C55.1658 125.216 56.0138 125.872 56.5258 126.368C56.4778 126.544 56.3338 126.624 56.1098 126.624H46.2378L46.1098 126.16H54.4618L55.1658 125.216ZM55.1978 119.024C55.1978 119.024 55.9178 119.568 56.3818 120.016C56.3498 120.192 56.1898 120.272 55.9818 120.272H46.8618L46.7338 119.792H54.5578L55.1978 119.024ZM53.3578 112.704C53.3258 112.912 53.1818 113.04 52.8458 113.088V118.448H52.0138V112.56L53.3578 112.704ZM51.1658 112.704C51.1338 112.896 50.9898 113.04 50.6698 113.088V118.448H49.8378V112.56L51.1658 112.704ZM54.6218 118.224V118.704H48.0298V118.224H54.6218ZM47.5978 113.728L48.7338 114.224H54.2538L54.7498 113.632L55.8698 114.496C55.7738 114.608 55.6138 114.704 55.2938 114.752V118.832C55.2938 118.912 54.9098 119.12 54.4778 119.12H54.3178V114.688H48.5418V119.008C48.5418 119.072 48.2378 119.312 47.7418 119.312H47.5978V113.728ZM54.6378 116.208V116.672H48.0298V116.208H54.6378ZM43.4538 112.56C46.5258 113.632 45.5498 115.648 44.5578 114.88C44.4138 114.144 43.8058 113.216 43.2778 112.672L43.4538 112.56ZM45.0538 126.864C45.0538 126.976 44.6858 127.28 44.2058 127.28H44.0618V119.504L45.0538 118.624V126.864ZM44.7178 119.136C47.8218 120.224 47.1498 122.144 46.2218 121.504C45.9978 120.768 45.1978 119.824 44.5578 119.264L44.7178 119.136ZM45.2458 115.76L45.9338 115.104L47.1018 116.24C46.9578 116.352 46.7658 116.368 46.3978 116.4C45.5818 118.48 43.8058 120.96 41.9018 122.496L41.7098 122.32C43.2938 120.592 44.8778 117.792 45.4378 115.76H45.2458ZM45.9818 115.76V116.224H42.0138L41.8698 115.76H45.9818ZM69.9978 112.816C69.9658 113.008 69.8378 113.152 69.5018 113.184V116.816C69.5018 116.928 69.0538 117.152 68.6698 117.152H68.4618V112.656L69.9978 112.816ZM63.1178 112.816C63.1018 113.008 62.9578 113.152 62.6218 113.184V116.816C62.6218 116.928 62.1738 117.152 61.7898 117.152H61.5818V112.656L63.1178 112.816ZM70.8778 119.584C70.8778 119.584 71.7258 120.272 72.2538 120.784C72.2218 120.96 72.0618 121.04 71.8378 121.04H66.4618L66.3338 120.56H70.1098L70.8778 119.584ZM64.5098 117.584C64.4298 117.76 64.2058 117.872 63.8698 117.808C62.4458 120.144 60.4618 121.856 58.4298 122.832L58.2538 122.624C59.9818 121.456 61.8538 119.344 63.0058 116.848L64.5098 117.584ZM63.0378 120.256C62.9738 120.4 62.8298 120.496 62.5418 120.528V126.96C62.5258 127.04 62.0778 127.248 61.6778 127.248H61.4858V120.016L61.6938 119.744L63.0378 120.256ZM67.5018 117.216C67.4698 117.424 67.3258 117.584 66.9738 117.616V125.376C66.9738 125.712 67.0858 125.824 67.8058 125.824H69.5818C70.3978 125.824 71.0058 125.808 71.2618 125.792C71.4538 125.776 71.5498 125.728 71.6138 125.568C71.7578 125.296 71.9498 124.272 72.1418 123.2H72.3498L72.3978 125.664C72.7818 125.792 72.8778 125.904 72.8778 126.112C72.8778 126.624 72.3018 126.816 69.5498 126.816H67.6458C66.2858 126.816 65.9338 126.528 65.9338 125.6V117.04L67.5018 117.216ZM71.8538 113.648C71.8538 113.648 72.6858 114.304 73.1818 114.8C73.1498 114.976 72.9898 115.056 72.7658 115.056H66.1738L66.0458 114.576H71.1498L71.8538 113.648ZM64.4618 113.648C64.4618 113.648 65.2938 114.304 65.7738 114.8C65.7418 114.976 65.5818 115.056 65.3738 115.056H58.4778L58.3498 114.576H63.7418L64.4618 113.648ZM77.7418 120.752H86.9098V121.216H77.7418V120.752ZM75.2138 114.832H87.2618L88.0618 113.84C88.0618 113.84 88.9738 114.544 89.5498 115.056C89.5018 115.232 89.3418 115.312 89.1178 115.312H75.3578L75.2138 114.832ZM81.7738 112.592L83.4058 112.768C83.3578 112.992 83.2458 113.152 82.8298 113.216V126.832C82.8298 126.992 82.3818 127.264 81.9818 127.264H81.7738V112.592ZM77.2458 117.152V116.64L78.3818 117.152H86.9578V117.632H78.3018V121.728C78.3018 121.824 77.8378 122.08 77.4058 122.08H77.2458V117.152ZM86.4138 117.152H86.2698L86.8458 116.512L88.1578 117.504C88.0458 117.632 87.7898 117.776 87.4698 117.84V121.616C87.4538 121.712 86.9258 121.968 86.5738 121.968H86.4138V117.152ZM81.3258 120.784H82.5258V121.04C80.9898 123.504 78.3338 125.504 75.1018 126.784L74.9418 126.512C77.6938 125.152 80.0298 122.992 81.3258 120.784ZM82.9578 120.784C84.3658 122.912 87.2938 124.784 89.7738 125.584L89.7418 125.76C89.2938 125.808 88.9258 126.144 88.7658 126.624C86.4138 125.52 84.0138 123.472 82.7018 120.944L82.9578 120.784Z" fill="#FFFCF5"/>
</svg>
