<svg width="114" height="158" viewBox="0 0 114 158" fill="none" xmlns="http://www.w3.org/2000/svg">
<rect width="113.746" height="157.308" rx="56.8728" fill="#D6D8C9"/>
<path d="M37.6055 65.3577H73.917V72.9603H37.6055V65.3577Z" stroke="#FFFCF5" stroke-width="1.5" stroke-linecap="round" stroke-linejoin="round"/>
<path d="M42.7715 77.0586L45.7213 95.1915H65.801L68.7507 77.0586" stroke="#FFFCF5" stroke-width="1.5" stroke-linecap="round" stroke-linejoin="round"/>
<path d="M59.6982 61.3539C59.5649 60.6708 59.2728 60.0286 58.8454 59.4793C58.4181 58.93 57.8675 58.4889 57.2381 58.1917C57.7041 57.8028 58.0389 57.2798 58.1972 56.6939C58.3554 56.108 58.3293 55.4875 58.1225 54.9169C57.9157 54.3463 57.5381 53.8533 57.0412 53.5049C56.5443 53.1564 55.9521 52.9695 55.3452 52.9695C54.7382 52.9695 54.146 53.1564 53.6491 53.5049C53.1522 53.8533 52.7746 54.3463 52.5678 54.9169C52.361 55.4875 52.3349 56.108 52.4931 56.6939C52.6514 57.2798 52.9862 57.8028 53.4522 58.1917C52.8205 58.49 52.2683 58.9333 51.8403 59.4853C51.4123 60.0374 51.1207 60.6827 50.9893 61.3688" stroke="#FFFCF5" stroke-width="1.5" stroke-linecap="round" stroke-linejoin="round"/>
<path d="M65.2355 53.2116C68.8587 53.7107 72.4488 54.4266 75.9864 55.3556C75.4667 53.5443 74.4328 51.9226 73.01 50.6871C71.5873 49.4515 69.8367 48.6551 67.9705 48.3943C61.3256 47.3396 55.3774 52.993 55.3774 52.993" stroke="#FFFCF5" stroke-width="1.5" stroke-linecap="round" stroke-linejoin="round"/>
<path d="M55.4456 52.6781C55.4456 52.6781 55.1092 36.2985 42.7503 30.5109C40.4832 29.6234 38.0474 29.2496 35.6185 29.4164C33.1895 29.5832 30.8277 30.2864 28.7031 31.4755C34.6183 34.9517 40.3462 38.7372 45.863 42.8162" stroke="#FFFCF5" stroke-width="1.5" stroke-linecap="round" stroke-linejoin="round"/>
<path d="M55.3524 52.9868C55.3524 52.9868 46.5498 44.1468 36.3882 48.222C36.3882 48.222 31.0395 50.6211 30.9673 56.2621C36.1674 54.8818 41.4518 53.8411 46.787 53.1465" stroke="#FFFCF5" stroke-width="1.5" stroke-linecap="round" stroke-linejoin="round"/>
<path d="M55.377 51.1644C60.4964 41.6798 84.2531 39.4898 84.2531 39.4898C84.2531 39.4898 79.5162 31.9271 69.546 35.3679" stroke="#FFFCF5" stroke-width="1.5" stroke-linecap="round" stroke-linejoin="round"/>
<path d="M55.6833 50.3516C55.2342 38.3262 76.5294 24.1149 76.5294 24.1149C73.8564 22.689 70.7686 22.2434 67.8015 22.8554C64.8343 23.4673 62.1748 25.0981 60.284 27.4652C58.4883 29.5419 57.1601 31.9804 56.3895 34.6154" stroke="#FFFCF5" stroke-width="1.5" stroke-linecap="round" stroke-linejoin="round"/>
<path d="M25.9751 113.36V112.944L27.2231 113.52H27.0311V117.232C27.0311 120.224 26.8391 124.384 24.2311 127.312L23.9911 127.152C25.7671 124.176 25.9751 120.528 25.9751 117.232V113.36ZM35.8791 113.52L36.4711 112.88L37.7671 113.888C37.6711 114.016 37.3991 114.128 37.0791 114.192V117.456C37.0631 117.552 36.5511 117.792 36.1991 117.792H36.0391V113.52H35.8791ZM36.5991 116.448V116.912H26.5031V116.448H36.5991ZM36.5831 113.52V114H26.5031V113.52H36.5831ZM37.1911 118.336C37.1911 118.336 38.0711 119.04 38.6151 119.552C38.5671 119.728 38.4071 119.808 38.1831 119.808H27.1751L27.0471 119.328H36.4231L37.1911 118.336ZM35.5431 121.952L36.1351 121.296L37.4151 122.288C37.3191 122.416 37.0471 122.544 36.7271 122.608V126.736C36.7111 126.848 36.2151 127.088 35.8631 127.088H35.7031V121.952H35.5431ZM29.2071 126.88C29.2071 126.976 28.7751 127.216 28.3431 127.216H28.1831V121.44L29.2871 121.952H36.2631V122.416H29.2071V126.88ZM36.3111 125.776V126.256H28.6791V125.776H36.3111ZM33.6071 117.376C33.5751 117.584 33.4311 117.728 33.0791 117.776V122.224H32.0391V117.216L33.6071 117.376ZM46.8551 112.528C49.8791 112.96 49.0631 115.168 47.9591 114.464C47.8311 113.824 47.2551 113.056 46.6951 112.672L46.8551 112.528ZM53.3351 114.688L54.0071 114.016L55.2231 115.2C55.1111 115.296 54.9351 115.328 54.6311 115.344C54.2791 115.824 53.6551 116.464 53.1591 116.864L52.9511 116.736C53.1431 116.192 53.4151 115.232 53.5111 114.688H53.3351ZM42.6151 113.952C43.1111 115.632 42.5671 116.704 41.9431 117.12C41.5431 117.392 40.9831 117.408 40.8071 117.04C40.6631 116.688 40.8711 116.4 41.2071 116.192C41.8471 115.856 42.4071 114.976 42.3431 113.952H42.6151ZM54.0231 114.688V115.168H42.4071V114.688H54.0231ZM54.0551 119.136C53.9271 119.28 53.7831 119.312 53.4631 119.2C52.2951 119.936 50.1991 120.848 48.3751 121.392L48.2151 121.168C49.8151 120.384 51.7671 119.088 52.7431 118.16L54.0551 119.136ZM49.7351 120.384C50.6311 122.768 52.8391 124.4 55.3511 125.184L55.3191 125.36C54.8711 125.408 54.5351 125.728 54.3751 126.256C52.0071 125.12 50.2631 123.264 49.4471 120.528L49.7351 120.384ZM48.7751 122.384C47.0151 124.144 43.9911 125.744 41.0631 126.544L40.9351 126.272C43.6711 125.28 46.5831 123.376 48.0711 121.312L48.7751 122.384ZM47.8471 120.416C46.2791 121.664 43.7031 122.976 41.3831 123.696L41.2711 123.424C43.4151 122.544 45.8631 120.944 47.1431 119.44L47.8471 120.416ZM46.2791 118.464C49.7351 120.864 49.8791 125.376 48.6311 126.72C48.2951 127.088 47.7511 127.28 46.8391 127.28C46.8231 126.944 46.7111 126.736 46.5031 126.592C46.3111 126.448 45.7191 126.288 45.1591 126.192L45.1431 125.936C45.7831 125.984 46.9511 126.048 47.3351 126.048C47.5431 126.048 47.6871 126.032 47.7671 125.904C48.6631 124.864 48.5351 121.024 46.0871 118.624L46.2791 118.464ZM48.5671 117.248C46.9511 118.864 44.3271 120.144 41.6231 120.928L41.4631 120.672C43.7351 119.76 45.9271 118.368 47.2871 116.992H48.5671V117.248ZM51.8951 116.096C51.8951 116.096 52.7111 116.72 53.2231 117.2C53.1911 117.376 53.0311 117.456 52.8071 117.456H43.0631L42.9351 116.992H51.1591L51.8951 116.096ZM62.3751 122.64V123.68H61.3511V123.056L62.3751 122.64ZM63.4791 119.184C66.2471 119.712 65.3671 121.616 64.3751 120.944C64.2311 120.4 63.7191 119.696 63.3191 119.312L63.4791 119.184ZM61.0951 126.208C61.8151 126.032 63.5751 125.488 65.3191 124.896L65.3991 125.12C64.5831 125.568 63.0151 126.448 61.4151 127.248L61.0951 126.208ZM62.1351 123.232L62.3751 123.376V126.064L61.3031 126.528L61.5911 126.096C61.9111 126.72 61.6071 127.184 61.3991 127.312L60.6311 126.32C61.2391 125.92 61.3511 125.792 61.3511 125.584V123.232H62.1351ZM70.5191 122.688C70.3911 122.848 70.2631 122.896 69.9271 122.8C69.1751 123.296 67.8791 123.92 66.7431 124.336L66.5671 124.128C67.4951 123.504 68.6311 122.48 69.1911 121.84L70.5191 122.688ZM64.6631 121.104C65.8151 123.808 68.6471 125.36 71.9751 126.032L71.9431 126.192C71.4791 126.288 71.1591 126.608 71.0151 127.12C67.8151 126.128 65.4791 124.352 64.3911 121.264L64.6631 121.104ZM64.9191 121.36C63.2551 123.168 60.5031 124.432 57.3991 125.168L57.2711 124.896C59.8951 124.032 62.1991 122.672 63.5911 121.104H64.9191V121.36ZM70.5991 119.984C70.5991 119.984 71.4471 120.64 71.9751 121.136C71.9271 121.312 71.7671 121.392 71.5591 121.392H57.4791L57.3351 120.928H69.8471L70.5991 119.984ZM59.8631 113.392L60.0871 113.536V115.632H60.2311L59.7991 116.176L58.5511 115.408C58.7271 115.248 59.1111 115.04 59.3671 114.96L59.1431 115.536V113.392H59.8631ZM60.6631 113.04C60.6311 113.28 60.4551 113.408 60.0871 113.472V114.096H59.1431V112.864L60.6631 113.04ZM60.4711 117.152C60.3751 118.4 60.0711 119.664 58.0871 120.512L57.8791 120.256C59.2551 119.312 59.3831 118.224 59.4311 117.152H60.4711ZM63.2071 116.992V117.456H58.0551L57.9111 116.992H63.2071ZM68.6791 112.8C68.6471 113.024 68.4871 113.168 68.0871 113.232V118.864H67.0471V112.624L68.6791 112.8ZM64.2791 112.832C64.2471 113.056 64.1031 113.2 63.6871 113.264V119.632C63.6871 119.76 63.2711 119.984 62.8711 119.984H62.6791V112.656L64.2791 112.832ZM63.1911 115.152V115.632H59.5111V115.152H63.1911ZM70.0231 117.696C70.0231 117.696 70.8551 118.336 71.3831 118.816C71.3351 118.992 71.1751 119.072 70.9511 119.072H64.6311L64.5031 118.592H69.2711L70.0231 117.696ZM70.4231 114.192C70.4231 114.192 71.2711 114.848 71.7991 115.328C71.7671 115.504 71.6071 115.584 71.3671 115.584H64.2151L64.0871 115.12H69.6871L70.4231 114.192ZM78.4391 115.392C78.4391 115.392 79.1431 115.92 79.5591 116.352C79.5111 116.528 79.3671 116.608 79.1751 116.608H75.7671L75.6391 116.144H77.8471L78.4391 115.392ZM78.1991 122.816C81.2871 124.656 80.3751 126.816 79.4311 125.984C79.3191 125.008 78.5831 123.728 77.9911 122.928L78.1991 122.816ZM75.9911 118.256V118.448H75.0151V117.344L76.0711 117.824H79.5591V118.256H75.9911ZM74.7111 125.792C75.5111 125.552 77.3831 124.848 79.2711 124.128L79.3511 124.352C78.4711 124.848 76.8391 125.84 75.1431 126.784L74.7111 125.792ZM75.7511 118.16L75.9911 118.288V125.856L75.1271 126.176L75.4951 125.792C75.6711 126.48 75.3031 126.88 75.0791 126.992L74.5031 125.824C74.9351 125.584 75.0151 125.488 75.0151 125.2V118.16H75.7511ZM79.3671 121.568V122.032H75.5111V121.568H79.3671ZM79.3831 119.616V120.096H75.5111V119.616H79.3831ZM78.7431 117.824L79.2711 117.264L80.3911 118.128C80.3111 118.24 80.1031 118.352 79.8631 118.384V122.144C79.8471 122.272 79.3671 122.528 79.0311 122.528H78.8711V117.824H78.7431ZM77.5911 113.28C81.8631 114.768 80.6311 116.928 79.7031 116.208C79.3671 115.376 78.5191 114.224 77.3351 113.344L77.5911 113.28ZM77.7831 113.264C77.0471 114.912 75.6551 117.024 74.0391 118.304L73.8471 118.16C75.0631 116.72 76.2471 114.16 76.6951 112.496L78.3911 112.96C78.3431 113.136 78.1831 113.248 77.7831 113.264ZM85.0151 126.848C85.0151 126.96 84.6631 127.248 84.1991 127.248H84.0391V115.312H85.0151V126.848ZM87.3831 114.16C87.3831 114.16 88.2471 114.848 88.7751 115.36C88.7431 115.536 88.5831 115.616 88.3591 115.616H82.1031V115.152H86.5991L87.3831 114.16ZM83.8151 113.024C83.7511 113.216 83.5751 113.36 83.2231 113.36C82.6471 115.296 81.7031 116.96 80.5191 118.032L80.2791 117.856C81.1591 116.592 81.8951 114.656 82.2471 112.608L83.8151 113.024ZM86.7111 117.968L87.2071 117.36L88.4551 118.288C88.3591 118.416 88.1191 118.528 87.8311 118.576V123.936C87.8311 124.736 87.7031 125.216 86.5351 125.344C86.5191 125.04 86.4551 124.784 86.3271 124.608C86.1671 124.448 85.9111 124.336 85.4631 124.272V124C85.4631 124 86.3591 124.08 86.5991 124.08C86.8071 124.08 86.8551 124 86.8551 123.808V117.968H86.7111ZM87.3831 117.968V118.432H81.7191V117.968H87.3831ZM82.0871 125.184C82.0871 125.28 81.7671 125.536 81.3031 125.536H81.1591V117.536L81.1751 117.488L82.2951 117.968H82.0871V125.184Z" fill="#FFFCF5"/>
</svg>
