<svg width="114" height="158" viewBox="0 0 114 158" fill="none" xmlns="http://www.w3.org/2000/svg">
<rect width="113.746" height="157.308" rx="56.8728" fill="#D6D8C9"/>
<path fill-rule="evenodd" clip-rule="evenodd" d="M46.2512 25.3729C42.3768 26.8601 40.9239 32.4628 43.0061 37.8869C45.0859 43.305 53.5659 47.2659 53.5659 47.2659C53.5659 47.2659 62.4708 43.305 64.5506 37.8869C66.6327 32.4628 65.1798 26.8601 61.3055 25.3729C58.8669 24.4368 56.0502 25.3542 53.7783 27.5153C53.7783 27.5153 48.6898 24.4368 46.2512 25.3729Z" stroke="#445251" stroke-width="1.5" stroke-linecap="round" stroke-linejoin="round"/>
<path d="M59.4634 94.3285C63.0257 96.4153 67.1731 97.6115 71.5998 97.6115C84.8798 97.6115 95.6454 86.8459 95.6454 73.5659C95.6454 60.2858 84.8798 49.5203 71.5998 49.5203C58.3198 49.5203 47.5542 60.2858 47.5542 73.5659C47.5542 78.4186 48.9917 82.9355 51.4641 86.7142" stroke="#445251" stroke-width="1.5" stroke-linecap="round" stroke-linejoin="round"/>
<path d="M49.3053 54.2519C46.6898 53.1406 43.8123 52.5259 40.7913 52.5259C28.7563 52.5259 19 62.2822 19 74.3172C19 86.3522 28.7563 96.1085 40.7913 96.1085C52.8263 96.1085 62.5826 86.3522 62.5826 74.3172C62.5826 69.3269 60.9052 64.7284 58.0834 61.0548" stroke="#445251" stroke-width="1.5" stroke-linecap="round" stroke-linejoin="round"/>
<path d="M37.1658 120.992H37.3258V127.088H37.4698C37.8058 127.088 38.3178 126.848 38.3338 126.752V121.648C38.6378 121.584 38.8938 121.472 39.0058 121.344L37.7418 120.368L37.1658 120.992ZM32.7978 126.944V121.472H37.8218V120.992H32.8778L31.8058 120.512V127.296H31.9818C32.3978 127.296 32.7978 127.056 32.7978 126.944ZM31.4538 113.488V115.04C32.0938 115.04 32.4138 115.04 32.4138 115.04V114.096H32.6058L31.4538 113.488ZM31.2298 119.584L31.5978 120.48C32.9898 119.872 34.3978 119.168 35.0858 118.816L35.0218 118.592C33.4858 119.04 31.9178 119.44 31.2298 119.584ZM32.1898 114.56H31.4538V119.088C31.4538 119.344 31.3738 119.44 30.9258 119.664L31.4218 120.736C31.6458 120.64 32.0138 120.288 31.8698 119.664L31.5178 120L32.4138 119.84V114.688L32.1898 114.56ZM35.5498 113.776H34.5898C34.7338 116.608 35.5338 119.152 38.1578 120.368C38.7658 120.672 39.4858 120.832 39.7258 120.432C39.8538 120.208 39.7898 120.048 39.4378 119.712L39.5498 118.096L39.3578 118.064C39.2138 118.544 39.0538 119.04 38.9098 119.312C38.8298 119.504 38.7018 119.536 38.4778 119.424C36.3978 118.56 35.5498 116.064 35.5498 113.776ZM38.8618 113.728L37.7738 112.608C36.4458 113.072 33.9658 113.648 31.9818 113.92L32.0298 114.208C34.1098 114.176 36.4938 113.936 38.0778 113.68C38.4298 113.84 38.7018 113.856 38.8618 113.728ZM38.4458 115.632L37.8058 116.416H32.0778V116.896H39.2138C39.4378 116.896 39.5978 116.816 39.6298 116.64C39.1818 116.192 38.4458 115.632 38.4458 115.632ZM37.9018 125.84H32.4138V126.304H37.9018V125.84ZM37.9018 123.44H32.4138V123.92H37.9018V123.44ZM31.0538 115.184L29.4218 114.912C29.4218 119.664 28.5898 124.384 25.0698 127.088L25.2618 127.264C29.3418 124.752 30.2538 120.176 30.4298 115.6C30.7978 115.584 30.9898 115.456 31.0538 115.184ZM24.9578 116.88L25.4538 118.176C25.5818 118.144 25.7418 118.048 25.8378 117.84C28.1898 117.456 29.9498 117.04 31.3098 116.672L31.2778 116.4C28.8458 116.672 26.2218 116.88 24.9578 116.88ZM25.8858 121.28L25.6138 121.504C27.1018 122.48 29.1978 124.16 29.9818 125.44C31.1658 126.096 31.9978 123.776 25.8858 121.28ZM25.6138 121.504L26.4458 121.728C27.1658 119.184 27.9498 115.088 28.2378 113.088L28.0458 113.328C28.6058 113.344 28.7498 113.168 28.8138 112.944L27.1978 112.64C27.0218 114.752 26.1738 119.456 25.6138 121.504ZM54.4778 124.544L53.1018 124.016C52.8298 124.736 52.3658 125.728 51.9818 126.384H52.3498C52.8938 125.888 53.5018 125.296 53.8698 124.8C54.2058 124.832 54.3978 124.72 54.4778 124.544ZM48.9738 124.128L48.7818 124.224C49.0698 124.672 49.4218 125.376 49.4858 125.936C50.3178 126.672 51.3578 125.088 48.9738 124.128ZM54.3818 123.152H48.4138V123.616H54.3818V123.152ZM47.9658 120.736V124.272H48.1098C48.6058 124.272 48.9098 124.048 48.9098 123.984V121.696H53.8698V124.128H54.0458C54.4938 124.128 54.8778 123.92 54.8778 123.856V121.744C55.1658 121.696 55.3258 121.616 55.4218 121.488L54.3178 120.656L53.8378 121.232H49.1018L47.9658 120.736ZM55.1658 125.216L54.4618 126.16H46.1098L46.2378 126.624H56.1098C56.3338 126.624 56.4778 126.544 56.5258 126.368C56.0138 125.872 55.1658 125.216 55.1658 125.216ZM55.1978 119.024L54.5578 119.792H46.7338L46.8618 120.272H55.9818C56.1898 120.272 56.3498 120.192 56.3818 120.016C55.9178 119.568 55.1978 119.024 55.1978 119.024ZM53.3578 112.704L52.0138 112.56V118.448H52.8458V113.088C53.1818 113.04 53.3258 112.912 53.3578 112.704ZM51.1658 112.704L49.8378 112.56V118.448H50.6698V113.088C50.9898 113.04 51.1338 112.896 51.1658 112.704ZM54.6218 118.224H48.0298V118.704H54.6218V118.224ZM47.5978 113.728V119.312H47.7418C48.2378 119.312 48.5418 119.072 48.5418 119.008V114.688H54.3178V119.12H54.4778C54.9098 119.12 55.2938 118.912 55.2938 118.832V114.752C55.6138 114.704 55.7738 114.608 55.8698 114.496L54.7498 113.632L54.2538 114.224H48.7338L47.5978 113.728ZM54.6378 116.208H48.0298V116.672H54.6378V116.208ZM43.4538 112.56L43.2778 112.672C43.8058 113.216 44.4138 114.144 44.5578 114.88C45.5498 115.648 46.5258 113.632 43.4538 112.56ZM45.0538 126.864V118.624L44.0618 119.504V127.28H44.2058C44.6858 127.28 45.0538 126.976 45.0538 126.864ZM44.7178 119.136L44.5578 119.264C45.1978 119.824 45.9978 120.768 46.2218 121.504C47.1498 122.144 47.8218 120.224 44.7178 119.136ZM45.2458 115.76H45.4378C44.8778 117.792 43.2938 120.592 41.7098 122.32L41.9018 122.496C43.8058 120.96 45.5818 118.48 46.3978 116.4C46.7658 116.368 46.9578 116.352 47.1018 116.24L45.9338 115.104L45.2458 115.76ZM45.9818 115.76H41.8698L42.0138 116.224H45.9818V115.76ZM69.9978 112.816L68.4618 112.656V117.152H68.6698C69.0538 117.152 69.5018 116.928 69.5018 116.816V113.184C69.8378 113.152 69.9658 113.008 69.9978 112.816ZM63.1178 112.816L61.5818 112.656V117.152H61.7898C62.1738 117.152 62.6218 116.928 62.6218 116.816V113.184C62.9578 113.152 63.1018 113.008 63.1178 112.816ZM70.8778 119.584L70.1098 120.56H66.3338L66.4618 121.04H71.8378C72.0618 121.04 72.2218 120.96 72.2538 120.784C71.7258 120.272 70.8778 119.584 70.8778 119.584ZM64.5098 117.584L63.0058 116.848C61.8538 119.344 59.9818 121.456 58.2538 122.624L58.4298 122.832C60.4618 121.856 62.4458 120.144 63.8698 117.808C64.2058 117.872 64.4298 117.76 64.5098 117.584ZM63.0378 120.256L61.6938 119.744L61.4858 120.016V127.248H61.6778C62.0778 127.248 62.5258 127.04 62.5418 126.96V120.528C62.8298 120.496 62.9738 120.4 63.0378 120.256ZM67.5018 117.216L65.9338 117.04V125.6C65.9338 126.528 66.2858 126.816 67.6458 126.816H69.5498C72.3018 126.816 72.8778 126.624 72.8778 126.112C72.8778 125.904 72.7818 125.792 72.3978 125.664L72.3498 123.2H72.1418C71.9498 124.272 71.7578 125.296 71.6138 125.568C71.5498 125.728 71.4538 125.776 71.2618 125.792C71.0058 125.808 70.3978 125.824 69.5818 125.824H67.8058C67.0858 125.824 66.9738 125.712 66.9738 125.376V117.616C67.3258 117.584 67.4698 117.424 67.5018 117.216ZM71.8538 113.648L71.1498 114.576H66.0458L66.1738 115.056H72.7658C72.9898 115.056 73.1498 114.976 73.1818 114.8C72.6858 114.304 71.8538 113.648 71.8538 113.648ZM64.4618 113.648L63.7418 114.576H58.3498L58.4778 115.056H65.3738C65.5818 115.056 65.7418 114.976 65.7738 114.8C65.2938 114.304 64.4618 113.648 64.4618 113.648ZM77.7418 120.752V121.216H86.9098V120.752H77.7418ZM75.2138 114.832L75.3578 115.312H89.1178C89.3418 115.312 89.5018 115.232 89.5498 115.056C88.9738 114.544 88.0618 113.84 88.0618 113.84L87.2618 114.832H75.2138ZM81.7738 112.592V127.264H81.9818C82.3818 127.264 82.8298 126.992 82.8298 126.832V113.216C83.2458 113.152 83.3578 112.992 83.4058 112.768L81.7738 112.592ZM77.2458 117.152V122.08H77.4058C77.8378 122.08 78.3018 121.824 78.3018 121.728V117.632H86.9578V117.152H78.3818L77.2458 116.64V117.152ZM86.4138 117.152V121.968H86.5738C86.9258 121.968 87.4538 121.712 87.4698 121.616V117.84C87.7898 117.776 88.0458 117.632 88.1578 117.504L86.8458 116.512L86.2698 117.152H86.4138ZM81.3258 120.784C80.0298 122.992 77.6938 125.152 74.9418 126.512L75.1018 126.784C78.3338 125.504 80.9898 123.504 82.5258 121.04V120.784H81.3258ZM82.9578 120.784L82.7018 120.944C84.0138 123.472 86.4138 125.52 88.7658 126.624C88.9258 126.144 89.2938 125.808 89.7418 125.76L89.7738 125.584C87.2938 124.784 84.3658 122.912 82.9578 120.784Z" fill="#4D5139"/>
</svg>
