<svg width="114" height="158" viewBox="0 0 114 158" fill="none" xmlns="http://www.w3.org/2000/svg">
<rect width="113.746" height="157.308" rx="56.8728" fill="#D6D8C9"/>
<path d="M77.7619 53.5339C77.1037 54.4775 75.8915 55.0512 74.7583 55.3968C73.256 55.8551 71.655 55.9871 70.103 55.7455C67.3261 55.3134 64.8409 54.0005 62.9417 52.1013C61.1559 50.3155 59.8885 48.0116 59.3843 45.4343" stroke="#445251" stroke-width="1.5" stroke-miterlimit="10" stroke-linecap="round" stroke-linejoin="round"/>
<path d="M63.0991 42.2736C63.0991 39.849 65.556 37.8835 68.5868 37.8835C71.6176 37.8835 74.0744 39.849 74.0744 42.2736" stroke="#445251" stroke-width="1.5" stroke-miterlimit="10" stroke-linecap="round" stroke-linejoin="round"/>
<path d="M77.0822 45.4906C77.0822 47.2161 75.3338 48.6148 73.1769 48.6148C72.0579 48.6148 71.0054 48.1092 70.2067 47.3764C68.969 46.2406 68.5623 44.3759 69.2637 42.8495C69.3657 42.6276 69.4891 42.4274 69.6383 42.2737" stroke="#445251" stroke-width="1.5" stroke-miterlimit="10" stroke-linecap="round" stroke-linejoin="round"/>
<path d="M82.876 31.9878C84.3313 31.0607 86.4505 31.784 87.6093 33.6032C88.7681 35.4224 88.5276 37.6486 87.0722 38.5757" stroke="#445251" stroke-width="1.5" stroke-miterlimit="10" stroke-linecap="round" stroke-linejoin="round"/>
<path d="M84.1943 61.7478C85.9318 64.88 84.8011 68.8277 81.6689 70.5652C78.5368 72.3026 74.589 71.1719 72.8516 68.0397" stroke="#445251" stroke-width="1.5" stroke-miterlimit="10" stroke-linecap="round" stroke-linejoin="round"/>
<path d="M60.3643 32.42C57.0154 31.1494 51.5675 34.25 50.6841 37.8835C49.8379 41.3639 52.0227 47.1202 55.3716 48.3908" stroke="#445251" stroke-width="1.5" stroke-miterlimit="10" stroke-linecap="round" stroke-linejoin="round"/>
<path d="M79.2473 39.3186C87.2975 40.2509 88.7545 48.9224 87.872 52.3594C86.5611 57.4651 79.8604 60.3879 75.8022 59.3317" stroke="#445251" stroke-width="1.5" stroke-miterlimit="10" stroke-linecap="round" stroke-linejoin="round"/>
<path d="M79.2472 39.3186C81.1522 34.1042 78.4696 28.3328 73.2551 26.4278C68.0406 24.5228 62.2692 27.2055 60.3643 32.4199" stroke="#445251" stroke-width="1.5" stroke-miterlimit="10" stroke-linecap="round" stroke-linejoin="round"/>
<path d="M55.3719 48.3909C52.3507 54.0327 54.4749 61.0555 60.1167 64.0767C65.7585 67.098 72.7813 64.9738 75.8025 59.332" stroke="#445251" stroke-width="1.5" stroke-miterlimit="10" stroke-linecap="round" stroke-linejoin="round"/>
<path d="M42.1801 56.375C48.1138 63.6376 46.3495 74.8986 46.3495 74.8986C46.3495 74.8986 34.9636 74.3828 29.0284 67.1202C23.0932 59.8577 24.859 48.5967 24.859 48.5967C24.859 48.5967 36.2464 49.1184 42.1801 56.375Z" stroke="#445251" stroke-width="1.5" stroke-linecap="round" stroke-linejoin="round"/>
<path d="M58.7906 69.0913C53.6803 74.3651 47.3809 84.321 50.1263 99.9119" stroke="#445251" stroke-width="1.5" stroke-linecap="round" stroke-linejoin="round"/>
<path d="M27.6905 123.456L27.4665 123.6C28.7625 126.288 30.5865 126.88 34.1545 126.88C35.2745 126.88 37.8345 126.88 38.8425 126.88C38.8745 126.416 39.0985 126.064 39.5465 125.968V125.76C38.2665 125.792 35.4025 125.792 34.2025 125.792C30.7785 125.792 28.8905 125.52 27.6905 123.456ZM28.8585 117.104L28.0425 116.624C27.4505 117.616 26.0745 119.488 25.3065 120.384L25.8345 119.984C25.5785 120.016 25.1785 120.144 24.9705 120.256L25.8345 121.088L26.2825 120.736H26.1545C26.9225 119.776 28.2825 117.984 28.8585 117.104ZM27.8345 116.64H28.0265L28.2025 117.344C28.7785 117.408 29.4185 117.36 29.6585 117.12L28.4265 116.048L27.8345 116.64ZM28.1065 120.336H28.2505C27.7545 122.8 26.5065 125.408 24.4745 127.072L24.6345 127.28C27.1785 125.744 28.5545 123.312 29.2585 120.912C29.6105 120.896 29.7865 120.848 29.8825 120.704L28.7625 119.696L28.1065 120.336ZM28.2825 116.64H24.7625L24.9065 117.12H28.2825V116.64ZM28.9545 120.336H26.0265L25.8345 120.816H28.9545V120.336ZM25.8185 112.576L25.6425 112.704C26.3785 113.328 27.2905 114.4 27.5145 115.264C28.6025 115.936 29.2585 113.68 25.8185 112.576ZM37.5945 113.312L35.9785 112.72C35.6105 114 35.0985 115.424 34.6345 116.304L34.8905 116.448C35.6265 115.712 36.3945 114.64 37.0025 113.584C37.3385 113.616 37.5145 113.472 37.5945 113.312ZM34.5865 116.48H33.4345C33.3865 120.016 33.3865 122.656 29.4825 124.576L29.6905 124.848C34.3465 123.056 34.4745 120.32 34.5865 116.48ZM31.1305 112.864L30.9385 112.976C31.5785 113.648 32.2985 114.768 32.4265 115.632C33.4505 116.448 34.3465 114.208 31.1305 112.864ZM34.8745 120.64L34.6825 120.784C35.7705 121.776 37.1785 123.488 37.4665 124.8C38.6185 125.664 39.3065 122.88 34.8745 120.64ZM37.2905 115.264L36.5705 116.192H30.2025L30.3305 116.672H38.2025C38.4105 116.672 38.5705 116.592 38.6185 116.416C38.1225 115.92 37.2905 115.264 37.2905 115.264ZM37.7705 118.48L37.0185 119.424H29.7865L29.9145 119.904H38.7465C38.9705 119.904 39.1145 119.824 39.1625 119.648C38.6345 119.152 37.7705 118.48 37.7705 118.48ZM54.0105 124.544L52.6345 124.016C52.3625 124.736 51.8985 125.728 51.5145 126.384H51.8825C52.4265 125.888 53.0345 125.296 53.4025 124.8C53.7385 124.832 53.9305 124.72 54.0105 124.544ZM48.5065 124.128L48.3145 124.224C48.6025 124.672 48.9545 125.376 49.0185 125.936C49.8505 126.672 50.8905 125.088 48.5065 124.128ZM53.9145 123.152H47.9465V123.616H53.9145V123.152ZM47.4985 120.736V124.272H47.6425C48.1385 124.272 48.4425 124.048 48.4425 123.984V121.696H53.4025V124.128H53.5785C54.0265 124.128 54.4105 123.92 54.4105 123.856V121.744C54.6985 121.696 54.8585 121.616 54.9545 121.488L53.8505 120.656L53.3705 121.232H48.6345L47.4985 120.736ZM54.6985 125.216L53.9945 126.16H45.6425L45.7705 126.624H55.6425C55.8665 126.624 56.0105 126.544 56.0585 126.368C55.5465 125.872 54.6985 125.216 54.6985 125.216ZM54.7305 119.024L54.0905 119.792H46.2665L46.3945 120.272H55.5145C55.7225 120.272 55.8825 120.192 55.9145 120.016C55.4505 119.568 54.7305 119.024 54.7305 119.024ZM52.8905 112.704L51.5465 112.56V118.448H52.3785V113.088C52.7145 113.04 52.8585 112.912 52.8905 112.704ZM50.6985 112.704L49.3705 112.56V118.448H50.2025V113.088C50.5225 113.04 50.6665 112.896 50.6985 112.704ZM54.1545 118.224H47.5625V118.704H54.1545V118.224ZM47.1305 113.728V119.312H47.2745C47.7705 119.312 48.0745 119.072 48.0745 119.008V114.688H53.8505V119.12H54.0105C54.4425 119.12 54.8265 118.912 54.8265 118.832V114.752C55.1465 114.704 55.3065 114.608 55.4025 114.496L54.2825 113.632L53.7865 114.224H48.2665L47.1305 113.728ZM54.1705 116.208H47.5625V116.672H54.1705V116.208ZM42.9865 112.56L42.8105 112.672C43.3385 113.216 43.9465 114.144 44.0905 114.88C45.0825 115.648 46.0585 113.632 42.9865 112.56ZM44.5865 126.864V118.624L43.5945 119.504V127.28H43.7385C44.2185 127.28 44.5865 126.976 44.5865 126.864ZM44.2505 119.136L44.0905 119.264C44.7305 119.824 45.5305 120.768 45.7545 121.504C46.6825 122.144 47.3545 120.224 44.2505 119.136ZM44.7785 115.76H44.9705C44.4105 117.792 42.8265 120.592 41.2425 122.32L41.4345 122.496C43.3385 120.96 45.1145 118.48 45.9305 116.4C46.2985 116.368 46.4905 116.352 46.6345 116.24L45.4665 115.104L44.7785 115.76ZM45.5145 115.76H41.4025L41.5465 116.224H45.5145V115.76ZM69.5305 112.816L67.9945 112.656V117.152H68.2025C68.5865 117.152 69.0345 116.928 69.0345 116.816V113.184C69.3705 113.152 69.4985 113.008 69.5305 112.816ZM62.6505 112.816L61.1145 112.656V117.152H61.3225C61.7065 117.152 62.1545 116.928 62.1545 116.816V113.184C62.4905 113.152 62.6345 113.008 62.6505 112.816ZM70.4105 119.584L69.6425 120.56H65.8665L65.9945 121.04H71.3705C71.5945 121.04 71.7545 120.96 71.7865 120.784C71.2585 120.272 70.4105 119.584 70.4105 119.584ZM64.0425 117.584L62.5385 116.848C61.3865 119.344 59.5145 121.456 57.7865 122.624L57.9625 122.832C59.9945 121.856 61.9785 120.144 63.4025 117.808C63.7385 117.872 63.9625 117.76 64.0425 117.584ZM62.5705 120.256L61.2265 119.744L61.0185 120.016V127.248H61.2105C61.6105 127.248 62.0585 127.04 62.0745 126.96V120.528C62.3625 120.496 62.5065 120.4 62.5705 120.256ZM67.0345 117.216L65.4665 117.04V125.6C65.4665 126.528 65.8185 126.816 67.1785 126.816H69.0825C71.8345 126.816 72.4105 126.624 72.4105 126.112C72.4105 125.904 72.3145 125.792 71.9305 125.664L71.8825 123.2H71.6745C71.4825 124.272 71.2905 125.296 71.1465 125.568C71.0825 125.728 70.9865 125.776 70.7945 125.792C70.5385 125.808 69.9305 125.824 69.1145 125.824H67.3385C66.6185 125.824 66.5065 125.712 66.5065 125.376V117.616C66.8585 117.584 67.0025 117.424 67.0345 117.216ZM71.3865 113.648L70.6825 114.576H65.5785L65.7065 115.056H72.2985C72.5225 115.056 72.6825 114.976 72.7145 114.8C72.2185 114.304 71.3865 113.648 71.3865 113.648ZM63.9945 113.648L63.2745 114.576H57.8825L58.0105 115.056H64.9065C65.1145 115.056 65.2745 114.976 65.3065 114.8C64.8265 114.304 63.9945 113.648 63.9945 113.648ZM77.2745 120.752V121.216H86.4425V120.752H77.2745ZM74.7465 114.832L74.8905 115.312H88.6505C88.8745 115.312 89.0345 115.232 89.0825 115.056C88.5065 114.544 87.5945 113.84 87.5945 113.84L86.7945 114.832H74.7465ZM81.3065 112.592V127.264H81.5145C81.9145 127.264 82.3625 126.992 82.3625 126.832V113.216C82.7785 113.152 82.8905 112.992 82.9385 112.768L81.3065 112.592ZM76.7785 117.152V122.08H76.9385C77.3705 122.08 77.8345 121.824 77.8345 121.728V117.632H86.4905V117.152H77.9145L76.7785 116.64V117.152ZM85.9465 117.152V121.968H86.1065C86.4585 121.968 86.9865 121.712 87.0025 121.616V117.84C87.3225 117.776 87.5785 117.632 87.6905 117.504L86.3785 116.512L85.8025 117.152H85.9465ZM80.8585 120.784C79.5625 122.992 77.2265 125.152 74.4745 126.512L74.6345 126.784C77.8665 125.504 80.5225 123.504 82.0585 121.04V120.784H80.8585ZM82.4905 120.784L82.2345 120.944C83.5465 123.472 85.9465 125.52 88.2985 126.624C88.4585 126.144 88.8265 125.808 89.2745 125.76L89.3065 125.584C86.8265 124.784 83.8985 122.912 82.4905 120.784Z" fill="#4D5139"/>
</svg>
