<svg width="114" height="158" viewBox="0 0 114 158" fill="none" xmlns="http://www.w3.org/2000/svg">
<rect width="113.746" height="157.308" rx="56.8728" fill="#D6D8C9"/>
<path d="M37.6055 65.3577H73.917V72.9603H37.6055V65.3577Z" stroke="#445251" stroke-width="1.5" stroke-linecap="round" stroke-linejoin="round"/>
<path d="M42.7715 77.0586L45.7213 95.1915H65.801L68.7507 77.0586" stroke="#445251" stroke-width="1.5" stroke-linecap="round" stroke-linejoin="round"/>
<path d="M59.6982 61.3539C59.5649 60.6708 59.2728 60.0286 58.8454 59.4793C58.4181 58.93 57.8675 58.4889 57.2381 58.1917C57.7041 57.8028 58.0389 57.2798 58.1972 56.6939C58.3554 56.108 58.3293 55.4875 58.1225 54.9169C57.9157 54.3463 57.5381 53.8533 57.0412 53.5049C56.5443 53.1564 55.9521 52.9695 55.3452 52.9695C54.7382 52.9695 54.146 53.1564 53.6491 53.5049C53.1522 53.8533 52.7746 54.3463 52.5678 54.9169C52.361 55.4875 52.3349 56.108 52.4931 56.6939C52.6514 57.2798 52.9862 57.8028 53.4522 58.1917C52.8205 58.49 52.2683 58.9333 51.8403 59.4853C51.4123 60.0374 51.1207 60.6827 50.9893 61.3688" stroke="#445251" stroke-width="1.5" stroke-linecap="round" stroke-linejoin="round"/>
<path d="M65.2355 53.2116C68.8587 53.7107 72.4488 54.4266 75.9864 55.3556C75.4667 53.5443 74.4328 51.9226 73.01 50.6871C71.5873 49.4515 69.8367 48.6551 67.9705 48.3943C61.3256 47.3396 55.3774 52.993 55.3774 52.993" stroke="#445251" stroke-width="1.5" stroke-linecap="round" stroke-linejoin="round"/>
<path d="M55.4456 52.6781C55.4456 52.6781 55.1092 36.2985 42.7503 30.5109C40.4832 29.6234 38.0474 29.2496 35.6185 29.4164C33.1895 29.5832 30.8277 30.2864 28.7031 31.4755C34.6183 34.9517 40.3462 38.7372 45.863 42.8162" stroke="#445251" stroke-width="1.5" stroke-linecap="round" stroke-linejoin="round"/>
<path d="M55.3524 52.9868C55.3524 52.9868 46.5498 44.1468 36.3882 48.222C36.3882 48.222 31.0395 50.6211 30.9673 56.2621C36.1674 54.8818 41.4518 53.8411 46.787 53.1465" stroke="#445251" stroke-width="1.5" stroke-linecap="round" stroke-linejoin="round"/>
<path d="M55.377 51.1644C60.4964 41.6798 84.2531 39.4898 84.2531 39.4898C84.2531 39.4898 79.5162 31.9271 69.546 35.3679" stroke="#445251" stroke-width="1.5" stroke-linecap="round" stroke-linejoin="round"/>
<path d="M55.6833 50.3516C55.2342 38.3262 76.5294 24.1149 76.5294 24.1149C73.8564 22.689 70.7686 22.2434 67.8015 22.8554C64.8343 23.4673 62.1748 25.0981 60.284 27.4652C58.4883 29.5419 57.1601 31.9804 56.3895 34.6154" stroke="#445251" stroke-width="1.5" stroke-linecap="round" stroke-linejoin="round"/>
<path d="M25.9751 113.36V117.232C25.9751 120.528 25.7671 124.176 23.9911 127.152L24.2311 127.312C26.8391 124.384 27.0311 120.224 27.0311 117.232V113.52H27.2231L25.9751 112.944V113.36ZM35.8791 113.52H36.0391V117.792H36.1991C36.5511 117.792 37.0631 117.552 37.0791 117.456V114.192C37.3991 114.128 37.6711 114.016 37.7671 113.888L36.4711 112.88L35.8791 113.52ZM36.5991 116.448H26.5031V116.912H36.5991V116.448ZM36.5831 113.52H26.5031V114H36.5831V113.52ZM37.1911 118.336L36.4231 119.328H27.0471L27.1751 119.808H38.1831C38.4071 119.808 38.5671 119.728 38.6151 119.552C38.0711 119.04 37.1911 118.336 37.1911 118.336ZM35.5431 121.952H35.7031V127.088H35.8631C36.2151 127.088 36.7111 126.848 36.7271 126.736V122.608C37.0471 122.544 37.3191 122.416 37.4151 122.288L36.1351 121.296L35.5431 121.952ZM29.2071 126.88V122.416H36.2631V121.952H29.2871L28.1831 121.44V127.216H28.3431C28.7751 127.216 29.2071 126.976 29.2071 126.88ZM36.3111 125.776H28.6791V126.256H36.3111V125.776ZM33.6071 117.376L32.0391 117.216V122.224H33.0791V117.776C33.4311 117.728 33.5751 117.584 33.6071 117.376ZM46.8551 112.528L46.6951 112.672C47.2551 113.056 47.8311 113.824 47.9591 114.464C49.0631 115.168 49.8791 112.96 46.8551 112.528ZM53.3351 114.688H53.5111C53.4151 115.232 53.1431 116.192 52.9511 116.736L53.1591 116.864C53.6551 116.464 54.2791 115.824 54.6311 115.344C54.9351 115.328 55.1111 115.296 55.2231 115.2L54.0071 114.016L53.3351 114.688ZM42.6151 113.952H42.3431C42.4071 114.976 41.8471 115.856 41.2071 116.192C40.8711 116.4 40.6631 116.688 40.8071 117.04C40.9831 117.408 41.5431 117.392 41.9431 117.12C42.5671 116.704 43.1111 115.632 42.6151 113.952ZM54.0231 114.688H42.4071V115.168H54.0231V114.688ZM54.0551 119.136L52.7431 118.16C51.7671 119.088 49.8151 120.384 48.2151 121.168L48.3751 121.392C50.1991 120.848 52.2951 119.936 53.4631 119.2C53.7831 119.312 53.9271 119.28 54.0551 119.136ZM49.7351 120.384L49.4471 120.528C50.2631 123.264 52.0071 125.12 54.3751 126.256C54.5351 125.728 54.8711 125.408 55.3191 125.36L55.3511 125.184C52.8391 124.4 50.6311 122.768 49.7351 120.384ZM48.7751 122.384L48.0711 121.312C46.5831 123.376 43.6711 125.28 40.9351 126.272L41.0631 126.544C43.9911 125.744 47.0151 124.144 48.7751 122.384ZM47.8471 120.416L47.1431 119.44C45.8631 120.944 43.4151 122.544 41.2711 123.424L41.3831 123.696C43.7031 122.976 46.2791 121.664 47.8471 120.416ZM46.2791 118.464L46.0871 118.624C48.5351 121.024 48.6631 124.864 47.7671 125.904C47.6871 126.032 47.5431 126.048 47.3351 126.048C46.9511 126.048 45.7831 125.984 45.1431 125.936L45.1591 126.192C45.7191 126.288 46.3111 126.448 46.5031 126.592C46.7111 126.736 46.8231 126.944 46.8391 127.28C47.7511 127.28 48.2951 127.088 48.6311 126.72C49.8791 125.376 49.7351 120.864 46.2791 118.464ZM48.5671 117.248V116.992H47.2871C45.9271 118.368 43.7351 119.76 41.4631 120.672L41.6231 120.928C44.3271 120.144 46.9511 118.864 48.5671 117.248ZM51.8951 116.096L51.1591 116.992H42.9351L43.0631 117.456H52.8071C53.0311 117.456 53.1911 117.376 53.2231 117.2C52.7111 116.72 51.8951 116.096 51.8951 116.096ZM62.3751 122.64L61.3511 123.056V123.68H62.3751V122.64ZM63.4791 119.184L63.3191 119.312C63.7191 119.696 64.2311 120.4 64.3751 120.944C65.3671 121.616 66.2471 119.712 63.4791 119.184ZM61.0951 126.208L61.4151 127.248C63.0151 126.448 64.5831 125.568 65.3991 125.12L65.3191 124.896C63.5751 125.488 61.8151 126.032 61.0951 126.208ZM62.1351 123.232H61.3511V125.584C61.3511 125.792 61.2391 125.92 60.6311 126.32L61.3991 127.312C61.6071 127.184 61.9111 126.72 61.5911 126.096L61.3031 126.528L62.3751 126.064V123.376L62.1351 123.232ZM70.5191 122.688L69.1911 121.84C68.6311 122.48 67.4951 123.504 66.5671 124.128L66.7431 124.336C67.8791 123.92 69.1751 123.296 69.9271 122.8C70.2631 122.896 70.3911 122.848 70.5191 122.688ZM64.6631 121.104L64.3911 121.264C65.4791 124.352 67.8151 126.128 71.0151 127.12C71.1591 126.608 71.4791 126.288 71.9431 126.192L71.9751 126.032C68.6471 125.36 65.8151 123.808 64.6631 121.104ZM64.9191 121.36V121.104H63.5911C62.1991 122.672 59.8951 124.032 57.2711 124.896L57.3991 125.168C60.5031 124.432 63.2551 123.168 64.9191 121.36ZM70.5991 119.984L69.8471 120.928H57.3351L57.4791 121.392H71.5591C71.7671 121.392 71.9271 121.312 71.9751 121.136C71.4471 120.64 70.5991 119.984 70.5991 119.984ZM59.8631 113.392H59.1431V115.536L59.3671 114.96C59.1111 115.04 58.7271 115.248 58.5511 115.408L59.7991 116.176L60.2311 115.632H60.0871V113.536L59.8631 113.392ZM60.6631 113.04L59.1431 112.864V114.096H60.0871V113.472C60.4551 113.408 60.6311 113.28 60.6631 113.04ZM60.4711 117.152H59.4311C59.3831 118.224 59.2551 119.312 57.8791 120.256L58.0871 120.512C60.0711 119.664 60.3751 118.4 60.4711 117.152ZM63.2071 116.992H57.9111L58.0551 117.456H63.2071V116.992ZM68.6791 112.8L67.0471 112.624V118.864H68.0871V113.232C68.4871 113.168 68.6471 113.024 68.6791 112.8ZM64.2791 112.832L62.6791 112.656V119.984H62.8711C63.2711 119.984 63.6871 119.76 63.6871 119.632V113.264C64.1031 113.2 64.2471 113.056 64.2791 112.832ZM63.1911 115.152H59.5111V115.632H63.1911V115.152ZM70.0231 117.696L69.2711 118.592H64.5031L64.6311 119.072H70.9511C71.1751 119.072 71.3351 118.992 71.3831 118.816C70.8551 118.336 70.0231 117.696 70.0231 117.696ZM70.4231 114.192L69.6871 115.12H64.0871L64.2151 115.584H71.3671C71.6071 115.584 71.7671 115.504 71.7991 115.328C71.2711 114.848 70.4231 114.192 70.4231 114.192ZM78.4391 115.392L77.8471 116.144H75.6391L75.7671 116.608H79.1751C79.3671 116.608 79.5111 116.528 79.5591 116.352C79.1431 115.92 78.4391 115.392 78.4391 115.392ZM78.1991 122.816L77.9911 122.928C78.5831 123.728 79.3191 125.008 79.4311 125.984C80.3751 126.816 81.2871 124.656 78.1991 122.816ZM75.9911 118.256H79.5591V117.824H76.0711L75.0151 117.344V118.448H75.9911V118.256ZM74.7111 125.792L75.1431 126.784C76.8391 125.84 78.4711 124.848 79.3511 124.352L79.2711 124.128C77.3831 124.848 75.5111 125.552 74.7111 125.792ZM75.7511 118.16H75.0151V125.2C75.0151 125.488 74.9351 125.584 74.5031 125.824L75.0791 126.992C75.3031 126.88 75.6711 126.48 75.4951 125.792L75.1271 126.176L75.9911 125.856V118.288L75.7511 118.16ZM79.3671 121.568H75.5111V122.032H79.3671V121.568ZM79.3831 119.616H75.5111V120.096H79.3831V119.616ZM78.7431 117.824H78.8711V122.528H79.0311C79.3671 122.528 79.8471 122.272 79.8631 122.144V118.384C80.1031 118.352 80.3111 118.24 80.3911 118.128L79.2711 117.264L78.7431 117.824ZM77.5911 113.28L77.3351 113.344C78.5191 114.224 79.3671 115.376 79.7031 116.208C80.6311 116.928 81.8631 114.768 77.5911 113.28ZM77.7831 113.264C78.1831 113.248 78.3431 113.136 78.3911 112.96L76.6951 112.496C76.2471 114.16 75.0631 116.72 73.8471 118.16L74.0391 118.304C75.6551 117.024 77.0471 114.912 77.7831 113.264ZM85.0151 126.848V115.312H84.0391V127.248H84.1991C84.6631 127.248 85.0151 126.96 85.0151 126.848ZM87.3831 114.16L86.5991 115.152H82.1031V115.616H88.3591C88.5831 115.616 88.7431 115.536 88.7751 115.36C88.2471 114.848 87.3831 114.16 87.3831 114.16ZM83.8151 113.024L82.2471 112.608C81.8951 114.656 81.1591 116.592 80.2791 117.856L80.5191 118.032C81.7031 116.96 82.6471 115.296 83.2231 113.36C83.5751 113.36 83.7511 113.216 83.8151 113.024ZM86.7111 117.968H86.8551V123.808C86.8551 124 86.8071 124.08 86.5991 124.08C86.3591 124.08 85.4631 124 85.4631 124V124.272C85.9111 124.336 86.1671 124.448 86.3271 124.608C86.4551 124.784 86.5191 125.04 86.5351 125.344C87.7031 125.216 87.8311 124.736 87.8311 123.936V118.576C88.1191 118.528 88.3591 118.416 88.4551 118.288L87.2071 117.36L86.7111 117.968ZM87.3831 117.968H81.7191V118.432H87.3831V117.968ZM82.0871 125.184V117.968H82.2951L81.1751 117.488L81.1591 117.536V125.536H81.3031C81.7671 125.536 82.0871 125.28 82.0871 125.184Z" fill="#4D5139"/>
</svg>
