<svg width="114" height="158" viewBox="0 0 114 158" fill="none" xmlns="http://www.w3.org/2000/svg">
<rect width="113.746" height="157.308" rx="56.8728" fill="#D6D8C9"/>
<path d="M77.7619 53.5339C77.1037 54.4775 75.8915 55.0512 74.7583 55.3968C73.256 55.8551 71.655 55.9871 70.103 55.7455C67.3261 55.3134 64.8409 54.0005 62.9417 52.1013C61.1559 50.3155 59.8885 48.0116 59.3843 45.4343" stroke="#FFFCF5" stroke-width="1.5" stroke-miterlimit="10" stroke-linecap="round" stroke-linejoin="round"/>
<path d="M63.0991 42.2736C63.0991 39.849 65.556 37.8835 68.5868 37.8835C71.6176 37.8835 74.0744 39.849 74.0744 42.2736" stroke="#FFFCF5" stroke-width="1.5" stroke-miterlimit="10" stroke-linecap="round" stroke-linejoin="round"/>
<path d="M77.0822 45.4906C77.0822 47.2161 75.3338 48.6148 73.1769 48.6148C72.0579 48.6148 71.0054 48.1092 70.2067 47.3764C68.969 46.2406 68.5623 44.3759 69.2637 42.8495C69.3657 42.6276 69.4891 42.4274 69.6383 42.2737" stroke="#FFFCF5" stroke-width="1.5" stroke-miterlimit="10" stroke-linecap="round" stroke-linejoin="round"/>
<path d="M82.876 31.9878C84.3313 31.0607 86.4505 31.784 87.6093 33.6032C88.7681 35.4224 88.5276 37.6486 87.0722 38.5757" stroke="#FFFCF5" stroke-width="1.5" stroke-miterlimit="10" stroke-linecap="round" stroke-linejoin="round"/>
<path d="M84.1943 61.7478C85.9318 64.88 84.8011 68.8277 81.6689 70.5652C78.5368 72.3026 74.589 71.1719 72.8516 68.0397" stroke="#FFFCF5" stroke-width="1.5" stroke-miterlimit="10" stroke-linecap="round" stroke-linejoin="round"/>
<path d="M60.3643 32.42C57.0154 31.1494 51.5675 34.25 50.6841 37.8835C49.8379 41.3639 52.0227 47.1202 55.3716 48.3908" stroke="#FFFCF5" stroke-width="1.5" stroke-miterlimit="10" stroke-linecap="round" stroke-linejoin="round"/>
<path d="M79.2473 39.3186C87.2975 40.2509 88.7545 48.9224 87.872 52.3594C86.5611 57.4651 79.8604 60.3879 75.8022 59.3317" stroke="#FFFCF5" stroke-width="1.5" stroke-miterlimit="10" stroke-linecap="round" stroke-linejoin="round"/>
<path d="M79.2472 39.3186C81.1522 34.1042 78.4696 28.3328 73.2551 26.4278C68.0406 24.5228 62.2692 27.2055 60.3643 32.4199" stroke="#FFFCF5" stroke-width="1.5" stroke-miterlimit="10" stroke-linecap="round" stroke-linejoin="round"/>
<path d="M55.3719 48.3909C52.3507 54.0327 54.4749 61.0555 60.1167 64.0767C65.7585 67.098 72.7813 64.9738 75.8025 59.332" stroke="#FFFCF5" stroke-width="1.5" stroke-miterlimit="10" stroke-linecap="round" stroke-linejoin="round"/>
<path d="M42.1801 56.375C48.1138 63.6376 46.3495 74.8986 46.3495 74.8986C46.3495 74.8986 34.9636 74.3828 29.0284 67.1202C23.0932 59.8577 24.859 48.5967 24.859 48.5967C24.859 48.5967 36.2464 49.1184 42.1801 56.375Z" stroke="#FFFCF5" stroke-width="1.5" stroke-linecap="round" stroke-linejoin="round"/>
<path d="M58.7906 69.0913C53.6803 74.3651 47.3809 84.321 50.1263 99.9119" stroke="#FFFCF5" stroke-width="1.5" stroke-linecap="round" stroke-linejoin="round"/>
<path d="M27.6905 123.456C28.8905 125.52 30.7785 125.792 34.2025 125.792C35.4025 125.792 38.2665 125.792 39.5465 125.76V125.968C39.0985 126.064 38.8745 126.416 38.8425 126.88C37.8345 126.88 35.2745 126.88 34.1545 126.88C30.5865 126.88 28.7625 126.288 27.4665 123.6L27.6905 123.456ZM28.8585 117.104C28.2825 117.984 26.9225 119.776 26.1545 120.736H26.2825L25.8345 121.088L24.9705 120.256C25.1785 120.144 25.5785 120.016 25.8345 119.984L25.3065 120.384C26.0745 119.488 27.4505 117.616 28.0425 116.624L28.8585 117.104ZM27.8345 116.64L28.4265 116.048L29.6585 117.12C29.4185 117.36 28.7785 117.408 28.2025 117.344L28.0265 116.64H27.8345ZM28.1065 120.336L28.7625 119.696L29.8825 120.704C29.7865 120.848 29.6105 120.896 29.2585 120.912C28.5545 123.312 27.1785 125.744 24.6345 127.28L24.4745 127.072C26.5065 125.408 27.7545 122.8 28.2505 120.336H28.1065ZM28.2825 116.64V117.12H24.9065L24.7625 116.64H28.2825ZM28.9545 120.336V120.816H25.8345L26.0265 120.336H28.9545ZM25.8185 112.576C29.2585 113.68 28.6025 115.936 27.5145 115.264C27.2905 114.4 26.3785 113.328 25.6425 112.704L25.8185 112.576ZM37.5945 113.312C37.5145 113.472 37.3385 113.616 37.0025 113.584C36.3945 114.64 35.6265 115.712 34.8905 116.448L34.6345 116.304C35.0985 115.424 35.6105 114 35.9785 112.72L37.5945 113.312ZM34.5865 116.48C34.4745 120.32 34.3465 123.056 29.6905 124.848L29.4825 124.576C33.3865 122.656 33.3865 120.016 33.4345 116.48H34.5865ZM31.1305 112.864C34.3465 114.208 33.4505 116.448 32.4265 115.632C32.2985 114.768 31.5785 113.648 30.9385 112.976L31.1305 112.864ZM34.8745 120.64C39.3065 122.88 38.6185 125.664 37.4665 124.8C37.1785 123.488 35.7705 121.776 34.6825 120.784L34.8745 120.64ZM37.2905 115.264C37.2905 115.264 38.1225 115.92 38.6185 116.416C38.5705 116.592 38.4105 116.672 38.2025 116.672H30.3305L30.2025 116.192H36.5705L37.2905 115.264ZM37.7705 118.48C37.7705 118.48 38.6345 119.152 39.1625 119.648C39.1145 119.824 38.9705 119.904 38.7465 119.904H29.9145L29.7865 119.424H37.0185L37.7705 118.48ZM54.0105 124.544C53.9305 124.72 53.7385 124.832 53.4025 124.8C53.0345 125.296 52.4265 125.888 51.8825 126.384H51.5145C51.8985 125.728 52.3625 124.736 52.6345 124.016L54.0105 124.544ZM48.5065 124.128C50.8905 125.088 49.8505 126.672 49.0185 125.936C48.9545 125.376 48.6025 124.672 48.3145 124.224L48.5065 124.128ZM53.9145 123.152V123.616H47.9465V123.152H53.9145ZM47.4985 120.736L48.6345 121.232H53.3705L53.8505 120.656L54.9545 121.488C54.8585 121.616 54.6985 121.696 54.4105 121.744V123.856C54.4105 123.92 54.0265 124.128 53.5785 124.128H53.4025V121.696H48.4425V123.984C48.4425 124.048 48.1385 124.272 47.6425 124.272H47.4985V120.736ZM54.6985 125.216C54.6985 125.216 55.5465 125.872 56.0585 126.368C56.0105 126.544 55.8665 126.624 55.6425 126.624H45.7705L45.6425 126.16H53.9945L54.6985 125.216ZM54.7305 119.024C54.7305 119.024 55.4505 119.568 55.9145 120.016C55.8825 120.192 55.7225 120.272 55.5145 120.272H46.3945L46.2665 119.792H54.0905L54.7305 119.024ZM52.8905 112.704C52.8585 112.912 52.7145 113.04 52.3785 113.088V118.448H51.5465V112.56L52.8905 112.704ZM50.6985 112.704C50.6665 112.896 50.5225 113.04 50.2025 113.088V118.448H49.3705V112.56L50.6985 112.704ZM54.1545 118.224V118.704H47.5625V118.224H54.1545ZM47.1305 113.728L48.2665 114.224H53.7865L54.2825 113.632L55.4025 114.496C55.3065 114.608 55.1465 114.704 54.8265 114.752V118.832C54.8265 118.912 54.4425 119.12 54.0105 119.12H53.8505V114.688H48.0745V119.008C48.0745 119.072 47.7705 119.312 47.2745 119.312H47.1305V113.728ZM54.1705 116.208V116.672H47.5625V116.208H54.1705ZM42.9865 112.56C46.0585 113.632 45.0825 115.648 44.0905 114.88C43.9465 114.144 43.3385 113.216 42.8105 112.672L42.9865 112.56ZM44.5865 126.864C44.5865 126.976 44.2185 127.28 43.7385 127.28H43.5945V119.504L44.5865 118.624V126.864ZM44.2505 119.136C47.3545 120.224 46.6825 122.144 45.7545 121.504C45.5305 120.768 44.7305 119.824 44.0905 119.264L44.2505 119.136ZM44.7785 115.76L45.4665 115.104L46.6345 116.24C46.4905 116.352 46.2985 116.368 45.9305 116.4C45.1145 118.48 43.3385 120.96 41.4345 122.496L41.2425 122.32C42.8265 120.592 44.4105 117.792 44.9705 115.76H44.7785ZM45.5145 115.76V116.224H41.5465L41.4025 115.76H45.5145ZM69.5305 112.816C69.4985 113.008 69.3705 113.152 69.0345 113.184V116.816C69.0345 116.928 68.5865 117.152 68.2025 117.152H67.9945V112.656L69.5305 112.816ZM62.6505 112.816C62.6345 113.008 62.4905 113.152 62.1545 113.184V116.816C62.1545 116.928 61.7065 117.152 61.3225 117.152H61.1145V112.656L62.6505 112.816ZM70.4105 119.584C70.4105 119.584 71.2585 120.272 71.7865 120.784C71.7545 120.96 71.5945 121.04 71.3705 121.04H65.9945L65.8665 120.56H69.6425L70.4105 119.584ZM64.0425 117.584C63.9625 117.76 63.7385 117.872 63.4025 117.808C61.9785 120.144 59.9945 121.856 57.9625 122.832L57.7865 122.624C59.5145 121.456 61.3865 119.344 62.5385 116.848L64.0425 117.584ZM62.5705 120.256C62.5065 120.4 62.3625 120.496 62.0745 120.528V126.96C62.0585 127.04 61.6105 127.248 61.2105 127.248H61.0185V120.016L61.2265 119.744L62.5705 120.256ZM67.0345 117.216C67.0025 117.424 66.8585 117.584 66.5065 117.616V125.376C66.5065 125.712 66.6185 125.824 67.3385 125.824H69.1145C69.9305 125.824 70.5385 125.808 70.7945 125.792C70.9865 125.776 71.0825 125.728 71.1465 125.568C71.2905 125.296 71.4825 124.272 71.6745 123.2H71.8825L71.9305 125.664C72.3145 125.792 72.4105 125.904 72.4105 126.112C72.4105 126.624 71.8345 126.816 69.0825 126.816H67.1785C65.8185 126.816 65.4665 126.528 65.4665 125.6V117.04L67.0345 117.216ZM71.3865 113.648C71.3865 113.648 72.2185 114.304 72.7145 114.8C72.6825 114.976 72.5225 115.056 72.2985 115.056H65.7065L65.5785 114.576H70.6825L71.3865 113.648ZM63.9945 113.648C63.9945 113.648 64.8265 114.304 65.3065 114.8C65.2745 114.976 65.1145 115.056 64.9065 115.056H58.0105L57.8825 114.576H63.2745L63.9945 113.648ZM77.2745 120.752H86.4425V121.216H77.2745V120.752ZM74.7465 114.832H86.7945L87.5945 113.84C87.5945 113.84 88.5065 114.544 89.0825 115.056C89.0345 115.232 88.8745 115.312 88.6505 115.312H74.8905L74.7465 114.832ZM81.3065 112.592L82.9385 112.768C82.8905 112.992 82.7785 113.152 82.3625 113.216V126.832C82.3625 126.992 81.9145 127.264 81.5145 127.264H81.3065V112.592ZM76.7785 117.152V116.64L77.9145 117.152H86.4905V117.632H77.8345V121.728C77.8345 121.824 77.3705 122.08 76.9385 122.08H76.7785V117.152ZM85.9465 117.152H85.8025L86.3785 116.512L87.6905 117.504C87.5785 117.632 87.3225 117.776 87.0025 117.84V121.616C86.9865 121.712 86.4585 121.968 86.1065 121.968H85.9465V117.152ZM80.8585 120.784H82.0585V121.04C80.5225 123.504 77.8665 125.504 74.6345 126.784L74.4745 126.512C77.2265 125.152 79.5625 122.992 80.8585 120.784ZM82.4905 120.784C83.8985 122.912 86.8265 124.784 89.3065 125.584L89.2745 125.76C88.8265 125.808 88.4585 126.144 88.2985 126.624C85.9465 125.52 83.5465 123.472 82.2345 120.944L82.4905 120.784Z" fill="#FFFCF5"/>
</svg>
