<svg width="37" height="37" viewBox="0 0 37 37" fill="none" xmlns="http://www.w3.org/2000/svg">
<mask id="mask0_239_12595" style="mask-type:luminance" maskUnits="userSpaceOnUse" x="11" y="3" width="15" height="13">
<path fill-rule="evenodd" clip-rule="evenodd" d="M11.1172 3.08337H25.0878V15.888H11.1172V3.08337Z" fill="white"/>
</mask>
<g mask="url(#mask0_239_12595)">
<path fill-rule="evenodd" clip-rule="evenodd" d="M23.9315 15.888C23.2933 15.888 22.7753 15.37 22.7753 14.7317V10.0574C22.7753 7.48743 20.6863 5.39539 18.1164 5.39539C16.8661 5.43855 15.6944 5.87022 14.8095 6.74589C13.9246 7.62309 13.4343 8.79014 13.4297 10.0343V14.7317C13.4297 15.37 12.9117 15.888 12.2734 15.888C11.6352 15.888 11.1172 15.37 11.1172 14.7317V10.0574C11.1249 8.16268 11.8572 6.41443 13.1815 5.10401C14.5042 3.79205 16.2802 3.13684 18.121 3.08289C21.9613 3.08289 25.0878 6.21247 25.0878 10.0574V14.7317C25.0878 15.37 24.5698 15.888 23.9315 15.888Z" fill="#FFFCF5"/>
</g>
<mask id="mask1_239_12595" style="mask-type:luminance" maskUnits="userSpaceOnUse" x="3" y="9" width="31" height="25">
<path fill-rule="evenodd" clip-rule="evenodd" d="M3.0835 9.98169H33.1457V33.9161H3.0835V9.98169Z" fill="white"/>
</mask>
<g mask="url(#mask1_239_12595)">
<path fill-rule="evenodd" clip-rule="evenodd" d="M10.8037 12.2942C7.82209 12.2942 5.39551 14.7177 5.39551 17.6977V26.2016C5.39551 29.1801 7.82209 31.6036 10.8037 31.6036H25.4248C28.4064 31.6036 30.833 29.1801 30.833 26.2016V17.6977C30.833 14.7177 28.4064 12.2942 25.4248 12.2942H10.8037ZM25.4248 33.9161H10.8037C6.54713 33.9161 3.08301 30.455 3.08301 26.2016V17.6977C3.08301 13.4427 6.54713 9.98169 10.8037 9.98169H25.4248C29.6829 9.98169 33.1455 13.4427 33.1455 17.6977V26.2016C33.1455 30.455 29.6829 33.9161 25.4248 33.9161Z" fill="#FFFCF5"/>
</g>
</svg>
