<svg width="256" height="73" viewBox="0 0 256 73" fill="none" xmlns="http://www.w3.org/2000/svg">
<g filter="url(#filter0_d_779_7120)">
<path d="M56.008 3.2C56.8187 4.01066 57.224 5.056 57.224 6.336C57.224 7.40266 56.9893 8.49066 56.52 9.6L41.416 48L40.712 48.32L32.264 21.504L21.832 48L21.128 48.32L6.92 3.2H12.36L23.816 41.088L31.944 20.48L26.504 3.2H31.944L43.4 41.088L55.752 9.6C56.2213 8.53333 56.456 7.424 56.456 6.272C56.456 5.12 56.136 4.224 55.496 3.584L56.008 3.2ZM66.0345 32.384C66.0345 37.6747 66.9518 41.5573 68.7865 44.032C70.6638 46.5067 73.1172 47.744 76.1465 47.744C80.4132 47.744 84.2105 47.104 87.5385 45.824L87.7305 46.272C84.3172 47.5947 80.4558 48.256 76.1465 48.256C71.8798 48.256 68.4025 46.976 65.7145 44.416C63.0265 41.856 61.6825 37.9093 61.6825 32.576C61.6825 27.2427 63.0905 23.104 65.9065 20.16C68.7225 17.216 72.3065 15.744 76.6585 15.744C80.1572 15.744 83.1012 16.7893 85.4905 18.88C87.8798 20.9707 89.0745 24.064 89.0745 28.16C89.0745 28.3733 89.0745 28.5867 89.0745 28.8L66.2265 28.8C66.0985 29.952 66.0345 31.1467 66.0345 32.384ZM84.7225 28.288C84.6798 24.192 83.8905 21.1627 82.3545 19.2C80.8185 17.2373 78.8345 16.256 76.4025 16.256C73.9705 16.256 71.7945 17.3227 69.8745 19.456C67.9972 21.5893 66.8025 24.5333 66.2905 28.288L84.7225 28.288ZM96.18 33.152C96.18 27.6053 97.524 23.3173 100.212 20.288C102.9 17.2587 106.932 15.744 112.308 15.744C114.825 15.744 117.364 16.384 119.924 17.664V0.0639992H124.404L124.404 43.456C124.404 44.6933 124.639 45.6533 125.108 46.336C125.62 46.976 126.132 47.3173 126.644 47.36L127.348 47.488H129.332V48H125.428C123.679 48 122.335 47.616 121.396 46.848C120.5 46.08 120.031 45.312 119.988 44.544L119.924 43.456V42.432C119.113 43.9253 117.769 45.248 115.892 46.4C114.015 47.552 111.796 48.128 109.236 48.128C100.532 47.9147 96.18 42.9227 96.18 33.152ZM109.3 47.616C112.159 47.616 114.612 46.848 116.66 45.312C118.708 43.776 119.796 42.2613 119.924 40.768L119.924 18.24C116.895 16.9173 114.292 16.256 112.116 16.256C108.319 16.256 105.46 17.7493 103.54 20.736C101.62 23.68 100.66 27.8187 100.66 33.152C100.66 42.7947 103.54 47.616 109.3 47.616ZM135.74 33.152C135.74 27.6053 137.084 23.3173 139.772 20.288C142.46 17.2587 146.492 15.744 151.868 15.744C154.385 15.744 156.924 16.384 159.484 17.664V0.0639992H163.964V43.456C163.964 44.6933 164.199 45.6533 164.668 46.336C165.18 46.976 165.692 47.3173 166.204 47.36L166.908 47.488H168.892V48H164.988C163.239 48 161.895 47.616 160.956 46.848C160.06 46.08 159.591 45.312 159.548 44.544L159.484 43.456V42.432C158.673 43.9253 157.329 45.248 155.452 46.4C153.575 47.552 151.356 48.128 148.796 48.128C140.092 47.9147 135.74 42.9227 135.74 33.152ZM148.86 47.616C151.719 47.616 154.172 46.848 156.22 45.312C158.268 43.776 159.356 42.2613 159.484 40.768V18.24C156.455 16.9173 153.852 16.256 151.676 16.256C147.879 16.256 145.02 17.7493 143.1 20.736C141.18 23.68 140.22 27.8187 140.22 33.152C140.22 42.7947 143.1 47.616 148.86 47.616ZM181.828 48C180.079 48 178.735 47.616 177.796 46.848C176.9 46.08 176.431 45.312 176.388 44.544L176.324 43.456V16H180.804V43.456C180.804 44.6933 181.039 45.6533 181.508 46.336C182.02 46.976 182.511 47.3173 182.98 47.36L183.748 47.488H185.732V48H181.828ZM176.708 8.832C176.196 8.32 175.94 7.68 175.94 6.912C175.94 6.144 176.196 5.504 176.708 4.992C177.22 4.43733 177.86 4.16 178.628 4.16C179.396 4.16 180.036 4.43733 180.548 4.992C181.103 5.504 181.38 6.144 181.38 6.912C181.38 7.68 181.103 8.32 180.548 8.832C180.036 9.344 179.396 9.6 178.628 9.6C177.86 9.6 177.22 9.344 176.708 8.832ZM218.733 48C216.983 48 215.639 47.616 214.701 46.848C213.805 46.08 213.335 45.312 213.293 44.544L213.229 43.456V23.36C213.229 19.9893 212.354 17.8347 210.605 16.896C209.709 16.4693 208.599 16.256 207.277 16.256C204.546 16.256 202.093 17.344 199.917 19.52C197.741 21.6533 196.653 23.5733 196.653 25.28V48H192.173V16H196.653V23.296C197.378 21.4613 198.722 19.7547 200.685 18.176C202.647 16.5547 204.802 15.744 207.149 15.744C209.495 15.744 211.394 15.9787 212.845 16.448C214.338 16.8747 215.426 17.4933 216.109 18.304C217.175 19.6267 217.709 21.3333 217.709 23.424V43.456C217.709 44.6933 217.943 45.6533 218.413 46.336C218.925 46.976 219.437 47.3173 219.949 47.36L220.653 47.488H222.637V48H218.733ZM227.475 33.152C227.475 27.6053 228.819 23.3173 231.507 20.288C234.195 17.2587 238.227 15.744 243.603 15.744C247.571 15.744 251.603 16.448 255.699 17.856V48.768C255.656 58.9227 251.219 64 242.387 64C237.523 64 233.363 62.4213 229.907 59.264L230.355 58.88C234.024 61.952 238.035 63.488 242.387 63.488C248.275 63.488 251.219 58.5813 251.219 48.768V42.432C250.408 43.9253 249.064 45.248 247.187 46.4C245.31 47.552 243.091 48.128 240.531 48.128C231.827 47.9147 227.475 42.9227 227.475 33.152ZM240.595 47.616C243.454 47.616 245.907 46.848 247.955 45.312C250.003 43.776 251.091 42.2613 251.219 40.768V18.176C248.147 16.896 245.544 16.256 243.411 16.256C239.614 16.256 236.755 17.7493 234.835 20.736C232.915 23.68 231.955 27.8187 231.955 33.152C231.955 42.7947 234.835 47.616 240.595 47.616Z" fill="#4D5139"/>
</g>
<defs>
<filter id="filter0_d_779_7120" x="0.919922" y="0.0644531" width="254.779" height="72.9355" filterUnits="userSpaceOnUse" color-interpolation-filters="sRGB">
<feFlood flood-opacity="0" result="BackgroundImageFix"/>
<feColorMatrix in="SourceAlpha" type="matrix" values="0 0 0 0 0 0 0 0 0 0 0 0 0 0 0 0 0 0 127 0" result="hardAlpha"/>
<feOffset dx="-6" dy="9"/>
<feComposite in2="hardAlpha" operator="out"/>
<feColorMatrix type="matrix" values="0 0 0 0 0.839216 0 0 0 0 0.847059 0 0 0 0 0.788235 0 0 0 0.5 0"/>
<feBlend mode="normal" in2="BackgroundImageFix" result="effect1_dropShadow_779_7120"/>
<feBlend mode="normal" in="SourceGraphic" in2="effect1_dropShadow_779_7120" result="shape"/>
</filter>
</defs>
</svg>
