<svg width="101" height="58" viewBox="0 0 101 58" fill="none" xmlns="http://www.w3.org/2000/svg">
<g filter="url(#filter0_d_779_7118)">
<path d="M28.536 48.256C20.5573 48.256 14.648 45.9947 10.808 41.472C9.44267 39.8507 8.33333 37.696 7.48 35.008C6.62667 32.32 6.2 29.056 6.2 25.216C6.2 21.376 6.81867 17.9413 8.056 14.912C9.336 11.84 11.064 9.472 13.24 7.808C17.464 4.69333 22.5627 3.136 28.536 3.136C30.456 3.136 32.3333 3.28533 34.168 3.584C36.0027 3.84 37.368 4.11733 38.264 4.416L39.608 4.864L39.416 5.504C36.088 4.352 32.4613 3.776 28.536 3.776C24.0133 3.776 20.2373 5.248 17.208 8.192C14.904 10.368 13.2827 13.568 12.344 17.792C11.7893 20.1813 11.512 23.104 11.512 26.56C11.512 30.016 12.0027 33.216 12.984 36.16C13.9653 39.0613 15.0747 41.216 16.312 42.624C17.592 44.032 19.128 45.1627 20.92 46.016C22.712 46.8267 24.1413 47.296 25.208 47.424C26.2747 47.552 27.5333 47.616 28.984 47.616C30.4773 47.616 32.4613 47.4453 34.936 47.104L34.936 33.92L27.192 33.92V33.28L43 33.28V33.92L40.248 33.92L40.248 46.528C37.0053 47.68 33.1013 48.256 28.536 48.256ZM55.5855 48C53.8362 48 52.4922 47.616 51.5535 46.848C50.6575 46.08 50.1882 45.312 50.1455 44.544L50.0815 43.456L50.0815 16L54.5615 16L54.5615 43.456C54.5615 44.6933 54.7962 45.6533 55.2655 46.336C55.7775 46.976 56.2682 47.3173 56.7375 47.36L57.5055 47.488H59.4895V48L55.5855 48ZM50.4655 8.832C49.9535 8.32 49.6975 7.68 49.6975 6.912C49.6975 6.144 49.9535 5.504 50.4655 4.992C50.9775 4.43733 51.6175 4.16 52.3855 4.16C53.1535 4.16 53.7935 4.43733 54.3055 4.992C54.8602 5.504 55.1375 6.144 55.1375 6.912C55.1375 7.68 54.8602 8.32 54.3055 8.832C53.7935 9.344 53.1535 9.6 52.3855 9.6C51.6175 9.6 50.9775 9.344 50.4655 8.832ZM71.434 12.992L71.434 16L76.49 16V16.512L71.434 16.512L71.434 48H66.954L66.954 16.512H65.61V16H66.954V12.992C66.954 8.34133 67.9567 5.03467 69.962 3.072C71.9673 1.06667 75.21 0.0426648 79.69 -3.8147e-06V0.511997C76.746 0.554663 74.634 1.55733 73.354 3.52C72.074 5.44 71.434 8.59733 71.434 12.992ZM83.8575 16.512V16H85.2015L85.2015 9.6L89.6815 9.6L89.6815 16L99.4735 16V16.512L89.6815 16.512L89.6815 39.808C89.6815 42.5813 89.9802 44.5867 90.5775 45.824C91.2175 47.0613 92.5188 47.68 94.4815 47.68C96.4868 47.68 98.5135 47.2747 100.562 46.464L100.754 46.976C98.6202 47.7867 96.1668 48.192 93.3935 48.192C90.6628 48.192 88.6148 47.6373 87.2495 46.528C85.8842 45.376 85.2015 43.1147 85.2015 39.744L85.2015 16.512H83.8575Z" fill="#4D5139"/>
</g>
<defs>
<filter id="filter0_d_779_7118" x="0.199951" y="0" width="100.553" height="57.2559" filterUnits="userSpaceOnUse" color-interpolation-filters="sRGB">
<feFlood flood-opacity="0" result="BackgroundImageFix"/>
<feColorMatrix in="SourceAlpha" type="matrix" values="0 0 0 0 0 0 0 0 0 0 0 0 0 0 0 0 0 0 127 0" result="hardAlpha"/>
<feOffset dx="-6" dy="9"/>
<feComposite in2="hardAlpha" operator="out"/>
<feColorMatrix type="matrix" values="0 0 0 0 0.839216 0 0 0 0 0.847059 0 0 0 0 0.788235 0 0 0 0.5 0"/>
<feBlend mode="normal" in2="BackgroundImageFix" result="effect1_dropShadow_779_7118"/>
<feBlend mode="normal" in="SourceGraphic" in2="effect1_dropShadow_779_7118" result="shape"/>
</filter>
</defs>
</svg>
