<svg width="70" height="259" viewBox="0 0 70 259" fill="none" xmlns="http://www.w3.org/2000/svg">
<g filter="url(#filter0_d_359_10043)">
<path d="M9.19999 199.992C10.0107 199.181 11.056 198.776 12.336 198.776C13.4027 198.776 14.4907 199.011 15.6 199.48L54 214.584L54.32 215.288L27.504 223.736L54 234.168L54.32 234.872L9.2 249.08L9.2 243.64L47.088 232.184L26.48 224.056L9.2 229.496L9.2 224.056L47.088 212.6L15.6 200.248C14.5333 199.779 13.424 199.544 12.272 199.544C11.12 199.544 10.224 199.864 9.584 200.504L9.19999 199.992ZM38.384 189.965C43.6747 189.965 47.5573 189.048 50.032 187.213C52.5067 185.336 53.744 182.883 53.744 179.853C53.744 175.587 53.104 171.789 51.824 168.461L52.272 168.269C53.5947 171.683 54.256 175.544 54.256 179.853C54.256 184.12 52.976 187.597 50.416 190.285C47.856 192.973 43.9093 194.317 38.576 194.317C33.2427 194.317 29.104 192.909 26.16 190.093C23.216 187.277 21.744 183.693 21.744 179.341C21.744 175.843 22.7893 172.899 24.88 170.509C26.9707 168.12 30.064 166.925 34.16 166.925C34.3733 166.925 34.5867 166.925 34.8 166.925L34.8 189.773C35.952 189.901 37.1467 189.965 38.384 189.965ZM34.288 171.277C30.192 171.32 27.1627 172.109 25.2 173.645C23.2373 175.181 22.256 177.165 22.256 179.597C22.256 182.029 23.3227 184.205 25.456 186.125C27.5893 188.003 30.5333 189.197 34.288 189.709L34.288 171.277ZM39.152 159.82C33.6053 159.82 29.3173 158.476 26.288 155.788C23.2587 153.1 21.744 149.068 21.744 143.692C21.744 141.175 22.384 138.636 23.664 136.076L6.06399 136.076L6.06399 131.596L49.456 131.596C50.6933 131.596 51.6533 131.361 52.336 130.892C52.976 130.38 53.3173 129.868 53.36 129.356L53.488 128.652L53.488 126.668L54 126.668L54 130.572C54 132.321 53.616 133.665 52.848 134.604C52.08 135.5 51.312 135.969 50.544 136.012L49.456 136.076L48.432 136.076C49.9253 136.887 51.248 138.231 52.4 140.108C53.552 141.985 54.128 144.204 54.128 146.764C53.9147 155.468 48.9227 159.82 39.152 159.82ZM53.616 146.7C53.616 143.841 52.848 141.388 51.312 139.34C49.776 137.292 48.2613 136.204 46.768 136.076L24.24 136.076C22.9173 139.105 22.256 141.708 22.256 143.884C22.256 147.681 23.7493 150.54 26.736 152.46C29.68 154.38 33.8187 155.34 39.152 155.34C48.7947 155.34 53.616 152.46 53.616 146.7ZM39.152 120.26C33.6053 120.26 29.3173 118.916 26.288 116.228C23.2587 113.54 21.744 109.508 21.744 104.132C21.744 101.615 22.384 99.076 23.664 96.516L6.06399 96.516L6.06399 92.036L49.456 92.036C50.6933 92.036 51.6533 91.8013 52.336 91.332C52.976 90.82 53.3173 90.308 53.36 89.796L53.488 89.092L53.488 87.108L54 87.108L54 91.012C54 92.7613 53.616 94.1053 52.848 95.044C52.08 95.94 51.312 96.4093 50.544 96.452L49.456 96.516L48.432 96.516C49.9253 97.3267 51.248 98.6707 52.4 100.548C53.552 102.425 54.128 104.644 54.128 107.204C53.9147 115.908 48.9227 120.26 39.152 120.26ZM53.616 107.14C53.616 104.281 52.848 101.828 51.312 99.78C49.776 97.732 48.2613 96.644 46.768 96.516L24.24 96.516C22.9173 99.5453 22.256 102.148 22.256 104.324C22.256 108.121 23.7493 110.98 26.736 112.9C29.68 114.82 33.8187 115.78 39.152 115.78C48.7947 115.78 53.616 112.9 53.616 107.14ZM54 74.172C54 75.9213 53.616 77.2653 52.848 78.204C52.08 79.1 51.312 79.5693 50.544 79.612L49.456 79.676L22 79.676L22 75.196L49.456 75.196C50.6933 75.196 51.6533 74.9613 52.336 74.492C52.976 73.98 53.3173 73.4893 53.36 73.02L53.488 72.252L53.488 70.268L54 70.268L54 74.172ZM14.832 79.292C14.32 79.804 13.68 80.06 12.912 80.06C12.144 80.06 11.504 79.804 10.992 79.292C10.4373 78.78 10.16 78.14 10.16 77.372C10.16 76.604 10.4373 75.964 10.992 75.452C11.504 74.8973 12.144 74.62 12.912 74.62C13.68 74.62 14.32 74.8973 14.832 75.452C15.344 75.964 15.6 76.604 15.6 77.372C15.6 78.14 15.344 78.78 14.832 79.292ZM54 37.2675C54 39.0168 53.616 40.3608 52.848 41.2995C52.08 42.1955 51.312 42.6648 50.544 42.7075L49.456 42.7715L29.36 42.7715C25.9893 42.7715 23.8347 43.6462 22.896 45.3955C22.4693 46.2915 22.256 47.4008 22.256 48.7235C22.256 51.4542 23.344 53.9075 25.52 56.0835C27.6533 58.2595 29.5733 59.3475 31.28 59.3475L54 59.3475L54 63.8275L22 63.8275L22 59.3475L29.296 59.3475C27.4613 58.6222 25.7547 57.2782 24.176 55.3155C22.5547 53.3528 21.744 51.1982 21.744 48.8515C21.744 46.5048 21.9787 44.6062 22.448 43.1555C22.8747 41.6622 23.4933 40.5742 24.304 39.8915C25.6267 38.8248 27.3333 38.2915 29.424 38.2915L49.456 38.2915C50.6933 38.2915 51.6533 38.0568 52.336 37.5875C52.976 37.0755 53.3173 36.5635 53.36 36.0515L53.488 35.3475L53.488 33.3635L54 33.3635L54 37.2675ZM39.152 28.525C33.6053 28.525 29.3173 27.181 26.288 24.493C23.2587 21.805 21.744 17.773 21.744 12.397C21.744 8.429 22.448 4.397 23.856 0.300997L54.768 0.300996C64.9227 0.343661 70 4.78099 70 13.613C70 18.477 68.4213 22.637 65.264 26.093L64.88 25.645C67.952 21.9757 69.488 17.965 69.488 13.613C69.488 7.72499 64.5813 4.78099 54.768 4.781L48.432 4.781C49.9253 5.59166 51.248 6.93566 52.4 8.81299C53.552 10.6903 54.128 12.909 54.128 15.469C53.9147 24.173 48.9227 28.525 39.152 28.525ZM53.616 15.405C53.616 12.5463 52.848 10.093 51.312 8.045C49.776 5.99699 48.2613 4.909 46.768 4.781L24.176 4.781C22.896 7.853 22.256 10.4557 22.256 12.589C22.256 16.3863 23.7493 19.245 26.736 21.165C29.68 23.085 33.8187 24.045 39.152 24.045C48.7947 24.045 53.616 21.165 53.616 15.405Z" fill="#4D5139"/>
</g>
<defs>
<filter id="filter0_d_359_10043" x="0.0639648" y="0.301025" width="69.936" height="257.779" filterUnits="userSpaceOnUse" color-interpolation-filters="sRGB">
<feFlood flood-opacity="0" result="BackgroundImageFix"/>
<feColorMatrix in="SourceAlpha" type="matrix" values="0 0 0 0 0 0 0 0 0 0 0 0 0 0 0 0 0 0 127 0" result="hardAlpha"/>
<feOffset dx="-6" dy="9"/>
<feComposite in2="hardAlpha" operator="out"/>
<feColorMatrix type="matrix" values="0 0 0 0 0.839216 0 0 0 0 0.847059 0 0 0 0 0.788235 0 0 0 0.5 0"/>
<feBlend mode="normal" in2="BackgroundImageFix" result="effect1_dropShadow_359_10043"/>
<feBlend mode="normal" in="SourceGraphic" in2="effect1_dropShadow_359_10043" result="shape"/>
</filter>
</defs>
</svg>
