<svg width="55" height="413" viewBox="0 0 55 413" fill="none" xmlns="http://www.w3.org/2000/svg">
<g filter="url(#filter0_d_359_10042)">
<path d="M51.16 0.479999L51.8 0.479999L51.8 11.872L51.16 11.872L51.16 8.736L7.64 8.736L7.64 11.872L7 11.872L7 0.479997L7.64 0.479997L7.64 3.424L51.16 3.424L51.16 0.479999ZM7 46.1175C7 44.3682 7.384 43.0242 8.152 42.0855C8.92 41.1895 9.688 40.7202 10.456 40.6775L11.544 40.6135L31.64 40.6135C35.0107 40.6135 37.1653 39.7388 38.104 37.9895C38.5307 37.0935 38.744 35.9842 38.744 34.6615C38.744 31.9308 37.656 29.4775 35.48 27.3015C33.3467 25.1255 31.4267 24.0375 29.72 24.0375L7 24.0375L7 19.5575L39 19.5575L39 24.0375L31.704 24.0375C33.5387 24.7628 35.2453 26.1068 36.824 28.0695C38.4453 30.0322 39.256 32.1868 39.256 34.5335C39.256 36.8802 39.0213 38.7788 38.552 40.2295C38.1253 41.7228 37.5067 42.8108 36.696 43.4935C35.3733 44.5602 33.6667 45.0935 31.576 45.0935L11.544 45.0935C10.3067 45.0935 9.34666 45.3282 8.664 45.7975C8.024 46.3095 7.68266 46.8215 7.64 47.3335L7.512 48.0375L7.512 50.0215L7 50.0215L7 46.1175ZM21.848 55.18C27.3947 55.18 31.6827 56.524 34.712 59.212C37.7413 61.9 39.256 65.932 39.256 71.308C39.256 73.8253 38.616 76.364 37.336 78.924L54.936 78.924L54.936 83.404L11.544 83.404C10.3067 83.404 9.34666 83.6387 8.664 84.108C8.024 84.62 7.68266 85.132 7.64 85.644L7.512 86.348L7.512 88.332L7 88.332L7 84.428C7 82.6787 7.384 81.3347 8.152 80.396C8.92 79.5 9.688 79.0307 10.456 78.988L11.544 78.924L12.568 78.924C11.0747 78.1133 9.752 76.7693 8.6 74.892C7.448 73.0147 6.872 70.796 6.872 68.236C7.08533 59.532 12.0773 55.18 21.848 55.18ZM7.384 68.3C7.384 71.1587 8.152 73.612 9.688 75.66C11.224 77.708 12.7387 78.796 14.232 78.924L36.76 78.924C38.0827 75.8947 38.744 73.292 38.744 71.116C38.744 67.3187 37.2507 64.46 34.264 62.54C31.32 60.62 27.1813 59.66 21.848 59.66C12.2053 59.66 7.384 62.54 7.384 68.3ZM6.744 107.97C6.744 103.49 8.024 99.8425 10.584 97.0265C13.144 94.2105 17.0907 92.8025 22.424 92.8025C27.7573 92.8025 31.896 94.2532 34.84 97.1545C37.784 100.098 39.256 103.81 39.256 108.29C39.256 112.813 37.976 116.482 35.416 119.299C32.856 122.115 28.9093 123.523 23.576 123.523C18.2427 123.523 14.104 122.051 11.16 119.106C8.21599 116.205 6.74399 112.493 6.744 107.97ZM38.744 108.418C38.744 105.176 37.2933 102.488 34.392 100.354C31.5333 98.2212 27.5227 97.1545 22.36 97.1545C17.24 97.1545 13.4427 98.1358 10.968 100.098C8.49333 102.061 7.256 104.664 7.256 107.906C7.25599 111.149 8.68533 113.837 11.544 115.97C14.4453 118.104 18.456 119.17 23.576 119.17C28.7387 119.17 32.5573 118.189 35.032 116.226C37.5067 114.264 38.744 111.661 38.744 108.418ZM6.74399 146.343C6.74399 141.863 8.02399 138.215 10.584 135.399C13.144 132.583 17.0907 131.175 22.424 131.175C27.7573 131.175 31.896 132.626 34.84 135.527C37.784 138.471 39.256 142.183 39.256 146.663C39.256 151.186 37.976 154.855 35.416 157.671C32.856 160.487 28.9093 161.895 23.576 161.895C18.2427 161.895 14.104 160.423 11.16 157.479C8.21599 154.578 6.74399 150.866 6.74399 146.343ZM38.744 146.791C38.744 143.548 37.2933 140.86 34.392 138.727C31.5333 136.594 27.5227 135.527 22.36 135.527C17.24 135.527 13.4427 136.508 10.968 138.471C8.49333 140.434 7.25599 143.036 7.25599 146.279C7.25599 149.522 8.68533 152.21 11.544 154.343C14.4453 156.476 18.456 157.543 23.576 157.543C28.7387 157.543 32.5573 156.562 35.032 154.599C37.5067 152.636 38.744 150.034 38.744 146.791ZM36.248 180.522L37.592 180.522C36.824 178.602 35.2667 176.852 32.92 175.274C30.616 173.695 28.44 172.863 26.392 172.778L6.99999 172.778L6.99999 168.298L39 168.298L39 172.778L28.824 172.778C31.2987 173.46 33.624 174.762 35.8 176.682C38.0187 178.602 39.1707 180.778 39.256 183.21L39.256 183.466C39.256 184.319 38.9573 185.023 38.36 185.578C37.8053 186.175 37.1013 186.474 36.248 186.474C35.3947 186.474 34.6907 186.175 34.136 185.578C33.5813 185.023 33.304 184.319 33.304 183.466C33.304 182.612 33.5813 181.908 34.136 181.354C34.6907 180.799 35.3947 180.522 36.248 180.522ZM51.8 242.934L51.16 242.934L51.16 222.774L30.68 222.774L30.68 241.462L30.04 241.462L30.04 222.774L6.99999 222.774L6.99999 217.462L51.8 217.462L51.8 242.934ZM6.99999 257.793C6.99999 254.038 7.98132 251.67 9.94399 250.689C10.3707 250.476 10.7547 250.369 11.096 250.369L54.936 250.369L54.936 254.849L11.544 254.849C10.3067 254.849 9.34666 255.084 8.66399 255.553C8.02399 256.065 7.68266 256.577 7.63999 257.089L7.51199 257.793L7.51199 259.777L6.99999 259.777L6.99999 257.793ZM6.74399 279.143C6.74399 274.663 8.02399 271.015 10.584 268.199C13.144 265.383 17.0907 263.975 22.424 263.975C27.7573 263.975 31.896 265.426 34.84 268.327C37.784 271.271 39.256 274.983 39.256 279.463C39.256 283.986 37.976 287.655 35.416 290.471C32.856 293.287 28.9093 294.695 23.576 294.695C18.2427 294.695 14.104 293.223 11.16 290.279C8.21599 287.378 6.74399 283.666 6.74399 279.143ZM38.744 279.591C38.744 276.348 37.2933 273.66 34.392 271.527C31.5333 269.394 27.5227 268.327 22.36 268.327C17.24 268.327 13.4427 269.308 10.968 271.271C8.49332 273.234 7.25599 275.836 7.25599 279.079C7.25599 282.322 8.68532 285.01 11.544 287.143C14.4453 289.276 18.456 290.343 23.576 290.343C28.7387 290.343 32.5573 289.362 35.032 287.399C37.5067 285.436 38.744 282.834 38.744 279.591ZM38.616 344.506L39 344.89C38.9147 345.061 38.6587 345.274 38.232 345.53C37.8053 345.829 37.4213 345.999 37.08 346.042C36.7387 346.127 36.4187 346.17 36.12 346.17C34.968 346.17 33.7947 345.914 32.6 345.402L6.99999 333.754L6.99999 333.114L31.768 323.898L6.99999 312.634L6.99999 311.994L39 300.09L39 304.57L12.504 314.362L32.536 323.578L39 321.21L39 325.69L12.504 335.482L32.6 344.762C33.496 345.274 34.5627 345.53 35.8 345.53C37.0373 345.53 37.976 345.189 38.616 344.506ZM22.616 356.635C17.3253 356.635 13.4427 357.552 10.968 359.387C8.49332 361.264 7.25598 363.717 7.25598 366.747C7.25598 371.013 7.89598 374.811 9.17598 378.139L8.72798 378.331C7.40532 374.917 6.74398 371.056 6.74398 366.747C6.74398 362.48 8.02398 359.003 10.584 356.315C13.144 353.627 17.0907 352.283 22.424 352.283C27.7573 352.283 31.896 353.691 34.84 356.507C37.784 359.323 39.256 362.907 39.256 367.259C39.256 370.757 38.2107 373.701 36.12 376.091C34.0293 378.48 30.936 379.675 26.84 379.675C26.6267 379.675 26.4133 379.675 26.2 379.675L26.2 356.827C25.048 356.699 23.8533 356.635 22.616 356.635ZM26.712 375.323C30.808 375.28 33.8373 374.491 35.8 372.955C37.7627 371.419 38.744 369.435 38.744 367.003C38.744 364.571 37.6773 362.395 35.544 360.475C33.4107 358.597 30.4667 357.403 26.712 356.891L26.712 375.323ZM36.248 397.066L37.592 397.066C36.824 395.146 35.2667 393.397 32.92 391.818C30.616 390.24 28.44 389.408 26.392 389.322L6.99998 389.322L6.99998 384.842L39 384.842L39 389.322L28.824 389.322C31.2987 390.005 33.624 391.306 35.8 393.226C38.0187 395.146 39.1707 397.322 39.256 399.754L39.256 400.011C39.256 400.864 38.9573 401.568 38.36 402.122C37.8053 402.72 37.1013 403.018 36.248 403.018C35.3946 403.018 34.6906 402.72 34.136 402.122C33.5813 401.568 33.304 400.864 33.304 400.01C33.304 399.157 33.5813 398.453 34.136 397.899C34.6906 397.344 35.3946 397.066 36.248 397.066Z" fill="#4D5139"/>
</g>
<defs>
<filter id="filter0_d_359_10042" x="0.743988" y="0.47998" width="54.192" height="411.539" filterUnits="userSpaceOnUse" color-interpolation-filters="sRGB">
<feFlood flood-opacity="0" result="BackgroundImageFix"/>
<feColorMatrix in="SourceAlpha" type="matrix" values="0 0 0 0 0 0 0 0 0 0 0 0 0 0 0 0 0 0 127 0" result="hardAlpha"/>
<feOffset dx="-6" dy="9"/>
<feComposite in2="hardAlpha" operator="out"/>
<feColorMatrix type="matrix" values="0 0 0 0 0.839216 0 0 0 0 0.847059 0 0 0 0 0.788235 0 0 0 0.5 0"/>
<feBlend mode="normal" in2="BackgroundImageFix" result="effect1_dropShadow_359_10042"/>
<feBlend mode="normal" in="SourceGraphic" in2="effect1_dropShadow_359_10042" result="shape"/>
</filter>
</defs>
</svg>
