<svg width="55" height="104" viewBox="0 0 55 104" fill="none" xmlns="http://www.w3.org/2000/svg">
<g filter="url(#filter0_d_359_10035)">
<path d="M6.744 22.536C6.744 14.5573 9.00533 8.648 13.528 4.808C15.1493 3.44266 17.304 2.33333 19.992 1.48C22.68 0.626664 25.944 0.199998 29.784 0.199998C33.624 0.199998 37.0587 0.818665 40.088 2.056C43.16 3.336 45.528 5.064 47.192 7.24C50.3067 11.464 51.864 16.5627 51.864 22.536C51.864 24.456 51.7147 26.3333 51.416 28.168C51.16 30.0027 50.8827 31.368 50.584 32.264L50.136 33.608L49.496 33.416C50.648 30.088 51.224 26.4613 51.224 22.536C51.224 18.0133 49.752 14.2373 46.808 11.208C44.632 8.904 41.432 7.28267 37.208 6.344C34.8187 5.78933 31.896 5.512 28.44 5.512C24.984 5.512 21.784 6.00266 18.84 6.984C15.9387 7.96533 13.784 9.07466 12.376 10.312C10.968 11.592 9.83733 13.128 8.984 14.92C8.17333 16.712 7.704 18.1413 7.576 19.208C7.448 20.2747 7.384 21.5333 7.384 22.984C7.384 24.4773 7.55467 26.4613 7.896 28.936L21.08 28.936L21.08 21.192L21.72 21.192L21.72 37L21.08 37L21.08 34.248L8.472 34.248C7.32 31.0053 6.744 27.1013 6.744 22.536ZM7 49.5855C7 47.8362 7.384 46.4922 8.152 45.5535C8.92 44.6575 9.688 44.1882 10.456 44.1455L11.544 44.0815L39 44.0815L39 48.5615L11.544 48.5615C10.3067 48.5615 9.34666 48.7962 8.664 49.2655C8.024 49.7775 7.68266 50.2682 7.64 50.7375L7.512 51.5055L7.512 53.4895L7 53.4895L7 49.5855ZM46.168 44.4655C46.68 43.9535 47.32 43.6975 48.088 43.6975C48.856 43.6975 49.496 43.9535 50.008 44.4655C50.5627 44.9775 50.84 45.6175 50.84 46.3855C50.84 47.1535 50.5627 47.7935 50.008 48.3055C49.496 48.8602 48.856 49.1375 48.088 49.1375C47.32 49.1375 46.68 48.8602 46.168 48.3055C45.656 47.7935 45.4 47.1535 45.4 46.3855C45.4 45.6175 45.656 44.9775 46.168 44.4655ZM42.008 65.434L39 65.434L39 70.49L38.488 70.49L38.488 65.434L7 65.434L7 60.954L38.488 60.954L38.488 59.61L39 59.61L39 60.954L42.008 60.954C46.6587 60.954 49.9653 61.9567 51.928 63.962C53.9333 65.9673 54.9573 69.21 55 73.69L54.488 73.69C54.4453 70.746 53.4427 68.634 51.48 67.354C49.56 66.074 46.4027 65.434 42.008 65.434ZM38.488 77.8575L39 77.8575L39 79.2015L45.4 79.2015L45.4 83.6815L39 83.6815L39 93.4735L38.488 93.4735L38.488 83.6815L15.192 83.6815C12.4187 83.6815 10.4133 83.9802 9.176 84.5775C7.93866 85.2175 7.32 86.5188 7.32 88.4815C7.32 90.4868 7.72533 92.5135 8.536 94.5615L8.024 94.7535C7.21333 92.6202 6.808 90.1668 6.808 87.3935C6.808 84.6628 7.36266 82.6148 8.472 81.2495C9.624 79.8842 11.8853 79.2015 15.256 79.2015L38.488 79.2015L38.488 77.8575Z" fill="#4D5139"/>
</g>
<defs>
<filter id="filter0_d_359_10035" x="0.744003" y="0.199951" width="54.256" height="103.554" filterUnits="userSpaceOnUse" color-interpolation-filters="sRGB">
<feFlood flood-opacity="0" result="BackgroundImageFix"/>
<feColorMatrix in="SourceAlpha" type="matrix" values="0 0 0 0 0 0 0 0 0 0 0 0 0 0 0 0 0 0 127 0" result="hardAlpha"/>
<feOffset dx="-6" dy="9"/>
<feComposite in2="hardAlpha" operator="out"/>
<feColorMatrix type="matrix" values="0 0 0 0 0.839216 0 0 0 0 0.847059 0 0 0 0 0.788235 0 0 0 0.5 0"/>
<feBlend mode="normal" in2="BackgroundImageFix" result="effect1_dropShadow_359_10035"/>
<feBlend mode="normal" in="SourceGraphic" in2="effect1_dropShadow_359_10035" result="shape"/>
</filter>
</defs>
</svg>
