<svg width="410" height="58" viewBox="0 0 410 58" fill="none" xmlns="http://www.w3.org/2000/svg">
<g filter="url(#filter0_d_779_7119)">
<path d="M6.48 3.84L6.48 3.2L17.872 3.2V3.84L14.736 3.84L14.736 47.36H17.872V48L6.48 48L6.48 47.36H9.424L9.424 3.84L6.48 3.84ZM52.1175 48C50.3682 48 49.0242 47.616 48.0855 46.848C47.1895 46.08 46.7202 45.312 46.6775 44.544L46.6135 43.456L46.6135 23.36C46.6135 19.9893 45.7388 17.8347 43.9895 16.896C43.0935 16.4693 41.9842 16.256 40.6615 16.256C37.9308 16.256 35.4775 17.344 33.3015 19.52C31.1255 21.6533 30.0375 23.5733 30.0375 25.28L30.0375 48H25.5575L25.5575 16L30.0375 16L30.0375 23.296C30.7628 21.4613 32.1068 19.7547 34.0695 18.176C36.0322 16.5547 38.1868 15.744 40.5335 15.744C42.8802 15.744 44.7788 15.9787 46.2295 16.448C47.7228 16.8747 48.8108 17.4933 49.4935 18.304C50.5602 19.6267 51.0935 21.3333 51.0935 23.424L51.0935 43.456C51.0935 44.6933 51.3282 45.6533 51.7975 46.336C52.3095 46.976 52.8215 47.3173 53.3335 47.36L54.0375 47.488L56.0215 47.488V48L52.1175 48ZM61.18 33.152C61.18 27.6053 62.524 23.3173 65.212 20.288C67.9 17.2587 71.932 15.744 77.308 15.744C79.8253 15.744 82.364 16.384 84.924 17.664L84.924 0.0639992L89.404 0.0639992L89.404 43.456C89.404 44.6933 89.6387 45.6533 90.108 46.336C90.62 46.976 91.132 47.3173 91.644 47.36L92.348 47.488H94.332V48H90.428C88.6787 48 87.3347 47.616 86.396 46.848C85.5 46.08 85.0307 45.312 84.988 44.544L84.924 43.456V42.432C84.1133 43.9253 82.7693 45.248 80.892 46.4C79.0147 47.552 76.796 48.128 74.236 48.128C65.532 47.9147 61.18 42.9227 61.18 33.152ZM74.3 47.616C77.1587 47.616 79.612 46.848 81.66 45.312C83.708 43.776 84.796 42.2613 84.924 40.768L84.924 18.24C81.8947 16.9173 79.292 16.256 77.116 16.256C73.3187 16.256 70.46 17.7493 68.54 20.736C66.62 23.68 65.66 27.8187 65.66 33.152C65.66 42.7947 68.54 47.616 74.3 47.616ZM113.971 48.256C109.491 48.256 105.843 46.976 103.027 44.416C100.211 41.856 98.8025 37.9093 98.8025 32.576C98.8025 27.2427 100.253 23.104 103.155 20.16C106.099 17.216 109.811 15.744 114.291 15.744C118.813 15.744 122.483 17.024 125.299 19.584C128.115 22.144 129.523 26.0907 129.523 31.424C129.523 36.7573 128.051 40.896 125.107 43.84C122.205 46.784 118.493 48.256 113.971 48.256ZM114.419 16.256C111.176 16.256 108.488 17.7067 106.355 20.608C104.221 23.4667 103.155 27.4773 103.155 32.64C103.155 37.76 104.136 41.5573 106.099 44.032C108.061 46.5067 110.664 47.744 113.907 47.744C117.149 47.744 119.837 46.3147 121.971 43.456C124.104 40.5547 125.171 36.544 125.171 31.424C125.171 26.2613 124.189 22.4427 122.227 19.968C120.264 17.4933 117.661 16.256 114.419 16.256ZM152.343 48.256C147.863 48.256 144.215 46.976 141.399 44.416C138.583 41.856 137.175 37.9093 137.175 32.576C137.175 27.2427 138.626 23.104 141.527 20.16C144.471 17.216 148.183 15.744 152.663 15.744C157.186 15.744 160.855 17.024 163.671 19.584C166.487 22.144 167.895 26.0907 167.895 31.424C167.895 36.7573 166.423 40.896 163.479 43.84C160.578 46.784 156.866 48.256 152.343 48.256ZM152.791 16.256C149.548 16.256 146.86 17.7067 144.727 20.608C142.594 23.4667 141.527 27.4773 141.527 32.64C141.527 37.76 142.508 41.5573 144.471 44.032C146.434 46.5067 149.036 47.744 152.279 47.744C155.522 47.744 158.21 46.3147 160.343 43.456C162.476 40.5547 163.543 36.544 163.543 31.424C163.543 26.2613 162.562 22.4427 160.599 19.968C158.636 17.4933 156.034 16.256 152.791 16.256ZM186.522 18.752V17.408C184.602 18.176 182.852 19.7333 181.274 22.08C179.695 24.384 178.863 26.56 178.778 28.608L178.778 48H174.298L174.298 16L178.778 16L178.778 26.176C179.46 23.7013 180.762 21.376 182.682 19.2C184.602 16.9813 186.778 15.8293 189.21 15.744H189.466C190.319 15.744 191.023 16.0427 191.578 16.64C192.175 17.1947 192.474 17.8987 192.474 18.752C192.474 19.6053 192.175 20.3093 191.578 20.864C191.023 21.4187 190.319 21.696 189.466 21.696C188.612 21.696 187.908 21.4187 187.354 20.864C186.799 20.3093 186.522 19.6053 186.522 18.752ZM248.934 3.2V3.84L228.774 3.84L228.774 24.32L247.462 24.32V24.96L228.774 24.96L228.774 48H223.462L223.462 3.2L248.934 3.2ZM263.793 48C260.038 48 257.67 47.0187 256.689 45.056C256.476 44.6293 256.369 44.2453 256.369 43.904L256.369 0.0639992L260.849 0.0639992L260.849 43.456C260.849 44.6933 261.084 45.6533 261.553 46.336C262.065 46.976 262.577 47.3173 263.089 47.36L263.793 47.488H265.777V48H263.793ZM285.143 48.256C280.663 48.256 277.015 46.976 274.199 44.416C271.383 41.856 269.975 37.9093 269.975 32.576C269.975 27.2427 271.426 23.104 274.327 20.16C277.271 17.216 280.983 15.744 285.463 15.744C289.986 15.744 293.655 17.024 296.471 19.584C299.287 22.144 300.695 26.0907 300.695 31.424C300.695 36.7573 299.223 40.896 296.279 43.84C293.378 46.784 289.666 48.256 285.143 48.256ZM285.591 16.256C282.348 16.256 279.66 17.7067 277.527 20.608C275.394 23.4667 274.327 27.4773 274.327 32.64C274.327 37.76 275.308 41.5573 277.271 44.032C279.234 46.5067 281.836 47.744 285.079 47.744C288.322 47.744 291.01 46.3147 293.143 43.456C295.276 40.5547 296.343 36.544 296.343 31.424C296.343 26.2613 295.362 22.4427 293.399 19.968C291.436 17.4933 288.834 16.256 285.591 16.256ZM350.506 16.384L350.89 16C351.061 16.0853 351.274 16.3413 351.53 16.768C351.829 17.1947 351.999 17.5787 352.042 17.92C352.127 18.2613 352.17 18.5813 352.17 18.88C352.17 20.032 351.914 21.2053 351.402 22.4L339.754 48H339.114L329.898 23.232L318.634 48H317.994L306.09 16L310.57 16L320.362 42.496L329.578 22.464L327.21 16L331.69 16L341.482 42.496L350.762 22.4C351.274 21.504 351.53 20.4373 351.53 19.2C351.53 17.9627 351.189 17.024 350.506 16.384ZM362.635 32.384C362.635 37.6747 363.552 41.5573 365.387 44.032C367.264 46.5067 369.717 47.744 372.747 47.744C377.013 47.744 380.811 47.104 384.139 45.824L384.331 46.272C380.917 47.5947 377.056 48.256 372.747 48.256C368.48 48.256 365.003 46.976 362.315 44.416C359.627 41.856 358.283 37.9093 358.283 32.576C358.283 27.2427 359.691 23.104 362.507 20.16C365.323 17.216 368.907 15.744 373.259 15.744C376.757 15.744 379.701 16.7893 382.091 18.88C384.48 20.9707 385.675 24.064 385.675 28.16C385.675 28.3733 385.675 28.5867 385.675 28.8L362.827 28.8C362.699 29.952 362.635 31.1467 362.635 32.384ZM381.323 28.288C381.28 24.192 380.491 21.1627 378.955 19.2C377.419 17.2373 375.435 16.256 373.003 16.256C370.571 16.256 368.395 17.3227 366.475 19.456C364.597 21.5893 363.403 24.5333 362.891 28.288L381.323 28.288ZM403.067 18.752V17.408C401.147 18.176 399.397 19.7333 397.819 22.08C396.24 24.384 395.408 26.56 395.323 28.608V48H390.843L390.843 16L395.323 16V26.176C396.005 23.7013 397.307 21.376 399.227 19.2C401.147 16.9813 403.323 15.8293 405.755 15.744L406.011 15.744C406.864 15.744 407.568 16.0427 408.123 16.64C408.72 17.1947 409.019 17.8987 409.019 18.752C409.019 19.6053 408.72 20.3093 408.123 20.864C407.568 21.4187 406.864 21.696 406.011 21.696C405.157 21.696 404.453 21.4187 403.899 20.864C403.344 20.3093 403.067 19.6053 403.067 18.752Z" fill="#4D5139"/>
</g>
<defs>
<filter id="filter0_d_779_7119" x="0.47998" y="0.0644531" width="408.539" height="57.1914" filterUnits="userSpaceOnUse" color-interpolation-filters="sRGB">
<feFlood flood-opacity="0" result="BackgroundImageFix"/>
<feColorMatrix in="SourceAlpha" type="matrix" values="0 0 0 0 0 0 0 0 0 0 0 0 0 0 0 0 0 0 127 0" result="hardAlpha"/>
<feOffset dx="-6" dy="9"/>
<feComposite in2="hardAlpha" operator="out"/>
<feColorMatrix type="matrix" values="0 0 0 0 0.839216 0 0 0 0 0.847059 0 0 0 0 0.788235 0 0 0 0.5 0"/>
<feBlend mode="normal" in2="BackgroundImageFix" result="effect1_dropShadow_779_7119"/>
<feBlend mode="normal" in="SourceGraphic" in2="effect1_dropShadow_779_7119" result="shape"/>
</filter>
</defs>
</svg>
