<svg width="100" height="100" viewBox="0 0 100 100" fill="none" xmlns="http://www.w3.org/2000/svg">
<path d="M59.7917 8.33331H40.2084C32.3334 8.33331 32.3334 8.33331 32.3334 16.1666V20.0833C32.3334 27.9166 32.3334 27.9166 40.1667 27.9166H59.7917C67.625 27.9166 67.625 27.9166 67.625 20.0833V16.1666C67.625 8.33331 67.625 8.33331 59.7917 8.33331Z" fill="#445251"/>
<path d="M71.8333 20.0832C71.8333 32.1249 71.8333 32.1249 59.7917 32.1249H34.7917C28.1667 32.1249 28.1667 32.1249 28.1667 20.0832C28.1667 17.7499 26.3955 17.9998 23.5 17.9998C20.4167 17.9998 18.5 17.9998 15.5 18C13.5 17.9998 13.7083 17.9998 13.7083 33.8332V73.0416C13.7083 91.6666 13.7083 91.6666 32.3333 91.6666H67.6667C86.2917 91.6666 86.2917 91.6666 86.2917 73.0416V33.8332C86 17.9998 86 17.9998 84 18.0004C80 17.9999 80.2574 17.9998 76.5 17.9998C71.8333 17.9996 71.8333 17.7499 71.8333 20.0832ZM63.9167 53.0416L47.25 69.7082C46.625 70.3332 45.8333 70.6249 45.0417 70.6249C44.25 70.6249 43.4583 70.3332 42.8333 69.7082L36.5833 63.4582C36.0022 62.8702 35.6763 62.0767 35.6763 61.2499C35.6763 60.4231 36.0022 59.6297 36.5833 59.0416C37.7917 57.8332 39.7917 57.8332 41 59.0416L45.0417 63.0832L59.5 48.6249C60.7083 47.4166 62.7083 47.4166 63.9167 48.6249C65.125 49.8332 65.125 51.8332 63.9167 53.0416Z" fill="#445251"/>
</svg>
