<svg width="114" height="194" viewBox="0 0 114 194" fill="none" xmlns="http://www.w3.org/2000/svg">
<path fill-rule="evenodd" clip-rule="evenodd" d="M31.425 175.64C32.2289 176.028 42.9887 180.024 43.6069 180.412C44.6576 180.746 45.4615 181.689 45.4615 182.744C45.4615 183.299 44.8433 184.575 43.2348 184.575C42.1842 184.575 41.566 184.242 40.9478 184.021C40.3296 183.687 30.3737 177.638 30.3737 177.638V177.805C30.9918 178.359 37.4848 185.519 38.103 186.24C38.5354 186.962 39.1536 187.85 39.1536 188.793C39.1536 190.237 37.4848 190.792 36.6809 190.792C35.5049 190.792 34.4542 190.07 33.8367 188.627C33.4646 187.851 28.9516 179.637 28.5795 178.915H28.3334C28.3334 179.636 30.0022 188.96 30.0022 190.07C30.0022 191.18 29.7561 193.345 27.3438 193.345C24.9314 193.345 24.4989 191.18 24.4989 190.07C24.4989 189.127 26.1074 180.746 26.3535 178.915L26.1074 178.747C25.4892 180.024 21.8404 186.962 20.8502 188.626C20.0462 190.069 18.9956 190.791 18.006 190.791C16.956 190.791 15.5339 190.236 15.5339 188.793C15.5339 187.85 16.1521 186.794 16.5839 186.24C17.3878 185.13 23.5106 179.137 24.3132 177.804L24.0671 177.637C24.0671 177.637 14.1111 183.686 13.4929 184.02C13.1208 184.408 12.3169 184.575 11.5143 184.575C9.65847 184.575 9.03963 183.466 9.03963 182.965C9.03963 181.688 10.0299 180.745 10.8942 180.412C11.5137 180.024 22.2723 176.027 23.0762 175.806V175.472C22.458 175.472 11.8845 176.748 10.8942 176.748C9.47275 176.75 7 176.528 7 174.363C7 171.977 9.47275 171.977 10.8948 171.977C12.0708 171.977 21.8404 173.253 23.0768 173.253L23.2632 173.086C22.2729 172.698 12.0708 168.869 10.8948 168.314C10.0299 167.98 9.04028 167.038 9.04028 165.982C9.04028 164.484 10.0306 163.595 11.2669 163.595C11.6994 163.595 12.0708 163.595 12.5033 163.762C14.915 164.872 23.5106 170.922 24.0671 171.088L24.3132 170.921C23.695 170.366 17.3878 163.595 16.5839 162.485C16.3378 162.152 15.3475 161.042 15.3475 160.155C15.3475 158.656 16.7696 157.934 18.1917 157.934C19.182 157.934 20.0462 158.656 20.8502 160.155C21.6541 161.431 25.921 169.811 25.921 169.811H26.3535C26.3535 169.811 24.4989 159.932 24.4989 158.823C24.4989 157.547 24.9314 155.382 27.3438 155.382C29.7561 155.382 30.0022 157.547 30.0022 158.823C30.0022 159.599 28.5795 168.869 28.3334 169.812H28.7658C29.5697 168.147 33.4646 160.876 33.8367 160.155C34.6406 158.823 35.6912 157.768 36.9276 157.768C37.7315 157.768 39.1543 158.657 39.1543 160.155C39.1543 161.043 38.5361 161.931 38.1036 162.486C37.7322 163.041 30.8061 170.366 30.3743 171.088L30.6204 171.255C30.9925 170.922 39.7725 164.872 41.9985 163.984C42.3699 163.763 42.9887 163.763 43.2348 163.763C44.6569 163.763 45.6472 164.706 45.6472 165.982C45.6472 167.259 44.8433 167.981 43.7927 168.315C42.9888 168.703 32.2282 172.699 31.6107 173.087L31.7964 173.254C32.6613 173.087 42.803 171.978 43.7927 171.978C45.029 171.81 47.6875 171.977 47.6875 174.363C47.6875 176.528 45.029 176.749 43.7927 176.749C42.3699 176.749 33.4646 175.806 31.6107 175.473L31.425 175.64ZM28.5801 174.53C28.5801 174.196 28.1477 173.475 27.3438 173.475C26.5398 173.475 26.1074 174.196 26.1074 174.53C26.1074 175.085 26.5398 175.64 27.3438 175.64C28.1477 175.64 28.5801 175.085 28.5801 174.53Z" fill="#D6D8C9" fill-opacity="0.5"/>
<rect width="114" height="157" rx="57" fill="#CBA794"/>
<path d="M27.6875 175.75C27.7292 174.833 27.75 173.917 27.75 173C27.75 172.083 27.7292 171.312 27.6875 170.688L28.625 171.125H31.5V169.812H28.1875C27.6458 169.812 27.1458 169.875 26.6875 170L26.125 169.438H31.5C31.5 169.062 31.4792 168.542 31.4375 167.875L32.9375 168.5L32.375 168.938V169.438H36.0625L36.9375 168.562L38.1875 169.812H32.375V171.125H35.3125L35.75 170.562L36.75 171.312L36.3125 171.688C36.3125 172.604 36.3125 173.25 36.3125 173.625C36.3125 173.958 36.3333 174.458 36.375 175.125L35.4375 175.5V175H32.375V176.438C33.125 176.438 34.1875 176.417 35.5625 176.375C35.2708 176.125 34.8333 175.792 34.25 175.375L34.375 175.188C35.6667 175.646 36.4792 176 36.8125 176.25C37.1875 176.458 37.375 176.708 37.375 177C37.375 177.167 37.3333 177.354 37.25 177.562C37.1667 177.771 37.0833 177.875 37 177.875C36.9167 177.875 36.8333 177.812 36.75 177.688C36.5417 177.438 36.25 177.104 35.875 176.688C31.7083 177.021 28.9167 177.312 27.5 177.562L26.9375 177.75L26.4375 176.562C27.1875 176.646 28.875 176.625 31.5 176.5V175H28.625V175.438L27.6875 175.75ZM28.625 171.5V172.875H31.5V171.5H28.625ZM32.375 171.5V172.875H35.4375V171.5H32.375ZM28.625 173.25V174.625H31.5V173.25H28.625ZM32.375 173.25V174.625H35.4375V173.25H32.375ZM33.8125 178.438C33.8125 177.979 33.7917 177.521 33.75 177.062L35.25 177.688L34.75 178V178.438H36.75L37.75 177.438L39.125 178.812H34.75V181.062C34.7917 181.771 34.3333 182.292 33.375 182.625C33.3333 182.125 32.7292 181.729 31.5625 181.438V181.125C32.4375 181.208 33.0208 181.25 33.3125 181.25C33.6458 181.25 33.8125 181.104 33.8125 180.812V178.812H27.125C26.5833 178.812 26.0833 178.875 25.625 179L25.0625 178.438H33.8125ZM28 179.062L28.1875 178.938C29.0208 179.396 29.5417 179.729 29.75 179.938C29.9583 180.146 30.0417 180.396 30 180.688C30 180.938 29.9167 181.146 29.75 181.312C29.625 181.479 29.5417 181.562 29.5 181.562C29.375 181.562 29.25 181.354 29.125 180.938C28.9167 180.354 28.5417 179.729 28 179.062ZM47.5775 168.062L49.4525 168.875L48.8275 169.438C49.0775 171.646 49.4942 173.521 50.0775 175.062C50.7025 176.604 51.515 177.917 52.515 179C53.5567 180.042 54.7025 180.667 55.9525 180.875V181.188C55.1192 181.229 54.5358 181.521 54.2025 182.062C53.0775 181.271 52.14 180.354 51.39 179.312C50.6817 178.229 50.0983 177.083 49.64 175.875C49.1817 174.667 48.8483 173 48.64 170.875C48.4733 172.875 48.1817 174.562 47.765 175.938C47.3483 177.271 46.64 178.5 45.64 179.625C44.64 180.708 43.265 181.625 41.515 182.375L41.39 182.188C43.14 181.104 44.4525 179.938 45.3275 178.688C46.2442 177.396 46.8483 175.792 47.14 173.875C47.4733 171.917 47.6192 169.979 47.5775 168.062ZM60.4675 169.5V172.438H63.03V169.5H60.4675ZM60.4675 172.812V175.812H63.03V172.812H60.4675ZM60.4675 176.188C60.4675 177.479 60.3008 178.604 59.9675 179.562C59.6342 180.521 59.0092 181.458 58.0925 182.375L57.905 182.25C59.0717 180.792 59.655 178.75 59.655 176.125C59.655 172.333 59.6342 169.792 59.5925 168.5L60.53 169.125H62.905L63.4675 168.5L64.3425 169.375L63.8425 169.75V180.812C63.8425 181.479 63.4258 181.979 62.5925 182.312C62.5092 181.771 61.9258 181.312 60.8425 180.938V180.688C61.9258 180.938 62.5508 181.021 62.7175 180.938C62.9258 180.854 63.03 180.688 63.03 180.438V176.188H60.4675ZM66.155 174.938V181.438C67.1133 180.812 67.9467 180.021 68.655 179.062C67.905 177.938 67.3425 176.562 66.9675 174.938H66.155ZM71.2175 175.125C70.6758 176.875 70.1133 178.188 69.53 179.062C70.53 180.146 71.5717 180.75 72.655 180.875V181.125C71.9883 181.208 71.6133 181.438 71.53 181.812C70.6133 181.229 69.8008 180.5 69.0925 179.625C68.2592 180.5 67.28 181.208 66.155 181.75V182.062L65.28 182.5C65.3217 180.792 65.3425 178.479 65.3425 175.562C65.3425 172.604 65.3217 170.25 65.28 168.5L66.28 169.125H69.905L70.4675 168.5L71.405 169.312L70.905 169.625C70.8633 170.333 70.8008 171.021 70.7175 171.688C70.6758 172.312 70.53 172.75 70.28 173C70.0717 173.25 69.6758 173.458 69.0925 173.625C69.0925 173.167 68.5925 172.792 67.5925 172.5V172.25C68.6342 172.458 69.2383 172.542 69.405 172.5C69.6133 172.417 69.7592 172.188 69.8425 171.812C69.9258 171.396 69.9883 170.625 70.03 169.5H66.155V174.562H70.28L70.78 174L71.7175 174.812L71.2175 175.125ZM67.3425 174.938C67.7592 176.354 68.3217 177.521 69.03 178.438C69.5717 177.562 70.0092 176.396 70.3425 174.938H67.3425ZM75.045 169.25H79.8575L80.3575 168.75L81.295 170C80.7533 170.125 80.3158 170.271 79.9825 170.438C79.6908 170.562 79.2325 170.917 78.6075 171.5C79.1908 171.917 79.4408 172.292 79.3575 172.625C79.2742 172.917 79.1492 173.125 78.9825 173.25C78.8575 173.375 78.7325 173.292 78.6075 173C78.4825 172.75 78.2742 172.458 77.9825 172.125C77.6908 171.75 77.2117 171.292 76.545 170.75L76.7325 170.562C77.2742 170.771 77.8158 171.021 78.3575 171.312L79.92 169.625H77.1075C76.5658 169.625 76.0658 169.688 75.6075 169.812L75.045 169.25ZM78.9825 180.75C78.9408 181.542 78.5033 182.083 77.67 182.375C77.7117 182.125 77.6075 181.896 77.3575 181.688C77.1492 181.521 76.67 181.312 75.92 181.062L75.9825 180.75C76.6075 180.833 77.1075 180.896 77.4825 180.938C77.8992 180.979 78.1283 180.75 78.17 180.25V174.812C77.5033 176.354 76.8783 177.479 76.295 178.188C75.7533 178.896 75.2117 179.479 74.67 179.938L74.545 179.75C75.2533 178.875 75.8367 178 76.295 177.125C76.795 176.208 77.2325 175.125 77.6075 173.875H76.92C76.3783 173.875 75.8783 173.938 75.42 174.062L74.8575 173.5H80.17L80.545 173.062L81.545 174C81.2117 174.083 80.92 174.229 80.67 174.438C80.42 174.646 80.17 174.938 79.92 175.312L79.7325 175.25L80.2325 173.875H78.9825V180.75ZM84.7325 175.562C84.3992 175.729 84.1908 176.104 84.1075 176.688H86.545L86.9825 176.188L87.92 176.938L87.42 177.312C87.2117 179.646 86.9825 181.042 86.7325 181.5C86.5242 181.958 86.1075 182.292 85.4825 182.5C85.4408 182.167 85.2533 181.896 84.92 181.688C84.5867 181.521 84.2325 181.354 83.8575 181.188L83.92 180.875C84.6283 181.042 85.1283 181.125 85.42 181.125C85.7533 181.167 85.9825 181.021 86.1075 180.688C86.2742 180.312 86.4408 179.104 86.6075 177.062H84.045C83.795 178.396 83.3367 179.458 82.67 180.25C82.045 181 81.0033 181.75 79.545 182.5L79.3575 182.25C80.2742 181.75 81.0658 181.104 81.7325 180.312C82.4408 179.479 82.9408 178.396 83.2325 177.062H82.795C82.2533 177.062 81.7533 177.125 81.295 177.25L80.7325 176.688H83.295C83.42 175.979 83.4825 175.417 83.4825 175L84.7325 175.562ZM82.92 170.625C82.42 171.333 81.8783 172 81.295 172.625L81.1075 172.5C81.5658 171.875 81.9825 171.146 82.3575 170.312C82.7742 169.438 83.0242 168.729 83.1075 168.188L84.295 168.938C84.045 169.021 83.7742 169.312 83.4825 169.812H86.4825L86.9825 169.312L87.92 170.125L87.295 170.5C86.8367 171.5 86.2325 172.396 85.4825 173.188C86.0242 173.688 86.6283 174.083 87.295 174.375C87.9617 174.625 88.6283 174.75 89.295 174.75V175C88.5867 175.25 88.2325 175.521 88.2325 175.812C87.0658 175.396 85.9617 174.688 84.92 173.688C83.7117 174.812 82.1075 175.729 80.1075 176.438L79.9825 176.188C81.6075 175.521 83.1075 174.542 84.4825 173.25C83.7742 172.5 83.2533 171.625 82.92 170.625ZM83.1075 170.375C83.5242 171.292 84.1283 172.083 84.92 172.75C85.67 171.917 86.2117 171.062 86.545 170.188H83.2325L83.1075 170.375Z" fill="#4D5139"/>
<path d="M59.0207 102.56L59.0198 102.559C58.7874 102.337 58.7204 101.988 58.8519 101.695L58.8519 101.694L63.1607 92.0681C63.1608 92.0679 63.1609 92.0677 63.161 92.0675C63.2027 91.9783 63.2568 91.8995 63.3272 91.8317L63.3276 91.8312L93.143 62.7447C93.448 62.4483 93.941 62.4491 94.2406 62.7507L94.2408 62.7509L99.1183 67.629L99.1843 67.563L99.1183 67.629C99.4202 67.9309 99.4182 68.4166 99.1161 68.7165L99.1866 68.7874L99.1161 68.7165L69.5931 98.0572C69.5288 98.121 69.4582 98.1735 69.3792 98.2085L69.377 98.2096L59.8975 102.703L59.8959 102.704C59.7889 102.757 59.6775 102.78 59.5626 102.78C59.3637 102.78 59.1696 102.705 59.0207 102.56ZM64.2253 93.8228L64.1226 93.7209L64.0635 93.8529L61.2385 100.166L61.1278 100.413L61.3726 100.297L67.5858 97.3499L67.7144 97.2889L67.6134 97.1886L64.2253 93.8228ZM65.0478 92.3123L64.9751 92.3833L65.0471 92.4549L68.9691 96.3505L69.0396 96.4205L69.1101 96.3505L92.5369 73.0637L92.6083 72.9927L92.5368 72.9218L88.8294 69.2439L88.7595 69.1746L88.6891 69.2434L65.0478 92.3123ZM89.9444 68.0238L89.8717 68.0948L89.9438 68.1664L93.639 71.8346L93.7095 71.9046L93.78 71.8345L97.3948 68.2414L97.4659 68.1706L97.395 68.0997L93.7485 64.4533L93.6787 64.3835L93.608 64.4524L89.9444 68.0238ZM84.7151 43.9376V60.7752H83.1601V44.8087V44.7087H83.0601H69.3126C68.882 44.7087 68.5351 44.3632 68.5351 43.9376V30.2907V30.1907H68.4351H26.3151H26.2151V30.2907V101.138V101.238H26.3151H49.7126V102.78H25.4376C25.007 102.78 24.6601 102.435 24.6601 102.009V29.4197C24.6601 28.9941 25.007 28.6486 25.4376 28.6486H69.3126C69.5205 28.6486 69.7193 28.7304 69.8637 28.8736L84.4881 43.391C84.4882 43.391 84.4882 43.3911 84.4882 43.3911C84.6333 43.5373 84.7151 43.7323 84.7151 43.9376ZM70.0901 43.0665V43.1665H70.1901H81.8194H82.0621L81.8898 42.9955L70.2605 31.4514L70.0901 31.2822V31.5223V43.0665ZM62.7776 76.9417V77.0417H62.8776H68.4351H68.5351V76.9417V56.9069V56.8069H68.4351H62.8776H62.7776V56.9069V76.9417ZM50.5901 76.9417V77.0417H50.6901H56.2476H56.3476V76.9417V49.648V49.548H56.2476H50.6901H50.5901V49.648V76.9417ZM38.4026 76.9417V77.0417H38.5026H44.0601H44.1601V76.9417V64.1659V64.0659H44.0601H38.5026H38.4026V64.1659V76.9417ZM69.3126 78.5838H62.0001C61.5695 78.5838 61.2226 78.2383 61.2226 77.8128V56.0359C61.2226 55.6103 61.5695 55.2648 62.0001 55.2648H69.3126C69.7431 55.2648 70.0901 55.6103 70.0901 56.0359V77.8128C70.0901 78.2383 69.7431 78.5838 69.3126 78.5838ZM57.1251 78.5838H49.8126C49.382 78.5838 49.0351 78.2383 49.0351 77.8128V48.7769C49.0351 48.3513 49.382 48.0058 49.8126 48.0058H57.1251C57.5556 48.0058 57.9026 48.3513 57.9026 48.7769V77.8128C57.9026 78.2383 57.5556 78.5838 57.1251 78.5838ZM44.9376 78.5838H37.6251C37.1945 78.5838 36.8476 78.2383 36.8476 77.8128V63.2948C36.8476 62.8692 37.1945 62.5238 37.6251 62.5238H44.9376C45.3681 62.5238 45.7151 62.8692 45.7151 63.2948V77.8128C45.7151 78.2383 45.3681 78.5838 44.9376 78.5838Z" fill="#FFFCF5" stroke="#CBA794" stroke-width="0.2"/>
<path d="M23.1 27.1H100.9V104.329H23.1V27.1Z" stroke="#CBA794" stroke-width="0.2"/>
<path d="M27.296 118.96H34.72L35.424 118.08C35.424 118.08 36.256 118.704 36.784 119.168C36.736 119.344 36.592 119.424 36.368 119.424H27.424L27.296 118.96ZM26.848 122.4H35.44L36.176 121.504C36.176 121.504 37.024 122.16 37.568 122.624C37.52 122.8 37.376 122.88 37.152 122.88H26.976L26.848 122.4ZM25.216 126.32H36.8L37.584 125.312C37.584 125.312 38.48 126.016 39.04 126.512C38.992 126.688 38.832 126.768 38.608 126.768H25.36L25.216 126.32ZM31.408 119.04H32.48V126.704H31.408V119.04ZM27.264 113.392H32.544V113.84H27.408L27.264 113.392ZM31.008 113.392H32.528C30.944 116.176 27.92 118.608 24.672 120.048L24.544 119.84C27.28 118.256 29.872 115.744 31.008 113.392ZM32.128 113.392H31.824L32.336 112.608L33.808 113.584C33.632 113.776 33.248 113.856 32.736 113.904C33.888 115.552 36.72 117.424 39.584 118.368L39.568 118.56C39.072 118.64 38.656 119.024 38.512 119.472C35.872 118.112 33.264 115.968 32.128 113.648V113.392ZM45.84 126.816C45.84 126.912 45.488 127.184 44.992 127.184H44.816V121.984L44.88 121.888L46.048 122.384H45.84V126.816ZM52.224 122.384V122.848H45.328V122.384H52.224ZM51.856 116.752V117.232H46.128L46.416 116.752H51.856ZM51.424 122.384L52 121.744L53.28 122.736C53.184 122.848 52.928 122.96 52.624 123.024V126.816C52.608 126.912 52.08 127.152 51.744 127.152H51.584V122.384H51.424ZM52.24 125.728V126.208H45.216V125.728H52.24ZM51.12 116.752L51.968 116.048L53.184 117.248C53.024 117.36 52.8 117.392 52.336 117.392C50.24 120.096 45.76 122.384 41.408 123.408L41.28 123.152C45.408 121.92 49.696 119.376 51.344 116.752H51.12ZM48.16 115.952C48.064 116.112 47.84 116.208 47.504 116.128C46.096 118.144 44.176 119.616 42.304 120.432L42.128 120.192C43.744 119.2 45.536 117.344 46.704 115.152L48.16 115.952ZM46.176 117.04C47.888 119.776 51.936 121.248 56.144 121.792L56.112 121.968C55.648 122.048 55.296 122.384 55.168 122.912C51.056 122.08 47.6 120.368 45.92 117.232L46.176 117.04ZM47.504 112.528C50.528 112.96 49.712 115.168 48.608 114.464C48.48 113.824 47.904 113.056 47.344 112.672L47.504 112.528ZM53.984 114.688L54.656 114L55.888 115.2C55.76 115.296 55.584 115.328 55.28 115.344C54.912 115.936 54.272 116.768 53.76 117.264L53.552 117.152C53.76 116.48 54.048 115.328 54.16 114.688H53.984ZM43.296 113.952C43.808 115.696 43.248 116.784 42.624 117.216C42.224 117.504 41.664 117.52 41.488 117.152C41.344 116.816 41.552 116.512 41.872 116.304C42.512 115.968 43.088 115.008 43.008 113.952H43.296ZM54.672 114.688V115.168H43.056V114.688H54.672ZM63.36 123.056V124.096H62.336V123.472L63.36 123.056ZM61.904 126.16C62.704 126 64.544 125.536 66.368 125.024L66.448 125.264C65.616 125.648 64.048 126.416 62.416 127.104L61.904 126.16ZM63.12 123.632L63.36 123.776V126.048L62.32 126.464L62.624 126.064C62.912 126.688 62.592 127.136 62.368 127.28L61.664 126.224C62.24 125.872 62.336 125.744 62.336 125.52V123.632H63.12ZM71.264 122.896C71.152 123.04 71.024 123.104 70.688 123.008C69.92 123.472 68.512 124.032 67.344 124.352L67.152 124.128C68.128 123.6 69.344 122.704 69.952 122.112L71.264 122.896ZM65.424 121.504C66.56 124.112 69.264 125.472 72.608 126.048L72.576 126.208C72.128 126.288 71.808 126.624 71.664 127.168C68.432 126.288 66.208 124.656 65.152 121.648L65.424 121.504ZM65.696 121.76C64.032 123.504 61.312 124.688 58.24 125.344L58.112 125.072C60.688 124.272 62.992 123.008 64.368 121.504H65.696V121.76ZM64.32 120.096C66.656 120.144 66.096 121.968 65.12 121.472C65.008 121.008 64.576 120.496 64.16 120.224L64.32 120.096ZM71.024 120.512C71.024 120.512 71.84 121.136 72.384 121.616C72.336 121.792 72.176 121.872 71.952 121.872H58.384L58.24 121.392H70.304L71.024 120.512ZM65.136 117.248L65.632 116.64L66.928 117.6C66.832 117.712 66.56 117.84 66.24 117.904V118.768C66.24 119.44 66.096 119.824 65.024 119.904C64.992 119.728 64.944 119.52 64.832 119.392C64.688 119.296 64.464 119.2 64.032 119.136V118.88C64.032 118.88 64.8 118.96 65.056 118.96C65.248 118.96 65.296 118.864 65.296 118.688V117.248H65.136ZM61.488 113.088C61.424 113.264 61.248 113.408 60.912 113.392C60.512 114.32 59.904 115.136 59.248 115.664L58.992 115.504C59.44 114.8 59.808 113.744 60 112.656L61.488 113.088ZM65.328 113.232C65.328 113.232 66.08 113.792 66.576 114.272C66.528 114.448 66.384 114.528 66.16 114.528H59.776L60 114.048H64.672L65.328 113.232ZM60.432 119.76C60.432 119.856 60.016 120.048 59.632 120.048H59.488V116.784L60.512 117.248H66.016V117.712H60.432V119.76ZM71.984 112.88C71.936 113.104 71.776 113.232 71.424 113.28V119.136C71.424 119.936 71.248 120.4 69.888 120.528C69.856 120.256 69.776 120.016 69.584 119.856C69.376 119.728 69.024 119.6 68.384 119.52V119.28C68.384 119.28 69.792 119.392 70.096 119.392C70.352 119.392 70.432 119.296 70.432 119.088V112.704L71.984 112.88ZM66.032 114.896C66.032 114.896 66.784 115.488 67.264 115.92C67.216 116.096 67.072 116.176 66.848 116.176H58.576L58.448 115.712H65.36L66.032 114.896ZM63.872 112.768C63.84 112.992 63.696 113.136 63.296 113.184V120.336C63.296 120.48 62.896 120.688 62.528 120.688H62.336V112.592L63.872 112.768ZM69.328 113.328C69.296 113.536 69.136 113.68 68.752 113.744V118.256C68.752 118.368 68.336 118.576 67.968 118.576H67.792V113.152L69.328 113.328ZM80.352 113.2C80.288 113.36 80.096 113.504 79.728 113.472C78.48 116.624 76.672 119.408 74.688 121.2L74.464 121.024C76.032 119.04 77.68 115.84 78.64 112.608L80.352 113.2ZM78.752 117.136C78.688 117.28 78.544 117.376 78.256 117.424V126.864C78.24 126.96 77.808 127.232 77.392 127.232H77.2V117.344L77.68 116.72L78.752 117.136ZM87.328 117.328C87.328 117.328 88.208 118.032 88.736 118.544C88.688 118.72 88.528 118.8 88.304 118.8H82.032L81.904 118.32H86.56L87.328 117.328ZM83.168 113.104C83.136 113.312 82.976 113.488 82.592 113.552V125.152C82.592 125.616 82.752 125.792 83.584 125.792H85.52C86.432 125.792 87.104 125.776 87.376 125.744C87.584 125.712 87.68 125.648 87.76 125.504C87.904 125.216 88.128 124.144 88.352 122.992H88.56L88.608 125.6C89.008 125.728 89.12 125.856 89.12 126.08C89.12 126.624 88.464 126.784 85.488 126.784H83.472C82.016 126.784 81.552 126.464 81.552 125.392V112.912L83.168 113.104Z" fill="#FFFCF5"/>
</svg>
