<svg width="79" height="79" viewBox="0 0 79 79" fill="none" xmlns="http://www.w3.org/2000/svg">
<path d="M1.63522 29.3542C1.47545 29.3114 1.38054 29.147 1.42456 28.9876C3.05621 23.0778 6.04157 17.6275 10.1458 13.0693C14.25 8.51116 19.3584 4.97244 25.0652 2.73198C25.2192 2.67154 25.3925 2.74875 25.4518 2.90317V2.90317C25.5111 3.05759 25.4338 3.23074 25.2799 3.29121C19.6613 5.49777 14.6319 8.98221 10.5909 13.4701C6.54996 17.9581 3.61033 23.3242 2.00315 29.1426C1.95911 29.3021 1.79499 29.397 1.63522 29.3542V29.3542Z" fill="#4D5139"/>
<path d="M1.63522 49.6458C1.47545 49.6886 1.38054 49.853 1.42456 50.0124C3.05621 55.9222 6.04157 61.3725 10.1458 65.9307C14.25 70.4888 19.3584 74.0276 25.0652 76.268C25.2192 76.3285 25.3925 76.2512 25.4518 76.0968V76.0968C25.5111 75.9424 25.4338 75.7693 25.2799 75.7088C19.6613 73.5022 14.6319 70.0178 10.5909 65.5299C6.54996 61.0419 3.61033 55.6758 2.00315 49.8574C1.95911 49.6979 1.79499 49.603 1.63522 49.6458V49.6458Z" fill="#4D5139"/>
<rect x="3" y="3" width="73" height="73" rx="36.5" fill="#445251"/>
</svg>
