<svg width="957" height="829" viewBox="0 0 957 829" fill="none" xmlns="http://www.w3.org/2000/svg">
<path d="M475.713 131.339C472.953 129.887 470.506 128.041 468.471 125.687C466.61 123.546 464.566 121.7 462.227 120.076C457.968 117.107 453.338 114.539 448.37 112.972C436.877 109.355 424.569 111.471 412.871 112.751C410.473 113.013 407.516 112.833 405.242 113.645C404.55 113.891 403.718 114.465 404.517 115.163C404.575 115.212 404.781 115.417 404.855 115.417C405.077 115.122 405.308 114.826 405.53 114.531C405.118 114.506 404.706 114.482 404.303 114.457C402.779 114.383 401.238 114.416 399.714 114.244C398.215 114.08 397.399 113.899 396.723 112.57C396.312 111.758 395.397 110.585 395.282 109.732C395.158 108.838 395.809 108.19 396.015 107.378C396.213 106.615 396.081 106.024 395.768 105.319C394.903 103.366 393.478 101.406 392.061 99.8063C389.136 96.5005 384.877 94.4989 381.005 92.5138C378.541 91.2505 376.053 90.6435 374.019 88.6583C371.885 86.5829 370.122 83.8841 369.026 81.1279C368.103 78.8228 367.477 76.0583 367.527 73.5564C367.584 70.6689 368.993 68.0193 370.402 65.5748C373.063 60.9564 375.674 56.3791 377.38 51.326C378.261 48.701 379.843 47.7002 382.529 47.1998C384.415 46.8471 386.566 46.5354 388.46 46.9209C390.742 47.3803 393.024 48.8979 395.381 47.8561C396.6 47.3147 397.366 46.1991 397.984 45.067C398.61 43.9104 399.92 41.671 399.549 40.2436C399.121 38.6194 395.982 39.4069 397.127 40.7522C397.745 41.4823 399.228 41.5889 400.077 41.671C403.116 41.9581 406.214 41.5643 409.254 41.4249C412.063 41.3018 415.4 41.0803 417.987 42.401C420.252 43.5577 421.686 45.7807 423.317 47.6428C424.899 49.4475 426.942 50.3416 428.697 51.9084C430.55 53.5572 431.366 55.8213 432.42 57.9951C434.628 62.556 437.627 65.6076 441.829 68.3967C446.483 71.4892 450.108 75.6482 454.384 79.1755C459.253 83.195 462.878 88.2564 466.552 93.3341C470.004 98.0919 474.172 103.014 475.878 108.731C476.529 110.905 476.8 113.259 477.138 115.499C477.328 116.787 477.55 118.189 477.278 119.477C476.965 120.97 475.952 122.242 475.466 123.677C474.733 125.827 474.131 128.205 474.065 130.486C474.032 131.618 474.172 132.783 474.593 133.841C475.186 135.334 476.001 136.212 476.166 137.893C476.43 140.535 477.295 142.29 478.745 144.505C480.326 146.925 481.019 149.525 481.373 152.372C482.131 158.475 482.534 164.627 483.202 170.747C483.869 176.858 485.261 182.846 485.846 188.958C486.464 195.438 487.568 201.713 488.952 208.071C490.278 214.133 491.588 220.179 492.264 226.356C492.577 229.202 492.808 232.057 493.079 234.911C493.384 238.02 494.134 240.982 494.735 244.033C495.889 249.833 495.411 256.141 495.312 262.023C495.205 268.159 494.925 274.294 494.505 280.422C491.02 330.371 477.822 379.007 464.476 427.069C462.845 432.951 461.205 438.832 459.574 444.714C459.294 445.731 461.798 445.723 462.037 444.862C470.548 414.1 479.346 383.388 486.135 352.199C492.874 321.241 497.685 289.7 497.874 257.962C497.899 254.082 498.08 250.079 497.644 246.215C497.232 242.581 496.045 239.095 495.675 235.453C494.842 227.406 493.994 219.531 492.289 211.615C491.448 207.71 490.559 203.822 489.809 199.901C489.051 195.93 488.68 191.96 488.285 187.949C487.898 184.036 487.057 180.221 486.439 176.341C485.805 172.305 485.459 168.22 485.064 164.16C484.388 157.22 484.742 149.402 480.771 143.381C479.882 142.028 478.992 140.625 478.745 138.993C478.498 137.344 478.613 136.187 477.756 134.702C475.779 131.273 476.726 127.402 477.913 123.825C478.39 122.373 479.371 121.118 479.725 119.625C480.063 118.206 479.857 116.688 479.643 115.269C479.165 112.07 478.736 108.83 477.402 105.844C475.886 102.448 473.728 99.3469 471.553 96.3446C469.246 93.1536 466.956 89.938 464.542 86.8208C460.11 81.0951 454.598 76.4521 449.227 71.6287C446.665 69.3318 443.814 67.5928 441.087 65.5092C438.492 63.5322 436.638 61.0713 435.188 58.1838C433.903 55.6326 432.997 52.942 430.789 50.9979C429.611 49.9561 428.128 49.3573 426.942 48.3237C425.739 47.2819 424.808 45.9448 423.77 44.7471C422.131 42.844 420.302 41.2198 417.805 40.5635C414.387 39.6612 410.696 39.9319 407.211 40.137C405.201 40.2518 403.158 40.4405 401.148 40.301C400.612 40.2682 399.936 39.9811 399.434 40.0057C399.038 40.0221 399.706 39.6284 399.187 40.2436C398.833 40.3913 398.487 40.5389 398.132 40.6866C396.476 40.8835 397.243 39.8663 396.921 41.4085C396.748 42.2698 396.345 43.1311 395.982 43.935C395.455 45.0916 394.787 46.8963 393.321 46.7323C392.201 46.6092 391.072 45.9448 389.968 45.6823C388.353 45.2967 386.772 45.3049 385.124 45.4608C381.927 45.7643 377.561 46.1663 375.724 49.2096C374.686 50.9323 374.414 53.0404 373.565 54.8615C372.396 57.3881 371.11 59.9146 369.726 62.3264C367.469 66.2721 364.635 70.2423 365.039 75.0166C365.467 79.9876 367.502 84.6798 370.822 88.4204C372.28 90.061 373.903 91.4146 375.971 92.2267C378.739 93.3095 381.285 94.704 383.888 96.1313C387.497 98.1083 390.133 100.536 392.275 104.047C392.967 105.179 393.824 106.221 393.395 107.583C393.181 108.256 392.72 108.813 392.711 109.552C392.711 110.61 393.519 111.463 393.955 112.373C394.26 113.013 394.474 113.686 394.969 114.211C396.46 115.819 399.45 115.671 401.428 115.745C403.001 115.802 405.53 116.434 406.956 115.548C407.129 115.441 407.285 115.245 407.277 115.031C407.269 114.703 406.931 114.523 406.7 114.342C406.478 114.104 406.329 114.26 406.239 114.81C406.535 114.761 406.824 114.728 407.12 114.703C408.027 114.605 408.941 114.531 409.847 114.432C413.225 114.08 416.594 113.686 419.972 113.333C427.346 112.554 434.875 111.684 442.24 113.022C448.65 114.186 454.458 117.082 459.796 120.741C462.507 122.595 464.674 124.76 466.857 127.188C468.834 129.387 471.38 131.077 473.983 132.446C474.766 132.857 476.965 131.995 475.672 131.314L475.713 131.339Z" fill="#CBA794" fill-opacity="0.8"/>
<path d="M481.365 134.711C481.834 131.954 482.444 129.198 483.564 126.63C484.726 123.973 486.555 121.684 488.293 119.387C489.183 118.214 490.064 117.033 490.888 115.811C491.663 114.654 492.289 113.407 493.261 112.398C494.175 111.447 495.238 110.651 496.185 109.724C497.223 108.707 498.187 107.566 498.995 106.361C500.684 103.859 501.4 100.914 502.809 98.2641C504.201 95.6474 505.066 92.8255 505.635 89.9298C506.698 84.4829 507.793 79.0771 509.639 73.8189C511.459 68.6345 513.914 63.6225 517.309 59.2748C519.047 57.0518 520.975 55.0748 523.339 53.4998C525.671 51.9494 528.208 50.7354 530.737 49.5459C536.389 46.8799 541.983 44.2139 548.104 42.7866C551.234 42.0565 554.39 41.4249 557.586 41.0311C560.75 40.6374 563.954 40.178 567.143 40.1042C568.708 40.0714 570.257 40.1698 571.789 40.5061C572.621 40.6866 573.132 40.7932 573.412 41.6135C573.989 43.3198 573.7 45.1573 574.911 46.6502C575.612 47.5116 576.674 47.8151 577.473 48.5534C578.256 49.2752 578.825 50.2186 579.418 51.0881C580.069 52.0479 580.752 52.9584 581.634 53.7213C582.532 54.5006 583.628 55.0256 584.575 55.7475C586.083 56.8959 587.318 58.3069 588.15 60.0131C589.024 61.8178 589.444 63.8029 589.798 65.7717C590.021 67.0267 590.325 68.3392 590.317 69.6107C590.309 70.9888 589.922 72.2849 589.394 73.5482C588.241 76.3045 586.89 78.9541 585.975 81.8087C585.185 84.2943 584.558 86.6896 585.209 89.2736C585.407 90.0693 585.737 90.8896 585.737 91.7181C585.737 92.7106 585.119 93.5064 584.418 94.1626C582.795 95.6884 580.423 96.4102 578.338 97.0501C577.235 97.3864 576.122 97.6981 575.01 98.0181C573.98 98.3216 572.745 98.5759 571.946 99.3388C571.377 99.8802 571.426 100.422 571.319 101.119C571.336 100.988 571.262 101.119 571.352 101.053C571.171 101.176 570.973 101.234 570.767 101.299C570.018 101.521 569.252 101.619 568.469 101.66C566.928 101.742 565.388 101.586 563.855 101.488C562.249 101.381 560.675 101.414 559.077 101.545C555.724 101.816 552.404 102.333 549.059 102.677C546.143 102.981 543.259 102.948 540.327 102.948C537.55 102.948 534.659 103.063 532.031 104.056C529.081 105.171 526.264 106.787 523.471 108.239C520.703 109.683 518.116 111.406 515.513 113.12C514.244 113.957 512.909 114.711 511.69 115.605C510.537 116.45 509.482 117.418 508.395 118.345C506.146 120.265 503.649 121.397 500.799 122.16C497.866 122.947 494.785 123.07 491.893 123.964C489.166 124.809 486.308 125.375 484.017 127.172C482.024 128.73 480.285 130.847 479.124 133.095C478.646 134.021 478.605 134.981 478.498 135.99C478.366 137.262 478.02 138.5 477.542 139.682C477.962 139.501 478.374 139.321 478.794 139.14C479.157 139.837 479.338 139.985 479.354 139.583C479.379 139.542 479.396 139.501 479.412 139.46C479.511 139.37 479.577 139.198 479.676 139.091C480.664 138.057 478.588 136.655 477.666 137.606C476.455 138.869 476.693 140.887 478.597 141.24C479.05 141.322 479.659 141.175 479.849 140.699C480.351 139.468 480.73 138.139 480.903 136.819C481.052 135.703 481.027 134.784 481.604 133.784C482.872 131.585 484.627 129.436 486.843 128.132C488.12 127.377 489.554 127.024 490.971 126.614C492.478 126.179 493.945 125.687 495.493 125.416C498.542 124.883 501.557 124.465 504.473 123.39C505.808 122.898 507.11 122.299 508.279 121.487C509.49 120.65 510.586 119.658 511.69 118.698C514.005 116.697 516.724 115.163 519.286 113.489C522.029 111.693 524.863 110.134 527.788 108.649C530.498 107.279 533.192 105.721 536.249 105.311C539.099 104.933 541.991 105.138 544.858 105.106C548.12 105.073 551.358 104.605 554.587 104.211C557.866 103.809 561.145 103.416 564.449 103.637C566.03 103.744 567.629 103.9 569.219 103.785C570.454 103.695 572.003 103.555 573.041 102.8C573.758 102.275 573.651 101.718 573.799 100.971C573.799 100.963 573.7 101.045 573.849 100.922C574.013 100.782 574.219 100.684 574.425 100.594C574.944 100.372 575.513 100.233 576.056 100.077C578.38 99.3962 580.728 98.7727 582.952 97.8048C584.921 96.9517 587.203 95.5981 587.944 93.4571C588.62 91.5212 587.574 89.7329 587.368 87.8216C587.228 86.5173 587.59 85.213 587.944 83.9743C588.365 82.4814 588.892 81.0212 589.477 79.5857C590.564 76.9115 592.179 74.3193 592.657 71.4482C593.077 68.9463 592.393 66.1818 591.833 63.7373C591.396 61.8014 590.778 59.8654 589.716 58.1756C588.571 56.3627 587.038 54.8615 585.267 53.6475C584.262 52.9584 583.224 52.4252 582.425 51.4819C581.691 50.6041 581.115 49.6116 580.448 48.6928C579.772 47.7659 578.956 46.9127 577.968 46.3057C577.16 45.8135 576.658 45.5756 576.402 44.6241C575.941 42.9342 576.139 41.0311 574.804 39.6858C573.865 38.7343 572.481 38.4718 571.212 38.2503C569.622 37.9796 567.999 37.9057 566.385 37.955C563.196 38.0534 559.983 38.5046 556.828 38.9147C550.402 39.7432 544.009 41.1624 538.02 43.6643C535.112 44.8784 532.278 46.2401 529.435 47.5854C526.824 48.8241 524.188 50.0545 521.774 51.6623C517.053 54.8041 513.618 59.5455 510.957 64.4838C508.271 69.4795 506.459 74.8771 505.091 80.3568C503.691 85.9513 503.303 91.9396 500.568 97.1075C499.151 99.7899 498.435 102.874 496.647 105.36C495.782 106.557 494.785 107.681 493.697 108.682C492.692 109.601 491.597 110.438 490.723 111.488C489.817 112.579 489.191 113.883 488.384 115.048C487.519 116.295 486.588 117.509 485.665 118.723C483.91 121.044 482.139 123.415 481.035 126.122C479.981 128.714 479.379 131.479 478.91 134.227C478.687 135.523 481.126 136.121 481.365 134.702V134.711Z" fill="#CBA794" fill-opacity="0.8"/>
<path d="M486.999 117.558C487.568 115.031 488.211 112.529 488.878 110.036C489.504 107.681 490.287 105.311 490.6 102.891C490.913 100.454 490.806 97.9852 490.937 95.5325C491.061 93.1618 491.259 90.8567 490.987 88.4778C490.048 80.2419 485.813 72.9576 481.859 65.8291C479.849 62.2033 477.847 58.5447 476.38 54.6565C474.815 50.5139 473.769 46.2155 473.027 41.8596C472.624 39.4807 472.014 37.0526 471.923 34.6409C471.833 32.2866 472.31 29.8585 472.978 27.6026C474.164 23.5913 476.224 20.0476 478.308 16.4546C480.03 13.4851 481.982 9.90035 485.179 8.27613C486.134 7.79215 487.205 7.55426 488.227 7.27535C489.034 7.05387 489.24 6.95543 489.875 6.93903C491.086 6.92262 492.297 7.11129 493.5 7.28356C496.358 7.69371 499.283 8.34996 502.183 8.33355C503.493 8.32535 504.811 7.94801 505.75 6.98004C506.162 6.55348 506.426 6.01208 506.599 5.44606C506.739 4.97849 506.796 4.41247 507.101 4.01872C507.546 3.4363 508.427 3.38709 509.087 3.23123C510.256 2.95232 511.402 2.50115 512.596 2.35349C513.609 2.23045 514.639 2.24685 515.661 2.15662C516.567 2.07459 517.498 1.96795 518.412 2.03357C520.06 2.15662 521.51 3.05076 523.108 3.40349C524.558 3.72341 526.058 3.83005 527.532 3.92029C530.119 4.07615 533.06 3.92029 535.416 4.87185C535.754 5.0113 536.108 5.21638 536.356 5.51169C536.603 5.807 536.784 6.24176 536.85 6.75856C537.056 8.2023 537.221 9.54761 538.02 10.8191C540.928 15.4128 547.255 14.732 551.901 14.207C553.187 14.0593 554.315 14.0593 555.485 14.7074C557.001 15.5441 558.212 16.9304 559.151 18.3577C561.507 21.9343 562.578 26.5608 562.389 30.8183C562.339 31.9421 562.183 33.0495 561.862 34.1241C561.722 34.5917 561.557 35.0511 561.392 35.5022C561.235 35.937 561.104 36.7491 560.758 37.0608C560.42 37.3643 559.843 37.3643 559.472 37.635C558.706 38.1846 558.986 38.9721 559.472 39.6038C559.53 39.6776 559.588 39.7596 559.654 39.8335C559.81 40.0303 559.464 39.5792 559.588 39.7514C559.621 39.8006 559.654 39.8417 559.687 39.8909C559.827 40.0878 559.967 40.2764 560.09 40.4815C560.37 40.9081 560.634 41.3592 560.873 41.8104C561.005 42.0647 561.128 42.319 561.244 42.5733C561.334 42.7702 561.425 43.0081 561.318 42.7456C561.384 42.9014 561.441 43.0573 561.499 43.2131C561.73 43.8366 561.927 44.4764 562.076 45.1245C562.158 45.4772 562.224 45.8217 562.282 46.1827C562.306 46.3549 562.331 46.5354 562.356 46.7159C562.397 46.9948 562.364 46.7897 562.364 46.7979C562.372 46.8963 562.381 47.003 562.397 47.1014C562.554 48.8815 562.414 50.678 562.076 52.4334C562.051 52.5647 562.026 52.6877 561.993 52.819C561.927 53.1389 561.993 52.8026 561.952 52.9912C561.886 53.2701 561.82 53.549 561.746 53.8279C561.606 54.3612 561.441 54.8943 561.26 55.4193C560.865 56.5842 560.403 57.7326 559.876 58.8482C558.533 61.7029 557.001 64.1392 555.164 66.6412C549.595 74.2373 542.543 80.7341 535.276 86.6896C523.413 96.402 510.479 104.818 497.33 112.685C493.203 115.154 489.034 117.566 484.849 119.929C483.572 120.65 485.426 122.266 486.489 121.659C501.532 113.169 516.345 104.121 530.152 93.7196C538.753 87.2392 547.156 80.2173 554.109 71.9732C558.105 67.24 561.829 61.9162 563.723 55.9608C564.869 52.376 565.305 48.5287 564.399 44.8456C564.078 43.5495 563.583 42.2862 562.957 41.1049C562.71 40.6456 562.446 40.2026 562.158 39.776C562.026 39.5792 561.895 39.3905 561.754 39.2018C561.647 39.0624 561.548 38.8491 561.408 38.7507C561.384 38.7342 561.343 38.6276 561.31 38.6276C561.178 38.6112 561.483 38.4799 561.351 38.6686C561.293 38.8901 561.227 39.1116 561.17 39.3331C561.277 39.2757 561.293 39.2674 561.244 39.2921C561.433 39.3413 562.051 38.9967 562.208 38.9147C562.521 38.7506 562.793 38.5292 562.998 38.2339C563.6 37.3807 563.888 36.0928 564.185 35.1003C564.885 32.7952 564.967 30.4081 564.704 28.021C564.242 23.8046 562.949 19.7195 560.288 16.3644C558.13 13.641 555.164 11.7707 551.605 12.1644C549.306 12.4187 546.95 12.7632 544.635 12.4843C542.361 12.2136 540.335 11.3605 539.601 8.96519C539.206 7.6527 539.387 6.24176 538.613 5.05231C537.946 4.02693 536.875 3.33787 535.729 2.93591C532.953 1.95154 529.872 2.07459 526.972 1.90232C525.539 1.82029 524.064 1.69725 522.672 1.3117C522.029 1.13123 521.444 0.827718 520.818 0.606234C519.821 0.253501 518.8 0.0484236 517.737 0.0074081C516.855 -0.0254043 515.974 0.0566267 515.101 0.138658C513.988 0.237095 512.851 0.228892 511.739 0.376548C510.635 0.524203 509.589 0.852327 508.526 1.14764C507.521 1.41834 506.417 1.52498 505.561 2.15662C504.473 2.95232 504.588 4.10896 503.995 5.17536C503.386 6.28278 502.282 6.3402 501.285 6.31559C498.393 6.24997 495.51 5.56091 492.643 5.19177C491.423 5.03591 490.147 4.84724 488.919 4.94567C488.186 5.0031 487.494 5.23278 486.785 5.42966C485.673 5.73317 484.553 6.03669 483.523 6.56169C480.261 8.21051 478.201 11.6886 476.421 14.7238C474.312 18.3085 472.179 21.8687 470.885 25.839C470.177 28.0292 469.674 30.3179 469.493 32.6147C469.303 35.0921 469.88 37.512 470.292 39.9401C471.083 44.5338 471.981 49.0373 473.513 53.4588C476.265 61.3748 481.084 68.29 484.668 75.8123C486.439 79.5283 487.848 83.4247 488.449 87.5099C488.804 89.9544 488.647 92.3251 488.499 94.7778C488.351 97.2306 488.458 99.6915 488.178 102.136C487.897 104.597 487.082 107.009 486.448 109.404C485.813 111.799 485.195 114.203 484.652 116.614C484.511 117.23 484.866 117.755 485.451 117.993C485.871 118.165 486.851 118.198 486.991 117.574L486.999 117.558Z" fill="#CBA794" fill-opacity="0.8"/>
<path d="M486.349 116.844C486.027 113.711 485.854 110.561 485.418 107.443C484.965 104.236 484.042 101.217 482.979 98.1575C481.941 95.1634 480.887 92.1774 480.153 89.0931C479.807 87.6329 479.478 86.1564 478.934 84.7536C478.399 83.3591 477.657 82.0876 476.833 80.849C476.051 79.6595 475.202 78.4865 474.617 77.1822C474.049 75.9107 473.851 74.4998 473.208 73.2529C471.907 70.7181 469.336 69.824 467.17 68.2244C466.058 67.4041 465.118 66.3623 463.998 65.5666C462.886 64.7791 461.634 64.2213 460.34 63.7865C459.03 63.3518 457.679 63.0728 456.345 62.7529C454.944 62.4166 453.568 62.0639 452.127 61.949C450.677 61.8342 449.21 62.1787 447.777 62.0393C446.615 61.9326 445.495 61.4979 444.374 61.2107C441.894 60.5791 439.39 60.5299 437.841 62.8596C437.223 63.7947 439.472 64.9185 440.123 63.9342C441.301 62.1623 443.262 62.7037 445 63.1877C446.022 63.4666 447.035 63.7701 448.09 63.8932C449.243 64.0326 450.38 63.7701 451.533 63.7783C454.071 63.7783 456.658 64.5576 459.096 65.2221C460.225 65.5256 461.345 65.9111 462.334 66.5428C463.463 67.2646 464.377 68.2736 465.423 69.1021C467.244 70.5459 469.847 71.3088 471.009 73.458C471.627 74.6064 471.808 75.9517 472.319 77.1494C472.846 78.3716 473.563 79.4872 474.296 80.5865C475.029 81.6939 475.795 82.8013 476.347 84.0154C476.932 85.3032 477.27 86.6896 477.6 88.0595C478.3 90.9716 479.173 93.8017 480.153 96.6317C481.249 99.7817 482.361 102.907 482.905 106.205C483.449 109.519 483.605 112.874 483.943 116.204C484.009 116.82 484.495 117.263 485.088 117.41C485.467 117.509 486.406 117.451 486.34 116.836L486.349 116.844Z" fill="#CBA794" fill-opacity="0.8"/>
<path d="M413.002 113.76C412.78 116.344 411.824 118.854 411.866 121.463C411.899 123.267 412.426 125.105 413.217 126.721C413.983 128.279 415.079 129.707 416.726 130.387C418.926 131.29 421.373 131.52 423.721 131.725C424.915 131.831 426.126 131.979 427.321 131.995C428.606 132.012 429.899 131.921 431.168 132.168C433.59 132.627 435.444 134.415 437.783 135.071C438.624 135.309 439.464 135.186 440.296 134.965C441.565 134.628 442.751 134.341 444.069 134.235C446.5 134.046 449.054 134.062 451.41 133.398C453.758 132.734 456.237 131.921 458.025 130.207C458.997 129.272 459.936 128.37 460.966 127.508C461.197 127.311 461.428 127.123 461.667 126.942C461.765 126.86 461.872 126.786 461.98 126.712C462.301 126.499 462.317 126.483 462.037 126.671C461.798 126.77 461.774 126.819 461.971 126.811C462.12 126.926 462.63 126.975 462.828 127.032C463.166 127.139 463.487 127.221 463.841 127.246C464.319 127.287 464.912 126.959 465.324 126.762C465.431 126.712 466.231 126.22 466.049 126.204C464.995 126.114 464.171 125.589 463.084 125.859C461.988 126.13 460.925 126.663 460.011 127.303C459.162 127.894 458.338 128.591 457.564 129.272C456.691 130.035 455.982 131.06 455.002 131.7C454.17 132.241 452.909 132.528 451.937 132.701C450.759 132.906 449.556 132.947 448.362 133.029C447.118 133.111 445.857 133.193 444.621 133.357C443.451 133.513 442.348 134.046 441.186 134.161C440.164 134.259 439.192 133.767 438.311 133.308C437.314 132.799 436.358 132.225 435.337 131.774C432.915 130.699 430.361 131.093 427.799 130.855C425.475 130.642 423.119 130.519 420.837 129.961C418.843 129.469 417.336 128.648 416.207 126.918C415.087 125.195 414.386 123.103 414.23 121.061C414.008 118.263 415.095 115.556 415.342 112.792C415.35 112.661 414.189 113.079 414.106 113.112C413.884 113.21 413.044 113.473 413.019 113.776L413.002 113.76Z" fill="#CBA794" fill-opacity="0.8"/>
<path d="M482.963 129.116C484.965 128.911 486.967 128.657 488.969 128.476C490.682 128.329 492.206 128.722 493.796 129.37C495.32 129.994 496.894 130.584 498.369 131.298C500 132.086 501.507 132.939 503.377 132.898C505.099 132.857 506.722 132.2 508.444 132.086C510.331 131.971 512.217 132.11 514.104 132.045C517.91 131.905 521.733 131.38 525.522 130.945C527.31 130.74 529.089 130.47 530.836 130.051C532.681 129.608 534.486 128.993 536.339 128.542C538.234 128.082 540.17 127.713 542.114 127.549C543.762 127.41 545.443 127.541 547.066 127.205C550.188 126.565 552.107 124.096 554.093 121.807C554.67 121.143 555.255 120.462 555.914 119.871C556.499 119.346 557.166 118.887 557.602 118.214C558.294 117.148 558.509 115.778 558.583 114.539C558.665 113.128 558.542 111.619 557.874 110.347C557.24 109.125 556.111 108.297 554.884 107.714C553.277 106.959 551.539 106.566 549.85 106.041C549.1 105.811 548.095 105.565 547.478 105.048C547.066 104.704 546.983 104.105 546.86 103.613C546.736 103.137 546.028 103.071 545.632 103.038C545.459 103.022 545.278 103.006 545.105 102.989C544.808 102.965 543.836 102.965 543.811 103.416C543.787 103.875 544.784 103.965 545.039 103.99C545.212 104.006 545.393 104.023 545.566 104.039L544.339 103.465C544.594 104.466 544.767 105.179 545.723 105.713C547.189 106.541 548.878 106.927 550.476 107.394C553.038 108.141 555.477 109.174 555.963 112.086C556.177 113.366 556.12 114.728 555.856 115.999C555.543 117.468 554.834 118.313 553.714 119.272C551.325 121.331 549.727 124.703 546.72 125.982C545.385 126.548 543.894 126.401 542.477 126.475C540.664 126.565 538.86 126.811 537.081 127.164C533.448 127.886 529.971 129.19 526.305 129.739C522.672 130.273 518.965 130.65 515.307 130.929C511.748 131.2 508.115 130.683 504.613 131.544C503.6 131.79 502.924 131.995 501.944 131.552C501.087 131.167 500.288 130.691 499.415 130.338C497.726 129.657 496.07 128.886 494.356 128.271C492.643 127.664 490.83 127.32 489.01 127.418C486.794 127.533 484.578 127.877 482.378 128.107C482.09 128.14 481.282 128.197 481.455 128.665C481.612 129.083 482.658 129.141 482.988 129.108L482.963 129.116Z" fill="#CBA794" fill-opacity="0.8"/>
<path d="M491.489 99.2157C492.008 97.2716 492.701 95.3766 493.203 93.4325C493.673 91.6196 494.043 89.7821 494.496 87.9692C494.966 86.0825 495.436 84.1876 495.724 82.2517C496.004 80.3486 496.07 78.4126 496.086 76.4931C496.111 72.5392 495.79 68.5853 495.394 64.656C495.015 60.8498 494.834 57.0189 494.447 53.2127C494.068 49.4967 493.055 45.9119 492.544 42.2123C492.05 38.644 491.44 35.1331 489.52 32.0077C487.692 29.03 485.311 26.4952 483.737 23.3534C482.987 21.8523 482.164 20.5644 480.862 19.4734C479.618 18.4316 478.176 17.6195 477.072 16.4136C476.067 15.3144 475.235 14.4038 473.769 13.9199C472.368 13.4605 470.894 13.362 469.427 13.239C467.895 13.116 466.338 12.9437 464.954 12.2136C463.776 11.5902 462.795 10.696 461.774 9.86753C460.802 9.08003 459.788 8.39097 458.569 8.03824C457.902 7.84957 457.21 7.75933 456.518 7.75113C455.71 7.74293 455.438 7.9316 454.788 7.6773C453.511 7.17691 452.44 6.42223 451.031 6.30738C449.457 6.17613 448.106 6.94722 446.706 7.57066C446.063 7.85777 445.388 8.17769 444.877 8.67808C444.415 9.12925 445.009 8.87495 444.992 8.95698C444.992 8.95698 444.597 8.94878 444.63 8.94878C444.209 8.94878 443.781 8.97339 443.377 9.09644C442.636 9.31792 442.282 9.90034 441.787 10.4417C441.186 11.098 440.387 11.582 439.818 12.2628C439.439 12.714 439.242 13.4687 438.698 13.7558C437.973 14.1331 436.993 14.2234 436.218 14.5023C435.114 14.9042 434.019 15.3964 433.104 16.1511C431.992 17.0616 431.564 18.1773 431.3 19.5472C431.209 20.0148 431.127 20.4823 430.839 20.8761C430.418 21.4421 429.685 21.5898 429.034 21.762C424.404 22.9843 418.703 22.9761 415.276 26.8151C414.312 27.8897 413.744 29.2351 413.167 30.5475C412.483 32.1225 411.915 33.7632 411.775 35.4858C411.701 36.4292 411.717 37.4135 411.775 38.3569C411.833 39.1936 411.907 40.3174 412.508 40.9737C413.233 41.7612 414.741 41.7038 415.647 41.3428C416.092 41.1624 416.084 40.8999 415.655 40.703C415.169 40.4897 414.362 40.4815 413.868 40.6784C413.324 40.8917 414.996 40.6538 414.98 40.785C414.98 40.7604 414.848 40.6784 414.84 40.6292C414.807 40.4897 414.658 40.3174 414.609 40.178C414.436 39.7186 414.37 39.2018 414.329 38.7096C414.255 37.9385 414.255 37.1674 414.263 36.3964C414.288 34.6327 414.7 32.9593 415.375 31.335C415.902 30.0472 416.463 28.669 417.311 27.5534C420.269 23.6815 425.846 23.6651 430.179 22.5823C431.514 22.246 433.079 21.9179 433.59 20.4823C433.944 19.4816 433.911 18.4234 434.513 17.5046C435.839 15.4867 438.41 15.1667 440.494 14.4202C441.054 14.2234 441.408 13.8378 441.713 13.3456C442.125 12.6894 442.545 12.2628 443.13 11.7624C443.625 11.3359 444.514 10.6632 444.778 10.048C444.844 9.97417 444.91 9.90034 444.984 9.81831C444.572 9.84292 444.473 9.85933 444.687 9.85933C444.803 9.87573 444.926 9.85933 445.05 9.85933C445.462 9.85933 445.907 9.82651 446.302 9.68706C446.936 9.46558 447.282 8.90777 447.851 8.57144C448.526 8.16949 449.276 7.90699 449.993 7.58707C450.092 7.54605 450.841 7.16871 450.85 7.18512C450.734 7.18512 450.619 7.18512 450.512 7.18512C450.537 7.18512 450.561 7.20152 450.586 7.20972C450.644 7.25894 450.825 7.29996 450.907 7.32457C451.55 7.57886 452.143 7.9398 452.777 8.2105C453.371 8.4648 453.988 8.64527 454.631 8.71909C455.29 8.79292 455.924 8.62066 456.575 8.66167C457.638 8.71909 458.618 9.5394 459.401 10.171C460.365 10.9503 461.279 11.7871 462.35 12.4269C463.611 13.1734 465.003 13.6081 466.445 13.846C469.048 14.2808 472.253 13.7722 474.106 16.0281C476.067 18.4152 479.082 19.6046 480.631 22.3609C481.43 23.7718 482.081 25.2401 483.004 26.5854C483.943 27.9554 484.989 29.2433 485.953 30.5886C488.021 33.4761 489.133 36.5768 489.677 40.0631C489.941 41.7366 490.122 43.4182 490.435 45.0916C490.756 46.8389 491.251 48.5451 491.522 50.3006C492.083 53.8526 492.19 57.4537 492.486 61.0303C492.791 64.7381 493.252 68.4295 493.434 72.1455C493.615 75.9107 493.648 79.7333 492.964 83.4493C492.651 85.1638 492.214 86.8454 491.794 88.5353C491.341 90.3563 490.995 92.2102 490.484 94.0149C489.998 95.7458 489.397 97.4438 488.936 99.1829C488.804 99.6587 491.267 99.954 491.465 99.2157H491.489Z" fill="#CBA794" fill-opacity="0.8"/>
<path d="M414.255 114.154C414.708 114.154 415.523 113.957 415.523 113.374C415.523 112.792 414.708 112.579 414.263 112.579C413.818 112.579 412.994 112.775 412.994 113.358C412.994 113.94 413.81 114.154 414.255 114.154Z" fill="#CBA794" fill-opacity="0.8"/>
<path d="M416.067 112.505C415.664 110.356 415.21 108.165 414.238 106.188C413.761 105.212 413.159 104.302 412.475 103.457C411.734 102.546 410.852 101.775 410.103 100.881C408.513 98.9696 407.376 96.7138 406.395 94.4415C405.448 92.2431 404.451 89.9462 404.122 87.5591C403.767 85.0161 404.352 82.7931 406.016 80.8326C407.697 78.8638 409.946 77.3134 410.894 74.8361C411.305 73.7615 411.495 72.6049 411.956 71.5549C412.401 70.5213 413.159 69.6599 414.041 68.9627C414.864 68.3146 415.902 67.4943 416.949 67.2728C418.176 67.0185 419.453 67.3303 420.697 67.117C421.958 66.9037 423.193 66.0424 424.47 66.0342C425.039 66.0342 425.574 66.3295 426.085 66.5346C426.687 66.7725 427.321 66.9447 427.972 66.9611C429.504 67.0021 431.02 66.6084 432.56 66.633C434.233 66.6576 435.897 66.7478 437.561 66.6002C438.171 66.551 438.739 65.9768 438.657 65.3451C438.566 64.6643 437.85 64.4018 437.248 64.451C435.757 64.5822 434.266 64.4756 432.766 64.4592C432.083 64.4592 431.391 64.4592 430.707 64.5084C429.941 64.5576 429.175 64.7627 428.408 64.7873C427.28 64.8283 426.275 64.049 425.171 63.8932C423.861 63.7045 422.625 64.2131 421.422 64.6561C420.219 65.099 419.083 64.9924 417.83 65.0252C416.422 65.058 415.276 65.4764 414.074 66.2064C412.006 67.4533 410.119 69.1514 409.361 71.4974C408.982 72.6705 408.727 73.8927 408.15 74.992C407.532 76.1814 406.371 77.0838 405.44 78.0271C403.545 79.9548 401.897 82.022 401.551 84.7783C401.238 87.3048 401.873 89.7821 402.762 92.1282C403.685 94.5728 404.674 97.0173 406 99.2731C406.725 100.504 407.549 101.701 408.504 102.768C409.394 103.752 410.375 104.63 411.116 105.745C412.533 107.878 413.077 110.38 413.538 112.857C413.802 114.252 416.306 113.899 416.043 112.505H416.067Z" fill="#CBA794" fill-opacity="0.8"/>
<path d="M496.993 285.401C500.84 270.472 501.82 255.058 503.575 239.8C504.415 232.516 505.61 225.314 506.92 218.103C508.016 212.082 509.144 206.069 510.71 200.147C513.799 188.457 518.816 177.088 528.051 168.909C533.34 164.225 538.168 158.992 543.721 154.595C546.456 152.429 549.397 150.362 552.363 148.516C553.491 147.811 554.694 147.31 555.864 146.695C556.828 146.195 557.767 145.645 558.731 145.12C559.711 144.587 560.716 144.029 561.763 143.652C561.903 143.603 562.092 143.57 562.224 143.504C562.488 143.365 562.15 143.594 562.035 143.488C562.249 143.677 562.792 143.709 563.073 143.882C564.432 144.71 564.168 146.457 563.74 147.737C562.578 151.199 560.049 154.004 557.981 156.941C556.136 159.558 554.628 162.486 553.129 165.308C551.358 168.63 549.693 172.01 548.054 175.398C546.439 178.728 544.717 182.026 543.284 185.447C541.941 188.646 540.829 191.927 539.667 195.192C537.344 201.738 534.741 208.063 530.383 213.559C528.191 216.323 525.736 218.858 523.199 221.302C520.851 223.567 518.528 225.904 515.817 227.734C513.684 229.177 511.418 230.424 509.531 232.188C507.192 234.37 505.882 237.184 504.761 240.129C503.41 243.689 502.356 247.356 501.013 250.924C500.403 252.54 499.72 254.123 498.937 255.665C498.237 257.043 497.462 258.454 497.24 259.996C497.001 261.67 497.388 263.311 497.454 264.976C497.512 266.641 497.059 268.191 496.309 269.668C495.633 270.997 494.776 272.227 494.043 273.523C493.252 274.926 492.709 276.386 492.396 277.969C492.05 279.75 491.918 281.562 491.654 283.351C491.391 285.172 490.987 286.985 490.616 288.789C490.221 290.684 489.825 292.579 489.487 294.482C489.174 296.221 488.837 297.977 488.911 299.757C488.944 300.602 489.026 301.447 488.977 302.292C488.935 303.071 488.688 303.686 488.466 304.408C488.334 304.867 488.326 305.368 488.318 305.835C488.301 307.476 488.491 309.125 488.664 310.749C489.108 314.875 489.735 318.985 490.147 323.111C490.221 323.817 490.287 324.514 490.311 325.219C490.328 325.588 490.336 326.187 490.295 326.376C491.127 326.327 491.951 326.278 492.783 326.237C492.758 323.431 492.338 320.626 491.893 317.853C491.316 314.227 490.608 310.626 489.875 307.033C488.384 299.708 486.695 292.407 485.36 285.049C484.775 281.792 484.404 278.56 484.182 275.262C483.819 270.029 483.399 264.804 481.043 260.021C479.98 257.872 478.646 255.879 477.262 253.918C475.845 251.9 474.452 249.857 473.019 247.848C470.234 243.951 467.17 240.243 463.718 236.913C461.757 235.026 459.689 233.254 457.523 231.614C455.463 230.055 453.403 228.447 451.228 227.045C449.185 225.724 446.977 224.617 444.564 224.157C441.861 223.64 439.11 224.075 436.597 225.15C436.317 225.273 435.872 225.584 436.111 225.937C438.253 229.095 440.947 231.909 442.578 235.387C444.358 239.202 444.407 243.508 444.687 247.626C444.827 249.661 445.025 251.695 445.511 253.68C445.972 255.55 446.747 257.306 447.661 259.004C449.375 262.178 451.607 265.05 454.145 267.609C459.146 272.67 465.143 276.567 470.91 280.685C472.426 281.768 473.752 282.924 474.873 284.425C475.968 285.894 476.858 287.501 477.772 289.085C479.709 292.464 482.065 295.565 483.803 299.068C485.871 303.235 487.42 307.665 488.367 312.217C489.356 316.942 489.768 321.758 490.262 326.548C490.352 327.418 492.865 327.122 492.766 326.237C492.321 321.93 491.942 317.607 491.152 313.349C490.402 309.273 489.191 305.343 487.584 301.521C486.802 299.675 485.937 297.862 484.948 296.115C483.951 294.351 482.773 292.71 481.677 291.012C479.741 288.018 478.316 284.647 475.787 282.071C474.51 280.775 472.986 279.766 471.503 278.724C470.012 277.674 468.521 276.632 467.038 275.574C464.154 273.515 461.312 271.399 458.676 269.036C455.957 266.6 453.486 263.877 451.484 260.817C450.479 259.283 449.573 257.659 448.856 255.969C448.04 254.041 447.645 251.957 447.406 249.882C446.887 245.313 447.167 240.563 445.536 236.183C443.995 232.057 440.906 228.89 438.467 225.297C438.302 225.56 438.146 225.822 437.981 226.085C440.082 225.183 442.249 225.002 444.44 225.667C446.475 226.282 448.32 227.389 450.059 228.587C453.914 231.236 457.712 234.124 461.098 237.356C464.492 240.596 467.516 244.197 470.259 247.995C471.651 249.915 472.97 251.892 474.337 253.82C475.721 255.772 477.097 257.741 478.226 259.865C480.615 264.352 481.2 269.266 481.554 274.27C481.801 277.691 482.073 281.07 482.658 284.458C483.885 291.488 485.492 298.453 486.942 305.442C487.757 309.396 488.557 313.366 489.224 317.353C489.726 320.388 490.221 323.48 490.245 326.565C490.245 327.393 492.585 327.131 492.733 326.425C492.964 325.293 492.75 324.022 492.635 322.89C492.437 320.863 492.173 318.854 491.918 316.836C491.44 313.071 490.715 309.182 490.797 305.376C490.814 304.818 490.872 304.556 491.069 304.031C491.695 302.349 491.382 300.561 491.366 298.822C491.349 296.927 491.811 294.991 492.165 293.145C492.527 291.242 492.939 289.347 493.327 287.452C493.697 285.615 494.043 283.777 494.274 281.923C494.505 280.037 494.678 278.125 495.246 276.304C496.136 273.425 498.303 271.169 499.341 268.355C499.942 266.731 500.008 265.099 499.827 263.393C499.645 261.645 499.481 260.021 500.123 258.348C500.675 256.912 501.474 255.583 502.109 254.189C502.932 252.4 503.616 250.547 504.259 248.684C505.511 245.091 506.582 241.425 508.09 237.922C509.292 235.116 511.08 232.877 513.568 231.105C515.817 229.514 518.239 228.193 520.34 226.397C522.976 224.149 525.481 221.68 527.903 219.202C530.424 216.627 532.788 213.895 534.815 210.909C536.767 208.03 538.325 204.921 539.651 201.713C542.312 195.266 544.133 188.482 547.189 182.198C550.567 175.258 553.821 168.237 557.652 161.535C558.863 159.418 559.958 157.614 561.392 155.702C562.578 154.119 563.732 152.511 564.737 150.805C565.635 149.271 566.566 147.499 566.574 145.67C566.59 143.939 565.346 142.848 563.765 142.405C561.647 141.814 559.563 143.004 557.742 143.972C556.696 144.53 555.666 145.128 554.62 145.686C553.557 146.26 552.437 146.712 551.382 147.31C549.899 148.147 548.524 149.148 547.14 150.124C545.615 151.191 544.058 152.216 542.584 153.348C539.783 155.489 537.179 157.868 534.634 160.296C532.014 162.79 529.444 165.341 526.725 167.736C524.328 169.853 522.078 172.076 520.085 174.586C516.32 179.327 513.478 184.741 511.327 190.377C509.12 196.144 507.604 202.148 506.343 208.177C505.017 214.527 503.839 220.925 502.784 227.324C500.239 242.852 499.629 258.627 496.918 274.13C496.259 277.912 495.46 281.669 494.505 285.385C494.257 286.337 496.754 286.23 496.968 285.418L496.993 285.401Z" fill="#CBA794" fill-opacity="0.8"/>
<path d="M869.891 715.213C864.866 711.038 860.532 706.304 855.095 702.605C849.27 698.643 843.924 694.106 838.478 689.652C827.537 680.711 816.515 671.86 804.618 664.206C798.794 660.457 793.093 656.487 787.309 652.664C781.485 648.809 775.463 645.273 769.638 641.418C763.624 637.439 757.553 633.748 751.094 630.532C745.047 627.522 738.851 624.716 733.142 621.082C721.65 613.773 712.101 604.299 702.578 594.693C697.577 589.648 693.862 583.783 690.451 577.598C687.147 571.593 683.786 565.859 681.578 559.338C679.37 552.833 676.8 546.311 675.762 539.494C675.226 536 674.88 532.481 674.675 528.953C674.46 525.229 674.642 521.464 674.221 517.756C673.439 510.874 673.694 503.991 673.653 497.068C673.612 489.956 674.205 482.877 674.65 475.789C674.872 472.254 675.531 468.751 675.803 465.215C676.083 461.631 676.034 458.021 676.166 454.428C676.289 450.934 676.306 447.349 676.965 443.912C677.657 440.294 678.011 436.39 679.37 432.969C681.784 426.874 683.366 420.394 685.211 414.102C687.098 407.654 691.234 402.24 693.301 395.866C694.232 392.995 695.205 390.141 695.435 387.114C695.699 383.521 696.317 380.034 696.72 376.458C697.083 373.3 697.47 370.158 697.94 367.016C698.467 363.464 698.352 359.863 698.368 356.286C698.385 352.997 698.648 349.593 697.997 346.344C697.396 343.358 696.251 340.52 695.485 337.583C693.598 330.324 691.851 322.424 692.263 314.894C692.585 308.963 693.837 303.097 695.081 297.306C696.135 292.401 697.206 287.405 698.936 282.68C699.843 280.203 700.947 277.774 701.976 275.346C703.08 272.738 704.588 269.342 707.298 268.005C708.353 267.488 710.413 267.119 711.525 267.709C712.513 268.234 712.769 269.76 713.115 270.777C714.252 274.165 713.963 277.676 714.491 281.171C715.108 285.264 715.537 289.39 716.13 293.483C716.888 298.766 718.28 304 719.738 309.127C720.711 312.564 721.691 315.911 722.284 319.446C722.852 322.859 723.314 326.288 724.154 329.651C724.912 332.678 725.769 335.516 725.925 338.65C726.107 342.218 726.725 345.721 727.029 349.273C727.639 356.278 727.466 363.325 727.367 370.346C727.318 373.8 727.128 377.327 727.408 380.773C727.655 383.775 728.471 386.679 729.163 389.591C732.475 403.561 731.338 417.949 733.875 431.993C735.078 438.678 737.138 445.142 738.769 451.729C740.549 458.891 741.158 466.216 742.666 473.427C744.767 483.484 747.732 493.221 750.838 502.982C751.407 504.779 751.967 506.6 752.338 508.446C752.478 509.159 752.634 509.898 752.642 510.628C752.642 511.161 752.379 511.669 752.725 511.555C753.12 511.661 753.507 511.776 753.903 511.883C752.198 510.341 751.917 508.093 751.102 506.042C750.154 503.647 749.174 501.342 748.49 498.856C747.057 493.639 746.34 488.258 745.656 482.901C744.33 472.467 742.962 462.065 742.312 451.557C741.628 440.532 741.166 429.319 742.081 418.294C742.501 413.232 743.144 408.179 743.259 403.093C743.383 397.679 743.21 392.257 743.21 386.843C743.21 375.695 743.185 364.547 743.21 353.399C743.226 348.403 742.493 343.785 741.587 338.879C740.631 333.711 738.983 328.691 737.929 323.54C734.609 307.24 733.01 289.448 736.981 273.14C737.937 269.194 738.753 264.863 737.121 260.975C735.836 257.915 732.804 254.568 729.377 254.076C725.645 253.534 722.07 256.003 719.17 258.038C716.427 259.957 713.733 262.427 713.205 265.896C712.835 268.308 713.255 270.802 713.008 273.238C712.769 275.633 712.447 278.004 712.414 280.416C712.365 283.738 712.398 287.06 712.373 290.383C712.324 298.692 712.406 306.912 713.156 315.189C714.153 326.197 714.861 337.239 716.311 348.198C717.703 358.747 719.557 369.239 721.749 379.649C726.222 400.87 732.096 421.755 736.363 443.034C738.547 453.92 740.598 464.822 742.699 475.723C743.638 480.613 744.313 485.657 745.887 490.399C747.428 495.017 749.734 499.34 751.769 503.754C753.631 507.789 755.295 512.621 758.343 515.943C761.334 519.2 765.626 521.669 769.457 523.794C773.815 526.205 778.387 528.232 782.737 530.668C787.334 533.244 791.824 536.008 796.413 538.608C805.821 543.932 815.114 549.461 824.423 554.957C832.909 559.969 840.768 566.056 849.888 569.936C854.518 571.905 859.403 573.143 864.05 575.071C868.68 576.991 873.203 579.148 877.956 580.772C881.944 582.134 886.005 583.209 890.034 584.398C890.75 584.611 891.772 584.817 892.308 585.358C892.382 585.415 892.464 585.465 892.538 585.522C893.049 585.965 893.033 586.154 892.505 586.096C892.324 586.318 891.253 586.613 891.179 586.629C889.301 587.195 887.241 587.13 885.297 587.031C880.164 586.785 875.74 584.907 871.102 582.864C866.324 580.756 861.595 578.574 856.998 576.088C847.697 571.06 838.338 565.884 829.877 559.526C821.466 553.202 813.705 546.139 805.549 539.511C797.863 533.26 789.443 527.78 780.999 522.621C772.258 517.28 763.237 513.187 753.153 511.186C748.021 510.168 742.831 509.446 737.698 508.413C732.351 507.33 727.128 505.755 721.864 504.369C711.451 501.629 700.914 499.02 690.904 495.001C681.018 491.039 672.055 485.387 663.355 479.341C651.36 470.999 638.665 461.27 623.679 459.334C617.533 458.538 610.835 459.867 607.466 465.601C603.874 471.712 607.54 479.013 611.412 484.009C615.787 489.652 621.57 494.123 626.266 499.521C632.008 506.116 637.256 513.171 642.034 520.488C646.466 527.288 649.803 534.687 655.594 540.512C658.255 543.194 661.197 545.589 663.874 548.255C667.482 551.848 670.209 555.942 673.002 560.158C674.386 562.25 675.795 564.333 677.195 566.417C678.472 568.304 679.634 570.379 681.273 571.979C682.715 573.398 684.346 574.481 685.689 576.006C686.653 577.114 687.559 577.836 689.05 577.975C690.649 578.123 690.261 575.736 688.82 575.604C687.806 575.506 687.147 574.194 686.513 573.513C685.854 572.807 685.088 572.241 684.338 571.642C682.344 570.035 681.092 568.123 679.667 566.015C676.726 561.659 673.982 557.115 670.852 552.89C666.057 546.41 659.31 541.898 654.252 535.696C651.64 532.497 649.795 528.871 647.719 525.328C645.725 521.915 643.566 518.601 641.326 515.353C636.638 508.552 631.555 501.973 626.01 495.837C621.232 490.555 615.301 486.199 611.461 480.129C609.542 477.085 607.861 473.312 608.586 469.637C609.27 466.118 612.219 463.312 615.556 462.188C622.007 460.023 629.627 462.623 635.6 465.117C641.705 467.668 647.496 470.974 652.925 474.739C661.353 480.588 669.608 486.748 678.637 491.687C687.568 496.568 697.132 499.923 706.903 502.712C716.929 505.583 727.12 508.634 737.344 510.693C747.65 512.769 758.113 513.745 767.809 518.084C776.839 522.12 785.151 527.731 793.307 533.26C801.908 539.084 809.537 545.958 817.52 552.57C825.247 558.96 833.156 565.162 841.897 570.125C850.811 575.194 859.642 580.305 869.051 584.431C876.094 587.515 884.423 591.322 892.299 588.844C893.296 588.533 894.936 587.934 895.273 586.826C895.611 585.702 894.705 584.406 893.906 583.734C891.723 581.896 888.131 581.502 885.47 580.707C880.485 579.214 875.6 577.598 870.822 575.531C866.357 573.595 861.941 571.7 857.294 570.24C852.599 568.771 848.1 566.811 843.8 564.424C839.475 562.028 835.487 559.108 831.302 556.483C822.603 551.02 813.656 545.844 804.742 540.733C795.828 535.623 787.021 530.151 777.835 525.549C773.42 523.342 769.037 521.136 764.951 518.363C763.113 517.116 761.227 515.845 759.769 514.155C758.006 512.112 756.935 509.397 755.79 506.986C753.689 502.539 751.473 498.11 749.57 493.582C747.576 488.832 746.67 483.902 745.697 478.873C741.685 458.079 737.937 437.226 732.953 416.637C727.919 395.842 722.655 375.154 719.524 353.965C717.975 343.514 717.176 333.039 716.245 322.522C715.438 313.483 714.729 304.533 714.762 295.452C714.779 291.802 714.804 288.151 714.82 284.509C714.837 280.391 715.273 276.38 715.545 272.278C715.685 270.203 715.199 267.972 715.718 265.946C716.286 263.723 718.025 262.033 719.804 260.696C721.246 259.613 722.82 258.563 724.41 257.71C727.309 256.168 729.872 255.88 732.409 258.218C735.877 261.418 736.05 265.659 735.185 270.047C734.378 274.141 733.216 278.062 732.862 282.245C732.244 289.636 732.228 297.191 732.804 304.59C733.554 314.114 735.375 323.556 737.789 332.784C739.057 337.641 740.285 342.8 740.754 347.813C741.224 352.816 740.829 358.017 740.829 363.038C740.829 373.98 740.73 384.923 740.87 395.858C741.002 406.481 739.354 416.94 739.28 427.547C739.14 448.325 740.985 469.079 744.206 489.603C744.915 494.098 745.772 498.684 747.353 502.966C748.136 505.082 749.067 507.109 749.767 509.25C750.327 510.956 751.036 512.309 752.387 513.523C752.684 513.794 753.161 513.991 753.565 513.852C756.103 512.998 754.875 508.93 754.447 507.133C753.639 503.704 752.453 500.39 751.291 497.068C749.24 491.219 747.839 485.124 746.398 479.103C744.676 471.901 743.86 464.608 742.435 457.357C741.026 450.187 738.72 443.247 737.121 436.127C735.474 428.81 734.979 421.37 734.535 413.897C734.098 406.662 733.521 399.591 732.195 392.454C731.593 389.205 730.572 386.047 730.061 382.782C729.517 379.28 729.707 375.662 729.748 372.127C729.839 364.662 730.086 357.181 729.476 349.724C728.924 343.022 728.347 336.312 726.626 329.823C725.687 326.279 725.233 322.654 724.616 319.044C724.055 315.738 723.174 312.58 722.243 309.365C720.603 303.721 719.137 297.995 718.346 292.163C717.745 287.749 716.946 283.271 716.608 278.833C716.344 275.387 716.171 272.36 714.985 269.063C714.375 267.381 713.774 265.913 711.92 265.38C706.664 263.862 702.982 267.603 700.782 271.909C698.368 276.651 696.432 281.851 695.032 286.978C693.713 291.81 692.651 296.724 691.687 301.637C690.327 308.577 689.174 315.722 690.204 322.785C691.242 329.946 692.931 336.911 694.982 343.834C696.037 347.386 696.02 350.815 695.995 354.482C695.971 358.272 696.16 362.119 695.633 365.884C694.644 372.988 693.697 380.084 693.005 387.212C692.338 394.127 688.655 400.255 685.607 406.325C684.066 409.393 683.119 412.527 682.155 415.808C681.158 419.212 680.021 422.535 679.14 425.963C678.275 429.327 676.438 432.469 675.886 435.897C675.342 439.269 674.493 442.698 674.205 446.094C673.562 453.723 673.892 461.384 672.961 468.989C672.533 472.467 672.269 475.888 672.129 479.382C671.981 483.041 671.42 486.666 671.313 490.333C671.099 497.642 670.975 505.115 671.28 512.416C671.429 515.861 672.022 519.225 672.071 522.686C672.121 526.501 672.318 530.315 672.706 534.113C673.431 541.225 675.268 547.706 677.541 554.457C679.741 560.978 681.974 567.188 685.384 573.201C688.828 579.279 692.066 585.522 696.358 591.067C698.36 593.651 700.708 595.932 703.014 598.245C705.42 600.657 707.702 603.183 710.165 605.538C720.389 615.324 731.692 623.437 744.388 629.696C750.921 632.92 757.429 636.111 763.575 640.056C769.688 643.986 775.85 647.849 781.963 651.778C788.175 655.773 794.345 659.85 800.433 664.034C806.546 668.226 812.774 672.081 818.615 676.667C824.53 681.31 830.454 685.936 836.278 690.678C841.691 695.083 846.997 699.603 852.722 703.614C855.647 705.656 858.473 707.642 861.092 710.078C863.514 712.334 865.838 714.68 868.375 716.796C869.603 717.813 871.143 716.181 869.907 715.156L869.891 715.213Z" fill="#CBA794" fill-opacity="0.8"/>
<path d="M693.318 396.777C693.952 396.777 694.488 396.186 694.422 395.563C694.348 394.874 693.648 394.529 693.021 394.529C692.395 394.529 691.852 395.12 691.918 395.743C691.992 396.432 692.692 396.777 693.318 396.777Z" fill="#CBA794" fill-opacity="0.8"/>
<path d="M743.844 463.55C743.621 463.517 744.165 463.665 743.959 463.583C744.099 463.64 744.223 463.681 744.363 463.755C744.363 463.755 744.437 463.772 744.462 463.845C744.371 463.575 744.289 463.649 744.206 463.394C744.05 462.902 744.009 462.377 744.009 461.86C744.017 460.17 744.396 458.472 744.783 456.84C745.813 452.492 747.287 448.251 748.828 444.06C749.973 440.951 751.176 437.866 752.445 434.798C753.524 432.198 754.529 429.573 755.559 426.956C756.341 424.979 757.141 423.002 758.039 421.074C758.895 419.221 759.867 417.416 760.675 415.537C761.449 413.741 762.166 411.92 763.047 410.164C763.937 408.376 765.066 406.719 765.939 404.923C766.812 403.11 767.521 401.207 767.892 399.221C768.271 397.171 768.139 395.103 768.147 393.036C768.163 388.746 768.526 384.333 767.908 380.067C767.331 376.072 765.964 372.25 764.72 368.435C764.085 366.491 763.476 364.531 762.998 362.537C762.52 360.536 762.257 358.509 761.993 356.475C761.424 352.111 760.914 347.739 759.999 343.432C759.554 341.324 758.838 339.265 758.467 337.149C758.088 335.008 758.063 332.817 757.882 330.652C757.536 326.517 756.292 322.555 756.193 318.38C756.144 316.411 756.275 314.434 756.045 312.474C755.831 310.62 755.196 308.954 754.389 307.289C753.895 306.264 753.367 305.23 752.519 304.435C751.604 303.573 750.369 303.106 749.149 302.884C747.691 302.622 746.183 302.704 744.709 302.712C743.201 302.728 741.669 302.778 740.219 303.237C736.841 304.303 735.523 307.617 735.086 310.849C734.864 312.515 734.823 314.196 734.823 315.878C734.823 316.731 737.237 317.215 737.245 316.608C737.253 313.351 737.228 309.504 739.107 306.69C741.026 303.811 744.42 303.992 747.502 303.975C748.103 303.975 748.713 303.967 749.314 304.049C749.759 304.115 749.957 304.156 750.27 304.377C751.135 304.984 751.621 306.133 752.057 307.051C752.848 308.7 753.441 310.357 753.639 312.187C753.845 314.106 753.73 316.034 753.771 317.961C753.82 319.947 754.059 321.924 754.405 323.876C754.776 325.943 755.27 327.969 755.452 330.069C755.633 332.186 755.658 334.31 755.995 336.41C756.341 338.584 757.083 340.692 757.552 342.85C758.467 347.099 758.978 351.422 759.538 355.737C759.802 357.779 760.057 359.822 760.518 361.832C760.963 363.776 761.556 365.687 762.166 367.582C763.385 371.364 764.753 375.137 765.404 379.066C766.104 383.307 765.758 387.696 765.733 391.978C765.717 394.053 765.873 396.153 765.527 398.204C765.189 400.189 764.514 402.109 763.649 403.922C762.817 405.694 761.721 407.31 760.823 409.049C759.9 410.829 759.159 412.691 758.376 414.537C757.594 416.374 756.671 418.13 755.822 419.926C754.933 421.805 754.142 423.724 753.376 425.652C752.28 428.416 751.225 431.197 750.08 433.937C748.869 436.865 747.708 439.819 746.612 442.796C745.063 446.972 743.588 451.204 742.509 455.527C742.097 457.201 741.71 458.907 741.611 460.63C741.554 461.655 741.512 462.894 742.213 463.739C742.682 464.313 743.465 464.633 744.182 464.74C744.495 464.789 745.277 464.871 745.22 464.362C745.17 463.895 744.19 463.599 743.844 463.55Z" fill="#CBA794" fill-opacity="0.8"/>
<path d="M81.8637 755.602C84.0056 754.552 85.3979 753.625 86.8808 751.779C88.5532 749.695 90.3657 747.718 92.2358 745.815C95.6465 742.362 99.2796 739.138 102.756 735.742C104.536 734.003 106.422 732.264 107.839 730.213C109.19 728.261 110.5 726.275 111.802 724.282C114.595 720.016 117.379 715.759 120.526 711.74C126.128 704.578 136.171 703.75 143.025 698.139C149.212 693.078 152.697 685.695 155.49 678.402C157.08 674.251 158.769 670.084 160.186 665.876C161.751 661.233 162.641 656.401 163.193 651.545C163.745 646.673 163.976 641.775 164.223 636.878C164.363 634.212 164.758 631.718 165.343 629.11C165.87 626.747 166.554 624.36 166.678 621.932C166.933 617.027 165.508 612.293 165.203 607.429C165.121 606.149 165.104 605.173 164.659 603.967C164.247 602.868 163.786 601.793 163.374 600.694C162.484 598.299 161.941 595.657 161.702 593.115C161.586 591.925 161.628 590.768 161.347 589.612C161.084 588.529 160.828 587.446 160.606 586.355C160.021 583.443 159.626 580.49 159.131 577.561C158.711 575.051 158.242 572.541 157.558 570.088C156.858 567.554 155.762 565.208 154.864 562.747C147.853 543.576 150.662 522.822 151.181 502.905C151.313 497.95 151.313 492.996 151 488.049C150.934 487.057 150.934 486.023 150.687 485.055C150.44 484.079 149.871 483.193 149.649 482.217C149.146 480.092 151.379 479.338 153.101 479.05C162.526 477.451 169.405 485.646 172.519 493.529C175.806 501.871 176.061 510.977 176.77 519.795C177.157 524.61 177.643 529.237 178.665 533.97C179.167 536.3 179.645 538.638 179.851 541.008C180.065 543.461 180.073 545.594 181.029 547.924C181.943 550.155 183.278 552.23 184.333 554.404C185.519 556.832 186.606 559.31 187.62 561.82C189.564 566.61 191.261 571.491 192.942 576.38C193.782 578.833 194.589 581.302 195.487 583.738C196.262 585.847 197.794 587.561 198.692 589.628C199.532 591.581 200.513 593.566 201.098 595.608C201.93 598.504 202.136 601.547 202.177 604.55C202.243 609.463 201.707 614.196 203.067 618.987C204.269 623.228 206.815 627.248 208.924 631.103C213.365 639.216 218.209 647.115 222.32 655.401C226.439 663.694 229.751 672.471 231.077 681.667C232.593 692.183 231.39 702.905 227.864 712.921C227.09 715.111 226.299 717.375 225.112 719.385C223.77 721.657 222.344 723.888 221.01 726.169C219.758 728.318 218.571 730.516 217.616 732.813C216.594 735.266 215.161 737.448 213.595 739.597C210.399 743.994 206.724 748.038 203.157 752.132C199.491 756.34 195.809 760.523 192.167 764.748C185.428 772.574 179.464 781.138 171.456 787.758C167.642 790.916 163.588 793.779 159.675 796.822C155.597 799.988 152.038 803.508 148.677 807.412C145.489 811.12 142.416 814.943 138.873 818.331C135.528 821.53 131.277 824.803 126.582 825.566C125.684 825.713 124.81 825.73 123.945 825.935C123.443 826.058 122.817 826.238 122.322 825.959C120.65 825.033 122.289 821.079 122.759 819.84C124.473 815.369 127.661 811.678 130.8 808.126C144.327 792.819 160.713 780.498 176.144 767.225C184.291 760.22 193.304 754.215 202.721 749.014C211.931 743.928 221.809 739.753 230.533 733.847C235.122 730.746 239.587 727.473 244.028 724.167C248.122 721.116 251.689 717.539 255.15 713.799C258.61 710.066 261.88 706.178 265.118 702.257C268.422 698.254 272.178 694.693 275.861 691.035C283.597 683.332 290.846 675.162 298.558 667.435C302.199 663.784 306.129 660.38 309.523 656.516C310.874 654.982 312.316 653.539 313.444 651.832C314.705 649.929 315.413 647.739 316.352 645.672C320.529 636.46 325.843 627.805 330.72 618.954C332.986 614.853 334.93 610.595 337.113 606.461C339.024 602.852 341.587 599.554 342.888 595.641C344.173 591.802 343.646 587.971 341.216 584.706C339.568 582.491 337.344 580.67 334.617 580.006C329.287 578.71 323.924 581.72 319.804 584.788C314.828 588.504 310.528 593.082 306.549 597.823C304.81 599.898 303.097 601.974 301.672 604.279C298.969 608.676 296.547 613.229 293.911 617.666C291.365 621.965 288.704 626.69 284.865 629.979C282.855 631.71 280.318 632.662 277.92 633.744C275.605 634.794 273.299 635.844 271.017 636.968C271.396 636.993 271.775 637.018 272.154 637.034C271.799 636.862 271.313 636.714 271.008 636.468C270.745 636.328 270.737 636.328 270.992 636.468C271.371 636.739 271.387 636.501 271.025 635.762C270.943 635.278 270.885 634.786 270.827 634.294C270.588 632.194 270.481 630.086 270.193 627.994C269.995 626.567 267.688 626.222 267.919 627.838C268.249 630.225 268.331 632.637 268.669 635.024C268.784 635.861 268.817 637.165 269.278 637.895C269.624 638.437 270.308 638.691 270.868 638.937C272.524 639.675 274.279 638.166 275.811 637.46C278.275 636.32 280.763 635.237 283.201 634.056C287.897 631.784 290.83 627.141 293.557 622.9C296.473 618.364 299.011 613.606 301.721 608.955C305 603.327 309.061 598.381 313.593 593.697C317.852 589.292 322.943 584.419 328.99 582.656C331.478 581.925 334.131 581.876 336.429 583.205C339.799 585.158 341.916 589.111 341.175 592.967C340.343 597.273 337.368 600.899 335.309 604.664C333.085 608.733 331.206 612.991 328.974 617.068C324.014 626.107 318.577 634.926 314.309 644.326C313.345 646.459 312.62 648.764 311.253 650.684C309.935 652.538 308.279 654.195 306.779 655.901C305.066 657.862 302.99 659.56 301.12 661.381C299.044 663.399 296.992 665.441 294.957 667.5C287.172 675.408 279.733 683.636 271.865 691.461C270.012 693.307 268.1 695.12 266.296 697.007C264.393 698.992 262.737 701.231 260.966 703.34C257.547 707.417 254.046 711.428 250.305 715.226C246.367 719.229 242.042 722.535 237.503 725.832C232.931 729.163 228.334 732.42 223.399 735.192C214.048 740.442 204.039 744.7 195.051 750.573C190.561 753.502 185.939 756.225 181.622 759.416C177.379 762.558 173.499 766.192 169.462 769.596C161.397 776.38 153.183 783.008 145.34 790.055C141.452 793.557 137.646 797.158 134.013 800.924C130.478 804.582 126.903 808.356 123.978 812.523C121.704 815.763 119.035 820.381 119.348 824.499C119.595 827.699 122.059 828.814 124.876 828.207C126.738 827.805 128.559 827.756 130.388 827.042C132.612 826.181 134.639 824.91 136.542 823.49C140.603 820.463 143.981 816.698 147.252 812.859C150.563 808.963 153.801 804.894 157.69 801.539C161.496 798.258 165.673 795.403 169.644 792.327C173.565 789.292 177.371 786.084 180.683 782.385C184.374 778.267 187.677 773.763 191.261 769.547C198.527 760.991 206.321 752.812 213.307 744.027C214.856 742.083 216.322 740.032 217.648 737.932C219.098 735.643 219.98 733.117 221.224 730.713C223.58 726.144 226.826 722.018 228.737 717.244C232.609 707.581 234.537 697.138 233.837 686.736C232.56 667.664 222.748 651.209 213.562 634.959C211.214 630.808 208.908 626.624 206.799 622.342C205.695 620.111 204.879 617.863 204.492 615.394C204.08 612.745 204.368 609.988 204.409 607.314C204.492 601.908 204.047 596.847 201.971 591.827C201.155 589.85 200.439 587.782 199.269 585.97C198.684 585.059 198.016 584.239 197.613 583.23C197.061 581.819 196.616 580.367 196.122 578.931C192.637 568.817 189.226 558.612 184.077 549.187C182.841 546.931 182.281 544.962 182.166 542.403C182.051 539.794 181.573 537.219 181.037 534.659C180.526 532.215 179.917 529.77 179.595 527.293C179.274 524.857 179.2 522.371 179.002 519.918C178.277 510.895 177.997 501.552 174.636 493.02C173.087 489.091 170.912 485.047 167.864 482.061C164.931 479.182 160.623 476.606 156.421 476.36C153.661 476.204 149.781 476.491 147.968 478.862C146.93 480.223 147.046 481.585 147.598 483.119C147.944 484.087 148.389 484.981 148.537 486.015C148.743 487.418 148.735 488.902 148.8 490.321C149.245 500.69 148.471 511.059 148.084 521.419C147.705 531.591 147.705 541.829 149.575 551.869C150.53 556.988 152.071 561.877 154.04 566.692C156.19 571.951 156.8 577.668 157.731 583.23C158.159 585.822 159.008 588.439 159.247 591.047C159.469 593.525 159.741 595.904 160.326 598.332C160.878 600.645 162.048 602.72 162.649 604.993C162.995 606.297 162.888 607.765 163.036 609.102C163.193 610.505 163.424 611.891 163.646 613.286C163.992 615.46 164.33 617.642 164.371 619.848C164.429 622.744 163.671 625.5 163.045 628.306C162.509 630.709 162.081 632.99 161.949 635.443C161.809 638.141 161.685 640.84 161.512 643.539C161.174 648.846 160.655 654.17 159.477 659.371C158.39 664.17 156.462 668.665 154.781 673.267C151.947 681.027 148.908 689.173 142.745 694.981C139.351 698.172 135.182 700.034 130.948 701.838C127.018 703.512 122.874 705.243 119.925 708.458C116.514 712.182 113.779 716.686 111.019 720.894C109.676 722.945 108.342 725.004 106.966 727.038C105.343 729.434 103.473 731.443 101.413 733.47C97.9532 736.874 94.3118 740.098 90.8847 743.543C89.1464 745.282 87.4658 747.078 85.8922 748.965C85.1178 749.892 84.4423 751.041 83.4949 751.787C82.6298 752.468 81.5177 752.911 80.5373 753.395C79.2521 754.018 80.5126 756.2 81.806 755.577L81.8637 755.602Z" fill="#CBA794" fill-opacity="0.8"/>
<path d="M270.152 628.593C270.168 626.821 270.358 625.041 270.3 623.269C270.242 621.579 269.88 619.897 269.443 618.265C268.537 614.844 267.384 611.539 266.889 608.019C266.642 606.297 266.519 604.558 266.453 602.819C266.387 601.071 265.86 599.529 265.415 597.856C264.962 596.191 264.978 594.476 264.953 592.77C264.937 591.039 264.681 589.382 264.294 587.7C263.602 584.723 263.075 581.655 261.122 579.186C260.192 578.012 259.055 577.274 257.819 576.47C256.468 575.593 255.084 574.625 253.51 574.198C252.769 574.001 251.945 574.132 251.228 573.87C250.528 573.616 249.976 573.025 249.284 572.73C247.727 572.057 245.914 571.647 244.267 571.261C240.774 570.433 237.165 570.285 233.59 570.261C230.014 570.236 226.39 570.146 222.831 570.515C221.043 570.703 219.346 570.991 217.55 570.966C216.709 570.958 215.877 570.958 215.045 571.105C214.205 571.253 213.398 571.524 212.557 571.68C210.761 572.008 208.817 571.819 206.996 571.778C205.637 571.753 204.302 571.77 202.951 571.86C201.732 571.942 200.48 572.049 199.269 571.811C197.926 571.548 197.662 570.662 197.176 569.514C196.921 568.907 196.608 568.357 196.155 567.873C195.726 567.414 195.15 567.004 194.837 566.446C194.202 565.298 194.359 563.444 194.334 562.172C194.268 558.916 194.639 555.725 195.018 552.493C195.891 545.011 196.146 537.547 196.146 530.024V518.491C196.146 516.686 196.171 514.873 196.089 513.069C196.006 511.305 195.866 509.517 196.072 507.761C196.484 504.168 197.844 500.739 198.725 497.253C199.615 493.767 200.249 490.182 200.982 486.655C201.361 484.85 201.683 483.029 201.913 481.199C202.136 479.403 202.111 477.656 202.07 475.851C202.029 474.038 202.366 472.365 202.605 470.585C202.836 468.854 202.844 467.139 202.877 465.392C202.927 461.725 203.462 458.091 203.602 454.425C203.742 450.725 203.635 447.009 203.619 443.309C203.619 441.718 203.536 440.135 203.495 438.543C203.462 437.337 203.52 436.074 204.442 435.18C206.584 433.129 210.234 433.047 213.01 433.269C217.533 433.638 219.568 438.568 220.738 442.3C221.43 444.523 221.924 446.804 222.468 449.076C223.325 452.669 224.239 456.246 224.989 459.855C225.73 463.423 226.299 467.024 226.48 470.667C226.67 474.44 226.546 478.246 226.587 482.028C226.628 485.785 226.661 489.534 226.571 493.291C226.488 496.933 225.788 500.501 225.788 504.152C225.788 507.95 225.821 511.74 225.788 515.538C225.755 519.262 226.134 522.92 226.752 526.587C227.37 530.213 228.194 533.806 228.746 537.44C229.314 541.164 229.487 544.929 229.726 548.686C229.841 550.532 229.99 552.378 230.187 554.215C230.377 555.938 230.262 557.652 230.171 559.375C230.08 561.147 230.113 562.853 230.451 564.6C230.748 566.143 230.846 567.734 231.192 569.26C231.44 570.343 232.123 572.032 233.318 572.377C234.587 572.746 235.921 571.827 236.136 570.58C236.234 569.998 235.905 569.325 235.229 569.293C233.475 569.194 231.753 569.662 230.006 569.58C229.454 569.555 228.853 569.465 228.531 568.973C227.971 568.12 228.218 566.659 228.136 565.691C227.856 562.615 227.147 559.596 226.843 556.529C226.53 553.387 226.497 550.196 226.554 547.046C226.653 540.631 227.09 534.06 228.375 527.768C229.644 521.567 230.698 515.333 231.852 509.115C234.208 496.474 236.482 483.792 236.605 470.896C236.671 464.317 236.333 457.739 236.16 451.168C236.07 447.944 236.02 444.72 236.078 441.496C236.127 438.404 236.127 435.205 236.589 432.145C237.025 429.2 238.607 426.468 241.573 425.541C244.291 424.688 247.373 425.451 249.745 426.911C251.179 427.789 252.439 428.937 253.444 430.283C254.614 431.85 255.249 433.548 255.85 435.385C256.748 438.109 257.967 440.701 259.022 443.367C259.532 444.655 260.01 445.967 260.381 447.304C260.785 448.773 260.958 450.257 261.205 451.759C261.699 454.794 262.482 457.722 262.581 460.815C262.68 463.891 262.441 466.967 262.432 470.043C262.416 476.647 262.498 483.25 262.432 489.846C262.366 496.162 261.155 502.372 260.01 508.565C259.45 511.6 258.379 514.529 257.951 517.58C257.531 520.55 257.077 523.527 256.723 526.505C255.998 532.707 256.254 538.99 256.839 545.192C257.448 551.623 258.206 558.038 259.013 564.445C259.417 567.668 259.796 570.9 260.348 574.108C260.628 575.707 260.933 577.307 260.958 578.931C260.982 580.482 260.884 582.032 260.892 583.582C260.917 586.782 261.642 589.858 262.119 593C262.35 594.517 262.449 596.026 262.432 597.56C262.424 598.733 262.515 599.89 262.943 600.989C263.429 602.236 264.27 603.319 264.459 604.664C264.607 605.739 264.665 606.887 265.423 607.749C266.024 608.438 267.507 608.315 267.697 607.281C268.446 603.327 268.578 599.308 268.718 595.305C268.858 591.08 269.328 586.888 269.715 582.68C270.498 574.182 270.127 565.642 270.168 557.127C270.185 552.788 270.3 548.44 270.036 544.109C269.789 539.975 268.949 536.013 268.059 531.977C267.161 527.9 266.758 523.733 266.066 519.615C265.365 515.48 264.624 511.346 263.841 507.228C263.009 502.856 264.434 498.336 264.714 493.955C264.813 492.47 262.309 492.758 262.218 494.16C262.103 495.957 261.798 497.753 261.584 499.533C261.345 501.527 260.966 503.619 261.04 505.636C261.09 507.113 261.551 508.631 261.831 510.083C262.243 512.207 262.614 514.34 262.984 516.473C263.693 520.591 264.228 524.725 264.896 528.843C265.546 532.863 266.766 536.784 267.235 540.836C267.721 545.02 267.721 549.244 267.688 553.444C267.623 561.967 268.018 570.531 267.507 579.046C267.227 583.796 266.543 588.512 266.296 593.27C266.057 597.831 266.115 602.408 265.266 606.912C266.024 606.756 266.782 606.6 267.54 606.444C266.815 605.616 267.021 604.312 266.741 603.303C266.362 601.933 265.415 600.801 265.069 599.406C264.747 598.11 264.97 596.716 264.887 595.387C264.789 593.795 264.517 592.22 264.237 590.653C263.948 589.037 263.627 587.413 263.479 585.773C263.33 584.173 263.363 582.557 263.405 580.949C263.437 579.3 263.437 577.701 263.199 576.06C262.96 574.411 262.63 572.779 262.399 571.13C261.485 564.51 260.694 557.866 259.969 551.221C259.261 544.708 258.585 538.186 258.808 531.632C258.915 528.417 259.384 525.299 259.837 522.125C260.051 520.615 260.175 519.098 260.406 517.597C260.636 516.054 261.09 514.611 261.501 513.118C262.358 509.992 262.836 506.744 263.396 503.561C263.948 500.428 264.434 497.278 264.698 494.111C264.978 490.797 264.92 487.475 264.92 484.161C264.92 480.756 264.92 477.352 264.92 473.956C264.92 470.716 264.978 467.476 265.06 464.235C265.143 461.069 264.986 458.001 264.36 454.892C263.759 451.898 263.479 448.797 262.589 445.869C261.749 443.088 260.513 440.455 259.425 437.764C258.511 435.508 257.942 433.096 256.806 430.939C255.932 429.282 254.754 427.814 253.354 426.575C248.51 422.309 240.139 421.177 236.004 427.002C234.966 428.462 234.381 430.234 234.125 431.989C233.68 435.114 233.631 438.346 233.573 441.496C233.458 448.207 233.788 454.909 233.977 461.619C234.167 468.312 234.183 474.998 233.59 481.675C233.005 488.295 231.942 494.866 230.772 501.404C229.594 507.983 228.301 514.537 227.197 521.124C226.678 524.241 225.854 527.309 225.384 530.443C224.898 533.666 224.594 536.923 224.363 540.172C223.893 546.668 223.729 553.329 224.75 559.785C224.997 561.336 225.277 562.878 225.475 564.436C225.656 565.872 225.599 567.357 225.838 568.776C226.159 570.654 227.609 571.655 229.454 571.77C231.184 571.877 232.89 571.384 234.611 571.483C234.307 571.056 234.01 570.621 233.705 570.195C233.631 570.613 234.216 570.195 233.746 570.195C234.035 570.277 234.331 570.359 234.62 570.441C233.466 569.473 233.516 567.808 233.31 566.454C233.063 564.797 232.634 563.173 232.593 561.483C232.56 559.752 232.758 558.03 232.782 556.299C232.799 554.511 232.519 552.73 232.379 550.95C232.082 547.202 231.967 543.436 231.547 539.696C231.135 536.004 230.344 532.37 229.66 528.728C228.976 525.111 228.383 521.46 228.268 517.777C228.153 513.954 228.284 510.107 228.268 506.276C228.268 504.422 228.202 502.56 228.35 500.706C228.49 498.951 228.762 497.22 228.919 495.465C229.256 491.716 229.116 487.893 229.083 484.128C229.051 480.314 229.026 476.499 229.009 472.685C228.993 469.092 228.556 465.523 227.93 461.988C227.287 458.354 226.414 454.761 225.541 451.176C224.89 448.502 224.313 445.803 223.588 443.145C222.476 439.044 220.787 434.261 216.849 432.055C214.633 430.808 211.931 430.857 209.46 431.046C206.667 431.259 203.133 432.309 201.683 434.934C201.065 436.05 200.933 437.329 200.958 438.584C200.991 440.159 201.081 441.718 201.081 443.293C201.089 446.993 201.197 450.709 201.065 454.408C200.933 458.132 200.381 461.832 200.332 465.564C200.307 467.279 200.315 468.977 200.068 470.683C199.813 472.422 199.491 474.071 199.524 475.843C199.557 477.705 199.607 479.518 199.368 481.38C199.137 483.201 198.783 485.014 198.396 486.81C197.638 490.387 197.011 494.046 196.064 497.573C195.141 501.002 193.906 504.39 193.518 507.942C193.329 509.705 193.453 511.485 193.535 513.249C193.617 515.054 193.593 516.858 193.593 518.671C193.593 526.251 193.782 533.863 193.411 541.443C193.23 545.2 192.901 548.941 192.464 552.673C192.085 555.905 191.714 559.096 191.78 562.353C191.813 563.813 191.764 565.527 192.258 566.922C192.695 568.169 193.84 568.743 194.499 569.826C195.183 570.958 195.306 572.278 196.435 573.132C197.399 573.862 198.676 574.075 199.862 574.141C201.131 574.206 202.399 574.116 203.668 574.026C205.151 573.927 206.634 573.993 208.117 574.026C209.88 574.059 211.651 574.124 213.381 573.739C214.156 573.566 214.922 573.312 215.713 573.23C216.685 573.132 217.665 573.214 218.637 573.205C220.392 573.189 222.13 572.779 223.877 572.648C225.607 572.516 227.345 572.492 229.075 572.492C232.758 572.492 236.457 572.402 240.123 572.853C241.935 573.074 243.698 573.468 245.445 573.985C246.203 574.206 246.977 574.395 247.719 574.666C248.493 574.953 249.078 575.527 249.828 575.863C250.553 576.191 251.286 576.175 252.052 576.265C252.901 576.364 253.675 576.757 254.4 577.176C255.693 577.922 257.176 578.743 258.272 579.768C260.554 581.917 261.024 585.067 261.716 587.955C262.136 589.694 262.383 591.367 262.408 593.155C262.424 594.886 262.465 596.609 262.869 598.307C263.273 599.98 263.849 601.482 263.907 603.221C263.973 604.96 264.113 606.69 264.368 608.413C264.879 611.949 265.958 615.279 266.898 618.716C267.342 620.34 267.713 621.973 267.746 623.663C267.787 625.377 267.606 627.092 267.598 628.814C267.59 630.307 270.086 630.02 270.094 628.609L270.152 628.593Z" fill="#CBA794" fill-opacity="0.8"/>
</svg>
