<svg width="114" height="194" viewBox="0 0 114 194" fill="none" xmlns="http://www.w3.org/2000/svg">
<path fill-rule="evenodd" clip-rule="evenodd" d="M29.425 175.638C30.2289 176.026 40.9887 180.022 41.6069 180.411C42.6576 180.744 43.4615 181.687 43.4615 182.743C43.4615 183.297 42.8433 184.574 41.2348 184.574C40.1842 184.574 39.566 184.24 38.9478 184.019C38.3296 183.685 28.3737 177.636 28.3737 177.636V177.803C28.9918 178.358 35.4848 185.517 36.103 186.239C36.5354 186.96 37.1536 187.849 37.1536 188.792C37.1536 190.235 35.4848 190.79 34.6809 190.79C33.5049 190.79 32.4542 190.068 31.8367 188.625C31.4646 187.849 26.9516 179.635 26.5795 178.913H26.3334C26.3334 179.634 28.0022 188.958 28.0022 190.068C28.0022 191.178 27.7561 193.343 25.3438 193.343C22.9314 193.343 22.4989 191.178 22.4989 190.068C22.4989 189.126 24.1074 180.744 24.3535 178.913L24.1074 178.746C23.4892 180.022 19.8404 186.96 18.8502 188.624C18.0462 190.068 16.9956 190.79 16.006 190.79C14.956 190.79 13.5339 190.234 13.5339 188.791C13.5339 187.848 14.1521 186.793 14.5839 186.238C15.3878 185.128 21.5106 179.135 22.3132 177.803L22.0671 177.635C22.0671 177.635 12.1111 183.685 11.4929 184.018C11.1208 184.406 10.3169 184.573 9.51434 184.573C7.65847 184.573 7.03963 183.464 7.03963 182.963C7.03963 181.687 8.0299 180.744 8.89419 180.41C9.51369 180.022 20.2723 176.025 21.0762 175.804V175.47C20.458 175.47 9.88447 176.747 8.89419 176.747C7.47275 176.748 5 176.527 5 174.362C5 171.975 7.47275 171.975 8.89484 171.975C10.0708 171.975 19.8404 173.252 21.0768 173.252L21.2632 173.084C20.2729 172.697 10.0708 168.867 8.89484 168.312C8.02991 167.978 7.04028 167.036 7.04028 165.98C7.04028 164.482 8.03056 163.594 9.26694 163.594C9.69941 163.594 10.0708 163.594 10.5033 163.76C12.915 164.871 21.5106 170.92 22.0671 171.087L22.3132 170.919C21.695 170.365 15.3878 163.594 14.5839 162.484C14.3378 162.15 13.3475 161.041 13.3475 160.153C13.3475 158.654 14.7696 157.932 16.1917 157.932C17.182 157.932 18.0462 158.654 18.8502 160.153C19.6541 161.43 23.921 169.81 23.921 169.81H24.3535C24.3535 169.81 22.4989 159.931 22.4989 158.821C22.4989 157.545 22.9314 155.38 25.3438 155.38C27.7561 155.38 28.0022 157.545 28.0022 158.821C28.0022 159.597 26.5795 168.868 26.3334 169.81H26.7658C27.5697 168.146 31.4646 160.874 31.8367 160.154C32.6406 158.821 33.6912 157.766 34.9276 157.766C35.7315 157.766 37.1543 158.655 37.1543 160.154C37.1543 161.041 36.5361 161.93 36.1036 162.484C35.7322 163.04 28.8061 170.365 28.3743 171.087L28.6204 171.253C28.9925 170.92 37.7725 164.871 39.9985 163.982C40.3699 163.761 40.9887 163.761 41.2348 163.761C42.6569 163.761 43.6472 164.704 43.6472 165.981C43.6472 167.257 42.8433 167.979 41.7927 168.313C40.9888 168.701 30.2282 172.697 29.6107 173.085L29.7964 173.252C30.6613 173.085 40.803 171.976 41.7927 171.976C43.029 171.809 45.6875 171.975 45.6875 174.362C45.6875 176.527 43.029 176.747 41.7927 176.747C40.3699 176.747 31.4646 175.805 29.6107 175.471L29.425 175.638ZM26.5801 174.528C26.5801 174.194 26.1477 173.473 25.3438 173.473C24.5398 173.473 24.1074 174.194 24.1074 174.528C24.1074 175.083 24.5398 175.638 25.3438 175.638C26.1477 175.638 26.5801 175.083 26.5801 174.528Z" fill="#D6D8C9" fill-opacity="0.5"/>
<rect width="113.549" height="157.035" rx="56.7744" fill="#D6D8C9"/>
<path d="M31.1875 170.438V172.188H36.0625V170.438H31.1875ZM31.1875 172.562V174.312H36.0625V172.562H31.1875ZM32.0625 170.062C32.5625 169.229 32.8958 168.521 33.0625 167.938L34.25 168.562C33.875 168.688 33.5625 168.896 33.3125 169.188C33.0208 169.479 32.7292 169.771 32.4375 170.062H35.75L36.3125 169.438L37.3125 170.312L36.875 170.562V173.062C36.875 173.688 36.8958 174.25 36.9375 174.75L36.0625 175.188V174.688H33.9375C34.1042 175.604 34.4375 176.583 34.9375 177.625C35.8958 176.958 36.6458 176.292 37.1875 175.625L37.9375 176.688C37.6042 176.688 37.1667 176.833 36.625 177.125C36.0833 177.417 35.6042 177.688 35.1875 177.938C35.4375 178.479 35.8333 179.021 36.375 179.562C36.9583 180.104 37.5833 180.5 38.25 180.75V181C37.5 180.958 37.0417 181.146 36.875 181.562C36.1667 180.771 35.5625 179.917 35.0625 179C34.5625 178.083 34.1875 177.021 33.9375 175.812V181.062C33.9375 181.604 33.8333 181.958 33.625 182.125C33.4583 182.292 33.1042 182.438 32.5625 182.562C32.5625 182.062 31.9583 181.646 30.75 181.312V181.062C31.75 181.188 32.3958 181.25 32.6875 181.25C32.9792 181.25 33.125 181.062 33.125 180.688V174.688H31.1875V175L30.3125 175.312C30.3542 174.146 30.375 173.125 30.375 172.25C30.375 171.333 30.3542 170.438 30.3125 169.562L31.1875 170.062H32.0625ZM32.9375 177.125C32.5625 177.25 32.25 177.583 32 178.125C31.7083 178.708 31.25 179.375 30.625 180.125C30.0417 180.833 29.1458 181.458 27.9375 182L27.75 181.875C29.7083 180.792 31 179.125 31.625 176.875H31.375C30.8333 176.875 30.3333 176.938 29.875 177.062L29.3125 176.5H31.5625L32.0625 176L32.9375 177.125ZM24.8125 178.25H25.0625C25.0208 179.292 24.9375 180.042 24.8125 180.5C24.7292 180.958 24.5833 181.229 24.375 181.312C24.2083 181.396 24.0625 181.438 23.9375 181.438C23.8125 181.438 23.6875 181.375 23.5625 181.25C23.4792 181.125 23.4375 181.021 23.4375 180.938C23.4375 180.812 23.5417 180.625 23.75 180.375C24.0417 180.083 24.3958 179.375 24.8125 178.25ZM25.9375 178.062L26.1875 178C26.9375 179 27.3125 179.708 27.3125 180.125C27.3125 180.542 27.1458 180.812 26.8125 180.938C26.5208 181.062 26.3542 180.833 26.3125 180.25C26.2708 179.667 26.1458 178.938 25.9375 178.062ZM27.5625 177.688L27.75 177.562C28.5 178.104 28.9375 178.521 29.0625 178.812C29.1875 179.062 29.25 179.271 29.25 179.438C29.25 179.688 29.1667 179.875 29 180C28.875 180.125 28.7708 180.188 28.6875 180.188C28.5625 180.188 28.4583 180.021 28.375 179.688C28.25 179.188 27.9792 178.521 27.5625 177.688ZM27.6875 169.125C27.4375 169.167 27.0625 169.583 26.5625 170.375C26.0208 171.208 25.4583 172 24.875 172.75H27.25C27.5417 172.292 27.8125 171.729 28.0625 171.062L28.9375 172C28.7708 171.958 28.2708 172.5 27.4375 173.625C26.5625 174.792 25.75 175.75 25 176.5L28.0625 176.062C27.9375 175.562 27.75 174.979 27.5 174.312L27.625 174.188C28.625 175.229 29.125 175.979 29.125 176.438C29.1667 176.854 29.1042 177.125 28.9375 177.25C28.7708 177.375 28.6458 177.438 28.5625 177.438C28.4375 177.438 28.375 177.375 28.375 177.25C28.3333 177.042 28.2708 176.771 28.1875 176.438C27.0625 176.688 26.25 176.917 25.75 177.125C25.25 177.292 24.875 177.479 24.625 177.688L23.9375 176.375C24.1458 176.375 24.5625 176.062 25.1875 175.438C25.8125 174.812 26.4167 174.042 27 173.125C26.4583 173.167 26 173.229 25.625 173.312C25.25 173.396 24.8542 173.583 24.4375 173.875L23.875 172.75C24.2083 172.667 24.6667 172.188 25.25 171.312C25.8333 170.438 26.3333 169.417 26.75 168.25L27.6875 169.125ZM46.4525 168.062L48.14 168.812L47.4525 169.312V173.5H51.14L52.0775 172.562L53.39 173.875H47.4525V180.938H52.5775L53.5775 179.938L54.9525 181.312H42.4525C41.9108 181.312 41.4108 181.375 40.9525 181.5L40.39 180.938H46.515V170.438C46.515 169.688 46.4942 168.896 46.4525 168.062ZM58.4675 170.688C59.3425 171.188 59.905 171.521 60.155 171.688L62.2175 169.562H59.5925C59.0508 169.562 58.5508 169.625 58.0925 169.75L57.53 169.188H62.2175L62.78 168.625L63.655 169.812C63.28 169.771 62.8008 169.979 62.2175 170.438C61.6342 170.896 61.03 171.375 60.405 171.875C60.8217 172.208 61.0092 172.5 60.9675 172.75C60.9675 173 60.8842 173.188 60.7175 173.312C60.5925 173.438 60.5092 173.5 60.4675 173.5C60.3425 173.5 60.2175 173.354 60.0925 173.062C59.8842 172.646 59.3008 171.917 58.3425 170.875L58.4675 170.688ZM59.5925 181.75C59.6342 181.292 59.0717 180.875 57.905 180.5V180.188C58.9883 180.396 59.6342 180.479 59.8425 180.438C60.0508 180.396 60.155 180.188 60.155 179.812V174H59.28C58.7383 174 58.2383 174.062 57.78 174.188L57.2175 173.625H62.53L63.03 173L64.155 174.062C63.78 174.062 63.405 174.292 63.03 174.75C62.655 175.167 62.3425 175.562 62.0925 175.938L61.8425 175.875L62.655 174H60.9675V180.25C60.9675 180.583 60.8842 180.854 60.7175 181.062C60.5508 181.312 60.1758 181.542 59.5925 181.75ZM66.405 171.562C66.5717 170.521 66.655 169.833 66.655 169.5H65.5925C65.0508 169.5 64.5508 169.562 64.0925 169.688L63.53 169.125H69.7175L70.53 168.375L71.5925 169.5H66.9675L67.905 169.938C67.53 170.104 67.1342 170.646 66.7175 171.562H69.7175L70.2175 170.938L71.2175 171.75L70.655 172.062C70.655 175.521 70.6758 177.708 70.7175 178.625L69.8425 179.188V178.562H65.405V178.812L64.53 179.25C64.5717 178.292 64.5925 177.042 64.5925 175.5C64.5925 173.958 64.5717 172.479 64.53 171.062L65.405 171.562H66.405ZM65.405 171.938V173.75H69.8425V171.938H65.405ZM65.405 174.125V175.938H69.8425V174.125H65.405ZM65.405 176.312V178.188H69.8425V176.312H65.405ZM67.2175 179.875C66.9258 179.875 66.4883 180.146 65.905 180.688C65.3217 181.229 64.3842 181.833 63.0925 182.5L62.9675 182.312C63.9258 181.646 64.655 181 65.155 180.375C65.6967 179.75 66.03 179.25 66.155 178.875L67.2175 179.875ZM68.2175 179.25L68.405 179.125C69.905 180.042 70.7383 180.625 70.905 180.875C71.1133 181.125 71.2175 181.354 71.2175 181.562C71.2175 181.729 71.155 181.917 71.03 182.125C70.905 182.333 70.8008 182.438 70.7175 182.438C70.5925 182.438 70.4467 182.25 70.28 181.875C69.9883 181.25 69.3008 180.375 68.2175 179.25ZM82.295 167.875L83.4825 168.5C83.1492 168.583 82.8575 168.812 82.6075 169.188H86.045L86.7325 168.562L87.7325 169.562H83.4825C83.9825 169.812 84.295 170 84.42 170.125C84.5867 170.25 84.67 170.375 84.67 170.5C84.67 170.667 84.6075 170.833 84.4825 171C84.3575 171.125 84.2742 171.188 84.2325 171.188C84.1492 171.188 84.0867 171.104 84.045 170.938C83.9617 170.646 83.67 170.188 83.17 169.562H82.42C81.92 170.188 81.2325 170.833 80.3575 171.5L80.17 171.375C80.795 170.75 81.295 170.104 81.67 169.438C82.045 168.729 82.2533 168.208 82.295 167.875ZM85.295 171.688V173.438H86.295V171.688H85.295ZM87.045 171.875C87.045 172.958 87.0658 173.646 87.1075 173.938L86.295 174.375V173.812H81.92V174L81.1075 174.375V170.938L82.045 171.312H86.17L86.6075 170.75L87.6075 171.562L87.045 171.875ZM81.92 171.688V173.438H82.8575V171.688H81.92ZM83.545 171.688V173.438H84.6075V171.688H83.545ZM74.795 168.25L75.7325 168.75H78.8575L79.4825 168.125L80.42 169.125H77.9825V170.375H78.92L79.42 169.875L80.2325 170.625L79.7325 170.938C79.7325 171.438 79.7533 171.854 79.795 172.188L78.9825 172.625V172.25H77.9825V173.438H79.045L79.7325 172.812L80.67 173.812H75.67L75.295 174.25L74.42 173.562L74.8575 173.25C74.8575 170.417 74.8367 168.75 74.795 168.25ZM75.6075 169.125V170.375H77.2325V169.125H75.6075ZM75.6075 172.25V173.438H77.2325V172.25H75.6075ZM75.6075 170.75V171.875H78.9825V170.75H75.6075ZM81.7325 181.5V179.125H82.545V181.062C82.545 181.354 82.8158 181.5 83.3575 181.5H85.92C86.42 181.542 86.6908 180.875 86.7325 179.5H87.045C87.045 180.333 87.0867 180.833 87.17 181C87.2533 181.208 87.4617 181.333 87.795 181.375C87.5033 181.958 87.0867 182.25 86.545 182.25H82.8575C82.1075 182.25 81.7325 182 81.7325 181.5ZM77.7325 177.75V178.75H84.045V177.75H77.7325ZM77.7325 176.438V177.375H84.045V176.438H77.7325ZM77.7325 175.125V176.062H84.045V175.125H77.7325ZM84.8575 175.375C84.8575 177.25 84.8783 178.521 84.92 179.188L84.045 179.688V179.125H77.7325V179.375L76.8575 179.875C76.8992 179.208 76.92 178.333 76.92 177.25C76.92 176.125 76.8992 175.125 76.8575 174.25L77.92 174.75H83.92L84.42 174.125L85.42 174.938L84.8575 175.375ZM79.9825 179.125C79.8575 180.042 79.5658 180.708 79.1075 181.125C78.6492 181.583 77.9825 181.917 77.1075 182.125C76.2742 182.375 75.2325 182.562 73.9825 182.688L73.92 182.438C75.2117 182.229 76.1908 181.979 76.8575 181.688C77.5658 181.438 78.0867 181.104 78.42 180.688C78.795 180.271 79.0242 179.75 79.1075 179.125H79.9825Z" fill="#4D5139"/>
<path d="M28.1417 91.9284V92.4284H28.6417H49.7473V94.5149H26.0552V21.4385H62.5934H65.4728L86.7856 42.7512V57.4767H84.699V45.6306V45.1306H84.199H63.0934V24.025V23.525H62.5934H28.6417H28.1417V24.025V91.9284ZM73.1168 82.3334L72.8008 82.0174L72.4515 82.296C70.1598 84.1237 67.2965 85.2554 64.1367 85.2554C56.7272 85.2554 50.7473 79.2844 50.7473 71.8661C50.7473 64.4565 56.7183 58.4767 64.1367 58.4767C71.5462 58.4767 77.526 64.4477 77.526 71.8661C77.526 75.0308 76.3908 77.897 74.555 80.1924L74.2756 80.5418L74.592 80.8582L82.4575 88.7238L80.9823 90.1989L73.1168 82.3334ZM75.4395 71.8661C75.4395 65.6051 70.3976 60.5632 64.1367 60.5632C57.8758 60.5632 52.8339 65.6051 52.8339 71.8661C52.8339 78.127 57.8758 83.1689 64.1367 83.1689C70.3976 83.1689 75.4395 78.127 75.4395 71.8661Z" fill="#4D5139" stroke="#D6D8C9"/>
<path d="M64.646 23L75.146 33.5L84.646 43.6H64.646V23Z" fill="#D6D8C9"/>
<path d="M26.318 108.264L26.126 108.376C26.942 109.336 27.902 110.888 28.062 112.072C29.23 113.048 30.19 110.328 26.318 108.264ZM24.302 116.664L24.446 117.144H38.606C38.83 117.144 38.99 117.064 39.038 116.888C38.43 116.344 37.454 115.608 37.454 115.608L36.606 116.664H24.302ZM25.31 112.984L25.454 113.432H37.662C37.886 113.432 38.046 113.352 38.078 113.176C37.518 112.664 36.606 111.96 36.606 111.96L35.774 112.984H25.31ZM31.07 107.608V122.28H31.278C31.678 122.28 32.142 121.992 32.142 121.832V108.232C32.542 108.168 32.67 108.008 32.718 107.784L31.07 107.608ZM35.774 108.088C35.182 109.64 34.334 111.272 33.646 112.28L33.87 112.456C34.862 111.624 35.934 110.344 36.798 109.064C37.134 109.096 37.342 108.968 37.422 108.808L35.774 108.088ZM45.486 121.816V117.384H45.694L44.526 116.888L44.462 116.984V122.184H44.638C45.134 122.184 45.486 121.912 45.486 121.816ZM51.87 117.384H44.974V117.848H51.87V117.384ZM51.502 111.752H46.062L45.774 112.232H51.502V111.752ZM51.07 117.384H51.23V122.152H51.39C51.726 122.152 52.254 121.912 52.27 121.816V118.024C52.574 117.96 52.83 117.848 52.926 117.736L51.646 116.744L51.07 117.384ZM51.886 120.728H44.862V121.208H51.886V120.728ZM50.766 111.752H50.99C49.342 114.376 45.054 116.92 40.926 118.152L41.054 118.408C45.406 117.384 49.886 115.096 51.982 112.392C52.446 112.392 52.67 112.36 52.83 112.248L51.614 111.048L50.766 111.752ZM47.806 110.952L46.35 110.152C45.182 112.344 43.39 114.2 41.774 115.192L41.95 115.432C43.822 114.616 45.742 113.144 47.15 111.128C47.486 111.208 47.71 111.112 47.806 110.952ZM45.822 112.04L45.566 112.232C47.246 115.368 50.702 117.08 54.814 117.912C54.942 117.384 55.294 117.048 55.758 116.968L55.79 116.792C51.582 116.248 47.534 114.776 45.822 112.04ZM47.15 107.528L46.99 107.672C47.55 108.056 48.126 108.824 48.254 109.464C49.358 110.168 50.174 107.96 47.15 107.528ZM53.63 109.688H53.806C53.694 110.328 53.406 111.48 53.198 112.152L53.406 112.264C53.918 111.768 54.558 110.936 54.926 110.344C55.23 110.328 55.406 110.296 55.534 110.2L54.302 109L53.63 109.688ZM42.942 108.952H42.654C42.734 110.008 42.158 110.968 41.518 111.304C41.198 111.512 40.99 111.816 41.134 112.152C41.31 112.52 41.87 112.504 42.27 112.216C42.894 111.784 43.454 110.696 42.942 108.952ZM54.318 109.688H42.702V110.168H54.318V109.688ZM63.006 118.056L61.982 118.472V119.096H63.006V118.056ZM61.55 121.16L62.062 122.104C63.694 121.416 65.262 120.648 66.094 120.264L66.014 120.024C64.19 120.536 62.35 121 61.55 121.16ZM62.766 118.632H61.982V120.52C61.982 120.744 61.886 120.872 61.31 121.224L62.014 122.28C62.238 122.136 62.558 121.688 62.27 121.064L61.966 121.464L63.006 121.048V118.776L62.766 118.632ZM70.91 117.896L69.598 117.112C68.99 117.704 67.774 118.6 66.798 119.128L66.99 119.352C68.158 119.032 69.566 118.472 70.334 118.008C70.67 118.104 70.798 118.04 70.91 117.896ZM65.07 116.504L64.798 116.648C65.854 119.656 68.078 121.288 71.31 122.168C71.454 121.624 71.774 121.288 72.222 121.208L72.254 121.048C68.91 120.472 66.206 119.112 65.07 116.504ZM65.342 116.76V116.504H64.014C62.638 118.008 60.334 119.272 57.758 120.072L57.886 120.344C60.958 119.688 63.678 118.504 65.342 116.76ZM63.966 115.096L63.806 115.224C64.222 115.496 64.654 116.008 64.766 116.472C65.742 116.968 66.302 115.144 63.966 115.096ZM70.67 115.512L69.95 116.392H57.886L58.03 116.872H71.598C71.822 116.872 71.982 116.792 72.03 116.616C71.486 116.136 70.67 115.512 70.67 115.512ZM64.782 112.248H64.942V113.688C64.942 113.864 64.894 113.96 64.702 113.96C64.446 113.96 63.678 113.88 63.678 113.88V114.136C64.11 114.2 64.334 114.296 64.478 114.392C64.59 114.52 64.638 114.728 64.67 114.904C65.742 114.824 65.886 114.44 65.886 113.768V112.904C66.206 112.84 66.478 112.712 66.574 112.6L65.278 111.64L64.782 112.248ZM61.134 108.088L59.646 107.656C59.454 108.744 59.086 109.8 58.638 110.504L58.894 110.664C59.55 110.136 60.158 109.32 60.558 108.392C60.894 108.408 61.07 108.264 61.134 108.088ZM64.974 108.232L64.318 109.048H59.646L59.422 109.528H65.806C66.03 109.528 66.174 109.448 66.222 109.272C65.726 108.792 64.974 108.232 64.974 108.232ZM60.078 114.76V112.712H65.662V112.248H60.158L59.134 111.784V115.048H59.278C59.662 115.048 60.078 114.856 60.078 114.76ZM71.63 107.88L70.078 107.704V114.088C70.078 114.296 69.998 114.392 69.742 114.392C69.438 114.392 68.03 114.28 68.03 114.28V114.52C68.67 114.6 69.022 114.728 69.23 114.856C69.422 115.016 69.502 115.256 69.534 115.528C70.894 115.4 71.07 114.936 71.07 114.136V108.28C71.422 108.232 71.582 108.104 71.63 107.88ZM65.678 109.896L65.006 110.712H58.094L58.222 111.176H66.494C66.718 111.176 66.862 111.096 66.91 110.92C66.43 110.488 65.678 109.896 65.678 109.896ZM63.518 107.768L61.982 107.592V115.688H62.174C62.542 115.688 62.942 115.48 62.942 115.336V108.184C63.342 108.136 63.486 107.992 63.518 107.768ZM68.974 108.328L67.438 108.152V113.576H67.614C67.982 113.576 68.398 113.368 68.398 113.256V108.744C68.782 108.68 68.942 108.536 68.974 108.328ZM79.998 108.2L78.286 107.608C77.326 110.84 75.678 114.04 74.11 116.024L74.334 116.2C76.318 114.408 78.126 111.624 79.374 108.472C79.742 108.504 79.934 108.36 79.998 108.2ZM78.398 112.136L77.326 111.72L76.846 112.344V122.232H77.038C77.454 122.232 77.886 121.96 77.902 121.864V112.424C78.19 112.376 78.334 112.28 78.398 112.136ZM86.974 112.328L86.206 113.32H81.55L81.678 113.8H87.95C88.174 113.8 88.334 113.72 88.382 113.544C87.854 113.032 86.974 112.328 86.974 112.328ZM82.814 108.104L81.198 107.912V120.392C81.198 121.464 81.662 121.784 83.118 121.784H85.134C88.11 121.784 88.766 121.624 88.766 121.08C88.766 120.856 88.654 120.728 88.254 120.6L88.206 117.992H87.998C87.774 119.144 87.55 120.216 87.406 120.504C87.326 120.648 87.23 120.712 87.022 120.744C86.75 120.776 86.078 120.792 85.166 120.792H83.23C82.398 120.792 82.238 120.616 82.238 120.152V108.552C82.622 108.488 82.782 108.312 82.814 108.104Z" fill="#4D5139"/>
</svg>
