<svg width="114" height="194" viewBox="0 0 114 194" fill="none" xmlns="http://www.w3.org/2000/svg">
<rect width="114" height="157" rx="57" fill="#D6D8C9"/>
<path fill-rule="evenodd" clip-rule="evenodd" d="M29.425 175.64C30.2289 176.028 40.9887 180.024 41.6069 180.413C42.6576 180.746 43.4615 181.689 43.4615 182.745C43.4615 183.299 42.8433 184.576 41.2348 184.576C40.1842 184.576 39.566 184.242 38.9478 184.021C38.3296 183.687 28.3737 177.638 28.3737 177.638V177.805C28.9918 178.36 35.4848 185.519 36.103 186.241C36.5354 186.962 37.1536 187.851 37.1536 188.794C37.1536 190.237 35.4848 190.792 34.6809 190.792C33.5049 190.792 32.4542 190.07 31.8367 188.627C31.4646 187.851 26.9516 179.637 26.5795 178.915H26.3334C26.3334 179.636 28.0022 188.96 28.0022 190.07C28.0022 191.18 27.7561 193.345 25.3438 193.345C22.9314 193.345 22.4989 191.18 22.4989 190.07C22.4989 189.128 24.1074 180.746 24.3535 178.915L24.1074 178.748C23.4892 180.024 19.8404 186.962 18.8502 188.626C18.0462 190.07 16.9956 190.792 16.006 190.792C14.956 190.792 13.5339 190.236 13.5339 188.793C13.5339 187.85 14.1521 186.795 14.5839 186.24C15.3878 185.13 21.5106 179.137 22.3132 177.805L22.0671 177.637C22.0671 177.637 12.1111 183.686 11.4929 184.02C11.1208 184.408 10.3169 184.575 9.51434 184.575C7.65847 184.575 7.03963 183.466 7.03963 182.965C7.03963 181.689 8.0299 180.745 8.89419 180.412C9.51369 180.024 20.2723 176.027 21.0762 175.806V175.472C20.458 175.472 9.88447 176.749 8.89419 176.749C7.47275 176.75 5 176.529 5 174.364C5 171.977 7.47275 171.977 8.89484 171.977C10.0708 171.977 19.8404 173.254 21.0768 173.254L21.2632 173.086C20.2729 172.698 10.0708 168.869 8.89484 168.314C8.02991 167.98 7.04028 167.038 7.04028 165.982C7.04028 164.484 8.03056 163.596 9.26694 163.596C9.69941 163.596 10.0708 163.596 10.5033 163.762C12.915 164.873 21.5106 170.922 22.0671 171.089L22.3132 170.921C21.695 170.367 15.3878 163.596 14.5839 162.486C14.3378 162.152 13.3475 161.043 13.3475 160.155C13.3475 158.656 14.7696 157.934 16.1917 157.934C17.182 157.934 18.0462 158.656 18.8502 160.155C19.6541 161.432 23.921 169.811 23.921 169.811H24.3535C24.3535 169.811 22.4989 159.933 22.4989 158.823C22.4989 157.547 22.9314 155.382 25.3438 155.382C27.7561 155.382 28.0022 157.547 28.0022 158.823C28.0022 159.599 26.5795 168.869 26.3334 169.812H26.7658C27.5697 168.148 31.4646 160.876 31.8367 160.156C32.6406 158.823 33.6912 157.768 34.9276 157.768C35.7315 157.768 37.1543 158.657 37.1543 160.156C37.1543 161.043 36.5361 161.932 36.1036 162.486C35.7322 163.042 28.8061 170.367 28.3743 171.089L28.6204 171.255C28.9925 170.922 37.7725 164.873 39.9985 163.984C40.3699 163.763 40.9887 163.763 41.2348 163.763C42.6569 163.763 43.6472 164.706 43.6472 165.983C43.6472 167.259 42.8433 167.981 41.7927 168.315C40.9888 168.703 30.2282 172.699 29.6107 173.087L29.7964 173.254C30.6613 173.087 40.803 171.978 41.7927 171.978C43.029 171.81 45.6875 171.977 45.6875 174.364C45.6875 176.529 43.029 176.749 41.7927 176.749C40.3699 176.749 31.4646 175.807 29.6107 175.473L29.425 175.64ZM26.5801 174.53C26.5801 174.196 26.1477 173.475 25.3438 173.475C24.5398 173.475 24.1074 174.196 24.1074 174.53C24.1074 175.085 24.5398 175.64 25.3438 175.64C26.1477 175.64 26.5801 175.085 26.5801 174.53Z" fill="#D6D8C9" fill-opacity="0.5"/>
<path d="M30.1875 170.438V172.188H35.0625V170.438H30.1875ZM30.1875 172.562V174.312H35.0625V172.562H30.1875ZM31.0625 170.062C31.5625 169.229 31.8958 168.521 32.0625 167.938L33.25 168.562C32.875 168.688 32.5625 168.896 32.3125 169.188C32.0208 169.479 31.7292 169.771 31.4375 170.062H34.75L35.3125 169.438L36.3125 170.312L35.875 170.562V173.062C35.875 173.688 35.8958 174.25 35.9375 174.75L35.0625 175.188V174.688H32.9375C33.1042 175.604 33.4375 176.583 33.9375 177.625C34.8958 176.958 35.6458 176.292 36.1875 175.625L36.9375 176.688C36.6042 176.688 36.1667 176.833 35.625 177.125C35.0833 177.417 34.6042 177.688 34.1875 177.938C34.4375 178.479 34.8333 179.021 35.375 179.562C35.9583 180.104 36.5833 180.5 37.25 180.75V181C36.5 180.958 36.0417 181.146 35.875 181.562C35.1667 180.771 34.5625 179.917 34.0625 179C33.5625 178.083 33.1875 177.021 32.9375 175.812V181.062C32.9375 181.604 32.8333 181.958 32.625 182.125C32.4583 182.292 32.1042 182.438 31.5625 182.562C31.5625 182.062 30.9583 181.646 29.75 181.312V181.062C30.75 181.188 31.3958 181.25 31.6875 181.25C31.9792 181.25 32.125 181.062 32.125 180.688V174.688H30.1875V175L29.3125 175.312C29.3542 174.146 29.375 173.125 29.375 172.25C29.375 171.333 29.3542 170.438 29.3125 169.562L30.1875 170.062H31.0625ZM31.9375 177.125C31.5625 177.25 31.25 177.583 31 178.125C30.7083 178.708 30.25 179.375 29.625 180.125C29.0417 180.833 28.1458 181.458 26.9375 182L26.75 181.875C28.7083 180.792 30 179.125 30.625 176.875H30.375C29.8333 176.875 29.3333 176.938 28.875 177.062L28.3125 176.5H30.5625L31.0625 176L31.9375 177.125ZM23.8125 178.25H24.0625C24.0208 179.292 23.9375 180.042 23.8125 180.5C23.7292 180.958 23.5833 181.229 23.375 181.312C23.2083 181.396 23.0625 181.438 22.9375 181.438C22.8125 181.438 22.6875 181.375 22.5625 181.25C22.4792 181.125 22.4375 181.021 22.4375 180.938C22.4375 180.812 22.5417 180.625 22.75 180.375C23.0417 180.083 23.3958 179.375 23.8125 178.25ZM24.9375 178.062L25.1875 178C25.9375 179 26.3125 179.708 26.3125 180.125C26.3125 180.542 26.1458 180.812 25.8125 180.938C25.5208 181.062 25.3542 180.833 25.3125 180.25C25.2708 179.667 25.1458 178.938 24.9375 178.062ZM26.5625 177.688L26.75 177.562C27.5 178.104 27.9375 178.521 28.0625 178.812C28.1875 179.062 28.25 179.271 28.25 179.438C28.25 179.688 28.1667 179.875 28 180C27.875 180.125 27.7708 180.188 27.6875 180.188C27.5625 180.188 27.4583 180.021 27.375 179.688C27.25 179.188 26.9792 178.521 26.5625 177.688ZM26.6875 169.125C26.4375 169.167 26.0625 169.583 25.5625 170.375C25.0208 171.208 24.4583 172 23.875 172.75H26.25C26.5417 172.292 26.8125 171.729 27.0625 171.062L27.9375 172C27.7708 171.958 27.2708 172.5 26.4375 173.625C25.5625 174.792 24.75 175.75 24 176.5L27.0625 176.062C26.9375 175.562 26.75 174.979 26.5 174.312L26.625 174.188C27.625 175.229 28.125 175.979 28.125 176.438C28.1667 176.854 28.1042 177.125 27.9375 177.25C27.7708 177.375 27.6458 177.438 27.5625 177.438C27.4375 177.438 27.375 177.375 27.375 177.25C27.3333 177.042 27.2708 176.771 27.1875 176.438C26.0625 176.688 25.25 176.917 24.75 177.125C24.25 177.292 23.875 177.479 23.625 177.688L22.9375 176.375C23.1458 176.375 23.5625 176.062 24.1875 175.438C24.8125 174.812 25.4167 174.042 26 173.125C25.4583 173.167 25 173.229 24.625 173.312C24.25 173.396 23.8542 173.583 23.4375 173.875L22.875 172.75C23.2083 172.667 23.6667 172.188 24.25 171.312C24.8333 170.438 25.3333 169.417 25.75 168.25L26.6875 169.125ZM45.4525 168.062L47.14 168.812L46.4525 169.312V173.5H50.14L51.0775 172.562L52.39 173.875H46.4525V180.938H51.5775L52.5775 179.938L53.9525 181.312H41.4525C40.9108 181.312 40.4108 181.375 39.9525 181.5L39.39 180.938H45.515V170.438C45.515 169.688 45.4942 168.896 45.4525 168.062ZM57.4675 170.688C58.3425 171.188 58.905 171.521 59.155 171.688L61.2175 169.562H58.5925C58.0508 169.562 57.5508 169.625 57.0925 169.75L56.53 169.188H61.2175L61.78 168.625L62.655 169.812C62.28 169.771 61.8008 169.979 61.2175 170.438C60.6342 170.896 60.03 171.375 59.405 171.875C59.8217 172.208 60.0092 172.5 59.9675 172.75C59.9675 173 59.8842 173.188 59.7175 173.312C59.5925 173.438 59.5092 173.5 59.4675 173.5C59.3425 173.5 59.2175 173.354 59.0925 173.062C58.8842 172.646 58.3008 171.917 57.3425 170.875L57.4675 170.688ZM58.5925 181.75C58.6342 181.292 58.0717 180.875 56.905 180.5V180.188C57.9883 180.396 58.6342 180.479 58.8425 180.438C59.0508 180.396 59.155 180.188 59.155 179.812V174H58.28C57.7383 174 57.2383 174.062 56.78 174.188L56.2175 173.625H61.53L62.03 173L63.155 174.062C62.78 174.062 62.405 174.292 62.03 174.75C61.655 175.167 61.3425 175.562 61.0925 175.938L60.8425 175.875L61.655 174H59.9675V180.25C59.9675 180.583 59.8842 180.854 59.7175 181.062C59.5508 181.312 59.1758 181.542 58.5925 181.75ZM65.405 171.562C65.5717 170.521 65.655 169.833 65.655 169.5H64.5925C64.0508 169.5 63.5508 169.562 63.0925 169.688L62.53 169.125H68.7175L69.53 168.375L70.5925 169.5H65.9675L66.905 169.938C66.53 170.104 66.1342 170.646 65.7175 171.562H68.7175L69.2175 170.938L70.2175 171.75L69.655 172.062C69.655 175.521 69.6758 177.708 69.7175 178.625L68.8425 179.188V178.562H64.405V178.812L63.53 179.25C63.5717 178.292 63.5925 177.042 63.5925 175.5C63.5925 173.958 63.5717 172.479 63.53 171.062L64.405 171.562H65.405ZM64.405 171.938V173.75H68.8425V171.938H64.405ZM64.405 174.125V175.938H68.8425V174.125H64.405ZM64.405 176.312V178.188H68.8425V176.312H64.405ZM66.2175 179.875C65.9258 179.875 65.4883 180.146 64.905 180.688C64.3217 181.229 63.3842 181.833 62.0925 182.5L61.9675 182.312C62.9258 181.646 63.655 181 64.155 180.375C64.6967 179.75 65.03 179.25 65.155 178.875L66.2175 179.875ZM67.2175 179.25L67.405 179.125C68.905 180.042 69.7383 180.625 69.905 180.875C70.1133 181.125 70.2175 181.354 70.2175 181.562C70.2175 181.729 70.155 181.917 70.03 182.125C69.905 182.333 69.8008 182.438 69.7175 182.438C69.5925 182.438 69.4467 182.25 69.28 181.875C68.9883 181.25 68.3008 180.375 67.2175 179.25ZM81.295 167.875L82.4825 168.5C82.1492 168.583 81.8575 168.812 81.6075 169.188H85.045L85.7325 168.562L86.7325 169.562H82.4825C82.9825 169.812 83.295 170 83.42 170.125C83.5867 170.25 83.67 170.375 83.67 170.5C83.67 170.667 83.6075 170.833 83.4825 171C83.3575 171.125 83.2742 171.188 83.2325 171.188C83.1492 171.188 83.0867 171.104 83.045 170.938C82.9617 170.646 82.67 170.188 82.17 169.562H81.42C80.92 170.188 80.2325 170.833 79.3575 171.5L79.17 171.375C79.795 170.75 80.295 170.104 80.67 169.438C81.045 168.729 81.2533 168.208 81.295 167.875ZM84.295 171.688V173.438H85.295V171.688H84.295ZM86.045 171.875C86.045 172.958 86.0658 173.646 86.1075 173.938L85.295 174.375V173.812H80.92V174L80.1075 174.375V170.938L81.045 171.312H85.17L85.6075 170.75L86.6075 171.562L86.045 171.875ZM80.92 171.688V173.438H81.8575V171.688H80.92ZM82.545 171.688V173.438H83.6075V171.688H82.545ZM73.795 168.25L74.7325 168.75H77.8575L78.4825 168.125L79.42 169.125H76.9825V170.375H77.92L78.42 169.875L79.2325 170.625L78.7325 170.938C78.7325 171.438 78.7533 171.854 78.795 172.188L77.9825 172.625V172.25H76.9825V173.438H78.045L78.7325 172.812L79.67 173.812H74.67L74.295 174.25L73.42 173.562L73.8575 173.25C73.8575 170.417 73.8367 168.75 73.795 168.25ZM74.6075 169.125V170.375H76.2325V169.125H74.6075ZM74.6075 172.25V173.438H76.2325V172.25H74.6075ZM74.6075 170.75V171.875H77.9825V170.75H74.6075ZM80.7325 181.5V179.125H81.545V181.062C81.545 181.354 81.8158 181.5 82.3575 181.5H84.92C85.42 181.542 85.6908 180.875 85.7325 179.5H86.045C86.045 180.333 86.0867 180.833 86.17 181C86.2533 181.208 86.4617 181.333 86.795 181.375C86.5033 181.958 86.0867 182.25 85.545 182.25H81.8575C81.1075 182.25 80.7325 182 80.7325 181.5ZM76.7325 177.75V178.75H83.045V177.75H76.7325ZM76.7325 176.438V177.375H83.045V176.438H76.7325ZM76.7325 175.125V176.062H83.045V175.125H76.7325ZM83.8575 175.375C83.8575 177.25 83.8783 178.521 83.92 179.188L83.045 179.688V179.125H76.7325V179.375L75.8575 179.875C75.8992 179.208 75.92 178.333 75.92 177.25C75.92 176.125 75.8992 175.125 75.8575 174.25L76.92 174.75H82.92L83.42 174.125L84.42 174.938L83.8575 175.375ZM78.9825 179.125C78.8575 180.042 78.5658 180.708 78.1075 181.125C77.6492 181.583 76.9825 181.917 76.1075 182.125C75.2742 182.375 74.2325 182.562 72.9825 182.688L72.92 182.438C74.2117 182.229 75.1908 181.979 75.8575 181.688C76.5658 181.438 77.0867 181.104 77.42 180.688C77.795 180.271 78.0242 179.75 78.1075 179.125H78.9825Z" fill="#4D5139"/>
<path d="M28.2417 98.99V99.39H28.6417H49.8473V101.676H25.9552V28.4H62.5934H65.5142L86.8856 49.7713V64.6382H84.599V52.6922V52.2922H84.199H62.9934V31.0865V30.6865H62.5934H28.6417H28.2417V31.0865V98.99ZM73.0461 89.4656L72.7933 89.2129L72.5139 89.4357C70.206 91.2762 67.3211 92.4169 64.1367 92.4169C56.672 92.4169 50.6473 86.4012 50.6473 78.9276C50.6473 71.4629 56.6631 65.4382 64.1367 65.4382C71.6014 65.4382 77.626 71.454 77.626 78.9276C77.626 82.117 76.4818 85.0049 74.6331 87.3164L74.4096 87.5959L74.6627 87.8491L82.5989 95.7853L80.9823 97.4019L73.0461 89.4656ZM75.3395 78.9276C75.3395 72.7219 70.3423 67.7248 64.1367 67.7248C57.931 67.7248 52.9339 72.7219 52.9339 78.9276C52.9339 85.1333 57.931 90.1304 64.1367 90.1304C70.3423 90.1304 75.3395 85.1332 75.3395 78.9276Z" fill="#4D5139" stroke="#D6D8C9" stroke-width="0.8"/>
<path d="M64.646 30.0615L75.146 40.5615L84.646 50.6615H64.646V30.0615Z" fill="#D6D8C9"/>
<path d="M26.318 113.264C30.19 115.328 29.23 118.048 28.062 117.072C27.902 115.888 26.942 114.336 26.126 113.376L26.318 113.264ZM24.302 121.664H36.606L37.454 120.608C37.454 120.608 38.43 121.344 39.038 121.888C38.99 122.064 38.83 122.144 38.606 122.144H24.446L24.302 121.664ZM25.31 117.984H35.774L36.606 116.96C36.606 116.96 37.518 117.664 38.078 118.176C38.046 118.352 37.886 118.432 37.662 118.432H25.454L25.31 117.984ZM31.07 112.608L32.718 112.784C32.67 113.008 32.542 113.168 32.142 113.232V126.832C32.142 126.992 31.678 127.28 31.278 127.28H31.07V112.608ZM35.774 113.088L37.422 113.808C37.342 113.968 37.134 114.096 36.798 114.064C35.934 115.344 34.862 116.624 33.87 117.456L33.646 117.28C34.334 116.272 35.182 114.64 35.774 113.088ZM45.486 126.816C45.486 126.912 45.134 127.184 44.638 127.184H44.462V121.984L44.526 121.888L45.694 122.384H45.486V126.816ZM51.87 122.384V122.848H44.974V122.384H51.87ZM51.502 116.752V117.232H45.774L46.062 116.752H51.502ZM51.07 122.384L51.646 121.744L52.926 122.736C52.83 122.848 52.574 122.96 52.27 123.024V126.816C52.254 126.912 51.726 127.152 51.39 127.152H51.23V122.384H51.07ZM51.886 125.728V126.208H44.862V125.728H51.886ZM50.766 116.752L51.614 116.048L52.83 117.248C52.67 117.36 52.446 117.392 51.982 117.392C49.886 120.096 45.406 122.384 41.054 123.408L40.926 123.152C45.054 121.92 49.342 119.376 50.99 116.752H50.766ZM47.806 115.952C47.71 116.112 47.486 116.208 47.15 116.128C45.742 118.144 43.822 119.616 41.95 120.432L41.774 120.192C43.39 119.2 45.182 117.344 46.35 115.152L47.806 115.952ZM45.822 117.04C47.534 119.776 51.582 121.248 55.79 121.792L55.758 121.968C55.294 122.048 54.942 122.384 54.814 122.912C50.702 122.08 47.246 120.368 45.566 117.232L45.822 117.04ZM47.15 112.528C50.174 112.96 49.358 115.168 48.254 114.464C48.126 113.824 47.55 113.056 46.99 112.672L47.15 112.528ZM53.63 114.688L54.302 114L55.534 115.2C55.406 115.296 55.23 115.328 54.926 115.344C54.558 115.936 53.918 116.768 53.406 117.264L53.198 117.152C53.406 116.48 53.694 115.328 53.806 114.688H53.63ZM42.942 113.952C43.454 115.696 42.894 116.784 42.27 117.216C41.87 117.504 41.31 117.52 41.134 117.152C40.99 116.816 41.198 116.512 41.518 116.304C42.158 115.968 42.734 115.008 42.654 113.952H42.942ZM54.318 114.688V115.168H42.702V114.688H54.318ZM63.006 123.056V124.096H61.982V123.472L63.006 123.056ZM61.55 126.16C62.35 126 64.19 125.536 66.014 125.024L66.094 125.264C65.262 125.648 63.694 126.416 62.062 127.104L61.55 126.16ZM62.766 123.632L63.006 123.776V126.048L61.966 126.464L62.27 126.064C62.558 126.688 62.238 127.136 62.014 127.28L61.31 126.224C61.886 125.872 61.982 125.744 61.982 125.52V123.632H62.766ZM70.91 122.896C70.798 123.04 70.67 123.104 70.334 123.008C69.566 123.472 68.158 124.032 66.99 124.352L66.798 124.128C67.774 123.6 68.99 122.704 69.598 122.112L70.91 122.896ZM65.07 121.504C66.206 124.112 68.91 125.472 72.254 126.048L72.222 126.208C71.774 126.288 71.454 126.624 71.31 127.168C68.078 126.288 65.854 124.656 64.798 121.648L65.07 121.504ZM65.342 121.76C63.678 123.504 60.958 124.688 57.886 125.344L57.758 125.072C60.334 124.272 62.638 123.008 64.014 121.504H65.342V121.76ZM63.966 120.096C66.302 120.144 65.742 121.968 64.766 121.472C64.654 121.008 64.222 120.496 63.806 120.224L63.966 120.096ZM70.67 120.512C70.67 120.512 71.486 121.136 72.03 121.616C71.982 121.792 71.822 121.872 71.598 121.872H58.03L57.886 121.392H69.95L70.67 120.512ZM64.782 117.248L65.278 116.64L66.574 117.6C66.478 117.712 66.206 117.84 65.886 117.904V118.768C65.886 119.44 65.742 119.824 64.67 119.904C64.638 119.728 64.59 119.52 64.478 119.392C64.334 119.296 64.11 119.2 63.678 119.136V118.88C63.678 118.88 64.446 118.96 64.702 118.96C64.894 118.96 64.942 118.864 64.942 118.688V117.248H64.782ZM61.134 113.088C61.07 113.264 60.894 113.408 60.558 113.392C60.158 114.32 59.55 115.136 58.894 115.664L58.638 115.504C59.086 114.8 59.454 113.744 59.646 112.656L61.134 113.088ZM64.974 113.232C64.974 113.232 65.726 113.792 66.222 114.272C66.174 114.448 66.03 114.528 65.806 114.528H59.422L59.646 114.048H64.318L64.974 113.232ZM60.078 119.76C60.078 119.856 59.662 120.048 59.278 120.048H59.134V116.784L60.158 117.248H65.662V117.712H60.078V119.76ZM71.63 112.88C71.582 113.104 71.422 113.232 71.07 113.28V119.136C71.07 119.936 70.894 120.4 69.534 120.528C69.502 120.256 69.422 120.016 69.23 119.856C69.022 119.728 68.67 119.6 68.03 119.52V119.28C68.03 119.28 69.438 119.392 69.742 119.392C69.998 119.392 70.078 119.296 70.078 119.088V112.704L71.63 112.88ZM65.678 114.896C65.678 114.896 66.43 115.488 66.91 115.92C66.862 116.096 66.718 116.176 66.494 116.176H58.222L58.094 115.712H65.006L65.678 114.896ZM63.518 112.768C63.486 112.992 63.342 113.136 62.942 113.184V120.336C62.942 120.48 62.542 120.688 62.174 120.688H61.982V112.592L63.518 112.768ZM68.974 113.328C68.942 113.536 68.782 113.68 68.398 113.744V118.256C68.398 118.368 67.982 118.576 67.614 118.576H67.438V113.152L68.974 113.328ZM79.998 113.2C79.934 113.36 79.742 113.504 79.374 113.472C78.126 116.624 76.318 119.408 74.334 121.2L74.11 121.024C75.678 119.04 77.326 115.84 78.286 112.608L79.998 113.2ZM78.398 117.136C78.334 117.28 78.19 117.376 77.902 117.424V126.864C77.886 126.96 77.454 127.232 77.038 127.232H76.846V117.344L77.326 116.72L78.398 117.136ZM86.974 117.328C86.974 117.328 87.854 118.032 88.382 118.544C88.334 118.72 88.174 118.8 87.95 118.8H81.678L81.55 118.32H86.206L86.974 117.328ZM82.814 113.104C82.782 113.312 82.622 113.488 82.238 113.552V125.152C82.238 125.616 82.398 125.792 83.23 125.792H85.166C86.078 125.792 86.75 125.776 87.022 125.744C87.23 125.712 87.326 125.648 87.406 125.504C87.55 125.216 87.774 124.144 87.998 122.992H88.206L88.254 125.6C88.654 125.728 88.766 125.856 88.766 126.08C88.766 126.624 88.11 126.784 85.134 126.784H83.118C81.662 126.784 81.198 126.464 81.198 125.392V112.912L82.814 113.104Z" fill="#4D5139"/>
</svg>
