<svg width="114" height="194" viewBox="0 0 114 194" fill="none" xmlns="http://www.w3.org/2000/svg">
<path fill-rule="evenodd" clip-rule="evenodd" d="M31.425 175.64C32.2289 176.028 42.9887 180.024 43.6069 180.412C44.6576 180.746 45.4615 181.689 45.4615 182.744C45.4615 183.299 44.8433 184.575 43.2348 184.575C42.1842 184.575 41.566 184.242 40.9478 184.021C40.3296 183.687 30.3737 177.638 30.3737 177.638V177.805C30.9918 178.359 37.4848 185.519 38.103 186.24C38.5354 186.962 39.1536 187.85 39.1536 188.793C39.1536 190.237 37.4848 190.792 36.6809 190.792C35.5049 190.792 34.4542 190.07 33.8367 188.627C33.4646 187.851 28.9516 179.637 28.5795 178.915H28.3334C28.3334 179.636 30.0022 188.96 30.0022 190.07C30.0022 191.18 29.7561 193.345 27.3438 193.345C24.9314 193.345 24.4989 191.18 24.4989 190.07C24.4989 189.127 26.1074 180.746 26.3535 178.915L26.1074 178.747C25.4892 180.024 21.8404 186.962 20.8502 188.626C20.0462 190.069 18.9956 190.791 18.006 190.791C16.956 190.791 15.5339 190.236 15.5339 188.793C15.5339 187.85 16.1521 186.794 16.5839 186.24C17.3878 185.13 23.5106 179.137 24.3132 177.804L24.0671 177.637C24.0671 177.637 14.1111 183.686 13.4929 184.02C13.1208 184.408 12.3169 184.575 11.5143 184.575C9.65847 184.575 9.03963 183.466 9.03963 182.965C9.03963 181.688 10.0299 180.745 10.8942 180.412C11.5137 180.024 22.2723 176.027 23.0762 175.806V175.472C22.458 175.472 11.8845 176.748 10.8942 176.748C9.47275 176.75 7 176.528 7 174.363C7 171.977 9.47275 171.977 10.8948 171.977C12.0708 171.977 21.8404 173.253 23.0768 173.253L23.2632 173.086C22.2729 172.698 12.0708 168.869 10.8948 168.314C10.0299 167.98 9.04028 167.038 9.04028 165.982C9.04028 164.484 10.0306 163.595 11.2669 163.595C11.6994 163.595 12.0708 163.595 12.5033 163.762C14.915 164.872 23.5106 170.922 24.0671 171.088L24.3132 170.921C23.695 170.366 17.3878 163.595 16.5839 162.485C16.3378 162.152 15.3475 161.042 15.3475 160.155C15.3475 158.656 16.7696 157.934 18.1917 157.934C19.182 157.934 20.0462 158.656 20.8502 160.155C21.6541 161.431 25.921 169.811 25.921 169.811H26.3535C26.3535 169.811 24.4989 159.932 24.4989 158.823C24.4989 157.547 24.9314 155.382 27.3438 155.382C29.7561 155.382 30.0022 157.547 30.0022 158.823C30.0022 159.599 28.5795 168.869 28.3334 169.812H28.7658C29.5697 168.147 33.4646 160.876 33.8367 160.155C34.6406 158.823 35.6912 157.768 36.9276 157.768C37.7315 157.768 39.1543 158.657 39.1543 160.155C39.1543 161.043 38.5361 161.931 38.1036 162.486C37.7322 163.041 30.8061 170.366 30.3743 171.088L30.6204 171.255C30.9925 170.922 39.7725 164.872 41.9985 163.984C42.3699 163.763 42.9887 163.763 43.2348 163.763C44.6569 163.763 45.6472 164.706 45.6472 165.982C45.6472 167.259 44.8433 167.981 43.7927 168.315C42.9888 168.703 32.2282 172.699 31.6107 173.087L31.7964 173.254C32.6613 173.087 42.803 171.978 43.7927 171.978C45.029 171.81 47.6875 171.977 47.6875 174.363C47.6875 176.528 45.029 176.749 43.7927 176.749C42.3699 176.749 33.4646 175.806 31.6107 175.473L31.425 175.64ZM28.5801 174.53C28.5801 174.196 28.1477 173.475 27.3438 173.475C26.5398 173.475 26.1074 174.196 26.1074 174.53C26.1074 175.085 26.5398 175.64 27.3438 175.64C28.1477 175.64 28.5801 175.085 28.5801 174.53Z" fill="#D6D8C9" fill-opacity="0.5"/>
<path d="M37.125 173.625C37.125 175.417 37.1458 176.5 37.1875 176.875L36.25 177.312V176.562H33.6875V180.188C33.6875 180.896 33.9792 181.229 34.5625 181.188H37.1875C37.6875 181.104 37.9583 180.688 38 179.938C38.0833 179.188 38.1458 178.562 38.1875 178.062H38.5C38.5 178.562 38.5208 179.125 38.5625 179.75C38.6042 180.375 38.8542 180.792 39.3125 181C39.0625 181.542 38.5208 181.854 37.6875 181.938H34.1875C33.2708 182.021 32.8125 181.625 32.8125 180.75V176.562H32.25C31.875 178.604 31.0417 180.042 29.75 180.875C28.5 181.667 26.9375 182.229 25.0625 182.562L25 182.375C27 181.75 28.4792 181.021 29.4375 180.188C30.3958 179.312 31.0208 178.104 31.3125 176.562H28.4375V177.062L27.5 177.375C27.5417 176.333 27.5625 174.875 27.5625 173C26.7708 173.792 26 174.396 25.25 174.812L25.125 174.625C27.0833 172.792 28.6042 170.521 29.6875 167.812L31.0625 168.688L30.4375 168.875C30.2292 169.25 29.9792 169.688 29.6875 170.188H33.1875L33.75 169.5L35 170.625C34.375 170.667 33.5833 171.458 32.625 173H36.125L36.625 172.375L37.6875 173.188L37.125 173.625ZM29.5 170.562C28.9583 171.271 28.4167 171.958 27.875 172.625L28.5625 173H32.1875C32.7708 171.625 33.125 170.812 33.25 170.562H29.5ZM28.4375 173.375V176.188H31.375C31.5 175.104 31.5833 174.167 31.625 173.375H28.4375ZM32.5625 173.375C32.4792 174.375 32.3958 175.312 32.3125 176.188H36.25V173.375H32.5625ZM54.515 181.188L55.3275 178.438H55.5775C55.4108 179.854 55.3483 180.771 55.39 181.188C55.4733 181.604 55.5775 181.979 55.7025 182.312C55.7858 182.521 55.7233 182.625 55.515 182.625C55.4317 182.625 55.1817 182.562 54.765 182.438C54.39 182.354 53.7858 182 52.9525 181.375C52.1192 180.75 51.4317 179.917 50.89 178.875C50.3483 177.833 49.9317 176.062 49.64 173.562L47.0775 173.688L46.515 173.875L45.89 173.375L49.5775 173.188C49.4942 172.146 49.4317 171.271 49.39 170.562C49.3483 169.854 49.3067 169.104 49.265 168.312L50.765 169.062L50.265 169.5C50.3067 171.125 50.3692 172.333 50.4525 173.125L53.515 172.938L54.3275 172.125L55.5775 173.188L50.515 173.5C50.765 175.958 51.265 177.75 52.015 178.875C52.765 179.958 53.5983 180.729 54.515 181.188ZM51.8275 169.25L51.89 169C53.4733 169.542 54.3275 169.958 54.4525 170.25C54.6192 170.542 54.7025 170.75 54.7025 170.875C54.7025 171.042 54.64 171.229 54.515 171.438C54.39 171.604 54.2858 171.688 54.2025 171.688C54.0358 171.688 53.8692 171.5 53.7025 171.125C53.3692 170.583 52.7442 169.958 51.8275 169.25ZM45.14 173.25V180C45.14 180.667 45.1608 181.396 45.2025 182.188L44.2025 182.625C44.2442 181.583 44.265 180.729 44.265 180.062V173.188C43.265 174.771 42.3067 175.979 41.39 176.812L41.2025 176.625C41.7442 175.917 42.2442 175.167 42.7025 174.375C43.2025 173.542 43.6817 172.604 44.14 171.562C44.64 170.479 45.0775 169.25 45.4525 167.875L46.8275 168.75C46.4942 168.917 46.14 169.375 45.765 170.125C45.39 170.917 45.0358 171.625 44.7025 172.25L45.5775 172.812L45.14 173.25ZM64.03 168.438L64.2175 168.312C64.8008 168.729 65.2592 169.104 65.5925 169.438C65.9675 169.729 66.1342 170.021 66.0925 170.312C66.0925 170.562 66.0092 170.771 65.8425 170.938C65.6758 171.062 65.5508 171.125 65.4675 171.125C65.3008 171.125 65.1758 170.917 65.0925 170.5C64.9675 169.958 64.6133 169.271 64.03 168.438ZM68.78 168.125L70.155 169L69.5925 169.188C68.9675 170.062 68.405 170.875 67.905 171.625H69.7175L70.5925 170.938L71.7175 172H67.4675C67.4675 172.458 67.4258 173.25 67.3425 174.375H70.28L71.155 173.5L72.3425 174.75H67.28C67.2383 175.042 67.155 175.5 67.03 176.125C68.2383 176.667 69.1758 177.146 69.8425 177.562C70.5092 177.938 70.8633 178.333 70.905 178.75C70.9883 179.125 70.9675 179.417 70.8425 179.625C70.7175 179.792 70.6342 179.875 70.5925 179.875C70.4675 179.875 70.3008 179.708 70.0925 179.375C69.8008 178.875 69.3633 178.375 68.78 177.875C68.1967 177.333 67.5717 176.854 66.905 176.438C66.1133 178.021 64.7175 179.208 62.7175 180L62.5925 179.812C64.8842 178.479 66.155 176.792 66.405 174.75H63.9675C63.6342 174.75 63.2383 174.812 62.78 174.938L62.2175 174.375H66.4675C66.5508 173.292 66.5925 172.5 66.5925 172H64.8425C64.5092 172 64.1133 172.062 63.655 172.188L63.0925 171.625H67.53C68.0717 170.458 68.4883 169.292 68.78 168.125ZM61.155 178.938C62.405 180.229 64.0717 180.896 66.155 180.938C68.2383 180.979 70.3842 180.854 72.5925 180.562V180.812C71.7592 181.062 71.3425 181.417 71.3425 181.875C69.3425 181.875 67.7383 181.833 66.53 181.75C65.3633 181.708 64.4258 181.562 63.7175 181.312C63.0092 181.104 62.3842 180.729 61.8425 180.188C61.3008 179.646 60.9258 179.396 60.7175 179.438C60.5092 179.438 60.1758 179.688 59.7175 180.188C59.2592 180.688 58.9467 181.083 58.78 181.375L57.8425 180.625C58.5092 180.083 59.3425 179.542 60.3425 179V173.875H59.53C59.1967 173.875 58.8008 173.938 58.3425 174.062L57.78 173.5H60.2175L60.655 172.875L61.655 173.562L61.155 174V178.938ZM59.3425 168.688L59.53 168.562C60.28 169.062 60.8008 169.458 61.0925 169.75C61.3842 170.042 61.5092 170.312 61.4675 170.562C61.4258 170.812 61.3008 171.021 61.0925 171.188C60.9258 171.354 60.8217 171.438 60.78 171.438C60.6133 171.438 60.4675 171.188 60.3425 170.688C60.1758 170.062 59.8425 169.396 59.3425 168.688ZM80.92 169.875V171H82.92V169.875H80.92ZM83.67 169.875V171H85.7325V169.875H83.67ZM80.92 171.375C80.8783 171.833 80.795 172.188 80.67 172.438H82.92V171.375H80.92ZM77.9825 171.375L77.7325 172.438H79.92C80.045 172.104 80.1283 171.75 80.17 171.375H77.9825ZM84.1075 168.5L83.67 168.875V169.5H85.545L86.045 168.938L87.045 169.688L86.4825 170.062C86.5242 170.729 86.545 171.188 86.545 171.438L85.7325 171.875V171.375H83.67V172.438H87.3575L87.795 171.875L88.7325 172.688L88.17 173C88.045 173.5 87.8783 173.917 87.67 174.25C87.4617 174.542 87.1492 174.729 86.7325 174.812C86.7325 174.479 86.295 174.208 85.42 174V173.812C85.8783 173.854 86.2533 173.875 86.545 173.875C86.7533 173.875 86.8992 173.854 86.9825 173.812C87.1075 173.771 87.2533 173.438 87.42 172.812H83.67C83.67 173.354 83.6908 173.917 83.7325 174.5L82.92 174.875V172.812H80.545C79.92 173.979 78.3992 174.812 75.9825 175.312L75.92 175.125C77.795 174.542 79.0658 173.771 79.7325 172.812H77.67L77.42 173.125L76.4825 172.562C76.7325 172.438 76.8992 172.188 76.9825 171.812C77.1075 171.396 77.17 171 77.17 170.625L77.9825 171H80.17V169.875H78.295C77.9617 169.875 77.5658 169.938 77.1075 170.062L76.545 169.5H80.17C80.17 168.792 80.1492 168.25 80.1075 167.875L81.3575 168.5L80.92 168.812V169.5H82.92C82.92 168.833 82.8992 168.292 82.8575 167.875L84.1075 168.5ZM77.6075 175H85.2325L85.795 174.438L86.7325 175.312L86.17 175.688C86.17 177.771 86.1908 179.167 86.2325 179.875L85.3575 180.312V179.812H78.42V180.062L77.6075 180.375V175ZM85.3575 176.438V175.375H78.42V176.438H85.3575ZM85.3575 177.938V176.812H78.42V177.938H85.3575ZM85.3575 179.438V178.312H78.42V179.438H85.3575ZM80.6075 180.875L79.8575 181C78.3992 181.75 76.9617 182.292 75.545 182.625L75.4825 182.438C76.3575 182.062 77.1908 181.625 77.9825 181.125C78.7742 180.667 79.3158 180.25 79.6075 179.875L80.6075 180.875ZM83.17 180.125C85.045 180.333 86.3158 180.625 86.9825 181C87.6908 181.375 87.9825 181.708 87.8575 182C87.7325 182.333 87.6075 182.5 87.4825 182.5C87.2742 182.5 87.0242 182.333 86.7325 182C86.1492 181.375 84.9408 180.833 83.1075 180.375L83.17 180.125Z" fill="#4D5139"/>
<rect width="113.662" height="157.191" rx="56.8308" fill="#CBA794"/>
<mask id="path-4-inside-1_523_9878" fill="white">
<path d="M87.232 68.4673C86.2397 68.0499 85.0864 67.8074 83.8763 67.8074C82.5167 67.8074 81.2287 68.1136 80.0773 68.6606L80.131 68.6377L66.5071 74.7563C66.5132 74.6465 66.5693 74.5507 66.5693 74.44C66.5345 71.2079 63.9065 68.6013 60.6695 68.6013C60.5077 68.6013 60.3475 68.6077 60.1889 68.6206L60.2098 68.6192H51.2899L40.0677 65.3313C39.9216 65.2845 39.7534 65.2576 39.579 65.2576H34.4563V63.4731C34.456 62.4966 33.6645 61.705 32.6879 61.7047H23.5332C22.5568 61.705 21.7652 62.4965 21.7649 63.4731V92.2565C21.7652 93.2331 22.5567 94.0247 23.5332 94.0248H32.6879C33.6645 94.0246 34.456 93.2331 34.4563 92.2565V89.8879C38.7417 90.5574 42.5797 91.6363 46.2154 93.1104L45.8633 92.9841C48.5757 93.9646 51.7061 94.5314 54.9691 94.5314H55.0182H55.0158H55.0567C58.8383 94.5314 62.444 93.7784 65.7322 92.4142L65.5474 92.4822C68.4784 91.1794 70.9663 89.8027 73.3202 88.2404L73.1272 88.3608C73.9237 87.868 74.7157 87.3753 75.5171 86.9011C79.3669 84.6216 82.4614 82.6184 85.252 80.6014C86.6162 79.6309 87.8067 78.6714 88.9375 77.6472L88.9039 77.6772C89.7829 76.965 90.4848 76.0699 90.9574 75.0471L90.9762 75.0018C91.0484 74.8157 91.0904 74.6004 91.0904 74.3752C91.0904 74.2416 91.0756 74.1114 91.0476 73.9862L91.0498 73.9979C90.7063 71.6011 89.2697 69.5993 87.2701 68.4868L87.232 68.4673ZM30.9196 90.4884H25.3015V65.239H30.9196V90.4884ZM86.4168 75.163C85.445 76.0346 84.3883 76.8809 83.2856 77.6668L83.1749 77.7417C80.481 79.6897 77.4739 81.633 73.7116 83.8617C72.8919 84.3453 72.0815 84.8473 71.2663 85.3492C69.2525 86.7004 66.9357 87.9906 64.5133 89.0884L64.207 89.2128C61.49 90.3294 58.336 90.9776 55.0307 90.9776C52.1937 90.9776 49.4682 90.5001 46.9304 89.6209L47.1041 89.6732C43.4387 88.1451 39.1739 86.9728 34.7315 86.3569L34.4564 86.3256V68.7942H39.3171L50.5393 72.0822C50.6855 72.1288 50.8537 72.1559 51.0281 72.1559H60.2099C62.2914 72.1559 63.0327 73.3853 63.0327 74.44C63.0327 75.4946 62.2913 76.724 60.2099 76.724H44.157C43.1803 76.724 42.3887 77.5156 42.3887 78.4924C42.3887 79.4691 43.1803 80.2607 44.157 80.2607H62.5129C62.7716 80.2607 63.0168 80.2029 63.2366 80.0996L63.2263 80.104L81.6047 71.8519C82.2836 71.5402 83.0776 71.3585 83.9142 71.3585C84.5388 71.3585 85.1398 71.4598 85.7016 71.6469L85.6616 71.6354C86.5635 72.1771 87.2131 73.0604 87.4348 74.1019L87.4392 74.1267C87.1184 74.5006 86.7842 74.8392 86.4281 75.1531L86.4168 75.163ZM42.8742 45.1689V55.0253C42.8742 61.5091 42.8549 61.5091 49.3577 61.5091H68.2179C74.7017 61.5091 74.7017 61.5091 74.7017 55.0257V45.1688C76.1107 44.2365 76.5546 42.6642 76.5804 40.8787V39.4995C76.5553 37.0351 75.3712 34.6682 73.0056 34.6479L72.9703 34.6411C73.6091 33.6386 73.9883 32.4167 73.9883 31.106C73.9883 30.5898 73.9293 30.0873 73.8181 29.6048L73.8267 29.6496C73.2234 27.3038 71.3407 25.519 68.9843 25.0669L68.9454 25.0608C68.6492 25.0154 68.3073 24.9895 67.9596 24.9895C65.4552 24.9895 63.2647 26.3327 62.0691 28.338L62.0518 28.3694L58.7892 33.0642L55.5265 28.3694C54.3079 26.3331 52.1141 24.991 49.6069 24.991C49.2624 24.991 48.9238 25.0164 48.593 25.0653L48.6304 25.0608C46.2361 25.5198 44.3546 27.3045 43.7609 29.6066L43.7514 29.6497C43.6482 30.0885 43.5888 30.5923 43.5888 31.11C43.5888 32.4191 43.9677 33.6398 44.6217 34.6682L44.6057 34.6413C42.3207 34.6411 41.1366 37.0378 41.1115 39.4995V40.8787C41.1373 42.6682 41.4653 44.2365 42.8549 45.1569L42.8742 45.1689ZM46.4108 55.0253V46.1837H57.0208V57.9725H49.358C46.4108 57.9725 46.4108 57.9725 46.4108 55.0253ZM71.1651 56.4278C71.1651 57.9725 71.1651 57.9725 68.218 57.9725H60.5575V46.1837H71.1651V56.4278ZM73.3559 39.4995V40.8787C73.3548 41.855 73.5229 42.6471 71.7545 42.6471H60.5574V37.9315H71.7545C73.5229 37.9315 73.3548 38.5232 73.3559 39.4995ZM64.953 30.3863C65.5472 29.273 66.7011 28.5283 68.0291 28.5283C68.1279 28.5283 68.2259 28.5324 68.3227 28.5405L68.31 28.5396C69.3314 28.7492 70.1321 29.5129 70.3918 30.4964L70.396 30.5153C70.4167 30.6702 70.4284 30.8493 70.4284 31.031C70.4284 32.4131 69.7497 33.6367 68.7073 34.3864L68.6951 34.3949H62.1699L64.953 30.3863ZM47.1802 30.5152C47.444 29.5135 48.2436 28.7501 49.2465 28.5426L49.2639 28.5397C49.3474 28.5325 49.4446 28.5284 49.5428 28.5284C50.8713 28.5284 52.0258 29.2729 52.6119 30.3675L52.621 30.3861L55.4069 34.3949H48.8806C47.8262 33.636 47.1476 32.4123 47.1476 31.0301C47.1476 30.8485 47.1594 30.6698 47.1821 30.4944L47.1802 30.5152ZM44.336 39.6973C44.3379 38.7215 44.0531 37.9315 45.8213 37.9315H57.0208V42.6471H45.8214C44.0531 42.6471 44.338 41.8543 44.336 40.8787V39.6973Z"/>
</mask>
<path d="M87.232 68.4673C86.2397 68.0499 85.0864 67.8074 83.8763 67.8074C82.5167 67.8074 81.2287 68.1136 80.0773 68.6606L80.131 68.6377L66.5071 74.7563C66.5132 74.6465 66.5693 74.5507 66.5693 74.44C66.5345 71.2079 63.9065 68.6013 60.6695 68.6013C60.5077 68.6013 60.3475 68.6077 60.1889 68.6206L60.2098 68.6192H51.2899L40.0677 65.3313C39.9216 65.2845 39.7534 65.2576 39.579 65.2576H34.4563V63.4731C34.456 62.4966 33.6645 61.705 32.6879 61.7047H23.5332C22.5568 61.705 21.7652 62.4965 21.7649 63.4731V92.2565C21.7652 93.2331 22.5567 94.0247 23.5332 94.0248H32.6879C33.6645 94.0246 34.456 93.2331 34.4563 92.2565V89.8879C38.7417 90.5574 42.5797 91.6363 46.2154 93.1104L45.8633 92.9841C48.5757 93.9646 51.7061 94.5314 54.9691 94.5314H55.0182H55.0158H55.0567C58.8383 94.5314 62.444 93.7784 65.7322 92.4142L65.5474 92.4822C68.4784 91.1794 70.9663 89.8027 73.3202 88.2404L73.1272 88.3608C73.9237 87.868 74.7157 87.3753 75.5171 86.9011C79.3669 84.6216 82.4614 82.6184 85.252 80.6014C86.6162 79.6309 87.8067 78.6714 88.9375 77.6472L88.9039 77.6772C89.7829 76.965 90.4848 76.0699 90.9574 75.0471L90.9762 75.0018C91.0484 74.8157 91.0904 74.6004 91.0904 74.3752C91.0904 74.2416 91.0756 74.1114 91.0476 73.9862L91.0498 73.9979C90.7063 71.6011 89.2697 69.5993 87.2701 68.4868L87.232 68.4673ZM30.9196 90.4884H25.3015V65.239H30.9196V90.4884ZM86.4168 75.163C85.445 76.0346 84.3883 76.8809 83.2856 77.6668L83.1749 77.7417C80.481 79.6897 77.4739 81.633 73.7116 83.8617C72.8919 84.3453 72.0815 84.8473 71.2663 85.3492C69.2525 86.7004 66.9357 87.9906 64.5133 89.0884L64.207 89.2128C61.49 90.3294 58.336 90.9776 55.0307 90.9776C52.1937 90.9776 49.4682 90.5001 46.9304 89.6209L47.1041 89.6732C43.4387 88.1451 39.1739 86.9728 34.7315 86.3569L34.4564 86.3256V68.7942H39.3171L50.5393 72.0822C50.6855 72.1288 50.8537 72.1559 51.0281 72.1559H60.2099C62.2914 72.1559 63.0327 73.3853 63.0327 74.44C63.0327 75.4946 62.2913 76.724 60.2099 76.724H44.157C43.1803 76.724 42.3887 77.5156 42.3887 78.4924C42.3887 79.4691 43.1803 80.2607 44.157 80.2607H62.5129C62.7716 80.2607 63.0168 80.2029 63.2366 80.0996L63.2263 80.104L81.6047 71.8519C82.2836 71.5402 83.0776 71.3585 83.9142 71.3585C84.5388 71.3585 85.1398 71.4598 85.7016 71.6469L85.6616 71.6354C86.5635 72.1771 87.2131 73.0604 87.4348 74.1019L87.4392 74.1267C87.1184 74.5006 86.7842 74.8392 86.4281 75.1531L86.4168 75.163ZM42.8742 45.1689V55.0253C42.8742 61.5091 42.8549 61.5091 49.3577 61.5091H68.2179C74.7017 61.5091 74.7017 61.5091 74.7017 55.0257V45.1688C76.1107 44.2365 76.5546 42.6642 76.5804 40.8787V39.4995C76.5553 37.0351 75.3712 34.6682 73.0056 34.6479L72.9703 34.6411C73.6091 33.6386 73.9883 32.4167 73.9883 31.106C73.9883 30.5898 73.9293 30.0873 73.8181 29.6048L73.8267 29.6496C73.2234 27.3038 71.3407 25.519 68.9843 25.0669L68.9454 25.0608C68.6492 25.0154 68.3073 24.9895 67.9596 24.9895C65.4552 24.9895 63.2647 26.3327 62.0691 28.338L62.0518 28.3694L58.7892 33.0642L55.5265 28.3694C54.3079 26.3331 52.1141 24.991 49.6069 24.991C49.2624 24.991 48.9238 25.0164 48.593 25.0653L48.6304 25.0608C46.2361 25.5198 44.3546 27.3045 43.7609 29.6066L43.7514 29.6497C43.6482 30.0885 43.5888 30.5923 43.5888 31.11C43.5888 32.4191 43.9677 33.6398 44.6217 34.6682L44.6057 34.6413C42.3207 34.6411 41.1366 37.0378 41.1115 39.4995V40.8787C41.1373 42.6682 41.4653 44.2365 42.8549 45.1569L42.8742 45.1689ZM46.4108 55.0253V46.1837H57.0208V57.9725H49.358C46.4108 57.9725 46.4108 57.9725 46.4108 55.0253ZM71.1651 56.4278C71.1651 57.9725 71.1651 57.9725 68.218 57.9725H60.5575V46.1837H71.1651V56.4278ZM73.3559 39.4995V40.8787C73.3548 41.855 73.5229 42.6471 71.7545 42.6471H60.5574V37.9315H71.7545C73.5229 37.9315 73.3548 38.5232 73.3559 39.4995ZM64.953 30.3863C65.5472 29.273 66.7011 28.5283 68.0291 28.5283C68.1279 28.5283 68.2259 28.5324 68.3227 28.5405L68.31 28.5396C69.3314 28.7492 70.1321 29.5129 70.3918 30.4964L70.396 30.5153C70.4167 30.6702 70.4284 30.8493 70.4284 31.031C70.4284 32.4131 69.7497 33.6367 68.7073 34.3864L68.6951 34.3949H62.1699L64.953 30.3863ZM47.1802 30.5152C47.444 29.5135 48.2436 28.7501 49.2465 28.5426L49.2639 28.5397C49.3474 28.5325 49.4446 28.5284 49.5428 28.5284C50.8713 28.5284 52.0258 29.2729 52.6119 30.3675L52.621 30.3861L55.4069 34.3949H48.8806C47.8262 33.636 47.1476 32.4123 47.1476 31.0301C47.1476 30.8485 47.1594 30.6698 47.1821 30.4944L47.1802 30.5152ZM44.336 39.6973C44.3379 38.7215 44.0531 37.9315 45.8213 37.9315H57.0208V42.6471H45.8214C44.0531 42.6471 44.338 41.8543 44.336 40.8787V39.6973Z" fill="#FFFCF5" stroke="#CBA794" stroke-width="2.6" mask="url(#path-4-inside-1_523_9878)"/>
<path d="M34.056 113.2C37.464 113.824 36.808 116 35.672 115.376C35.384 114.704 34.536 113.824 33.896 113.328L34.056 113.2ZM27.88 118.208L36.168 117.28L36.84 116.256C36.84 116.256 37.784 116.832 38.376 117.232C38.344 117.408 38.184 117.52 37.976 117.536L28.04 118.656L27.88 118.208ZM31.448 112.8L33.176 113.008C33.144 113.2 33 113.392 32.6 113.456C32.568 118.272 33.464 123.28 36.792 125.424C37.08 125.664 37.208 125.664 37.32 125.36C37.544 124.96 37.848 124.176 38.072 123.52L38.264 123.568L37.992 125.968C38.472 126.576 38.536 126.832 38.392 127.008C38.024 127.536 37.032 127.088 36.232 126.528C32.568 123.952 31.464 118.72 31.448 112.8ZM26.056 117.328L26.536 116.704L27.608 117.088C27.544 117.232 27.4 117.328 27.112 117.376V126.896C27.096 126.992 26.664 127.264 26.264 127.264H26.056V117.328ZM27.352 112.608L29.064 113.168C29.016 113.344 28.824 113.488 28.456 113.472C27.304 116.48 25.64 119.168 23.768 120.928L23.544 120.768C24.968 118.816 26.488 115.696 27.352 112.608ZM44.84 126.816C44.84 126.912 44.488 127.184 43.992 127.184H43.816V121.984L43.88 121.888L45.048 122.384H44.84V126.816ZM51.224 122.384V122.848H44.328V122.384H51.224ZM50.856 116.752V117.232H45.128L45.416 116.752H50.856ZM50.424 122.384L51 121.744L52.28 122.736C52.184 122.848 51.928 122.96 51.624 123.024V126.816C51.608 126.912 51.08 127.152 50.744 127.152H50.584V122.384H50.424ZM51.24 125.728V126.208H44.216V125.728H51.24ZM50.12 116.752L50.968 116.048L52.184 117.248C52.024 117.36 51.8 117.392 51.336 117.392C49.24 120.096 44.76 122.384 40.408 123.408L40.28 123.152C44.408 121.92 48.696 119.376 50.344 116.752H50.12ZM47.16 115.952C47.064 116.112 46.84 116.208 46.504 116.128C45.096 118.144 43.176 119.616 41.304 120.432L41.128 120.192C42.744 119.2 44.536 117.344 45.704 115.152L47.16 115.952ZM45.176 117.04C46.888 119.776 50.936 121.248 55.144 121.792L55.112 121.968C54.648 122.048 54.296 122.384 54.168 122.912C50.056 122.08 46.6 120.368 44.92 117.232L45.176 117.04ZM46.504 112.528C49.528 112.96 48.712 115.168 47.608 114.464C47.48 113.824 46.904 113.056 46.344 112.672L46.504 112.528ZM52.984 114.688L53.656 114L54.888 115.2C54.76 115.296 54.584 115.328 54.28 115.344C53.912 115.936 53.272 116.768 52.76 117.264L52.552 117.152C52.76 116.48 53.048 115.328 53.16 114.688H52.984ZM42.296 113.952C42.808 115.696 42.248 116.784 41.624 117.216C41.224 117.504 40.664 117.52 40.488 117.152C40.344 116.816 40.552 116.512 40.872 116.304C41.512 115.968 42.088 115.008 42.008 113.952H42.296ZM53.672 114.688V115.168H42.056V114.688H53.672ZM59.992 123.456C61.192 125.52 63.08 125.792 66.504 125.792C67.704 125.792 70.568 125.792 71.848 125.76V125.968C71.4 126.064 71.176 126.416 71.144 126.88C70.136 126.88 67.576 126.88 66.456 126.88C62.888 126.88 61.064 126.288 59.768 123.6L59.992 123.456ZM61.16 117.104C60.584 117.984 59.224 119.776 58.456 120.736H58.584L58.136 121.088L57.272 120.256C57.48 120.144 57.88 120.016 58.136 119.984L57.608 120.384C58.376 119.488 59.752 117.616 60.344 116.624L61.16 117.104ZM60.136 116.64L60.728 116.048L61.96 117.12C61.72 117.36 61.08 117.408 60.504 117.344L60.328 116.64H60.136ZM60.408 120.336L61.064 119.696L62.184 120.704C62.088 120.848 61.912 120.896 61.56 120.912C60.856 123.312 59.48 125.744 56.936 127.28L56.776 127.072C58.808 125.408 60.056 122.8 60.552 120.336H60.408ZM60.584 116.64V117.12H57.208L57.064 116.64H60.584ZM61.256 120.336V120.816H58.136L58.328 120.336H61.256ZM58.12 112.576C61.56 113.68 60.904 115.936 59.816 115.264C59.592 114.4 58.68 113.328 57.944 112.704L58.12 112.576ZM69.896 113.312C69.816 113.472 69.64 113.616 69.304 113.584C68.696 114.64 67.928 115.712 67.192 116.448L66.936 116.304C67.4 115.424 67.912 114 68.28 112.72L69.896 113.312ZM66.888 116.48C66.776 120.32 66.648 123.056 61.992 124.848L61.784 124.576C65.688 122.656 65.688 120.016 65.736 116.48H66.888ZM63.432 112.864C66.648 114.208 65.752 116.448 64.728 115.632C64.6 114.768 63.88 113.648 63.24 112.976L63.432 112.864ZM67.176 120.64C71.608 122.88 70.92 125.664 69.768 124.8C69.48 123.488 68.072 121.776 66.984 120.784L67.176 120.64ZM69.592 115.264C69.592 115.264 70.424 115.92 70.92 116.416C70.872 116.592 70.712 116.672 70.504 116.672H62.632L62.504 116.192H68.872L69.592 115.264ZM70.072 118.48C70.072 118.48 70.936 119.152 71.464 119.648C71.416 119.824 71.272 119.904 71.048 119.904H62.216L62.088 119.424H69.32L70.072 118.48ZM85.192 112.816C85.16 113.008 85.032 113.152 84.696 113.184V116.816C84.696 116.928 84.248 117.152 83.864 117.152H83.656V112.656L85.192 112.816ZM78.312 112.816C78.296 113.008 78.152 113.152 77.816 113.184V116.816C77.816 116.928 77.368 117.152 76.984 117.152H76.776V112.656L78.312 112.816ZM86.072 119.584C86.072 119.584 86.92 120.272 87.448 120.784C87.416 120.96 87.256 121.04 87.032 121.04H81.656L81.528 120.56H85.304L86.072 119.584ZM79.704 117.584C79.624 117.76 79.4 117.872 79.064 117.808C77.64 120.144 75.656 121.856 73.624 122.832L73.448 122.624C75.176 121.456 77.048 119.344 78.2 116.848L79.704 117.584ZM78.232 120.256C78.168 120.4 78.024 120.496 77.736 120.528V126.96C77.72 127.04 77.272 127.248 76.872 127.248H76.68V120.016L76.888 119.744L78.232 120.256ZM82.696 117.216C82.664 117.424 82.52 117.584 82.168 117.616V125.376C82.168 125.712 82.28 125.824 83 125.824H84.776C85.592 125.824 86.2 125.808 86.456 125.792C86.648 125.776 86.744 125.728 86.808 125.568C86.952 125.296 87.144 124.272 87.336 123.2H87.544L87.592 125.664C87.976 125.792 88.072 125.904 88.072 126.112C88.072 126.624 87.496 126.816 84.744 126.816H82.84C81.48 126.816 81.128 126.528 81.128 125.6V117.04L82.696 117.216ZM87.048 113.648C87.048 113.648 87.88 114.304 88.376 114.8C88.344 114.976 88.184 115.056 87.96 115.056H81.368L81.24 114.576H86.344L87.048 113.648ZM79.656 113.648C79.656 113.648 80.488 114.304 80.968 114.8C80.936 114.976 80.776 115.056 80.568 115.056H73.672L73.544 114.576H78.936L79.656 113.648Z" fill="#FFFCF5"/>
</svg>
