<svg width="114" height="194" viewBox="0 0 114 194" fill="none" xmlns="http://www.w3.org/2000/svg">
<path fill-rule="evenodd" clip-rule="evenodd" d="M31.425 175.64C32.2289 176.028 42.9887 180.024 43.6069 180.413C44.6576 180.746 45.4615 181.689 45.4615 182.745C45.4615 183.299 44.8433 184.576 43.2348 184.576C42.1842 184.576 41.566 184.242 40.9478 184.021C40.3296 183.687 30.3737 177.638 30.3737 177.638V177.805C30.9918 178.36 37.4848 185.519 38.103 186.241C38.5354 186.962 39.1536 187.851 39.1536 188.794C39.1536 190.237 37.4848 190.792 36.6809 190.792C35.5049 190.792 34.4542 190.07 33.8367 188.627C33.4646 187.851 28.9516 179.637 28.5795 178.915H28.3334C28.3334 179.636 30.0022 188.96 30.0022 190.07C30.0022 191.18 29.7561 193.345 27.3438 193.345C24.9314 193.345 24.4989 191.18 24.4989 190.07C24.4989 189.128 26.1074 180.746 26.3535 178.915L26.1074 178.748C25.4892 180.024 21.8404 186.962 20.8502 188.626C20.0462 190.07 18.9956 190.792 18.006 190.792C16.956 190.792 15.5339 190.236 15.5339 188.793C15.5339 187.85 16.1521 186.795 16.5839 186.24C17.3878 185.13 23.5106 179.137 24.3132 177.805L24.0671 177.637C24.0671 177.637 14.1111 183.686 13.4929 184.02C13.1208 184.408 12.3169 184.575 11.5143 184.575C9.65847 184.575 9.03963 183.466 9.03963 182.965C9.03963 181.689 10.0299 180.745 10.8942 180.412C11.5137 180.024 22.2723 176.027 23.0762 175.806V175.472C22.458 175.472 11.8845 176.749 10.8942 176.749C9.47275 176.75 7 176.529 7 174.364C7 171.977 9.47275 171.977 10.8948 171.977C12.0708 171.977 21.8404 173.254 23.0768 173.254L23.2632 173.086C22.2729 172.698 12.0708 168.869 10.8948 168.314C10.0299 167.98 9.04028 167.038 9.04028 165.982C9.04028 164.484 10.0306 163.596 11.2669 163.596C11.6994 163.596 12.0708 163.596 12.5033 163.762C14.915 164.873 23.5106 170.922 24.0671 171.089L24.3132 170.921C23.695 170.367 17.3878 163.596 16.5839 162.486C16.3378 162.152 15.3475 161.043 15.3475 160.155C15.3475 158.656 16.7696 157.934 18.1917 157.934C19.182 157.934 20.0462 158.656 20.8502 160.155C21.6541 161.432 25.921 169.811 25.921 169.811H26.3535C26.3535 169.811 24.4989 159.933 24.4989 158.823C24.4989 157.547 24.9314 155.382 27.3438 155.382C29.7561 155.382 30.0022 157.547 30.0022 158.823C30.0022 159.599 28.5795 168.869 28.3334 169.812H28.7658C29.5697 168.148 33.4646 160.876 33.8367 160.156C34.6406 158.823 35.6912 157.768 36.9276 157.768C37.7315 157.768 39.1543 158.657 39.1543 160.156C39.1543 161.043 38.5361 161.932 38.1036 162.486C37.7322 163.042 30.8061 170.367 30.3743 171.089L30.6204 171.255C30.9925 170.922 39.7725 164.873 41.9985 163.984C42.3699 163.763 42.9887 163.763 43.2348 163.763C44.6569 163.763 45.6472 164.706 45.6472 165.983C45.6472 167.259 44.8433 167.981 43.7927 168.315C42.9888 168.703 32.2282 172.699 31.6107 173.087L31.7964 173.254C32.6613 173.087 42.803 171.978 43.7927 171.978C45.029 171.81 47.6875 171.977 47.6875 174.364C47.6875 176.529 45.029 176.749 43.7927 176.749C42.3699 176.749 33.4646 175.807 31.6107 175.473L31.425 175.64ZM28.5801 174.53C28.5801 174.196 28.1477 173.475 27.3438 173.475C26.5398 173.475 26.1074 174.196 26.1074 174.53C26.1074 175.085 26.5398 175.64 27.3438 175.64C28.1477 175.64 28.5801 175.085 28.5801 174.53Z" fill="#D6D8C9" fill-opacity="0.5"/>
<rect width="114" height="157" rx="57" fill="#D6D8C9"/>
<path d="M27.6875 175.75C27.7292 174.833 27.75 173.917 27.75 173C27.75 172.083 27.7292 171.312 27.6875 170.688L28.625 171.125H31.5V169.812H28.1875C27.6458 169.812 27.1458 169.875 26.6875 170L26.125 169.438H31.5C31.5 169.062 31.4792 168.542 31.4375 167.875L32.9375 168.5L32.375 168.938V169.438H36.0625L36.9375 168.562L38.1875 169.812H32.375V171.125H35.3125L35.75 170.562L36.75 171.312L36.3125 171.688C36.3125 172.604 36.3125 173.25 36.3125 173.625C36.3125 173.958 36.3333 174.458 36.375 175.125L35.4375 175.5V175H32.375V176.438C33.125 176.438 34.1875 176.417 35.5625 176.375C35.2708 176.125 34.8333 175.792 34.25 175.375L34.375 175.188C35.6667 175.646 36.4792 176 36.8125 176.25C37.1875 176.458 37.375 176.708 37.375 177C37.375 177.167 37.3333 177.354 37.25 177.562C37.1667 177.771 37.0833 177.875 37 177.875C36.9167 177.875 36.8333 177.812 36.75 177.688C36.5417 177.438 36.25 177.104 35.875 176.688C31.7083 177.021 28.9167 177.312 27.5 177.562L26.9375 177.75L26.4375 176.562C27.1875 176.646 28.875 176.625 31.5 176.5V175H28.625V175.438L27.6875 175.75ZM28.625 171.5V172.875H31.5V171.5H28.625ZM32.375 171.5V172.875H35.4375V171.5H32.375ZM28.625 173.25V174.625H31.5V173.25H28.625ZM32.375 173.25V174.625H35.4375V173.25H32.375ZM33.8125 178.438C33.8125 177.979 33.7917 177.521 33.75 177.062L35.25 177.688L34.75 178V178.438H36.75L37.75 177.438L39.125 178.812H34.75V181.062C34.7917 181.771 34.3333 182.292 33.375 182.625C33.3333 182.125 32.7292 181.729 31.5625 181.438V181.125C32.4375 181.208 33.0208 181.25 33.3125 181.25C33.6458 181.25 33.8125 181.104 33.8125 180.812V178.812H27.125C26.5833 178.812 26.0833 178.875 25.625 179L25.0625 178.438H33.8125ZM28 179.062L28.1875 178.938C29.0208 179.396 29.5417 179.729 29.75 179.938C29.9583 180.146 30.0417 180.396 30 180.688C30 180.938 29.9167 181.146 29.75 181.312C29.625 181.479 29.5417 181.562 29.5 181.562C29.375 181.562 29.25 181.354 29.125 180.938C28.9167 180.354 28.5417 179.729 28 179.062ZM47.5775 168.062L49.4525 168.875L48.8275 169.438C49.0775 171.646 49.4942 173.521 50.0775 175.062C50.7025 176.604 51.515 177.917 52.515 179C53.5567 180.042 54.7025 180.667 55.9525 180.875V181.188C55.1192 181.229 54.5358 181.521 54.2025 182.062C53.0775 181.271 52.14 180.354 51.39 179.312C50.6817 178.229 50.0983 177.083 49.64 175.875C49.1817 174.667 48.8483 173 48.64 170.875C48.4733 172.875 48.1817 174.562 47.765 175.938C47.3483 177.271 46.64 178.5 45.64 179.625C44.64 180.708 43.265 181.625 41.515 182.375L41.39 182.188C43.14 181.104 44.4525 179.938 45.3275 178.688C46.2442 177.396 46.8483 175.792 47.14 173.875C47.4733 171.917 47.6192 169.979 47.5775 168.062ZM60.4675 169.5V172.438H63.03V169.5H60.4675ZM60.4675 172.812V175.812H63.03V172.812H60.4675ZM60.4675 176.188C60.4675 177.479 60.3008 178.604 59.9675 179.562C59.6342 180.521 59.0092 181.458 58.0925 182.375L57.905 182.25C59.0717 180.792 59.655 178.75 59.655 176.125C59.655 172.333 59.6342 169.792 59.5925 168.5L60.53 169.125H62.905L63.4675 168.5L64.3425 169.375L63.8425 169.75V180.812C63.8425 181.479 63.4258 181.979 62.5925 182.312C62.5092 181.771 61.9258 181.312 60.8425 180.938V180.688C61.9258 180.938 62.5508 181.021 62.7175 180.938C62.9258 180.854 63.03 180.688 63.03 180.438V176.188H60.4675ZM66.155 174.938V181.438C67.1133 180.812 67.9467 180.021 68.655 179.062C67.905 177.938 67.3425 176.562 66.9675 174.938H66.155ZM71.2175 175.125C70.6758 176.875 70.1133 178.188 69.53 179.062C70.53 180.146 71.5717 180.75 72.655 180.875V181.125C71.9883 181.208 71.6133 181.438 71.53 181.812C70.6133 181.229 69.8008 180.5 69.0925 179.625C68.2592 180.5 67.28 181.208 66.155 181.75V182.062L65.28 182.5C65.3217 180.792 65.3425 178.479 65.3425 175.562C65.3425 172.604 65.3217 170.25 65.28 168.5L66.28 169.125H69.905L70.4675 168.5L71.405 169.312L70.905 169.625C70.8633 170.333 70.8008 171.021 70.7175 171.688C70.6758 172.312 70.53 172.75 70.28 173C70.0717 173.25 69.6758 173.458 69.0925 173.625C69.0925 173.167 68.5925 172.792 67.5925 172.5V172.25C68.6342 172.458 69.2383 172.542 69.405 172.5C69.6133 172.417 69.7592 172.188 69.8425 171.812C69.9258 171.396 69.9883 170.625 70.03 169.5H66.155V174.562H70.28L70.78 174L71.7175 174.812L71.2175 175.125ZM67.3425 174.938C67.7592 176.354 68.3217 177.521 69.03 178.438C69.5717 177.562 70.0092 176.396 70.3425 174.938H67.3425ZM75.045 169.25H79.8575L80.3575 168.75L81.295 170C80.7533 170.125 80.3158 170.271 79.9825 170.438C79.6908 170.562 79.2325 170.917 78.6075 171.5C79.1908 171.917 79.4408 172.292 79.3575 172.625C79.2742 172.917 79.1492 173.125 78.9825 173.25C78.8575 173.375 78.7325 173.292 78.6075 173C78.4825 172.75 78.2742 172.458 77.9825 172.125C77.6908 171.75 77.2117 171.292 76.545 170.75L76.7325 170.562C77.2742 170.771 77.8158 171.021 78.3575 171.312L79.92 169.625H77.1075C76.5658 169.625 76.0658 169.688 75.6075 169.812L75.045 169.25ZM78.9825 180.75C78.9408 181.542 78.5033 182.083 77.67 182.375C77.7117 182.125 77.6075 181.896 77.3575 181.688C77.1492 181.521 76.67 181.312 75.92 181.062L75.9825 180.75C76.6075 180.833 77.1075 180.896 77.4825 180.938C77.8992 180.979 78.1283 180.75 78.17 180.25V174.812C77.5033 176.354 76.8783 177.479 76.295 178.188C75.7533 178.896 75.2117 179.479 74.67 179.938L74.545 179.75C75.2533 178.875 75.8367 178 76.295 177.125C76.795 176.208 77.2325 175.125 77.6075 173.875H76.92C76.3783 173.875 75.8783 173.938 75.42 174.062L74.8575 173.5H80.17L80.545 173.062L81.545 174C81.2117 174.083 80.92 174.229 80.67 174.438C80.42 174.646 80.17 174.938 79.92 175.312L79.7325 175.25L80.2325 173.875H78.9825V180.75ZM84.7325 175.562C84.3992 175.729 84.1908 176.104 84.1075 176.688H86.545L86.9825 176.188L87.92 176.938L87.42 177.312C87.2117 179.646 86.9825 181.042 86.7325 181.5C86.5242 181.958 86.1075 182.292 85.4825 182.5C85.4408 182.167 85.2533 181.896 84.92 181.688C84.5867 181.521 84.2325 181.354 83.8575 181.188L83.92 180.875C84.6283 181.042 85.1283 181.125 85.42 181.125C85.7533 181.167 85.9825 181.021 86.1075 180.688C86.2742 180.312 86.4408 179.104 86.6075 177.062H84.045C83.795 178.396 83.3367 179.458 82.67 180.25C82.045 181 81.0033 181.75 79.545 182.5L79.3575 182.25C80.2742 181.75 81.0658 181.104 81.7325 180.312C82.4408 179.479 82.9408 178.396 83.2325 177.062H82.795C82.2533 177.062 81.7533 177.125 81.295 177.25L80.7325 176.688H83.295C83.42 175.979 83.4825 175.417 83.4825 175L84.7325 175.562ZM82.92 170.625C82.42 171.333 81.8783 172 81.295 172.625L81.1075 172.5C81.5658 171.875 81.9825 171.146 82.3575 170.312C82.7742 169.438 83.0242 168.729 83.1075 168.188L84.295 168.938C84.045 169.021 83.7742 169.312 83.4825 169.812H86.4825L86.9825 169.312L87.92 170.125L87.295 170.5C86.8367 171.5 86.2325 172.396 85.4825 173.188C86.0242 173.688 86.6283 174.083 87.295 174.375C87.9617 174.625 88.6283 174.75 89.295 174.75V175C88.5867 175.25 88.2325 175.521 88.2325 175.812C87.0658 175.396 85.9617 174.688 84.92 173.688C83.7117 174.812 82.1075 175.729 80.1075 176.438L79.9825 176.188C81.6075 175.521 83.1075 174.542 84.4825 173.25C83.7742 172.5 83.2533 171.625 82.92 170.625ZM83.1075 170.375C83.5242 171.292 84.1283 172.083 84.92 172.75C85.67 171.917 86.2117 171.062 86.545 170.188H83.2325L83.1075 170.375Z" fill="#4D5139"/>
<path d="M59.0207 102.56L59.0198 102.559C58.7874 102.337 58.7204 101.988 58.8519 101.695L58.8519 101.695L63.1607 92.0684C63.1608 92.0681 63.1609 92.0679 63.161 92.0677C63.2027 91.9786 63.2568 91.8997 63.3272 91.8319L63.3276 91.8315L93.143 62.7449C93.448 62.4486 93.941 62.4493 94.2406 62.7509L94.2408 62.7512L99.1183 67.6292L99.1843 67.5632L99.1183 67.6292C99.4202 67.9311 99.4182 68.4169 99.1161 68.7167L99.1866 68.7877L99.1161 68.7168L69.5931 98.0574C69.5288 98.1213 69.4582 98.1738 69.3792 98.2088L69.377 98.2099L59.8975 102.703L59.8959 102.704C59.7889 102.757 59.6775 102.781 59.5626 102.781C59.3637 102.781 59.1696 102.706 59.0207 102.56ZM64.2253 93.8231L64.1226 93.7211L64.0635 93.8532L61.2385 100.166L61.1278 100.413L61.3726 100.297L67.5858 97.3501L67.7144 97.2891L67.6134 97.1888L64.2253 93.8231ZM65.0478 92.3126L64.9751 92.3835L65.0471 92.4551L68.9691 96.3508L69.0396 96.4208L69.1101 96.3507L92.5369 73.064L92.6083 72.993L92.5368 72.9221L88.8294 69.2442L88.7595 69.1749L88.6891 69.2436L65.0478 92.3126ZM89.9444 68.0241L89.8717 68.095L89.9438 68.1666L93.639 71.8348L93.7095 71.9048L93.78 71.8348L97.3948 68.2416L97.4659 68.1709L97.395 68.1L93.7485 64.4535L93.6787 64.3837L93.608 64.4527L89.9444 68.0241ZM84.7151 43.9378V60.7754H83.1601V44.8089V44.7089H83.0601H69.3126C68.882 44.7089 68.5351 44.3634 68.5351 43.9378V30.291V30.191H68.4351H26.3151H26.2151V30.291V101.138V101.238H26.3151H49.7126V102.781H25.4376C25.007 102.781 24.6601 102.435 24.6601 102.01V29.4199C24.6601 28.9943 25.007 28.6488 25.4376 28.6488H69.3126C69.5205 28.6488 69.7193 28.7306 69.8637 28.8739L84.4881 43.3913C84.4882 43.3913 84.4882 43.3913 84.4882 43.3913C84.6333 43.5375 84.7151 43.7325 84.7151 43.9378ZM70.0901 43.0668V43.1668H70.1901H81.8194H82.0621L81.8898 42.9958L70.2605 31.4516L70.0901 31.2824V31.5226V43.0668ZM62.7776 76.9419V77.0419H62.8776H68.4351H68.5351V76.9419V56.9072V56.8072H68.4351H62.8776H62.7776V56.9072V76.9419ZM50.5901 76.9419V77.0419H50.6901H56.2476H56.3476V76.9419V49.6482V49.5482H56.2476H50.6901H50.5901V49.6482V76.9419ZM38.4026 76.9419V77.0419H38.5026H44.0601H44.1601V76.9419V64.1661V64.0661H44.0601H38.5026H38.4026V64.1661V76.9419ZM69.3126 78.5841H62.0001C61.5695 78.5841 61.2226 78.2386 61.2226 77.813V56.0361C61.2226 55.6105 61.5695 55.265 62.0001 55.265H69.3126C69.7431 55.265 70.0901 55.6105 70.0901 56.0361V77.813C70.0901 78.2386 69.7431 78.5841 69.3126 78.5841ZM57.1251 78.5841H49.8126C49.382 78.5841 49.0351 78.2386 49.0351 77.813V48.7771C49.0351 48.3516 49.382 48.0061 49.8126 48.0061H57.1251C57.5556 48.0061 57.9026 48.3516 57.9026 48.7771V77.813C57.9026 78.2386 57.5556 78.5841 57.1251 78.5841ZM44.9376 78.5841H37.6251C37.1945 78.5841 36.8476 78.2386 36.8476 77.813V63.2951C36.8476 62.8695 37.1945 62.524 37.6251 62.524H44.9376C45.3681 62.524 45.7151 62.8695 45.7151 63.2951V77.813C45.7151 78.2386 45.3681 78.5841 44.9376 78.5841Z" fill="#4D5139" stroke="#D6D8C9" stroke-width="0.2"/>
<path d="M23.1 27.1H100.9V104.329H23.1V27.1Z" stroke="#D6D8C9" stroke-width="0.2"/>
<path d="M27.296 118.96L27.424 119.424H36.368C36.592 119.424 36.736 119.344 36.784 119.168C36.256 118.704 35.424 118.08 35.424 118.08L34.72 118.96H27.296ZM26.848 122.4L26.976 122.88H37.152C37.376 122.88 37.52 122.8 37.568 122.624C37.024 122.16 36.176 121.504 36.176 121.504L35.44 122.4H26.848ZM25.216 126.32L25.36 126.768H38.608C38.832 126.768 38.992 126.688 39.04 126.512C38.48 126.016 37.584 125.312 37.584 125.312L36.8 126.32H25.216ZM31.408 119.04V126.704H32.48V119.04H31.408ZM27.264 113.392L27.408 113.84H32.544V113.392H27.264ZM31.008 113.392C29.872 115.744 27.28 118.256 24.544 119.84L24.672 120.048C27.92 118.608 30.944 116.176 32.528 113.392H31.008ZM32.128 113.392V113.648C33.264 115.968 35.872 118.112 38.512 119.472C38.656 119.024 39.072 118.64 39.568 118.56L39.584 118.368C36.72 117.424 33.888 115.552 32.736 113.904C33.248 113.856 33.632 113.776 33.808 113.584L32.336 112.608L31.824 113.392H32.128ZM45.84 126.816V122.384H46.048L44.88 121.888L44.816 121.984V127.184H44.992C45.488 127.184 45.84 126.912 45.84 126.816ZM52.224 122.384H45.328V122.848H52.224V122.384ZM51.856 116.752H46.416L46.128 117.232H51.856V116.752ZM51.424 122.384H51.584V127.152H51.744C52.08 127.152 52.608 126.912 52.624 126.816V123.024C52.928 122.96 53.184 122.848 53.28 122.736L52 121.744L51.424 122.384ZM52.24 125.728H45.216V126.208H52.24V125.728ZM51.12 116.752H51.344C49.696 119.376 45.408 121.92 41.28 123.152L41.408 123.408C45.76 122.384 50.24 120.096 52.336 117.392C52.8 117.392 53.024 117.36 53.184 117.248L51.968 116.048L51.12 116.752ZM48.16 115.952L46.704 115.152C45.536 117.344 43.744 119.2 42.128 120.192L42.304 120.432C44.176 119.616 46.096 118.144 47.504 116.128C47.84 116.208 48.064 116.112 48.16 115.952ZM46.176 117.04L45.92 117.232C47.6 120.368 51.056 122.08 55.168 122.912C55.296 122.384 55.648 122.048 56.112 121.968L56.144 121.792C51.936 121.248 47.888 119.776 46.176 117.04ZM47.504 112.528L47.344 112.672C47.904 113.056 48.48 113.824 48.608 114.464C49.712 115.168 50.528 112.96 47.504 112.528ZM53.984 114.688H54.16C54.048 115.328 53.76 116.48 53.552 117.152L53.76 117.264C54.272 116.768 54.912 115.936 55.28 115.344C55.584 115.328 55.76 115.296 55.888 115.2L54.656 114L53.984 114.688ZM43.296 113.952H43.008C43.088 115.008 42.512 115.968 41.872 116.304C41.552 116.512 41.344 116.816 41.488 117.152C41.664 117.52 42.224 117.504 42.624 117.216C43.248 116.784 43.808 115.696 43.296 113.952ZM54.672 114.688H43.056V115.168H54.672V114.688ZM63.36 123.056L62.336 123.472V124.096H63.36V123.056ZM61.904 126.16L62.416 127.104C64.048 126.416 65.616 125.648 66.448 125.264L66.368 125.024C64.544 125.536 62.704 126 61.904 126.16ZM63.12 123.632H62.336V125.52C62.336 125.744 62.24 125.872 61.664 126.224L62.368 127.28C62.592 127.136 62.912 126.688 62.624 126.064L62.32 126.464L63.36 126.048V123.776L63.12 123.632ZM71.264 122.896L69.952 122.112C69.344 122.704 68.128 123.6 67.152 124.128L67.344 124.352C68.512 124.032 69.92 123.472 70.688 123.008C71.024 123.104 71.152 123.04 71.264 122.896ZM65.424 121.504L65.152 121.648C66.208 124.656 68.432 126.288 71.664 127.168C71.808 126.624 72.128 126.288 72.576 126.208L72.608 126.048C69.264 125.472 66.56 124.112 65.424 121.504ZM65.696 121.76V121.504H64.368C62.992 123.008 60.688 124.272 58.112 125.072L58.24 125.344C61.312 124.688 64.032 123.504 65.696 121.76ZM64.32 120.096L64.16 120.224C64.576 120.496 65.008 121.008 65.12 121.472C66.096 121.968 66.656 120.144 64.32 120.096ZM71.024 120.512L70.304 121.392H58.24L58.384 121.872H71.952C72.176 121.872 72.336 121.792 72.384 121.616C71.84 121.136 71.024 120.512 71.024 120.512ZM65.136 117.248H65.296V118.688C65.296 118.864 65.248 118.96 65.056 118.96C64.8 118.96 64.032 118.88 64.032 118.88V119.136C64.464 119.2 64.688 119.296 64.832 119.392C64.944 119.52 64.992 119.728 65.024 119.904C66.096 119.824 66.24 119.44 66.24 118.768V117.904C66.56 117.84 66.832 117.712 66.928 117.6L65.632 116.64L65.136 117.248ZM61.488 113.088L60 112.656C59.808 113.744 59.44 114.8 58.992 115.504L59.248 115.664C59.904 115.136 60.512 114.32 60.912 113.392C61.248 113.408 61.424 113.264 61.488 113.088ZM65.328 113.232L64.672 114.048H60L59.776 114.528H66.16C66.384 114.528 66.528 114.448 66.576 114.272C66.08 113.792 65.328 113.232 65.328 113.232ZM60.432 119.76V117.712H66.016V117.248H60.512L59.488 116.784V120.048H59.632C60.016 120.048 60.432 119.856 60.432 119.76ZM71.984 112.88L70.432 112.704V119.088C70.432 119.296 70.352 119.392 70.096 119.392C69.792 119.392 68.384 119.28 68.384 119.28V119.52C69.024 119.6 69.376 119.728 69.584 119.856C69.776 120.016 69.856 120.256 69.888 120.528C71.248 120.4 71.424 119.936 71.424 119.136V113.28C71.776 113.232 71.936 113.104 71.984 112.88ZM66.032 114.896L65.36 115.712H58.448L58.576 116.176H66.848C67.072 116.176 67.216 116.096 67.264 115.92C66.784 115.488 66.032 114.896 66.032 114.896ZM63.872 112.768L62.336 112.592V120.688H62.528C62.896 120.688 63.296 120.48 63.296 120.336V113.184C63.696 113.136 63.84 112.992 63.872 112.768ZM69.328 113.328L67.792 113.152V118.576H67.968C68.336 118.576 68.752 118.368 68.752 118.256V113.744C69.136 113.68 69.296 113.536 69.328 113.328ZM80.352 113.2L78.64 112.608C77.68 115.84 76.032 119.04 74.464 121.024L74.688 121.2C76.672 119.408 78.48 116.624 79.728 113.472C80.096 113.504 80.288 113.36 80.352 113.2ZM78.752 117.136L77.68 116.72L77.2 117.344V127.232H77.392C77.808 127.232 78.24 126.96 78.256 126.864V117.424C78.544 117.376 78.688 117.28 78.752 117.136ZM87.328 117.328L86.56 118.32H81.904L82.032 118.8H88.304C88.528 118.8 88.688 118.72 88.736 118.544C88.208 118.032 87.328 117.328 87.328 117.328ZM83.168 113.104L81.552 112.912V125.392C81.552 126.464 82.016 126.784 83.472 126.784H85.488C88.464 126.784 89.12 126.624 89.12 126.08C89.12 125.856 89.008 125.728 88.608 125.6L88.56 122.992H88.352C88.128 124.144 87.904 125.216 87.76 125.504C87.68 125.648 87.584 125.712 87.376 125.744C87.104 125.776 86.432 125.792 85.52 125.792H83.584C82.752 125.792 82.592 125.616 82.592 125.152V113.552C82.976 113.488 83.136 113.312 83.168 113.104Z" fill="#4D5139"/>
</svg>
