<svg width="1440" height="1091" viewBox="0 0 1440 1091" fill="none" xmlns="http://www.w3.org/2000/svg">
<path d="M-23.6481 1.0459C-20.4661 4.24093 -15.4411 5.55897 -11.2237 6.67688C-4.59043 8.44346 2.23609 9.50617 9.02809 10.4378C21.5353 12.156 34.2565 12.7909 46.6878 14.9991C55.0605 16.4828 63.3158 18.9118 71.6194 20.7681C79.2052 22.4657 86.8255 23.9908 94.5148 25.1087C103.198 26.3715 111.937 27.1513 120.689 27.7792C126.135 28.1726 131.567 28.5176 137.027 28.6418C139.774 28.7039 142.514 28.8005 145.262 28.842C148.54 28.8903 151.419 29.1801 154.608 29.8978C157.279 30.4981 160.136 30.6085 162.856 30.926C165.424 31.2227 167.991 31.4849 170.573 31.5608C176.122 31.7264 181.755 31.3262 187.298 30.9743C192.785 30.6223 198.252 29.9185 203.656 28.8834C209.427 27.7792 215.094 26.2611 220.899 25.3088C226.614 24.3703 232.357 23.6733 238.086 22.8314C244.056 21.955 249.889 21.0096 255.949 20.9682C258.482 20.9544 261.023 21.0235 263.556 21.0994C266.634 21.1891 270.203 20.6025 273.136 21.7066C275.317 22.5278 277.216 23.28 279.493 23.8596C282.365 24.5911 284.705 26.3784 287.459 27.3997C289.902 28.3037 292.401 29.0421 294.838 29.9461C297.64 30.9881 300.318 32.3406 303.051 33.5482C308.408 35.9221 313.847 38.1096 319.272 40.3178C329.384 44.4306 339.296 49.7442 349.988 52.194C352.811 52.8426 355.593 53.6017 358.395 54.3194C361.253 55.0577 364.262 55.4442 367.023 56.5138C371.752 58.3494 375.81 62.1241 379.268 65.7262C383.12 69.7355 386.433 74.1865 390.008 78.4304C393.48 82.5571 397.663 85.8763 401.335 89.8028C404.911 93.6327 408.638 97.1935 412.435 100.803C414.277 102.555 415.934 104.501 417.812 106.199C419.73 107.945 421.946 109.325 423.906 111.016C426.798 113.514 432.176 119.365 428.434 123.257C426.729 125.031 423.485 125.811 421.201 126.342C418.239 127.032 415.189 127.212 412.165 127.232C406.429 127.281 400.79 127.308 395.434 125.01C390.609 122.947 385.791 120.125 381.518 117.081C375.783 112.989 370.778 107.924 365.256 103.556C364.518 102.976 363.551 101.9 362.647 101.617C362.129 101.458 360.356 102.307 360.314 102.279C360.418 102.362 362.323 101.948 362.005 101.506C361.819 101.251 361.094 101.051 360.804 100.892C359.714 100.306 358.63 99.6984 357.533 99.1257C354.82 97.7041 352.073 96.3723 349.36 94.9507C347.055 93.7431 344.846 92.3009 342.499 91.1967C339.98 90.0167 337.281 89.3405 334.678 88.3882C329.626 86.5388 324.622 84.7101 319.7 82.5088C314.827 80.3212 309.664 78.741 304.439 77.6438C301.54 77.0365 298.682 77.1124 295.776 76.6984C293.478 76.374 291.331 75.6978 288.991 75.6011C277.706 75.1595 266.648 75.0974 255.528 77.4574C244.643 79.7692 234.49 85.1379 224.446 89.7338C222.334 90.6999 220.215 91.6384 218.124 92.639C216.019 93.6465 213.554 94.5919 211.746 96.1101C210.179 97.4281 210.151 98.9324 211.553 100.402C215.018 104.032 220.712 105.191 225.233 106.958C228.56 108.255 231.1 108.835 234.414 107.117C238.576 104.957 241.744 101.748 245.105 98.5529C249.399 94.4746 253.913 90.6033 258.006 86.3248C261.664 82.5019 265.233 78.7479 269.223 75.263C271.183 73.5447 273.178 71.8265 275.518 70.6464C278.803 68.9903 282.524 68.4037 286.12 67.824C292.118 66.8648 298.027 67.6239 303.749 69.5975C314.082 73.1514 323.586 79.8175 332.421 86.104C336.922 89.306 341.277 92.708 345.667 96.0548C347.91 97.7662 349.981 99.588 351.603 101.914C352.963 103.86 354.157 105.792 355.807 107.517C359.693 111.581 363.206 116.005 366.195 120.766C369.094 125.39 371.869 129.91 375.444 134.057C378.813 137.963 382.05 141.917 385.066 146.106C387.731 149.804 390.416 154.131 389.926 158.886C389.615 161.936 388.145 164.096 384.914 163.923C381.912 163.765 378.958 162.667 376.224 161.501C370.537 159.072 365.187 155.787 360.183 152.178C343.445 140.102 330.468 123.796 316.056 109.214C312.473 105.592 309.243 102.541 304.322 100.892C299.738 99.3534 295.203 98.6288 290.386 99.3534C280.011 100.906 270.831 106.813 260.636 109.187C255.162 110.457 249.564 111.154 243.953 111.312C241.109 111.395 237.803 111.699 235 111.167C232.854 110.76 231.452 108.945 229.278 108.587C228.892 108.524 226.918 108.904 227.042 109.511C227.746 112.941 231.052 114.431 233.723 116.253C237.32 118.703 241.178 120.677 244.981 122.767C252.933 127.136 260.926 131.469 269.188 135.23C281.509 140.84 293.685 146.389 303.058 156.491C305.467 159.093 307.662 161.888 309.664 164.814C311.555 167.581 313.467 170.389 314.006 173.771C314.986 179.961 311.169 186.337 305.157 188.262C301.512 189.428 297.336 188.8 293.65 188.11C291.241 187.662 288.943 186.916 286.817 185.688C284.905 184.584 283.145 183.245 281.274 182.079C278.258 180.188 275.062 178.67 271.797 177.255C256.232 170.5 239.839 165.793 223.383 161.798C215.114 159.79 206.673 157.423 198.196 156.54C189.562 155.636 180.858 156.215 172.195 155.912C155.063 155.304 137.586 150.08 122.504 142.02C109.397 135.009 97.897 125.404 84.8928 118.227C78.8532 114.894 72.4685 112.133 65.7248 110.595C58.139 108.856 50.4428 109.09 42.7258 109.546C24.5586 110.608 6.57082 113.7 -11.6171 114.507C-16.1037 114.707 -20.5834 114.749 -25.07 114.611C-25.5877 114.597 -27.8586 115.639 -26.6506 115.68C-7.8898 116.274 10.6985 113.341 29.3144 111.554C38.3428 110.684 47.7439 109.622 56.7999 110.519C64.2131 111.25 71.3364 113.583 78.018 116.826C91.5054 123.375 103.143 133.056 116.023 140.64C130.573 149.211 147.56 154.959 164.395 156.595C173.548 157.485 182.756 156.767 191.922 157.264C200.688 157.733 209.227 159.976 217.737 161.984C235.2 166.104 252.608 170.941 269.112 178.063C272.418 179.491 275.676 181.009 278.741 182.914C280.688 184.122 282.517 185.516 284.498 186.661C289.212 189.38 295.631 190.374 300.988 189.877C306.13 189.401 311.293 186.979 314.268 182.645C317.899 177.359 316.843 171.314 313.557 166.194C306.123 154.6 296.018 146.119 283.78 139.95C276.484 136.272 268.905 133.215 261.63 129.489C253.616 125.39 245.34 121.305 237.754 116.446C235.939 115.28 234.213 113.976 232.405 112.817C230.811 111.795 229.879 110.588 229.499 108.725C228.754 109.035 228.008 109.339 227.263 109.649C229.409 110.001 230.824 111.864 232.985 112.23C235.725 112.692 238.762 112.465 241.537 112.416C246.707 112.32 251.877 111.775 256.95 110.788C262.175 109.773 267.283 108.283 272.232 106.33C277.588 104.211 282.862 101.534 288.57 100.513C294.154 99.519 299.856 100.671 304.964 103.031C309.533 105.143 312.943 109.353 316.373 112.906C323.586 120.38 330.496 128.143 337.798 135.534C348.87 146.727 361.702 158.451 376.921 163.654C381.077 165.076 386.999 166.221 390.505 162.674C392.555 160.597 392.735 157.119 392.155 154.428C391.154 149.798 387.986 145.919 385.204 142.227C381.988 137.963 378.343 134.085 375.078 129.875C371.655 125.459 369.17 120.421 365.898 115.901C364.324 113.728 362.654 111.63 360.894 109.608C359.168 107.634 357.215 105.84 355.724 103.673C354.385 101.72 353.191 99.7536 351.493 98.0768C349.47 96.0824 347.096 94.4884 344.86 92.7563C335.949 85.8487 326.754 79.3551 316.953 73.7518C307.793 68.521 297.778 65.1121 287.148 66.8234C282.317 67.6032 277.388 68.5348 273.081 70.9846C269.036 73.2894 265.357 76.7605 262.065 80.0107C258.199 83.8337 254.631 87.8982 250.655 91.6108C246.514 95.4683 242.51 99.519 238.265 103.252C236.436 104.86 233.351 107.655 230.7 107.144C228.968 106.806 227.29 105.888 225.613 105.322C223.211 104.501 220.823 103.625 218.531 102.514C216.778 101.658 212.947 100.009 212.899 97.6213C212.864 95.9375 215.032 95.144 216.219 94.516C218.938 93.0875 221.748 91.8316 224.543 90.5619C235.442 85.6003 246.424 79.6381 258.393 77.768C264.191 76.864 270.058 76.2015 275.925 76.2774C278.865 76.3188 281.799 76.4775 284.739 76.5948C287.714 76.7053 290.386 77.1883 293.291 77.6783C296.039 78.1406 298.827 77.9888 301.581 78.5339C304.819 79.1757 308.014 80.0107 311.141 81.0665C316.125 82.7434 320.701 85.5382 325.767 86.9252C328.556 87.6843 331.103 88.9609 333.836 89.8856C336.466 90.7689 339.124 91.5487 341.567 92.9012C346.551 95.6684 351.659 98.1803 356.677 100.885C358.333 101.782 360.742 103.763 362.564 101.948C361.853 102.176 361.149 102.41 360.438 102.638C361.136 102.7 362.537 104.218 363.234 104.777C364.649 105.909 366.029 107.096 367.403 108.269C370.33 110.76 373.222 113.293 376.197 115.722C379.676 118.565 383.458 120.897 387.392 123.064C391.782 125.479 396.331 127.798 401.425 128.136C410.302 128.723 421.104 129.02 429.007 124.175C432.383 122.105 432.755 118.82 430.864 115.425C428.441 111.064 424.01 108.69 420.393 105.495C418.405 103.735 416.666 101.679 414.74 99.8433C412.766 97.9663 410.695 96.1721 408.755 94.2607C406.823 92.3561 405.028 90.3066 403.165 88.333C401.128 86.1799 398.878 84.3098 396.738 82.2672C389.07 74.9525 383.81 65.5054 375.23 59.0532C373.305 57.6041 371.241 56.2516 368.97 55.4235C366.471 54.5126 363.821 54.1399 361.253 53.5051C355.427 52.0628 349.464 50.8 343.831 48.716C338.489 46.7286 333.346 44.2443 328.087 42.0499C322.675 39.7865 317.222 37.6335 311.811 35.3769C306.268 33.0652 300.891 30.2704 295.21 28.3175C292.67 27.4411 290.006 26.7372 287.59 25.5365C285.402 24.4462 283.497 23.3076 281.095 22.7348C279.562 22.3691 278.113 22.0172 276.684 21.3547C275.739 20.9199 274.89 20.5059 273.861 20.3127C271.293 19.8365 268.588 20.1402 265.992 20.085C260.574 19.9676 255.176 19.7744 249.765 20.292C243.904 20.8509 238.079 21.9965 232.253 22.8038C226.566 23.5905 220.871 24.391 215.246 25.5503C209.33 26.7717 203.518 28.2554 197.52 29.0697C191.598 29.8702 185.655 30.0841 179.691 30.3808C173.852 30.6706 168.185 30.298 162.387 29.6079C159.612 29.2767 156.989 28.8696 154.269 28.2554C151.432 27.6136 148.437 27.8483 145.552 27.7723C134.301 27.4825 123.098 26.9167 111.888 25.8747C95.5433 24.3634 79.6056 21.196 63.6471 17.442C56.8344 15.841 50.1114 14.0537 43.1676 13.1566C36.6379 12.3217 30.0875 11.6868 23.5508 10.9484C16.179 10.1203 8.80721 9.21634 1.49753 7.93281C-4.53521 6.877 -10.7819 5.70388 -16.4212 3.21273C-18.1951 2.42605 -19.9553 1.48755 -21.3289 0.100508C-21.7499 -0.320435 -24.007 0.693968 -23.6412 1.05971L-23.6481 1.0459Z" fill="#CBA794" fill-opacity="0.8"/>
<path d="M1460.34 903.316C1459 904.493 1457.4 904.144 1455.69 904.098C1453.8 904.045 1451.91 903.992 1450.02 903.946C1445.95 903.855 1441.87 903.794 1437.79 903.772C1429.97 903.726 1422.15 903.794 1414.33 903.984C1398.91 904.357 1383.64 904.881 1368.31 902.708C1360.65 901.621 1353.06 899.767 1345.42 898.491C1337.86 897.23 1330.4 896.212 1323.03 894.137C1316.07 892.177 1308.84 891.6 1301.74 890.315C1294.71 889.039 1288.1 887.071 1281.55 884.214C1268.09 878.349 1254.16 873.478 1239.88 870.082C1232.95 868.433 1225.93 867.141 1218.86 866.275C1211.83 865.417 1204.22 864.383 1197.18 865.417C1182.2 867.612 1167.14 869.535 1152.4 873.091C1149.14 873.881 1145.79 874.656 1142.6 875.735C1139.4 876.821 1136.46 879.344 1133.59 881.137C1130.58 883.014 1127.51 884.814 1124.27 886.266C1120.77 887.831 1117.07 888.948 1113.48 890.277C1106.51 892.853 1099.59 895.839 1092.44 897.883C1085.39 899.897 1078.21 901.553 1071.33 904.121C1065.85 906.165 1060.05 910.017 1057.7 915.655C1055.44 921.095 1062.69 924.75 1066.41 927.044C1090.69 942.005 1120.57 934.696 1144.28 922.448C1148.99 920.016 1153.66 917.304 1157.03 913.102C1158.35 911.461 1160.6 908.384 1160.59 906.15C1160.57 904.22 1158.09 902.237 1156.61 901.371C1152.51 898.985 1147.59 899.646 1144.42 903.179C1140.95 907.046 1140.61 912.669 1141.01 917.6C1141.2 919.993 1141.42 922.432 1142.31 924.681C1143.42 927.439 1145.55 929.666 1147.5 931.846C1152.48 937.416 1157.46 942.985 1162.6 948.402C1167.61 953.675 1172.97 958.561 1177.38 964.358C1179.51 967.162 1181.48 970.072 1183.55 972.921C1184.41 974.107 1185.78 974.669 1186.64 975.763C1187.39 976.713 1187.73 978.05 1188.49 979.053C1189.22 980.018 1190.21 980.808 1190.81 981.857C1191.52 983.095 1191.7 984.607 1192.34 985.884C1193.06 987.335 1194.39 988.254 1195.21 989.645C1196.24 991.407 1197.03 993.406 1197.89 995.26C1201.05 1001.98 1204.02 1008.85 1205.84 1016.09C1206.71 1019.57 1207.33 1023.12 1207.52 1026.71C1207.73 1030.58 1207.63 1033.8 1204.54 1036.51C1199.53 1040.89 1192.53 1043.64 1186.39 1046.02C1160.34 1056.1 1134.1 1065.74 1108.22 1076.29C1101.36 1079.08 1094.52 1081.95 1087.71 1084.88C1082.57 1087.1 1074.6 1090.49 1069.46 1086.31C1065.82 1083.37 1064.68 1078.1 1067.3 1074.21C1069.81 1070.48 1074.2 1068.11 1078.15 1066.23C1082.78 1064.04 1087.65 1062.45 1092.32 1060.35C1098.87 1057.41 1105.19 1053.99 1111.64 1050.83C1117.65 1047.88 1123.71 1045.63 1130.02 1043.45C1134.28 1041.96 1139.05 1039.12 1140.64 1034.66C1141.5 1032.24 1141.2 1030.09 1140.36 1027.73C1139.92 1026.5 1139.4 1025.28 1138.59 1024.24C1137.56 1022.92 1136.01 1022.01 1134.8 1020.85C1130.26 1016.5 1127.35 1010.9 1124.88 1005.21C1123.69 1002.45 1122.17 999.598 1121.86 996.642C1121.52 993.375 1119.41 990.009 1118.15 987C1115.07 979.577 1112.14 972.078 1109.58 964.457C1108.49 961.213 1107.77 957.71 1106.28 954.625C1104.9 951.768 1102.99 949.231 1101.08 946.723C1099.22 944.284 1097.64 941.769 1096.01 939.178C1094.67 937.051 1092.46 935.387 1090.05 934.658C1084.68 933.032 1080.14 937.606 1075.83 940.105C1069.66 943.692 1061.74 942.856 1054.84 942.932C1040.36 943.091 1025.67 942.917 1011.73 947.415C1006.63 949.063 1001.33 951.077 997.077 954.428C993.871 956.95 989.35 962.193 990.938 966.638C992.655 971.44 999.759 971.592 1003.84 971.979C1011.41 972.709 1019 973.081 1026.6 973.522C1042.51 974.456 1058.16 977.07 1074 978.726C1081.25 979.486 1088.51 980.071 1095.79 980.451C1100.89 980.717 1107.61 981.712 1111.34 977.191C1112.3 976.021 1114.3 974.015 1113.82 972.336C1113.27 970.422 1109.87 969.175 1108.17 968.666C1105.19 967.77 1101.89 967.99 1098.82 967.96C1095.2 967.929 1091.57 967.983 1087.95 968.074C1072.63 968.438 1057.25 969.297 1042.05 966.797C1038.36 966.189 1034.74 965.103 1031.02 964.731C1027.3 964.358 1023.53 964.419 1019.8 964.411C1013.08 964.411 1006.62 966.805 1000.47 969.312C995.01 971.538 989.623 973.841 984.229 976.188C981.987 977.161 980.43 978.21 978.925 980.185C977.231 982.404 975.992 985.169 976 988.003C976.053 998.147 988.94 1001.89 996.781 1003.76C1002.3 1005.09 1007.9 1005.92 1013.45 1007.1C1021.16 1008.75 1029.38 1009.19 1037.22 1009.86C1052.29 1011.14 1067.37 1011.63 1082.48 1010.75C1096.66 1009.93 1110.87 1008.46 1124.51 1004.32C1125.19 1004.12 1125.35 1003.17 1125.04 1002.61C1124.32 1001.32 1122.16 999.712 1121.02 1001.6C1119.73 1003.75 1122.7 1004.59 1124.2 1004.39C1125.29 1004.25 1125.42 1003.06 1124.85 1002.3C1124.09 1001.3 1123.3 1000.37 1122.27 999.636C1120.8 998.595 1119.03 998.511 1117.29 998.109C1113.42 997.22 1109.47 995.807 1105.51 995.427C1101.44 995.032 1097.27 995.138 1093.19 995.001C1088.83 994.849 1084.48 994.568 1080.13 994.363C1062.81 993.535 1045.39 993.596 1028.17 995.769C1015.97 997.311 997.434 998.739 994.904 1014.09C994 1019.58 996.013 1025.55 1001.64 1027.44C1009.52 1030.1 1017.92 1031.63 1026.12 1032.92C1042.77 1035.53 1059.82 1036.93 1076.67 1037.16C1093.96 1037.39 1111.24 1036.56 1128.52 1036.75C1146.07 1036.94 1163.5 1038.37 1180.9 1040.48C1185.2 1041 1189.51 1041.51 1193.83 1041.89C1197.5 1042.21 1201.53 1042.85 1205.18 1042.17C1206.63 1041.9 1208.42 1041.62 1209.68 1040.85C1210.86 1040.13 1211.4 1038.78 1212.48 1037.97C1213.67 1037.08 1215.35 1037.16 1216.75 1036.81C1218.67 1036.32 1220.44 1035.1 1222.14 1034.13C1225.54 1032.19 1228.88 1030.12 1232.41 1028.42C1235.96 1026.72 1239.77 1025.56 1243.52 1024.38C1251.09 1021.97 1258.78 1019.88 1265.87 1016.22C1269.39 1014.41 1272.69 1012.2 1276.23 1010.41C1279.66 1008.67 1283.17 1007.1 1286.56 1005.3C1293.02 1001.9 1298.59 997.41 1303.2 991.734C1305.43 988.999 1307.25 986.028 1308.57 982.761C1309.15 981.34 1306.74 980.003 1306.08 981.606C1303.35 988.338 1297.94 994.226 1292.18 998.534C1286.48 1002.8 1279.75 1005.36 1273.49 1008.65C1270.1 1010.43 1266.91 1012.58 1263.47 1014.27C1260.15 1015.9 1256.69 1017.23 1253.19 1018.4C1246.41 1020.68 1239.29 1022.31 1232.71 1025.18C1229.46 1026.6 1226.38 1028.42 1223.31 1030.2C1221.64 1031.18 1219.97 1032.16 1218.26 1033.07C1216.56 1033.99 1215.04 1034.27 1213.18 1034.69C1212.16 1034.91 1211.28 1035.24 1210.49 1035.93C1209.46 1036.84 1208.91 1038.09 1207.63 1038.67C1203.85 1040.38 1199.25 1039.69 1195.28 1039.36C1179.56 1038.09 1163.99 1035.67 1148.23 1034.76C1115.95 1032.91 1083.6 1036.11 1051.36 1033.09C1035.48 1031.6 1019.72 1029.91 1004.31 1025.57C1000.28 1024.44 997.875 1022.71 997.373 1018.35C997.009 1015.21 997.951 1012.11 999.66 1009.49C1003.59 1003.47 1009.87 1001.61 1016.55 1000.36C1032.47 997.372 1048.68 996.407 1064.85 996.566C1073.06 996.65 1081.24 997.129 1089.44 997.524C1093.29 997.706 1097.16 997.797 1101.01 997.926C1105.11 998.071 1108.85 998.679 1112.83 999.674C1114.74 1000.15 1116.64 1000.63 1118.55 1001.04C1120.63 1001.48 1121.72 1002.14 1122.96 1003.8C1123.17 1003.1 1123.39 1002.4 1123.61 1001.7C1122.66 1001.63 1122.38 1002.22 1122.76 1003.48C1122.94 1002.91 1123.12 1002.34 1123.3 1001.77C1109.57 1005.93 1095.27 1007.31 1081 1008.12C1066.11 1008.95 1051.21 1008.43 1036.34 1007.13C1029.06 1006.49 1021.67 1005.86 1014.47 1004.6C1011.54 1004.08 1008.71 1003.12 1005.72 1002.8C1003.34 1002.56 1001.01 1002.06 998.665 1001.54C990.649 999.742 972.991 994.834 980.301 983.141C981.82 980.709 983.484 979.562 986.022 978.483C988.218 977.548 990.406 976.637 992.556 975.611C998.521 972.777 1005.07 970.125 1011.44 968.385C1025.58 964.51 1039.81 969.829 1053.96 970.801C1067.89 971.759 1081.83 970.718 1095.78 970.634C1099.16 970.611 1102.72 970.406 1106.07 970.855C1107.66 971.067 1109.11 971.607 1110.47 972.443C1110.22 972.291 1111.32 972.959 1111.35 973.028C1111.03 972.329 1110.33 973.674 1110.06 974.046C1106.24 979.395 1099.57 978.012 1093.78 977.685C1079.06 976.857 1064.4 975.132 1049.81 972.982C1035.23 970.839 1020.45 970.801 1005.78 969.502C1002.67 969.229 999.326 969.191 996.355 968.157C995.2 967.755 993.658 967.23 993.286 965.908C992.906 964.541 993.947 962.58 994.585 961.456C997.077 957.026 1001.76 954.352 1006.29 952.414C1019.04 946.951 1032.73 945.872 1046.44 945.682C1053.34 945.584 1060.25 945.637 1067.15 945.264C1069.99 945.112 1072.59 944.839 1075.18 943.616C1077.72 942.43 1079.98 940.759 1082.35 939.285C1084.81 937.758 1087.33 936.246 1090.27 937.4C1093.49 938.669 1094.61 941.883 1096.45 944.535C1098.03 946.822 1099.83 948.957 1101.44 951.229C1103.61 954.314 1104.75 957.512 1105.89 961.068C1108.11 968.066 1110.67 974.958 1113.39 981.773C1114.66 984.964 1115.97 988.133 1117.3 991.301C1117.9 992.722 1118.9 994.371 1119.22 995.89C1119.52 997.311 1119.43 998.458 1120 999.864C1122.12 1005.12 1124.27 1010.45 1127.28 1015.27C1128.68 1017.5 1130.26 1019.62 1132.09 1021.52C1133.09 1022.57 1134.16 1023.52 1135.25 1024.47C1136.96 1025.95 1137.85 1027.46 1138.41 1029.67C1139.8 1035.22 1133.72 1039.02 1129.35 1040.67C1126.68 1041.68 1123.9 1042.37 1121.22 1043.42C1118.08 1044.65 1115.01 1046.06 1111.97 1047.52C1105.87 1050.46 1099.91 1053.67 1093.78 1056.55C1089.08 1058.77 1084.2 1060.49 1079.44 1062.54C1073.19 1065.23 1064.12 1069.52 1063.26 1077.24C1062.81 1081.25 1065.03 1085.86 1068.13 1088.35C1071.75 1091.26 1076.93 1091.14 1081.24 1090.21C1084.26 1089.56 1086.98 1088.25 1089.8 1087.04C1093.15 1085.6 1096.49 1084.18 1099.84 1082.77C1106.12 1080.14 1112.42 1077.58 1118.74 1075.06C1130.46 1070.4 1142.25 1065.89 1154.01 1061.35C1160.66 1058.79 1167.31 1056.22 1173.94 1053.61C1180.07 1051.2 1186.36 1049.23 1192.39 1046.58C1195.23 1045.35 1197.98 1043.96 1200.66 1042.41C1203.1 1040.99 1205.63 1039.62 1207.55 1037.52C1211.55 1033.13 1210.33 1026.27 1209.43 1020.9C1208.37 1014.53 1206.27 1008.37 1203.8 1002.43C1202.55 999.446 1201.21 996.498 1199.82 993.573C1199.06 991.97 1198.33 990.344 1197.52 988.763C1196.78 987.297 1195.48 986.408 1194.65 985.002C1193.92 983.764 1193.77 982.252 1193.12 980.975C1192.65 980.048 1191.94 979.349 1191.26 978.574C1190.2 977.366 1189.79 976.059 1188.97 974.745C1188.09 973.362 1186.43 972.739 1185.46 971.402C1181.63 966.159 1178.15 960.582 1173.48 956.031C1168.47 951.145 1163.69 946.039 1158.91 940.926C1156.67 938.533 1154.63 935.972 1152.4 933.571C1150.05 931.049 1147.37 928.511 1145.51 925.593C1143.98 923.185 1143.76 920.183 1143.57 917.402C1143.4 914.652 1143.45 911.818 1144.27 909.166C1145.83 904.106 1151.18 900.573 1156.09 903.916C1157.22 904.683 1158.11 905.405 1157.57 906.742C1157.07 907.981 1156.42 909.143 1155.67 910.237C1154.02 912.631 1151.81 914.561 1149.43 916.21C1144.08 919.91 1137.84 922.675 1131.85 925.175C1119.25 930.425 1105.57 933.7 1091.84 932.538C1085.36 931.983 1079.04 930.539 1073.12 927.819C1070.28 926.52 1067.58 924.97 1065.02 923.192C1063.75 922.311 1062.49 921.399 1061.31 920.396C1059.45 918.816 1059.74 917.509 1060.93 915.632C1064.67 909.774 1070.45 907.236 1076.83 905.185C1083.87 902.921 1091.15 901.454 1098.11 898.977C1104.51 896.698 1110.84 894.213 1117.23 891.888C1123.38 889.654 1129.09 887.238 1134.67 883.796C1137.45 882.079 1140.19 879.853 1143.18 878.546C1146.69 877.004 1150.81 876.289 1154.53 875.408C1161.59 873.737 1168.72 872.452 1175.89 871.313C1182.87 870.203 1189.88 869.238 1196.87 868.22C1204.09 867.164 1211.58 868.023 1218.8 868.912C1232.56 870.599 1246.1 873.873 1259.22 878.28C1265.84 880.506 1272.37 883.014 1278.8 885.757C1284.94 888.378 1290.9 890.711 1297.45 892.116C1303.92 893.507 1310.49 894.236 1317 895.345C1320.19 895.892 1323.27 896.888 1326.38 897.746C1330.08 898.764 1333.82 899.281 1337.61 899.874C1351.8 902.108 1365.86 905.58 1380.2 906.613C1394.6 907.647 1408.99 906.697 1423.4 906.507C1430.28 906.416 1437.16 906.416 1444.03 906.507C1447.49 906.552 1450.95 906.628 1454.41 906.72C1456.18 906.765 1458.38 907.206 1460.11 906.894C1461.13 906.712 1461.4 906.18 1462.15 905.527C1463.33 904.478 1461.55 902.26 1460.36 903.308L1460.34 903.316Z" fill="#CBA794" fill-opacity="0.8"/>
<path d="M1297.21 997.957C1308.3 996.08 1309.22 981.781 1309.71 972.891C1309.95 968.438 1309.91 963.971 1310.21 959.526C1310.49 955.499 1311.48 951.791 1312.99 948.06C1314.42 944.512 1316.13 941.04 1317.14 937.34C1317.8 934.931 1317.98 932.37 1317.74 929.886C1317.49 927.166 1316.7 924.347 1315 922.159C1313.09 919.697 1310.01 918.337 1306.99 917.858C1306.99 917.858 1306.55 917.775 1306.54 917.881C1305.47 925.403 1304.8 932.986 1304.58 940.584C1304.46 944.322 1304.46 948.06 1304.55 951.799C1304.64 955.62 1305.26 959.435 1305.5 963.249C1305.98 970.877 1306.02 978.536 1306.61 986.157C1306.67 986.924 1306.58 987.859 1306.94 988.543C1307.24 989.105 1307.68 989.629 1308.11 990.093C1308.95 990.989 1309.93 991.711 1311 992.296C1313.31 993.55 1315.89 994.264 1318.47 994.682C1321.04 995.092 1323.64 995.259 1326.2 995.7C1329.8 996.316 1333.4 996.931 1337 997.546C1344.14 998.77 1351.27 1000 1358.41 1001.29C1372.45 1003.85 1386.45 1006.63 1400.3 1010.09C1414.06 1013.53 1427.68 1017.61 1440.93 1022.71C1442.57 1023.34 1444.21 1024 1445.84 1024.66C1446.14 1024.78 1447.26 1025.32 1447.55 1025.09C1447.79 1024.89 1446.82 1024.5 1446.72 1024.46C1433.69 1019.16 1420.3 1014.82 1406.72 1011.17C1393.23 1007.55 1379.57 1004.61 1365.86 1001.99C1351.91 999.324 1337.91 996.946 1323.91 994.598C1319.42 993.846 1313.74 994.424 1310.5 990.64C1310.05 990.116 1309.56 989.531 1309.42 988.839C1309.26 987.935 1309.27 986.94 1309.2 986.02C1309.08 984.144 1308.98 982.267 1308.89 980.382C1308.72 976.629 1308.6 972.876 1308.44 969.122C1308.27 965.361 1308.05 961.6 1307.66 957.854C1307.46 955.97 1307.26 954.124 1307.21 952.232C1307.18 950.363 1307.16 948.494 1307.17 946.624C1307.21 939.209 1307.65 931.801 1308.51 924.438C1308.72 922.584 1308.96 920.73 1309.22 918.876C1309.07 918.884 1308.92 918.892 1308.76 918.899C1310.88 919.233 1312.4 921.103 1313.37 922.896C1314.54 925.069 1315.04 927.561 1315.14 930.015C1315.4 936.268 1312.45 941.754 1310.19 947.407C1308.79 950.917 1307.84 954.428 1307.56 958.204C1307.26 962.406 1307.27 966.622 1307.08 970.832C1306.86 975.824 1306.52 980.922 1305.13 985.747C1303.61 991.035 1300.47 995.936 1294.68 996.923C1294.37 996.977 1295.46 997.531 1295.5 997.554C1295.98 997.759 1296.68 998.078 1297.21 997.987V997.957Z" fill="#CBA794" fill-opacity="0.8"/>
<path d="M1142.81 924.111C1149.74 931.785 1159.23 935.866 1169.18 938.023C1174.17 939.11 1179.24 939.771 1184.31 940.409C1189.85 941.108 1195.39 942.043 1200.96 942.483C1207.48 943.008 1214.04 942.939 1220.58 943.152C1227.1 943.365 1233.62 943.95 1240.15 943.616C1243.45 943.441 1246.7 942.734 1250 942.651C1253.22 942.567 1256.44 942.879 1259.65 942.909C1265.87 942.977 1272.14 941.587 1278.1 939.893C1279.46 939.505 1280.8 939.011 1282.18 938.684C1283.4 938.396 1284.64 938.221 1285.89 938.039C1288.53 937.651 1291.23 937.286 1293.7 936.2C1296.11 935.144 1297.76 933.313 1299.29 931.238C1300.06 930.19 1300.83 929.126 1301.8 928.26C1302.77 927.401 1303.89 926.756 1304.98 926.056C1306.13 925.319 1307.19 924.499 1308.1 923.466C1308.54 922.956 1307.93 922.493 1307.46 922.364C1306.83 922.197 1306 922.364 1305.56 922.873C1303.82 924.856 1301.25 925.791 1299.34 927.584C1297.54 929.278 1296.41 931.527 1294.63 933.237C1292.85 934.946 1290.46 935.592 1288.09 935.995C1285.54 936.428 1282.93 936.648 1280.43 937.355C1274.77 938.95 1269.02 940.751 1263.11 941.139C1259.97 941.344 1256.82 941.07 1253.69 940.971C1250.52 940.873 1247.49 941.131 1244.37 941.534C1238.02 942.362 1231.61 941.929 1225.23 941.617C1218.86 941.306 1212.49 941.344 1206.12 941.055C1200.39 940.797 1194.76 939.938 1189.08 939.224C1184.13 938.601 1179.16 938.031 1174.24 937.15C1164.67 935.448 1155.21 932.416 1147.91 925.745C1146.95 924.871 1146.04 923.952 1145.18 922.994C1144.47 922.212 1141.83 923.01 1142.82 924.104L1142.81 924.111Z" fill="#CBA794" fill-opacity="0.8"/>
</svg>
