<svg width="114" height="194" viewBox="0 0 114 194" fill="none" xmlns="http://www.w3.org/2000/svg">
<path fill-rule="evenodd" clip-rule="evenodd" d="M29.425 175.638C30.2289 176.026 40.9887 180.022 41.6069 180.411C42.6576 180.744 43.4615 181.687 43.4615 182.743C43.4615 183.297 42.8433 184.574 41.2348 184.574C40.1842 184.574 39.566 184.24 38.9478 184.019C38.3296 183.685 28.3737 177.636 28.3737 177.636V177.803C28.9918 178.358 35.4848 185.517 36.103 186.239C36.5354 186.96 37.1536 187.849 37.1536 188.792C37.1536 190.235 35.4848 190.79 34.6809 190.79C33.5049 190.79 32.4542 190.068 31.8367 188.625C31.4646 187.849 26.9516 179.635 26.5795 178.913H26.3334C26.3334 179.634 28.0022 188.958 28.0022 190.068C28.0022 191.178 27.7561 193.343 25.3438 193.343C22.9314 193.343 22.4989 191.178 22.4989 190.068C22.4989 189.126 24.1074 180.744 24.3535 178.913L24.1074 178.746C23.4892 180.022 19.8404 186.96 18.8502 188.624C18.0462 190.068 16.9956 190.79 16.006 190.79C14.956 190.79 13.5339 190.234 13.5339 188.791C13.5339 187.848 14.1521 186.793 14.5839 186.238C15.3878 185.128 21.5106 179.135 22.3132 177.803L22.0671 177.635C22.0671 177.635 12.1111 183.685 11.4929 184.018C11.1208 184.406 10.3169 184.573 9.51434 184.573C7.65847 184.573 7.03963 183.464 7.03963 182.963C7.03963 181.687 8.0299 180.744 8.89419 180.41C9.51369 180.022 20.2723 176.025 21.0762 175.804V175.47C20.458 175.47 9.88447 176.747 8.89419 176.747C7.47275 176.748 5 176.527 5 174.362C5 171.975 7.47275 171.975 8.89484 171.975C10.0708 171.975 19.8404 173.252 21.0768 173.252L21.2632 173.084C20.2729 172.697 10.0708 168.867 8.89484 168.312C8.02991 167.978 7.04028 167.036 7.04028 165.98C7.04028 164.482 8.03056 163.594 9.26694 163.594C9.69941 163.594 10.0708 163.594 10.5033 163.76C12.915 164.871 21.5106 170.92 22.0671 171.087L22.3132 170.919C21.695 170.365 15.3878 163.594 14.5839 162.484C14.3378 162.15 13.3475 161.041 13.3475 160.153C13.3475 158.654 14.7696 157.932 16.1917 157.932C17.182 157.932 18.0462 158.654 18.8502 160.153C19.6541 161.43 23.921 169.81 23.921 169.81H24.3535C24.3535 169.81 22.4989 159.931 22.4989 158.821C22.4989 157.545 22.9314 155.38 25.3438 155.38C27.7561 155.38 28.0022 157.545 28.0022 158.821C28.0022 159.597 26.5795 168.868 26.3334 169.81H26.7658C27.5697 168.146 31.4646 160.874 31.8367 160.154C32.6406 158.821 33.6912 157.766 34.9276 157.766C35.7315 157.766 37.1543 158.655 37.1543 160.154C37.1543 161.041 36.5361 161.93 36.1036 162.484C35.7322 163.04 28.8061 170.365 28.3743 171.087L28.6204 171.253C28.9925 170.92 37.7725 164.871 39.9985 163.982C40.3699 163.761 40.9887 163.761 41.2348 163.761C42.6569 163.761 43.6472 164.704 43.6472 165.981C43.6472 167.257 42.8433 167.979 41.7927 168.313C40.9888 168.701 30.2282 172.697 29.6107 173.085L29.7964 173.252C30.6613 173.085 40.803 171.976 41.7927 171.976C43.029 171.809 45.6875 171.975 45.6875 174.362C45.6875 176.527 43.029 176.747 41.7927 176.747C40.3699 176.747 31.4646 175.805 29.6107 175.471L29.425 175.638ZM26.5801 174.528C26.5801 174.194 26.1477 173.473 25.3438 173.473C24.5398 173.473 24.1074 174.194 24.1074 174.528C24.1074 175.083 24.5398 175.638 25.3438 175.638C26.1477 175.638 26.5801 175.083 26.5801 174.528Z" fill="#D6D8C9" fill-opacity="0.5"/>
<rect width="113.549" height="157.035" rx="56.7744" fill="#D6D8C9"/>
<path d="M30.1875 170.438V172.188H35.0625V170.438H30.1875ZM30.1875 172.562V174.312H35.0625V172.562H30.1875ZM31.0625 170.062C31.5625 169.229 31.8958 168.521 32.0625 167.938L33.25 168.562C32.875 168.688 32.5625 168.896 32.3125 169.188C32.0208 169.479 31.7292 169.771 31.4375 170.062H34.75L35.3125 169.438L36.3125 170.312L35.875 170.562V173.062C35.875 173.688 35.8958 174.25 35.9375 174.75L35.0625 175.188V174.688H32.9375C33.1042 175.604 33.4375 176.583 33.9375 177.625C34.8958 176.958 35.6458 176.292 36.1875 175.625L36.9375 176.688C36.6042 176.688 36.1667 176.833 35.625 177.125C35.0833 177.417 34.6042 177.688 34.1875 177.938C34.4375 178.479 34.8333 179.021 35.375 179.562C35.9583 180.104 36.5833 180.5 37.25 180.75V181C36.5 180.958 36.0417 181.146 35.875 181.562C35.1667 180.771 34.5625 179.917 34.0625 179C33.5625 178.083 33.1875 177.021 32.9375 175.812V181.062C32.9375 181.604 32.8333 181.958 32.625 182.125C32.4583 182.292 32.1042 182.438 31.5625 182.562C31.5625 182.062 30.9583 181.646 29.75 181.312V181.062C30.75 181.188 31.3958 181.25 31.6875 181.25C31.9792 181.25 32.125 181.062 32.125 180.688V174.688H30.1875V175L29.3125 175.312C29.3542 174.146 29.375 173.125 29.375 172.25C29.375 171.333 29.3542 170.438 29.3125 169.562L30.1875 170.062H31.0625ZM31.9375 177.125C31.5625 177.25 31.25 177.583 31 178.125C30.7083 178.708 30.25 179.375 29.625 180.125C29.0417 180.833 28.1458 181.458 26.9375 182L26.75 181.875C28.7083 180.792 30 179.125 30.625 176.875H30.375C29.8333 176.875 29.3333 176.938 28.875 177.062L28.3125 176.5H30.5625L31.0625 176L31.9375 177.125ZM23.8125 178.25H24.0625C24.0208 179.292 23.9375 180.042 23.8125 180.5C23.7292 180.958 23.5833 181.229 23.375 181.312C23.2083 181.396 23.0625 181.438 22.9375 181.438C22.8125 181.438 22.6875 181.375 22.5625 181.25C22.4792 181.125 22.4375 181.021 22.4375 180.938C22.4375 180.812 22.5417 180.625 22.75 180.375C23.0417 180.083 23.3958 179.375 23.8125 178.25ZM24.9375 178.062L25.1875 178C25.9375 179 26.3125 179.708 26.3125 180.125C26.3125 180.542 26.1458 180.812 25.8125 180.938C25.5208 181.062 25.3542 180.833 25.3125 180.25C25.2708 179.667 25.1458 178.938 24.9375 178.062ZM26.5625 177.688L26.75 177.562C27.5 178.104 27.9375 178.521 28.0625 178.812C28.1875 179.062 28.25 179.271 28.25 179.438C28.25 179.688 28.1667 179.875 28 180C27.875 180.125 27.7708 180.188 27.6875 180.188C27.5625 180.188 27.4583 180.021 27.375 179.688C27.25 179.188 26.9792 178.521 26.5625 177.688ZM26.6875 169.125C26.4375 169.167 26.0625 169.583 25.5625 170.375C25.0208 171.208 24.4583 172 23.875 172.75H26.25C26.5417 172.292 26.8125 171.729 27.0625 171.062L27.9375 172C27.7708 171.958 27.2708 172.5 26.4375 173.625C25.5625 174.792 24.75 175.75 24 176.5L27.0625 176.062C26.9375 175.562 26.75 174.979 26.5 174.312L26.625 174.188C27.625 175.229 28.125 175.979 28.125 176.438C28.1667 176.854 28.1042 177.125 27.9375 177.25C27.7708 177.375 27.6458 177.438 27.5625 177.438C27.4375 177.438 27.375 177.375 27.375 177.25C27.3333 177.042 27.2708 176.771 27.1875 176.438C26.0625 176.688 25.25 176.917 24.75 177.125C24.25 177.292 23.875 177.479 23.625 177.688L22.9375 176.375C23.1458 176.375 23.5625 176.062 24.1875 175.438C24.8125 174.812 25.4167 174.042 26 173.125C25.4583 173.167 25 173.229 24.625 173.312C24.25 173.396 23.8542 173.583 23.4375 173.875L22.875 172.75C23.2083 172.667 23.6667 172.188 24.25 171.312C24.8333 170.438 25.3333 169.417 25.75 168.25L26.6875 169.125ZM45.4525 168.062L47.14 168.812L46.4525 169.312V173.5H50.14L51.0775 172.562L52.39 173.875H46.4525V180.938H51.5775L52.5775 179.938L53.9525 181.312H41.4525C40.9108 181.312 40.4108 181.375 39.9525 181.5L39.39 180.938H45.515V170.438C45.515 169.688 45.4942 168.896 45.4525 168.062ZM57.4675 170.688C58.3425 171.188 58.905 171.521 59.155 171.688L61.2175 169.562H58.5925C58.0508 169.562 57.5508 169.625 57.0925 169.75L56.53 169.188H61.2175L61.78 168.625L62.655 169.812C62.28 169.771 61.8008 169.979 61.2175 170.438C60.6342 170.896 60.03 171.375 59.405 171.875C59.8217 172.208 60.0092 172.5 59.9675 172.75C59.9675 173 59.8842 173.188 59.7175 173.312C59.5925 173.438 59.5092 173.5 59.4675 173.5C59.3425 173.5 59.2175 173.354 59.0925 173.062C58.8842 172.646 58.3008 171.917 57.3425 170.875L57.4675 170.688ZM58.5925 181.75C58.6342 181.292 58.0717 180.875 56.905 180.5V180.188C57.9883 180.396 58.6342 180.479 58.8425 180.438C59.0508 180.396 59.155 180.188 59.155 179.812V174H58.28C57.7383 174 57.2383 174.062 56.78 174.188L56.2175 173.625H61.53L62.03 173L63.155 174.062C62.78 174.062 62.405 174.292 62.03 174.75C61.655 175.167 61.3425 175.562 61.0925 175.938L60.8425 175.875L61.655 174H59.9675V180.25C59.9675 180.583 59.8842 180.854 59.7175 181.062C59.5508 181.312 59.1758 181.542 58.5925 181.75ZM65.405 171.562C65.5717 170.521 65.655 169.833 65.655 169.5H64.5925C64.0508 169.5 63.5508 169.562 63.0925 169.688L62.53 169.125H68.7175L69.53 168.375L70.5925 169.5H65.9675L66.905 169.938C66.53 170.104 66.1342 170.646 65.7175 171.562H68.7175L69.2175 170.938L70.2175 171.75L69.655 172.062C69.655 175.521 69.6758 177.708 69.7175 178.625L68.8425 179.188V178.562H64.405V178.812L63.53 179.25C63.5717 178.292 63.5925 177.042 63.5925 175.5C63.5925 173.958 63.5717 172.479 63.53 171.062L64.405 171.562H65.405ZM64.405 171.938V173.75H68.8425V171.938H64.405ZM64.405 174.125V175.938H68.8425V174.125H64.405ZM64.405 176.312V178.188H68.8425V176.312H64.405ZM66.2175 179.875C65.9258 179.875 65.4883 180.146 64.905 180.688C64.3217 181.229 63.3842 181.833 62.0925 182.5L61.9675 182.312C62.9258 181.646 63.655 181 64.155 180.375C64.6967 179.75 65.03 179.25 65.155 178.875L66.2175 179.875ZM67.2175 179.25L67.405 179.125C68.905 180.042 69.7383 180.625 69.905 180.875C70.1133 181.125 70.2175 181.354 70.2175 181.562C70.2175 181.729 70.155 181.917 70.03 182.125C69.905 182.333 69.8008 182.438 69.7175 182.438C69.5925 182.438 69.4467 182.25 69.28 181.875C68.9883 181.25 68.3008 180.375 67.2175 179.25ZM81.295 167.875L82.4825 168.5C82.1492 168.583 81.8575 168.812 81.6075 169.188H85.045L85.7325 168.562L86.7325 169.562H82.4825C82.9825 169.812 83.295 170 83.42 170.125C83.5867 170.25 83.67 170.375 83.67 170.5C83.67 170.667 83.6075 170.833 83.4825 171C83.3575 171.125 83.2742 171.188 83.2325 171.188C83.1492 171.188 83.0867 171.104 83.045 170.938C82.9617 170.646 82.67 170.188 82.17 169.562H81.42C80.92 170.188 80.2325 170.833 79.3575 171.5L79.17 171.375C79.795 170.75 80.295 170.104 80.67 169.438C81.045 168.729 81.2533 168.208 81.295 167.875ZM84.295 171.688V173.438H85.295V171.688H84.295ZM86.045 171.875C86.045 172.958 86.0658 173.646 86.1075 173.938L85.295 174.375V173.812H80.92V174L80.1075 174.375V170.938L81.045 171.312H85.17L85.6075 170.75L86.6075 171.562L86.045 171.875ZM80.92 171.688V173.438H81.8575V171.688H80.92ZM82.545 171.688V173.438H83.6075V171.688H82.545ZM73.795 168.25L74.7325 168.75H77.8575L78.4825 168.125L79.42 169.125H76.9825V170.375H77.92L78.42 169.875L79.2325 170.625L78.7325 170.938C78.7325 171.438 78.7533 171.854 78.795 172.188L77.9825 172.625V172.25H76.9825V173.438H78.045L78.7325 172.812L79.67 173.812H74.67L74.295 174.25L73.42 173.562L73.8575 173.25C73.8575 170.417 73.8367 168.75 73.795 168.25ZM74.6075 169.125V170.375H76.2325V169.125H74.6075ZM74.6075 172.25V173.438H76.2325V172.25H74.6075ZM74.6075 170.75V171.875H77.9825V170.75H74.6075ZM80.7325 181.5V179.125H81.545V181.062C81.545 181.354 81.8158 181.5 82.3575 181.5H84.92C85.42 181.542 85.6908 180.875 85.7325 179.5H86.045C86.045 180.333 86.0867 180.833 86.17 181C86.2533 181.208 86.4617 181.333 86.795 181.375C86.5033 181.958 86.0867 182.25 85.545 182.25H81.8575C81.1075 182.25 80.7325 182 80.7325 181.5ZM76.7325 177.75V178.75H83.045V177.75H76.7325ZM76.7325 176.438V177.375H83.045V176.438H76.7325ZM76.7325 175.125V176.062H83.045V175.125H76.7325ZM83.8575 175.375C83.8575 177.25 83.8783 178.521 83.92 179.188L83.045 179.688V179.125H76.7325V179.375L75.8575 179.875C75.8992 179.208 75.92 178.333 75.92 177.25C75.92 176.125 75.8992 175.125 75.8575 174.25L76.92 174.75H82.92L83.42 174.125L84.42 174.938L83.8575 175.375ZM78.9825 179.125C78.8575 180.042 78.5658 180.708 78.1075 181.125C77.6492 181.583 76.9825 181.917 76.1075 182.125C75.2742 182.375 74.2325 182.562 72.9825 182.688L72.92 182.438C74.2117 182.229 75.1908 181.979 75.8575 181.688C76.5658 181.438 77.0867 181.104 77.42 180.688C77.795 180.271 78.0242 179.75 78.1075 179.125H78.9825Z" fill="#4D5139"/>
<path d="M28.1417 91.9284V92.4284H28.6417H49.7473V94.5149H26.0552V21.4385H62.5934H65.4728L86.7856 42.7512V57.4767H84.699V45.6306V45.1306H84.199H63.0934V24.025V23.525H62.5934H28.6417H28.1417V24.025V91.9284ZM73.1168 82.3334L72.8008 82.0174L72.4515 82.296C70.1598 84.1237 67.2965 85.2554 64.1367 85.2554C56.7272 85.2554 50.7473 79.2844 50.7473 71.8661C50.7473 64.4565 56.7183 58.4767 64.1367 58.4767C71.5462 58.4767 77.526 64.4477 77.526 71.8661C77.526 75.0308 76.3908 77.897 74.555 80.1924L74.2756 80.5418L74.592 80.8582L82.4575 88.7238L80.9823 90.1989L73.1168 82.3334ZM75.4395 71.8661C75.4395 65.6051 70.3976 60.5632 64.1367 60.5632C57.8758 60.5632 52.8339 65.6051 52.8339 71.8661C52.8339 78.127 57.8758 83.1689 64.1367 83.1689C70.3976 83.1689 75.4395 78.127 75.4395 71.8661Z" fill="#FFFCF5" stroke="#D6D8C9"/>
<path d="M64.646 23L75.146 33.5L84.646 43.6H64.646V23Z" fill="#D6D8C9"/>
<path d="M26.318 108.264C30.19 110.328 29.23 113.048 28.062 112.072C27.902 110.888 26.942 109.336 26.126 108.376L26.318 108.264ZM24.302 116.664H36.606L37.454 115.608C37.454 115.608 38.43 116.344 39.038 116.888C38.99 117.064 38.83 117.144 38.606 117.144H24.446L24.302 116.664ZM25.31 112.984H35.774L36.606 111.96C36.606 111.96 37.518 112.664 38.078 113.176C38.046 113.352 37.886 113.432 37.662 113.432H25.454L25.31 112.984ZM31.07 107.608L32.718 107.784C32.67 108.008 32.542 108.168 32.142 108.232V121.832C32.142 121.992 31.678 122.28 31.278 122.28H31.07V107.608ZM35.774 108.088L37.422 108.808C37.342 108.968 37.134 109.096 36.798 109.064C35.934 110.344 34.862 111.624 33.87 112.456L33.646 112.28C34.334 111.272 35.182 109.64 35.774 108.088ZM45.486 121.816C45.486 121.912 45.134 122.184 44.638 122.184H44.462V116.984L44.526 116.888L45.694 117.384H45.486V121.816ZM51.87 117.384V117.848H44.974V117.384H51.87ZM51.502 111.752V112.232H45.774L46.062 111.752H51.502ZM51.07 117.384L51.646 116.744L52.926 117.736C52.83 117.848 52.574 117.96 52.27 118.024V121.816C52.254 121.912 51.726 122.152 51.39 122.152H51.23V117.384H51.07ZM51.886 120.728V121.208H44.862V120.728H51.886ZM50.766 111.752L51.614 111.048L52.83 112.248C52.67 112.36 52.446 112.392 51.982 112.392C49.886 115.096 45.406 117.384 41.054 118.408L40.926 118.152C45.054 116.92 49.342 114.376 50.99 111.752H50.766ZM47.806 110.952C47.71 111.112 47.486 111.208 47.15 111.128C45.742 113.144 43.822 114.616 41.95 115.432L41.774 115.192C43.39 114.2 45.182 112.344 46.35 110.152L47.806 110.952ZM45.822 112.04C47.534 114.776 51.582 116.248 55.79 116.792L55.758 116.968C55.294 117.048 54.942 117.384 54.814 117.912C50.702 117.08 47.246 115.368 45.566 112.232L45.822 112.04ZM47.15 107.528C50.174 107.96 49.358 110.168 48.254 109.464C48.126 108.824 47.55 108.056 46.99 107.672L47.15 107.528ZM53.63 109.688L54.302 109L55.534 110.2C55.406 110.296 55.23 110.328 54.926 110.344C54.558 110.936 53.918 111.768 53.406 112.264L53.198 112.152C53.406 111.48 53.694 110.328 53.806 109.688H53.63ZM42.942 108.952C43.454 110.696 42.894 111.784 42.27 112.216C41.87 112.504 41.31 112.52 41.134 112.152C40.99 111.816 41.198 111.512 41.518 111.304C42.158 110.968 42.734 110.008 42.654 108.952H42.942ZM54.318 109.688V110.168H42.702V109.688H54.318ZM63.006 118.056V119.096H61.982V118.472L63.006 118.056ZM61.55 121.16C62.35 121 64.19 120.536 66.014 120.024L66.094 120.264C65.262 120.648 63.694 121.416 62.062 122.104L61.55 121.16ZM62.766 118.632L63.006 118.776V121.048L61.966 121.464L62.27 121.064C62.558 121.688 62.238 122.136 62.014 122.28L61.31 121.224C61.886 120.872 61.982 120.744 61.982 120.52V118.632H62.766ZM70.91 117.896C70.798 118.04 70.67 118.104 70.334 118.008C69.566 118.472 68.158 119.032 66.99 119.352L66.798 119.128C67.774 118.6 68.99 117.704 69.598 117.112L70.91 117.896ZM65.07 116.504C66.206 119.112 68.91 120.472 72.254 121.048L72.222 121.208C71.774 121.288 71.454 121.624 71.31 122.168C68.078 121.288 65.854 119.656 64.798 116.648L65.07 116.504ZM65.342 116.76C63.678 118.504 60.958 119.688 57.886 120.344L57.758 120.072C60.334 119.272 62.638 118.008 64.014 116.504H65.342V116.76ZM63.966 115.096C66.302 115.144 65.742 116.968 64.766 116.472C64.654 116.008 64.222 115.496 63.806 115.224L63.966 115.096ZM70.67 115.512C70.67 115.512 71.486 116.136 72.03 116.616C71.982 116.792 71.822 116.872 71.598 116.872H58.03L57.886 116.392H69.95L70.67 115.512ZM64.782 112.248L65.278 111.64L66.574 112.6C66.478 112.712 66.206 112.84 65.886 112.904V113.768C65.886 114.44 65.742 114.824 64.67 114.904C64.638 114.728 64.59 114.52 64.478 114.392C64.334 114.296 64.11 114.2 63.678 114.136V113.88C63.678 113.88 64.446 113.96 64.702 113.96C64.894 113.96 64.942 113.864 64.942 113.688V112.248H64.782ZM61.134 108.088C61.07 108.264 60.894 108.408 60.558 108.392C60.158 109.32 59.55 110.136 58.894 110.664L58.638 110.504C59.086 109.8 59.454 108.744 59.646 107.656L61.134 108.088ZM64.974 108.232C64.974 108.232 65.726 108.792 66.222 109.272C66.174 109.448 66.03 109.528 65.806 109.528H59.422L59.646 109.048H64.318L64.974 108.232ZM60.078 114.76C60.078 114.856 59.662 115.048 59.278 115.048H59.134V111.784L60.158 112.248H65.662V112.712H60.078V114.76ZM71.63 107.88C71.582 108.104 71.422 108.232 71.07 108.28V114.136C71.07 114.936 70.894 115.4 69.534 115.528C69.502 115.256 69.422 115.016 69.23 114.856C69.022 114.728 68.67 114.6 68.03 114.52V114.28C68.03 114.28 69.438 114.392 69.742 114.392C69.998 114.392 70.078 114.296 70.078 114.088V107.704L71.63 107.88ZM65.678 109.896C65.678 109.896 66.43 110.488 66.91 110.92C66.862 111.096 66.718 111.176 66.494 111.176H58.222L58.094 110.712H65.006L65.678 109.896ZM63.518 107.768C63.486 107.992 63.342 108.136 62.942 108.184V115.336C62.942 115.48 62.542 115.688 62.174 115.688H61.982V107.592L63.518 107.768ZM68.974 108.328C68.942 108.536 68.782 108.68 68.398 108.744V113.256C68.398 113.368 67.982 113.576 67.614 113.576H67.438V108.152L68.974 108.328ZM79.998 108.2C79.934 108.36 79.742 108.504 79.374 108.472C78.126 111.624 76.318 114.408 74.334 116.2L74.11 116.024C75.678 114.04 77.326 110.84 78.286 107.608L79.998 108.2ZM78.398 112.136C78.334 112.28 78.19 112.376 77.902 112.424V121.864C77.886 121.96 77.454 122.232 77.038 122.232H76.846V112.344L77.326 111.72L78.398 112.136ZM86.974 112.328C86.974 112.328 87.854 113.032 88.382 113.544C88.334 113.72 88.174 113.8 87.95 113.8H81.678L81.55 113.32H86.206L86.974 112.328ZM82.814 108.104C82.782 108.312 82.622 108.488 82.238 108.552V120.152C82.238 120.616 82.398 120.792 83.23 120.792H85.166C86.078 120.792 86.75 120.776 87.022 120.744C87.23 120.712 87.326 120.648 87.406 120.504C87.55 120.216 87.774 119.144 87.998 117.992H88.206L88.254 120.6C88.654 120.728 88.766 120.856 88.766 121.08C88.766 121.624 88.11 121.784 85.134 121.784H83.118C81.662 121.784 81.198 121.464 81.198 120.392V107.912L82.814 108.104Z" fill="#FFFCF5"/>
</svg>
