<svg width="114" height="194" viewBox="0 0 114 194" fill="none" xmlns="http://www.w3.org/2000/svg">
<path fill-rule="evenodd" clip-rule="evenodd" d="M31.425 175.64C32.2289 176.028 42.9887 180.024 43.6069 180.413C44.6576 180.746 45.4615 181.689 45.4615 182.745C45.4615 183.299 44.8433 184.576 43.2348 184.576C42.1842 184.576 41.566 184.242 40.9478 184.021C40.3296 183.687 30.3737 177.638 30.3737 177.638V177.805C30.9918 178.36 37.4848 185.519 38.103 186.241C38.5354 186.962 39.1536 187.851 39.1536 188.794C39.1536 190.237 37.4848 190.792 36.6809 190.792C35.5049 190.792 34.4542 190.07 33.8367 188.627C33.4646 187.851 28.9516 179.637 28.5795 178.915H28.3334C28.3334 179.636 30.0022 188.96 30.0022 190.07C30.0022 191.18 29.7561 193.345 27.3438 193.345C24.9314 193.345 24.4989 191.18 24.4989 190.07C24.4989 189.128 26.1074 180.746 26.3535 178.915L26.1074 178.748C25.4892 180.024 21.8404 186.962 20.8502 188.626C20.0462 190.07 18.9956 190.792 18.006 190.792C16.956 190.792 15.5339 190.236 15.5339 188.793C15.5339 187.85 16.1521 186.795 16.5839 186.24C17.3878 185.13 23.5106 179.137 24.3132 177.805L24.0671 177.637C24.0671 177.637 14.1111 183.686 13.4929 184.02C13.1208 184.408 12.3169 184.575 11.5143 184.575C9.65847 184.575 9.03963 183.466 9.03963 182.965C9.03963 181.689 10.0299 180.745 10.8942 180.412C11.5137 180.024 22.2723 176.027 23.0762 175.806V175.472C22.458 175.472 11.8845 176.749 10.8942 176.749C9.47275 176.75 7 176.529 7 174.364C7 171.977 9.47275 171.977 10.8948 171.977C12.0708 171.977 21.8404 173.254 23.0768 173.254L23.2632 173.086C22.2729 172.698 12.0708 168.869 10.8948 168.314C10.0299 167.98 9.04028 167.038 9.04028 165.982C9.04028 164.484 10.0306 163.596 11.2669 163.596C11.6994 163.596 12.0708 163.596 12.5033 163.762C14.915 164.873 23.5106 170.922 24.0671 171.089L24.3132 170.921C23.695 170.367 17.3878 163.596 16.5839 162.486C16.3378 162.152 15.3475 161.043 15.3475 160.155C15.3475 158.656 16.7696 157.934 18.1917 157.934C19.182 157.934 20.0462 158.656 20.8502 160.155C21.6541 161.432 25.921 169.811 25.921 169.811H26.3535C26.3535 169.811 24.4989 159.933 24.4989 158.823C24.4989 157.547 24.9314 155.382 27.3438 155.382C29.7561 155.382 30.0022 157.547 30.0022 158.823C30.0022 159.599 28.5795 168.869 28.3334 169.812H28.7658C29.5697 168.148 33.4646 160.876 33.8367 160.156C34.6406 158.823 35.6912 157.768 36.9276 157.768C37.7315 157.768 39.1543 158.657 39.1543 160.156C39.1543 161.043 38.5361 161.932 38.1036 162.486C37.7322 163.042 30.8061 170.367 30.3743 171.089L30.6204 171.255C30.9925 170.922 39.7725 164.873 41.9985 163.984C42.3699 163.763 42.9887 163.763 43.2348 163.763C44.6569 163.763 45.6472 164.706 45.6472 165.983C45.6472 167.259 44.8433 167.981 43.7927 168.315C42.9888 168.703 32.2282 172.699 31.6107 173.087L31.7964 173.254C32.6613 173.087 42.803 171.978 43.7927 171.978C45.029 171.81 47.6875 171.977 47.6875 174.364C47.6875 176.529 45.029 176.749 43.7927 176.749C42.3699 176.749 33.4646 175.807 31.6107 175.473L31.425 175.64ZM28.5801 174.53C28.5801 174.196 28.1477 173.475 27.3438 173.475C26.5398 173.475 26.1074 174.196 26.1074 174.53C26.1074 175.085 26.5398 175.64 27.3438 175.64C28.1477 175.64 28.5801 175.085 28.5801 174.53Z" fill="#D6D8C9" fill-opacity="0.5"/>
<path d="M37.125 173.625C37.125 175.417 37.1458 176.5 37.1875 176.875L36.25 177.312V176.562H33.6875V180.188C33.6875 180.896 33.9792 181.229 34.5625 181.188H37.1875C37.6875 181.104 37.9583 180.688 38 179.938C38.0833 179.188 38.1458 178.562 38.1875 178.062H38.5C38.5 178.562 38.5208 179.125 38.5625 179.75C38.6042 180.375 38.8542 180.792 39.3125 181C39.0625 181.542 38.5208 181.854 37.6875 181.938H34.1875C33.2708 182.021 32.8125 181.625 32.8125 180.75V176.562H32.25C31.875 178.604 31.0417 180.042 29.75 180.875C28.5 181.667 26.9375 182.229 25.0625 182.562L25 182.375C27 181.75 28.4792 181.021 29.4375 180.188C30.3958 179.312 31.0208 178.104 31.3125 176.562H28.4375V177.062L27.5 177.375C27.5417 176.333 27.5625 174.875 27.5625 173C26.7708 173.792 26 174.396 25.25 174.812L25.125 174.625C27.0833 172.792 28.6042 170.521 29.6875 167.812L31.0625 168.688L30.4375 168.875C30.2292 169.25 29.9792 169.688 29.6875 170.188H33.1875L33.75 169.5L35 170.625C34.375 170.667 33.5833 171.458 32.625 173H36.125L36.625 172.375L37.6875 173.188L37.125 173.625ZM29.5 170.562C28.9583 171.271 28.4167 171.958 27.875 172.625L28.5625 173H32.1875C32.7708 171.625 33.125 170.812 33.25 170.562H29.5ZM28.4375 173.375V176.188H31.375C31.5 175.104 31.5833 174.167 31.625 173.375H28.4375ZM32.5625 173.375C32.4792 174.375 32.3958 175.312 32.3125 176.188H36.25V173.375H32.5625ZM54.515 181.188L55.3275 178.438H55.5775C55.4108 179.854 55.3483 180.771 55.39 181.188C55.4733 181.604 55.5775 181.979 55.7025 182.312C55.7858 182.521 55.7233 182.625 55.515 182.625C55.4317 182.625 55.1817 182.562 54.765 182.438C54.39 182.354 53.7858 182 52.9525 181.375C52.1192 180.75 51.4317 179.917 50.89 178.875C50.3483 177.833 49.9317 176.062 49.64 173.562L47.0775 173.688L46.515 173.875L45.89 173.375L49.5775 173.188C49.4942 172.146 49.4317 171.271 49.39 170.562C49.3483 169.854 49.3067 169.104 49.265 168.312L50.765 169.062L50.265 169.5C50.3067 171.125 50.3692 172.333 50.4525 173.125L53.515 172.938L54.3275 172.125L55.5775 173.188L50.515 173.5C50.765 175.958 51.265 177.75 52.015 178.875C52.765 179.958 53.5983 180.729 54.515 181.188ZM51.8275 169.25L51.89 169C53.4733 169.542 54.3275 169.958 54.4525 170.25C54.6192 170.542 54.7025 170.75 54.7025 170.875C54.7025 171.042 54.64 171.229 54.515 171.438C54.39 171.604 54.2858 171.688 54.2025 171.688C54.0358 171.688 53.8692 171.5 53.7025 171.125C53.3692 170.583 52.7442 169.958 51.8275 169.25ZM45.14 173.25V180C45.14 180.667 45.1608 181.396 45.2025 182.188L44.2025 182.625C44.2442 181.583 44.265 180.729 44.265 180.062V173.188C43.265 174.771 42.3067 175.979 41.39 176.812L41.2025 176.625C41.7442 175.917 42.2442 175.167 42.7025 174.375C43.2025 173.542 43.6817 172.604 44.14 171.562C44.64 170.479 45.0775 169.25 45.4525 167.875L46.8275 168.75C46.4942 168.917 46.14 169.375 45.765 170.125C45.39 170.917 45.0358 171.625 44.7025 172.25L45.5775 172.812L45.14 173.25ZM64.03 168.438L64.2175 168.312C64.8008 168.729 65.2592 169.104 65.5925 169.438C65.9675 169.729 66.1342 170.021 66.0925 170.312C66.0925 170.562 66.0092 170.771 65.8425 170.938C65.6758 171.062 65.5508 171.125 65.4675 171.125C65.3008 171.125 65.1758 170.917 65.0925 170.5C64.9675 169.958 64.6133 169.271 64.03 168.438ZM68.78 168.125L70.155 169L69.5925 169.188C68.9675 170.062 68.405 170.875 67.905 171.625H69.7175L70.5925 170.938L71.7175 172H67.4675C67.4675 172.458 67.4258 173.25 67.3425 174.375H70.28L71.155 173.5L72.3425 174.75H67.28C67.2383 175.042 67.155 175.5 67.03 176.125C68.2383 176.667 69.1758 177.146 69.8425 177.562C70.5092 177.938 70.8633 178.333 70.905 178.75C70.9883 179.125 70.9675 179.417 70.8425 179.625C70.7175 179.792 70.6342 179.875 70.5925 179.875C70.4675 179.875 70.3008 179.708 70.0925 179.375C69.8008 178.875 69.3633 178.375 68.78 177.875C68.1967 177.333 67.5717 176.854 66.905 176.438C66.1133 178.021 64.7175 179.208 62.7175 180L62.5925 179.812C64.8842 178.479 66.155 176.792 66.405 174.75H63.9675C63.6342 174.75 63.2383 174.812 62.78 174.938L62.2175 174.375H66.4675C66.5508 173.292 66.5925 172.5 66.5925 172H64.8425C64.5092 172 64.1133 172.062 63.655 172.188L63.0925 171.625H67.53C68.0717 170.458 68.4883 169.292 68.78 168.125ZM61.155 178.938C62.405 180.229 64.0717 180.896 66.155 180.938C68.2383 180.979 70.3842 180.854 72.5925 180.562V180.812C71.7592 181.062 71.3425 181.417 71.3425 181.875C69.3425 181.875 67.7383 181.833 66.53 181.75C65.3633 181.708 64.4258 181.562 63.7175 181.312C63.0092 181.104 62.3842 180.729 61.8425 180.188C61.3008 179.646 60.9258 179.396 60.7175 179.438C60.5092 179.438 60.1758 179.688 59.7175 180.188C59.2592 180.688 58.9467 181.083 58.78 181.375L57.8425 180.625C58.5092 180.083 59.3425 179.542 60.3425 179V173.875H59.53C59.1967 173.875 58.8008 173.938 58.3425 174.062L57.78 173.5H60.2175L60.655 172.875L61.655 173.562L61.155 174V178.938ZM59.3425 168.688L59.53 168.562C60.28 169.062 60.8008 169.458 61.0925 169.75C61.3842 170.042 61.5092 170.312 61.4675 170.562C61.4258 170.812 61.3008 171.021 61.0925 171.188C60.9258 171.354 60.8217 171.438 60.78 171.438C60.6133 171.438 60.4675 171.188 60.3425 170.688C60.1758 170.062 59.8425 169.396 59.3425 168.688ZM80.92 169.875V171H82.92V169.875H80.92ZM83.67 169.875V171H85.7325V169.875H83.67ZM80.92 171.375C80.8783 171.833 80.795 172.188 80.67 172.438H82.92V171.375H80.92ZM77.9825 171.375L77.7325 172.438H79.92C80.045 172.104 80.1283 171.75 80.17 171.375H77.9825ZM84.1075 168.5L83.67 168.875V169.5H85.545L86.045 168.938L87.045 169.688L86.4825 170.062C86.5242 170.729 86.545 171.188 86.545 171.438L85.7325 171.875V171.375H83.67V172.438H87.3575L87.795 171.875L88.7325 172.688L88.17 173C88.045 173.5 87.8783 173.917 87.67 174.25C87.4617 174.542 87.1492 174.729 86.7325 174.812C86.7325 174.479 86.295 174.208 85.42 174V173.812C85.8783 173.854 86.2533 173.875 86.545 173.875C86.7533 173.875 86.8992 173.854 86.9825 173.812C87.1075 173.771 87.2533 173.438 87.42 172.812H83.67C83.67 173.354 83.6908 173.917 83.7325 174.5L82.92 174.875V172.812H80.545C79.92 173.979 78.3992 174.812 75.9825 175.312L75.92 175.125C77.795 174.542 79.0658 173.771 79.7325 172.812H77.67L77.42 173.125L76.4825 172.562C76.7325 172.438 76.8992 172.188 76.9825 171.812C77.1075 171.396 77.17 171 77.17 170.625L77.9825 171H80.17V169.875H78.295C77.9617 169.875 77.5658 169.938 77.1075 170.062L76.545 169.5H80.17C80.17 168.792 80.1492 168.25 80.1075 167.875L81.3575 168.5L80.92 168.812V169.5H82.92C82.92 168.833 82.8992 168.292 82.8575 167.875L84.1075 168.5ZM77.6075 175H85.2325L85.795 174.438L86.7325 175.312L86.17 175.688C86.17 177.771 86.1908 179.167 86.2325 179.875L85.3575 180.312V179.812H78.42V180.062L77.6075 180.375V175ZM85.3575 176.438V175.375H78.42V176.438H85.3575ZM85.3575 177.938V176.812H78.42V177.938H85.3575ZM85.3575 179.438V178.312H78.42V179.438H85.3575ZM80.6075 180.875L79.8575 181C78.3992 181.75 76.9617 182.292 75.545 182.625L75.4825 182.438C76.3575 182.062 77.1908 181.625 77.9825 181.125C78.7742 180.667 79.3158 180.25 79.6075 179.875L80.6075 180.875ZM83.17 180.125C85.045 180.333 86.3158 180.625 86.9825 181C87.6908 181.375 87.9825 181.708 87.8575 182C87.7325 182.333 87.6075 182.5 87.4825 182.5C87.2742 182.5 87.0242 182.333 86.7325 182C86.1492 181.375 84.9408 180.833 83.1075 180.375L83.17 180.125Z" fill="#4D5139"/>
<rect width="113.662" height="157.191" rx="56.8308" fill="#D6D8C9"/>
<mask id="path-4-inside-1_741_7103" fill="white">
<path d="M87.232 73.4778C86.2398 73.0604 85.0865 72.8179 83.8764 72.8179C82.5167 72.8179 81.2287 73.1241 80.0774 73.6711L80.1311 73.6482L66.5072 79.7668C66.5132 79.657 66.5694 79.5612 66.5694 79.4505C66.5346 76.2184 63.9066 73.6118 60.6695 73.6118C60.5077 73.6118 60.3475 73.6182 60.189 73.6311L60.2098 73.6297H51.29L40.0678 70.3418C39.9216 70.295 39.7535 70.2681 39.5791 70.2681H34.4563V68.4836C34.4561 67.5071 33.6646 66.7155 32.688 66.7152H23.5333C22.5569 66.7155 21.7652 67.507 21.765 68.4836V97.267C21.7652 98.2436 22.5568 99.0352 23.5333 99.0353H32.688C33.6646 99.0351 34.4561 98.2436 34.4563 97.267V94.8984C38.7418 95.5679 42.5798 96.6468 46.2155 98.1209L45.8633 97.9946C48.5758 98.9751 51.7061 99.5419 54.9691 99.5419H55.0183H55.0158H55.0567C58.8383 99.5419 62.4441 98.7889 65.7322 97.4247L65.5474 97.4927C68.4784 96.1899 70.9664 94.8132 73.3203 93.2509L73.1273 93.3713C73.9237 92.8785 74.7158 92.3858 75.5171 91.9116C79.3669 89.6321 82.4615 87.6289 85.2521 85.6119C86.6163 84.6414 87.8067 83.6819 88.9376 82.6577L88.904 82.6877C89.783 81.9755 90.4849 81.0804 90.9574 80.0576L90.9762 80.0123C91.0484 79.8262 91.0904 79.6109 91.0904 79.3857C91.0904 79.2521 91.0757 79.1219 91.0477 78.9967L91.0499 79.0084C90.7063 76.6116 89.2698 74.6097 87.2701 73.4973L87.232 73.4778ZM30.9197 95.4989H25.3016V70.2495H30.9197V95.4989ZM86.4169 80.1735C85.4451 81.0451 84.3884 81.8914 83.2857 82.6773L83.175 82.7522C80.481 84.7002 77.4739 86.6435 73.7117 88.8722C72.892 89.3558 72.0815 89.8577 71.2664 90.3597C69.2526 91.7109 66.9358 93.0011 64.5134 94.0989L64.207 94.2233C61.49 95.3399 58.3361 95.9881 55.0308 95.9881C52.1937 95.9881 49.4683 95.5106 46.9304 94.6314L47.1042 94.6837C43.4387 93.1556 39.174 91.9833 34.7315 91.3674L34.4565 91.3361V73.8047H39.3171L50.5394 77.0927C50.6856 77.1393 50.8537 77.1664 51.0282 77.1664H60.21C62.2914 77.1664 63.0328 78.3958 63.0328 79.4505C63.0328 80.5051 62.2914 81.7345 60.21 81.7345H44.157C43.1803 81.7345 42.3887 82.5261 42.3887 83.5028C42.3887 84.4796 43.1803 85.2712 44.157 85.2712H62.5129C62.7717 85.2712 63.0169 85.2134 63.2367 85.1101L63.2264 85.1145L81.6048 76.8624C82.2837 76.5507 83.0777 76.369 83.9142 76.369C84.5389 76.369 85.1398 76.4703 85.7017 76.6574L85.6617 76.6459C86.5635 77.1876 87.2132 78.0709 87.4349 79.1124L87.4393 79.1372C87.1185 79.5111 86.7843 79.8497 86.4282 80.1636L86.4169 80.1735ZM42.8743 50.1794V60.0358C42.8743 66.5196 42.855 66.5196 49.3578 66.5196H68.218C74.7018 66.5196 74.7018 66.5196 74.7018 60.0362V50.1793C76.1108 49.247 76.5547 47.6747 76.5804 45.8892V44.51C76.5554 42.0456 75.3713 39.6787 73.0057 39.6584L72.9703 39.6516C73.6091 38.6491 73.9883 37.4272 73.9883 36.1165C73.9883 35.6003 73.9294 35.0978 73.8182 34.6153L73.8268 34.6601C73.2235 32.3143 71.3408 30.5295 68.9844 30.0774L68.9455 30.0712C68.6493 30.0259 68.3074 30 67.9596 30C65.4553 30 63.2647 31.3432 62.0691 33.3485L62.0518 33.3799L58.7893 38.0747L55.5265 33.3799C54.308 31.3436 52.1142 30.0015 49.6069 30.0015C49.2625 30.0015 48.9239 30.0269 48.5931 30.0758L48.6305 30.0712C46.2362 30.5303 44.3546 32.315 43.761 34.6171L43.7514 34.6602C43.6483 35.099 43.5889 35.6028 43.5889 36.1205C43.5889 37.4296 43.9677 38.6502 44.6217 39.6787L44.6057 39.6518C42.3208 39.6516 41.1367 42.0483 41.1116 44.51V45.8892C41.1374 47.6787 41.4654 49.247 42.855 50.1674L42.8743 50.1794ZM46.4109 60.0358V51.1942H57.0208V62.983H49.3581C46.4109 62.983 46.4109 62.983 46.4109 60.0358ZM71.1652 61.4383C71.1652 62.983 71.1652 62.983 68.2181 62.983H60.5576V51.1942H71.1652V61.4383ZM73.356 44.51V45.8892C73.3549 46.8655 73.5229 47.6576 71.7546 47.6576H60.5574V42.942H71.7546C73.5229 42.942 73.3549 43.5337 73.356 44.51ZM64.953 35.3968C65.5473 34.2835 66.7012 33.5388 68.0292 33.5388C68.1279 33.5388 68.2259 33.5429 68.3227 33.551L68.3101 33.5501C69.3315 33.7597 70.1322 34.5234 70.3919 35.5069L70.3961 35.5258C70.4167 35.6807 70.4285 35.8598 70.4285 36.0415C70.4285 37.4236 69.7498 38.6472 68.7073 39.3969L68.6951 39.4054H62.17L64.953 35.3968ZM47.1803 35.5257C47.444 34.524 48.2436 33.7606 49.2465 33.5531L49.264 33.5502C49.3475 33.543 49.4447 33.5389 49.5429 33.5389C50.8713 33.5389 52.0259 34.2834 52.612 35.378L52.6211 35.3966L55.4069 39.4054H48.8807C47.8263 38.6465 47.1477 37.4228 47.1477 36.0406C47.1477 35.859 47.1595 35.6803 47.1822 35.5049L47.1803 35.5257ZM44.336 44.7078C44.338 43.732 44.0531 42.942 45.8213 42.942H57.0208V47.6576H45.8215C44.0531 47.6576 44.3381 46.8648 44.336 45.8892V44.7078Z"/>
</mask>
<path d="M87.232 73.4778C86.2398 73.0604 85.0865 72.8179 83.8764 72.8179C82.5167 72.8179 81.2287 73.1241 80.0774 73.6711L80.1311 73.6482L66.5072 79.7668C66.5132 79.657 66.5694 79.5612 66.5694 79.4505C66.5346 76.2184 63.9066 73.6118 60.6695 73.6118C60.5077 73.6118 60.3475 73.6182 60.189 73.6311L60.2098 73.6297H51.29L40.0678 70.3418C39.9216 70.295 39.7535 70.2681 39.5791 70.2681H34.4563V68.4836C34.4561 67.5071 33.6646 66.7155 32.688 66.7152H23.5333C22.5569 66.7155 21.7652 67.507 21.765 68.4836V97.267C21.7652 98.2436 22.5568 99.0352 23.5333 99.0353H32.688C33.6646 99.0351 34.4561 98.2436 34.4563 97.267V94.8984C38.7418 95.5679 42.5798 96.6468 46.2155 98.1209L45.8633 97.9946C48.5758 98.9751 51.7061 99.5419 54.9691 99.5419H55.0183H55.0158H55.0567C58.8383 99.5419 62.4441 98.7889 65.7322 97.4247L65.5474 97.4927C68.4784 96.1899 70.9664 94.8132 73.3203 93.2509L73.1273 93.3713C73.9237 92.8785 74.7158 92.3858 75.5171 91.9116C79.3669 89.6321 82.4615 87.6289 85.2521 85.6119C86.6163 84.6414 87.8067 83.6819 88.9376 82.6577L88.904 82.6877C89.783 81.9755 90.4849 81.0804 90.9574 80.0576L90.9762 80.0123C91.0484 79.8262 91.0904 79.6109 91.0904 79.3857C91.0904 79.2521 91.0757 79.1219 91.0477 78.9967L91.0499 79.0084C90.7063 76.6116 89.2698 74.6097 87.2701 73.4973L87.232 73.4778ZM30.9197 95.4989H25.3016V70.2495H30.9197V95.4989ZM86.4169 80.1735C85.4451 81.0451 84.3884 81.8914 83.2857 82.6773L83.175 82.7522C80.481 84.7002 77.4739 86.6435 73.7117 88.8722C72.892 89.3558 72.0815 89.8577 71.2664 90.3597C69.2526 91.7109 66.9358 93.0011 64.5134 94.0989L64.207 94.2233C61.49 95.3399 58.3361 95.9881 55.0308 95.9881C52.1937 95.9881 49.4683 95.5106 46.9304 94.6314L47.1042 94.6837C43.4387 93.1556 39.174 91.9833 34.7315 91.3674L34.4565 91.3361V73.8047H39.3171L50.5394 77.0927C50.6856 77.1393 50.8537 77.1664 51.0282 77.1664H60.21C62.2914 77.1664 63.0328 78.3958 63.0328 79.4505C63.0328 80.5051 62.2914 81.7345 60.21 81.7345H44.157C43.1803 81.7345 42.3887 82.5261 42.3887 83.5028C42.3887 84.4796 43.1803 85.2712 44.157 85.2712H62.5129C62.7717 85.2712 63.0169 85.2134 63.2367 85.1101L63.2264 85.1145L81.6048 76.8624C82.2837 76.5507 83.0777 76.369 83.9142 76.369C84.5389 76.369 85.1398 76.4703 85.7017 76.6574L85.6617 76.6459C86.5635 77.1876 87.2132 78.0709 87.4349 79.1124L87.4393 79.1372C87.1185 79.5111 86.7843 79.8497 86.4282 80.1636L86.4169 80.1735ZM42.8743 50.1794V60.0358C42.8743 66.5196 42.855 66.5196 49.3578 66.5196H68.218C74.7018 66.5196 74.7018 66.5196 74.7018 60.0362V50.1793C76.1108 49.247 76.5547 47.6747 76.5804 45.8892V44.51C76.5554 42.0456 75.3713 39.6787 73.0057 39.6584L72.9703 39.6516C73.6091 38.6491 73.9883 37.4272 73.9883 36.1165C73.9883 35.6003 73.9294 35.0978 73.8182 34.6153L73.8268 34.6601C73.2235 32.3143 71.3408 30.5295 68.9844 30.0774L68.9455 30.0712C68.6493 30.0259 68.3074 30 67.9596 30C65.4553 30 63.2647 31.3432 62.0691 33.3485L62.0518 33.3799L58.7893 38.0747L55.5265 33.3799C54.308 31.3436 52.1142 30.0015 49.6069 30.0015C49.2625 30.0015 48.9239 30.0269 48.5931 30.0758L48.6305 30.0712C46.2362 30.5303 44.3546 32.315 43.761 34.6171L43.7514 34.6602C43.6483 35.099 43.5889 35.6028 43.5889 36.1205C43.5889 37.4296 43.9677 38.6502 44.6217 39.6787L44.6057 39.6518C42.3208 39.6516 41.1367 42.0483 41.1116 44.51V45.8892C41.1374 47.6787 41.4654 49.247 42.855 50.1674L42.8743 50.1794ZM46.4109 60.0358V51.1942H57.0208V62.983H49.3581C46.4109 62.983 46.4109 62.983 46.4109 60.0358ZM71.1652 61.4383C71.1652 62.983 71.1652 62.983 68.2181 62.983H60.5576V51.1942H71.1652V61.4383ZM73.356 44.51V45.8892C73.3549 46.8655 73.5229 47.6576 71.7546 47.6576H60.5574V42.942H71.7546C73.5229 42.942 73.3549 43.5337 73.356 44.51ZM64.953 35.3968C65.5473 34.2835 66.7012 33.5388 68.0292 33.5388C68.1279 33.5388 68.2259 33.5429 68.3227 33.551L68.3101 33.5501C69.3315 33.7597 70.1322 34.5234 70.3919 35.5069L70.3961 35.5258C70.4167 35.6807 70.4285 35.8598 70.4285 36.0415C70.4285 37.4236 69.7498 38.6472 68.7073 39.3969L68.6951 39.4054H62.17L64.953 35.3968ZM47.1803 35.5257C47.444 34.524 48.2436 33.7606 49.2465 33.5531L49.264 33.5502C49.3475 33.543 49.4447 33.5389 49.5429 33.5389C50.8713 33.5389 52.0259 34.2834 52.612 35.378L52.6211 35.3966L55.4069 39.4054H48.8807C47.8263 38.6465 47.1477 37.4228 47.1477 36.0406C47.1477 35.859 47.1595 35.6803 47.1822 35.5049L47.1803 35.5257ZM44.336 44.7078C44.338 43.732 44.0531 42.942 45.8213 42.942H57.0208V47.6576H45.8215C44.0531 47.6576 44.3381 46.8648 44.336 45.8892V44.7078Z" fill="#4D5139" stroke="#D6D8C9" stroke-width="2.2" mask="url(#path-4-inside-1_741_7103)"/>
<path d="M34.056 113.2L33.896 113.328C34.536 113.824 35.384 114.704 35.672 115.376C36.808 116 37.464 113.824 34.056 113.2ZM27.88 118.208L28.04 118.656L37.976 117.536C38.184 117.52 38.344 117.408 38.376 117.232C37.784 116.832 36.84 116.256 36.84 116.256L36.168 117.28L27.88 118.208ZM31.448 112.8C31.464 118.72 32.568 123.952 36.232 126.528C37.032 127.088 38.024 127.536 38.392 127.008C38.536 126.832 38.472 126.576 37.992 125.968L38.264 123.568L38.072 123.52C37.848 124.176 37.544 124.96 37.32 125.36C37.208 125.664 37.08 125.664 36.792 125.424C33.464 123.28 32.568 118.272 32.6 113.456C33 113.392 33.144 113.2 33.176 113.008L31.448 112.8ZM26.056 117.328V127.264H26.264C26.664 127.264 27.096 126.992 27.112 126.896V117.376C27.4 117.328 27.544 117.232 27.608 117.088L26.536 116.704L26.056 117.328ZM27.352 112.608C26.488 115.696 24.968 118.816 23.544 120.768L23.768 120.928C25.64 119.168 27.304 116.48 28.456 113.472C28.824 113.488 29.016 113.344 29.064 113.168L27.352 112.608ZM44.84 126.816V122.384H45.048L43.88 121.888L43.816 121.984V127.184H43.992C44.488 127.184 44.84 126.912 44.84 126.816ZM51.224 122.384H44.328V122.848H51.224V122.384ZM50.856 116.752H45.416L45.128 117.232H50.856V116.752ZM50.424 122.384H50.584V127.152H50.744C51.08 127.152 51.608 126.912 51.624 126.816V123.024C51.928 122.96 52.184 122.848 52.28 122.736L51 121.744L50.424 122.384ZM51.24 125.728H44.216V126.208H51.24V125.728ZM50.12 116.752H50.344C48.696 119.376 44.408 121.92 40.28 123.152L40.408 123.408C44.76 122.384 49.24 120.096 51.336 117.392C51.8 117.392 52.024 117.36 52.184 117.248L50.968 116.048L50.12 116.752ZM47.16 115.952L45.704 115.152C44.536 117.344 42.744 119.2 41.128 120.192L41.304 120.432C43.176 119.616 45.096 118.144 46.504 116.128C46.84 116.208 47.064 116.112 47.16 115.952ZM45.176 117.04L44.92 117.232C46.6 120.368 50.056 122.08 54.168 122.912C54.296 122.384 54.648 122.048 55.112 121.968L55.144 121.792C50.936 121.248 46.888 119.776 45.176 117.04ZM46.504 112.528L46.344 112.672C46.904 113.056 47.48 113.824 47.608 114.464C48.712 115.168 49.528 112.96 46.504 112.528ZM52.984 114.688H53.16C53.048 115.328 52.76 116.48 52.552 117.152L52.76 117.264C53.272 116.768 53.912 115.936 54.28 115.344C54.584 115.328 54.76 115.296 54.888 115.2L53.656 114L52.984 114.688ZM42.296 113.952H42.008C42.088 115.008 41.512 115.968 40.872 116.304C40.552 116.512 40.344 116.816 40.488 117.152C40.664 117.52 41.224 117.504 41.624 117.216C42.248 116.784 42.808 115.696 42.296 113.952ZM53.672 114.688H42.056V115.168H53.672V114.688ZM59.992 123.456L59.768 123.6C61.064 126.288 62.888 126.88 66.456 126.88C67.576 126.88 70.136 126.88 71.144 126.88C71.176 126.416 71.4 126.064 71.848 125.968V125.76C70.568 125.792 67.704 125.792 66.504 125.792C63.08 125.792 61.192 125.52 59.992 123.456ZM61.16 117.104L60.344 116.624C59.752 117.616 58.376 119.488 57.608 120.384L58.136 119.984C57.88 120.016 57.48 120.144 57.272 120.256L58.136 121.088L58.584 120.736H58.456C59.224 119.776 60.584 117.984 61.16 117.104ZM60.136 116.64H60.328L60.504 117.344C61.08 117.408 61.72 117.36 61.96 117.12L60.728 116.048L60.136 116.64ZM60.408 120.336H60.552C60.056 122.8 58.808 125.408 56.776 127.072L56.936 127.28C59.48 125.744 60.856 123.312 61.56 120.912C61.912 120.896 62.088 120.848 62.184 120.704L61.064 119.696L60.408 120.336ZM60.584 116.64H57.064L57.208 117.12H60.584V116.64ZM61.256 120.336H58.328L58.136 120.816H61.256V120.336ZM58.12 112.576L57.944 112.704C58.68 113.328 59.592 114.4 59.816 115.264C60.904 115.936 61.56 113.68 58.12 112.576ZM69.896 113.312L68.28 112.72C67.912 114 67.4 115.424 66.936 116.304L67.192 116.448C67.928 115.712 68.696 114.64 69.304 113.584C69.64 113.616 69.816 113.472 69.896 113.312ZM66.888 116.48H65.736C65.688 120.016 65.688 122.656 61.784 124.576L61.992 124.848C66.648 123.056 66.776 120.32 66.888 116.48ZM63.432 112.864L63.24 112.976C63.88 113.648 64.6 114.768 64.728 115.632C65.752 116.448 66.648 114.208 63.432 112.864ZM67.176 120.64L66.984 120.784C68.072 121.776 69.48 123.488 69.768 124.8C70.92 125.664 71.608 122.88 67.176 120.64ZM69.592 115.264L68.872 116.192H62.504L62.632 116.672H70.504C70.712 116.672 70.872 116.592 70.92 116.416C70.424 115.92 69.592 115.264 69.592 115.264ZM70.072 118.48L69.32 119.424H62.088L62.216 119.904H71.048C71.272 119.904 71.416 119.824 71.464 119.648C70.936 119.152 70.072 118.48 70.072 118.48ZM85.192 112.816L83.656 112.656V117.152H83.864C84.248 117.152 84.696 116.928 84.696 116.816V113.184C85.032 113.152 85.16 113.008 85.192 112.816ZM78.312 112.816L76.776 112.656V117.152H76.984C77.368 117.152 77.816 116.928 77.816 116.816V113.184C78.152 113.152 78.296 113.008 78.312 112.816ZM86.072 119.584L85.304 120.56H81.528L81.656 121.04H87.032C87.256 121.04 87.416 120.96 87.448 120.784C86.92 120.272 86.072 119.584 86.072 119.584ZM79.704 117.584L78.2 116.848C77.048 119.344 75.176 121.456 73.448 122.624L73.624 122.832C75.656 121.856 77.64 120.144 79.064 117.808C79.4 117.872 79.624 117.76 79.704 117.584ZM78.232 120.256L76.888 119.744L76.68 120.016V127.248H76.872C77.272 127.248 77.72 127.04 77.736 126.96V120.528C78.024 120.496 78.168 120.4 78.232 120.256ZM82.696 117.216L81.128 117.04V125.6C81.128 126.528 81.48 126.816 82.84 126.816H84.744C87.496 126.816 88.072 126.624 88.072 126.112C88.072 125.904 87.976 125.792 87.592 125.664L87.544 123.2H87.336C87.144 124.272 86.952 125.296 86.808 125.568C86.744 125.728 86.648 125.776 86.456 125.792C86.2 125.808 85.592 125.824 84.776 125.824H83C82.28 125.824 82.168 125.712 82.168 125.376V117.616C82.52 117.584 82.664 117.424 82.696 117.216ZM87.048 113.648L86.344 114.576H81.24L81.368 115.056H87.96C88.184 115.056 88.344 114.976 88.376 114.8C87.88 114.304 87.048 113.648 87.048 113.648ZM79.656 113.648L78.936 114.576H73.544L73.672 115.056H80.568C80.776 115.056 80.936 114.976 80.968 114.8C80.488 114.304 79.656 113.648 79.656 113.648Z" fill="#4D5139"/>
</svg>
