<svg width="60" height="60" viewBox="0 0 60 60" fill="none" xmlns="http://www.w3.org/2000/svg">
<path d="M50 14.0003C50 12.6001 49.999 11.8995 49.7265 11.3647C49.487 10.8943 49.1058 10.5122 48.6355 10.2725C48.1008 10 47.3992 10 45.999 10H13.999C12.5989 10 11.8995 10 11.3647 10.2725C10.8943 10.5122 10.5122 10.8943 10.2725 11.3647C10 11.8995 10 12.6001 10 14.0003V15.8434C10 16.4549 10 16.7608 10.0691 17.0485C10.1303 17.3036 10.2316 17.5473 10.3686 17.771C10.5232 18.0232 10.7398 18.2398 11.1719 18.6719L23.8287 31.3287C24.2611 31.761 24.4761 31.976 24.6307 32.2285C24.7678 32.452 24.8704 32.6965 24.9317 32.9518C25 33.2365 25 33.5388 25 34.138V46.0275C25 48.1705 25 49.2428 25.4513 49.888C25.8455 50.4515 26.4535 50.8275 27.1338 50.928C27.9128 51.043 28.8718 50.5642 30.7885 49.606L32.7885 48.606C33.5913 48.2047 33.9915 48.0032 34.2847 47.7037C34.544 47.439 34.7425 47.1213 34.8633 46.771C35 46.3748 35 45.925 35 45.0275V34.1565C35 33.545 35 33.2395 35.069 32.9518C35.1303 32.6965 35.2315 32.452 35.3688 32.2285C35.5223 31.9778 35.7367 31.7633 36.1632 31.3368L36.172 31.3287L48.8287 18.6719C49.261 18.2395 49.476 18.0233 49.6308 17.771C49.7678 17.5473 49.8705 17.3036 49.9318 17.0485C50 16.7638 50 16.4611 50 15.862V14.0003Z" stroke="#445251" stroke-width="2" stroke-linecap="round" stroke-linejoin="round"/>
</svg>
