<svg width="321" height="164" viewBox="0 0 321 164" fill="none" xmlns="http://www.w3.org/2000/svg">
<g filter="url(#filter0_d_263_5819)">
<path d="M29.952 3.2V3.84H9.792V24.32H28.48V24.96H9.792V48H4.48V3.2H29.952ZM50.5705 48C46.8158 48 44.4478 47.0187 43.4665 45.056C43.2532 44.6293 43.1465 44.2453 43.1465 43.904V0.0639992H47.6265V43.456C47.6265 44.6933 47.8612 45.6533 48.3305 46.336C48.8425 46.976 49.3545 47.3173 49.8665 47.36L50.5705 47.488H52.5545V48H50.5705ZM77.6805 48.256C73.2005 48.256 69.5525 46.976 66.7365 44.416C63.9205 41.856 62.5125 37.9093 62.5125 32.576C62.5125 27.2427 63.9632 23.104 66.8645 20.16C69.8085 17.216 73.5205 15.744 78.0005 15.744C82.5232 15.744 86.1925 17.024 89.0085 19.584C91.8245 22.144 93.2325 26.0907 93.2325 31.424C93.2325 36.7573 91.7605 40.896 88.8165 43.84C85.9152 46.784 82.2032 48.256 77.6805 48.256ZM78.1285 16.256C74.8858 16.256 72.1978 17.7067 70.0645 20.608C67.9312 23.4667 66.8645 27.4773 66.8645 32.64C66.8645 37.76 67.8458 41.5573 69.8085 44.032C71.7712 46.5067 74.3738 47.744 77.6165 47.744C80.8592 47.744 83.5472 46.3147 85.6805 43.456C87.8138 40.5547 88.8805 36.544 88.8805 31.424C88.8805 26.2613 87.8992 22.4427 85.9365 19.968C83.9738 17.4933 81.3712 16.256 78.1285 16.256ZM148.804 16.384L149.188 16C149.358 16.0853 149.572 16.3413 149.828 16.768C150.126 17.1947 150.297 17.5787 150.34 17.92C150.425 18.2613 150.468 18.5813 150.468 18.88C150.468 20.032 150.212 21.2053 149.7 22.4L138.052 48H137.411L128.195 23.232L116.931 48H116.292L104.387 16H108.867L118.66 42.496L127.875 22.464L125.507 16H129.988L139.779 42.496L149.06 22.4C149.572 21.504 149.828 20.4373 149.828 19.2C149.828 17.9627 149.486 17.024 148.804 16.384ZM166.692 32.384C166.692 37.6747 167.609 41.5573 169.444 44.032C171.321 46.5067 173.775 47.744 176.804 47.744C181.071 47.744 184.868 47.104 188.196 45.824L188.388 46.272C184.975 47.5947 181.113 48.256 176.804 48.256C172.537 48.256 169.06 46.976 166.372 44.416C163.684 41.856 162.34 37.9093 162.34 32.576C162.34 27.2427 163.748 23.104 166.564 20.16C169.38 17.216 172.964 15.744 177.316 15.744C180.815 15.744 183.759 16.7893 186.148 18.88C188.537 20.9707 189.732 24.064 189.732 28.16C189.732 28.3733 189.732 28.5867 189.732 28.8H166.884C166.756 29.952 166.692 31.1467 166.692 32.384ZM185.38 28.288C185.337 24.192 184.548 21.1627 183.012 19.2C181.476 17.2373 179.492 16.256 177.06 16.256C174.628 16.256 172.452 17.3227 170.532 19.456C168.655 21.5893 167.46 24.5333 166.948 28.288H185.38ZM212.884 18.752V17.408C210.964 18.176 209.215 19.7333 207.636 22.08C206.057 24.384 205.225 26.56 205.14 28.608V48H200.66V16H205.14V26.176C205.823 23.7013 207.124 21.376 209.044 19.2C210.964 16.9813 213.14 15.8293 215.572 15.744H215.828C216.681 15.744 217.385 16.0427 217.94 16.64C218.537 17.1947 218.836 17.8987 218.836 18.752C218.836 19.6053 218.537 20.3093 217.94 20.864C217.385 21.4187 216.681 21.696 215.828 21.696C214.975 21.696 214.271 21.4187 213.716 20.864C213.161 20.3093 212.884 19.6053 212.884 18.752ZM64.49 99.264C66.3673 99.1787 68.202 99.136 69.994 99.136C71.8287 99.136 73.7487 99.328 75.754 99.712C77.802 100.096 79.8073 100.821 81.77 101.888C83.7753 102.912 85.4607 104.256 86.826 105.92C88.234 107.541 89.3647 109.696 90.218 112.384C91.0713 115.072 91.498 118.336 91.498 122.176C91.498 126.016 90.858 129.472 89.578 132.544C88.3407 135.573 86.634 137.899 84.458 139.52C80.234 142.677 75.1353 144.256 69.162 144.256C67.0713 144.256 64.874 144.171 62.57 144H59.37V99.264H64.49ZM64.682 143.488C65.578 143.573 66.7087 143.616 68.074 143.616C69.4393 143.616 70.4633 143.595 71.146 143.552C71.8287 143.509 72.7673 143.339 73.962 143.04C75.1567 142.699 76.266 142.251 77.29 141.696C78.314 141.141 79.3807 140.331 80.49 139.264C81.642 138.155 82.6233 136.853 83.434 135.36C85.2687 131.861 86.186 127.296 86.186 121.664C86.186 117.653 85.6953 114.197 84.714 111.296C83.7327 108.352 82.602 106.176 81.322 104.768C80.0847 103.36 78.57 102.251 76.778 101.44C74.986 100.587 73.5567 100.096 72.49 99.968C71.4233 99.84 70.186 99.776 68.778 99.776C67.37 99.776 66.0047 99.84 64.682 99.968V143.488ZM109.309 128.384C109.309 133.675 110.227 137.557 112.061 140.032C113.939 142.507 116.392 143.744 119.421 143.744C123.688 143.744 127.486 143.104 130.814 141.824L131.006 142.272C127.592 143.595 123.731 144.256 119.421 144.256C115.155 144.256 111.677 142.976 108.989 140.416C106.301 137.856 104.957 133.909 104.957 128.576C104.957 123.243 106.365 119.104 109.181 116.16C111.997 113.216 115.581 111.744 119.934 111.744C123.432 111.744 126.376 112.789 128.766 114.88C131.155 116.971 132.35 120.064 132.35 124.16C132.35 124.373 132.35 124.587 132.35 124.8H109.501C109.373 125.952 109.309 127.147 109.309 128.384ZM127.997 124.288C127.955 120.192 127.166 117.163 125.629 115.2C124.094 113.237 122.11 112.256 119.677 112.256C117.245 112.256 115.069 113.323 113.149 115.456C111.272 117.589 110.077 120.533 109.565 124.288H127.997ZM153.343 144C149.588 144 147.22 143.019 146.239 141.056C146.026 140.629 145.919 140.245 145.919 139.904V96.064H150.399V139.456C150.399 140.693 150.634 141.653 151.103 142.336C151.615 142.976 152.127 143.317 152.639 143.36L153.343 143.488H155.327V144H153.343ZM173.751 144C172.001 144 170.657 143.616 169.719 142.848C168.823 142.08 168.353 141.312 168.311 140.544L168.247 139.456V112H172.727V139.456C172.727 140.693 172.961 141.653 173.431 142.336C173.943 142.976 174.433 143.317 174.903 143.36L175.671 143.488H177.655V144H173.751ZM168.631 104.832C168.119 104.32 167.863 103.68 167.863 102.912C167.863 102.144 168.119 101.504 168.631 100.992C169.143 100.437 169.783 100.16 170.551 100.16C171.319 100.16 171.959 100.437 172.471 100.992C173.025 101.504 173.303 102.144 173.303 102.912C173.303 103.68 173.025 104.32 172.471 104.832C171.959 105.344 171.319 105.6 170.551 105.6C169.783 105.6 169.143 105.344 168.631 104.832ZM210.908 112.384L211.292 112C211.463 112.085 211.676 112.341 211.932 112.768C212.231 113.195 212.402 113.579 212.444 113.92C212.53 114.261 212.573 114.581 212.573 114.88C212.573 116.032 212.316 117.205 211.804 118.4L199.516 144H198.876L186.972 112H191.452L201.244 138.496L211.164 118.4C211.676 117.504 211.932 116.437 211.932 115.2C211.932 113.963 211.591 113.024 210.908 112.384ZM228.777 128.384C228.777 133.675 229.694 137.557 231.529 140.032C233.406 142.507 235.86 143.744 238.889 143.744C243.156 143.744 246.953 143.104 250.281 141.824L250.473 142.272C247.06 143.595 243.198 144.256 238.889 144.256C234.622 144.256 231.145 142.976 228.457 140.416C225.769 137.856 224.425 133.909 224.425 128.576C224.425 123.243 225.833 119.104 228.649 116.16C231.465 113.216 235.049 111.744 239.401 111.744C242.9 111.744 245.844 112.789 248.233 114.88C250.622 116.971 251.817 120.064 251.817 124.16C251.817 124.373 251.817 124.587 251.817 124.8H228.969C228.841 125.952 228.777 127.147 228.777 128.384ZM247.465 124.288C247.422 120.192 246.633 117.163 245.097 115.2C243.561 113.237 241.577 112.256 239.145 112.256C236.713 112.256 234.537 113.323 232.617 115.456C230.74 117.589 229.545 120.533 229.033 124.288H247.465ZM274.969 114.752V113.408C273.049 114.176 271.3 115.733 269.721 118.08C268.142 120.384 267.31 122.56 267.225 124.608V144H262.745V112H267.225V122.176C267.908 119.701 269.209 117.376 271.129 115.2C273.049 112.981 275.225 111.829 277.657 111.744H277.913C278.766 111.744 279.47 112.043 280.025 112.64C280.622 113.195 280.921 113.899 280.921 114.752C280.921 115.605 280.622 116.309 280.025 116.864C279.47 117.419 278.766 117.696 277.913 117.696C277.06 117.696 276.356 117.419 275.801 116.864C275.246 116.309 274.969 115.605 274.969 114.752ZM301.937 155.456C300.572 158.485 298.886 160 296.881 160C295.985 160 294.94 159.851 293.745 159.552V159.04C294.726 159.296 295.601 159.424 296.369 159.424C298.545 159.424 300.209 158.101 301.361 155.456L306.737 144H306.673L294.769 112H299.249L309.169 138.688L318.961 118.4C319.473 117.504 319.729 116.437 319.729 115.2C319.729 113.963 319.388 113.024 318.705 112.384L319.089 112C319.26 112.085 319.473 112.341 319.729 112.768C320.028 113.195 320.198 113.579 320.241 113.92C320.326 114.261 320.369 114.581 320.369 114.88C320.369 116.032 320.113 117.205 319.601 118.4L307.313 144L301.937 155.456Z" fill="#4D5139"/>
</g>
<defs>
<filter id="filter0_d_263_5819" x="0.48" y="0.0644531" width="319.889" height="163.936" filterUnits="userSpaceOnUse" color-interpolation-filters="sRGB">
<feFlood flood-opacity="0" result="BackgroundImageFix"/>
<feColorMatrix in="SourceAlpha" type="matrix" values="0 0 0 0 0 0 0 0 0 0 0 0 0 0 0 0 0 0 127 0" result="hardAlpha"/>
<feOffset dx="-4" dy="4"/>
<feComposite in2="hardAlpha" operator="out"/>
<feColorMatrix type="matrix" values="0 0 0 0 0.839216 0 0 0 0 0.847059 0 0 0 0 0.788235 0 0 0 0.5 0"/>
<feBlend mode="normal" in2="BackgroundImageFix" result="effect1_dropShadow_263_5819"/>
<feBlend mode="normal" in="SourceGraphic" in2="effect1_dropShadow_263_5819" result="shape"/>
</filter>
</defs>
</svg>
