<svg width="14" height="14" viewBox="0 0 14 14" fill="none" xmlns="http://www.w3.org/2000/svg">
<path d="M9.1875 2.625C9.1875 3.34987 9.77513 3.9375 10.5 3.9375C11.2249 3.9375 11.8125 3.34987 11.8125 2.625C11.8125 1.90013 11.2249 1.3125 10.5 1.3125C9.77513 1.3125 9.1875 1.90013 9.1875 2.625Z" fill="black"/>
<path d="M9.1875 2.625L2.1875 2.625" stroke="black" stroke-miterlimit="10" stroke-linecap="round" stroke-linejoin="round"/>
<path d="M3.9375 7C3.9375 7.72487 4.52513 8.3125 5.25 8.3125C5.97487 8.3125 6.5625 7.72487 6.5625 7C6.5625 6.27513 5.97487 5.6875 5.25 5.6875C4.52513 5.6875 3.9375 6.27513 3.9375 7Z" fill="black"/>
<path d="M11.8125 7L6.5625 7" stroke="black" stroke-miterlimit="10" stroke-linecap="round" stroke-linejoin="round"/>
<path d="M3.9375 7L2.1875 7" stroke="black" stroke-miterlimit="10" stroke-linecap="round" stroke-linejoin="round"/>
<path d="M6.5625 11.375C6.5625 12.0999 7.15013 12.6875 7.875 12.6875C8.59987 12.6875 9.1875 12.0999 9.1875 11.375C9.1875 10.6501 8.59987 10.0625 7.875 10.0625C7.15013 10.0625 6.5625 10.6501 6.5625 11.375Z" fill="black"/>
<path d="M6.5625 11.375L2.1875 11.375" stroke="black" stroke-miterlimit="10" stroke-linecap="round" stroke-linejoin="round"/>
<path d="M11.8125 11.375L9.1875 11.375" stroke="black" stroke-miterlimit="10" stroke-linecap="round" stroke-linejoin="round"/>
</svg>
