<svg width="445" height="1261" viewBox="0 0 445 1261" fill="none" xmlns="http://www.w3.org/2000/svg">
<g clip-path="url(#clip0_1080_9724)">
<path d="M241.699 1250.08C214.091 1188.81 184.484 1127.91 165.579 1063.23C165.038 1061.37 164.749 1059.15 163.918 1057.44C163.464 1056.48 162.691 1055.95 162.16 1055.08C161.329 1053.7 161.194 1051.68 160.798 1050.11L159.204 1043.54C157.272 1035.4 155.34 1027.24 153.843 1018.98C150.945 1002.73 149.679 985.71 153.263 969.451C154.896 962.064 157.61 954.985 159.552 947.665C161.542 940.143 161.86 932.554 162.45 924.819C163.676 907.461 164.053 890.102 165.125 872.743C165.657 864.141 166.439 855.954 168.728 847.67C169.752 843.947 170.844 840.234 171.626 836.444C172.534 831.921 172.351 827.476 172.428 822.895C172.689 806.414 175.964 790.154 179.683 774.136C181.412 766.682 183.392 759.275 185.739 751.956C186.918 748.272 188.206 744.613 189.603 740.981C190.251 739.274 190.888 736.506 192.057 735.098C193.226 733.69 195.08 733.7 196.674 733.603C202.277 733.266 207.126 735.031 210.498 739.496C214.979 745.248 218.687 751.56 221.529 758.272C224.601 765.833 225.577 773.702 226.108 781.755C226.62 790.066 226.62 798.401 226.108 806.713C225.596 815.498 224.582 824.245 223.258 832.944C222.041 840.929 220.36 848.779 221.568 856.879C223.5 870.381 227.47 885.164 237.883 894.683C245.785 901.896 256.807 900.469 265.269 895.184C269.468 892.591 272.798 888.807 274.832 884.316C277.979 877.768 282.168 871.772 287.235 866.562C291.853 861.624 296.808 857.005 301.339 851.98C306.343 846.435 310.033 839.964 314.969 834.332C317.231 831.717 319.681 829.271 322.301 827.013C325.74 824.12 329.545 822.191 333.322 819.867C335.438 818.555 336.868 816.057 338.22 814.023C340.201 811.056 341.927 807.926 343.378 804.668C346.259 798.228 347.973 791.329 348.44 784.291C348.894 776.942 347.735 769.43 346.624 762.178C346.072 758.37 345.275 754.601 344.238 750.895C343.041 747.077 341.262 743.467 338.964 740.19C335.343 734.413 330.717 729.328 325.305 725.175C319.441 720.874 313.288 717.161 307.753 712.397C302.537 707.972 297.873 702.938 293.862 697.401C291.93 694.72 289.872 691.836 288.791 688.722C287.421 684.725 286.703 680.534 286.665 676.31C286.665 673.166 286.665 668.479 290.075 666.859C292.713 665.596 296.953 666.242 299.639 666.859C305.733 668.388 311.368 671.366 316.06 675.539C321.422 680.071 325.72 685.78 331.101 690.255C336.713 694.913 343.736 697.42 349.744 701.48C355.753 705.54 359.076 711.78 362.833 717.875C364.438 720.629 366.319 723.214 368.446 725.59C371.083 728.377 374.357 729.775 377.806 731.279C381.255 732.784 384.085 735.33 387.186 737.606C390.084 739.756 393.426 741.463 396.218 743.797C401.905 748.417 406.243 754.479 408.776 761.349C411.229 768.456 410.427 776.229 408.573 783.384C406.486 791.466 402.941 799.094 400.429 807.041C397.918 814.987 395.657 822.741 393.165 830.562C390.538 838.807 387.079 846.753 384.182 854.902C381.284 863.051 378.656 871.046 375.942 879.127C373.285 887.045 370.58 894.953 367.615 902.755C366.079 906.776 364.717 911.154 362.215 914.674C361.263 916.009 360.203 917.263 359.047 918.426C358.31 919.334 357.417 920.105 356.41 920.702C354.294 921.666 354.081 920.875 353.879 918.84C353.106 911.337 355.656 904.076 359.066 897.518C362.732 890.676 366.756 884.032 371.121 877.613C379.477 865.009 390.035 854.054 398.459 841.507C406.882 828.961 412.485 813.878 417.141 799.489C419.624 791.842 421.797 784.108 423.855 776.344C424.821 772.805 425.719 769.256 426.637 765.736C427.603 761.879 429.148 757.78 429.361 753.769C429.795 745.677 426.086 737.905 422.019 731.164C417.95 724.592 413.472 718.283 408.611 712.272C403.617 705.945 398.256 699.841 393.977 692.984C389.968 686.59 386.693 679.772 382.684 673.378C378.675 666.985 373.401 661.883 370.387 655.007C368.909 651.632 367.992 648.035 366.475 644.688C364.804 640.985 363.171 637.291 361.645 633.53C358.94 626.732 356.342 619.856 352.69 613.491C349.348 607.705 345.455 602.989 338.326 602.4C327.894 601.533 320.581 612.401 319.577 621.62C318.784 628.882 321.267 636.607 323.325 643.492C325.593 650.896 328.326 658.149 331.506 665.21C334.404 671.681 337.099 679.116 341.437 684.768C345.484 690.052 350.855 694.161 354.313 699.918C354.468 700.178 357.298 698.606 357.462 698.278C359.143 695.077 358.709 691.721 357.772 688.336C356.651 684.257 355.366 680.139 353.908 676.175C350.713 667.624 346.87 659.329 342.412 651.362C338.13 643.732 333.243 636.456 327.797 629.605C325.496 626.736 322.997 624.029 320.32 621.505C317.828 619.123 316.176 619.046 313.008 620.087C308.332 621.63 302.508 624.552 300.711 629.47C298.45 635.671 298.103 643.666 298.837 650.166C299.192 653.611 300.115 656.974 301.571 660.118C302.31 661.686 303.217 663.171 304.275 664.545C305.377 665.953 307.019 667.013 308.043 668.402C310.4 671.585 310.313 676.84 310.747 680.573C311.346 685.722 311.839 690.891 312.341 696.06C313.307 705.839 314.273 715.637 316.109 725.3C316.93 729.582 317.905 733.845 319.103 738.04C320.581 743.199 322.571 748.185 323.73 753.47C325.933 763.46 326.28 773.799 326.986 783.963C327.671 793.944 326.28 803.829 325.43 813.753C324.6 823.493 325.121 833.387 328.039 842.78C331.014 852.424 334.066 861.962 336.626 871.711C339.336 881.779 341.471 891.992 343.021 902.301C343.726 907.21 344.267 912.138 344.596 917.085C344.914 921.907 345.504 927.115 344.905 931.898C344.518 934.994 342.287 938.051 340.857 940.78C339.505 943.351 338.159 945.923 336.819 948.495C334.127 953.638 331.458 958.814 328.811 964.021C323.672 974.109 318.669 984.273 313.887 994.505C304.604 1014.43 298.75 1036.76 297.996 1058.77C297.996 1058.43 301.165 1057.87 301.194 1057.05C301.841 1038.17 306.507 1019.68 313.095 1002.09C316.717 992.355 321.692 982.99 326.309 973.694C330.569 965.111 334.945 956.586 339.36 948.08C341.479 944.03 343.597 939.983 345.716 935.939C346.682 934.068 348.015 932.342 348.102 930.21C348.199 927.751 348.16 925.273 348.102 922.804C347.836 912.886 346.803 903.004 345.011 893.246C343.32 883.785 341.06 874.431 338.5 865.173C335.863 855.645 332.038 846.213 329.98 836.56C329.186 832.517 328.603 828.435 328.232 824.332C327.7 819.51 328.367 814.37 328.821 809.5C329.71 799.981 330.753 790.55 330.048 780.974C329.304 771.195 329.014 761.31 326.899 751.705C324.88 742.582 321.315 733.922 319.499 724.702C317.683 715.483 316.698 706.437 315.79 697.247C315.336 692.704 314.911 688.153 314.438 683.601C313.974 679.251 313.897 674.516 312.65 670.321C312.214 668.447 311.233 666.742 309.83 665.422C308.762 664.399 307.792 663.278 306.932 662.076C304.945 659.241 303.528 656.047 302.759 652.673C301.117 645.865 301.619 638.651 302.952 631.843C303.918 626.828 305.744 623.028 311.066 621.447C314.872 620.319 316.997 622.855 319.596 625.304C322.996 628.487 325.855 632.788 328.589 636.53C331.323 640.271 334.008 644.293 336.462 648.343C341.353 656.453 345.579 664.944 349.097 673.735C350.768 677.872 352.063 682.058 353.434 686.272C354.806 690.486 356.632 695.424 354.352 699.773L357.511 698.134C353.888 692.097 348.131 687.892 344.064 682.212C342.036 679.377 340.654 676.05 339.138 672.925C337.273 669.068 335.477 665.21 333.776 661.295C330.497 653.875 327.743 646.235 325.537 638.429C323.605 631.409 321.605 624.08 323.267 616.818C323.941 613.713 325.257 610.784 327.131 608.216C328.357 606.576 330.028 604.705 332.086 604.204C334.196 603.871 336.356 604.046 338.384 604.715C345.561 606.721 349.01 613.867 352.034 620.077C355.405 627.002 357.897 634.302 360.94 641.371C362.408 644.785 363.915 648.121 365.152 651.593C366.416 655.423 368.111 659.099 370.204 662.548C372.223 665.692 374.879 668.335 377.024 671.421C379.332 674.728 381.361 678.171 383.322 681.72C387.186 688.615 390.857 695.598 395.744 701.856C400.816 708.356 406.1 714.692 411.007 721.327C415.673 727.624 420.667 734.452 423.43 741.849C424.881 745.398 425.78 749.148 426.096 752.968C426.308 757.308 424.879 761.435 423.806 765.592C421.797 773.413 419.778 781.234 417.547 788.997C412.987 804.929 407.491 820.629 399.763 835.287C391.6 850.823 378.695 863.254 368.851 877.623C363.859 884.741 359.341 892.18 355.328 899.89C351.599 907.316 349.367 915.32 351.106 923.604C351.106 923.691 351.695 923.44 351.638 923.469C357.627 920.914 362.978 916.95 366.349 911.28C368.446 907.75 369.692 903.565 371.131 899.707C373.063 894.625 374.86 889.494 376.618 884.354C379.854 874.913 382.916 865.414 386.21 855.992C389.688 846.049 393.832 836.367 396.991 826.318C399.946 816.896 402.448 807.243 405.849 797.956C409.046 789.219 412.813 780.732 413.316 771.291C413.808 762.081 410.418 754.048 404.438 747.182C401.898 744.188 398.926 741.587 395.619 739.467C391.513 736.815 387.891 733.266 383.757 730.788C380.25 728.647 376.125 727.894 372.928 725.175C369.895 722.581 367.673 719.003 365.606 715.637C363.605 712.108 361.406 708.695 359.018 705.415C356.12 701.673 352.256 699.166 348.131 696.861C344.682 694.932 341.108 693.216 337.785 691.075C333.921 688.587 330.936 685.366 327.758 682.087C322.32 676.455 316.592 670.649 309.405 667.332C304.053 664.873 297.407 663.291 291.718 665.48C286.028 667.669 283.458 671.151 283.391 677.371C283.268 682.217 284.122 687.038 285.902 691.547C287.448 695.067 290.017 698.413 292.355 701.422C297.624 708.061 303.765 713.962 310.612 718.964C314.312 721.732 318.34 724.095 322.03 726.824C325.808 729.655 329.178 732.991 332.047 736.738C334.983 740.281 337.505 744.148 339.563 748.262C341.736 753.016 342.567 758.706 343.349 763.837C344.847 773.586 346.131 783.423 344.238 793.202C342.24 803.299 337.751 812.738 331.178 820.667L333.467 819.307C322.735 824.332 314.09 832.191 307.077 841.69C303.29 846.821 299.793 851.816 295.369 856.455C290.945 861.094 286.289 865.472 282.038 870.255C277.991 874.665 274.607 879.638 271.992 885.02C269.007 891.394 264.641 896.592 257.232 897.701C244.8 899.514 236.106 889.601 231.324 879.311C228.668 873.611 227.344 867.632 226.079 861.518C224.553 854.179 223.819 847.496 224.939 840.003C227.306 824.177 229.614 808.516 229.614 792.469C229.614 777.849 228.648 763.297 221.684 750.171C220.177 747.357 218.513 744.63 216.699 742.003C215.028 739.554 213.309 736.554 210.903 734.703C207.58 732.089 202.548 731.376 198.452 731.887C195.257 732.278 192.24 733.573 189.758 735.619C188.048 737.114 187.526 739.477 186.744 741.511C185.34 745.137 184.052 748.796 182.88 752.486C178.522 766.258 175.085 780.305 172.592 794.533C171.063 801.921 170.018 809.401 169.463 816.925C169.038 824.814 169.704 832.664 167.888 840.398C166.178 847.698 163.541 854.806 162.807 862.309C162.044 870.12 161.677 877.989 161.3 885.83C160.518 901.945 159.513 918.04 158.653 934.145C158.271 940.732 157.097 947.25 155.156 953.558C153.137 960.308 150.761 966.953 149.515 973.887C146.81 988.979 147.844 1004.44 150.481 1019.45C151.775 1026.91 153.437 1034.29 155.185 1041.63C156.045 1045.22 156.924 1048.8 157.793 1052.38C158.161 1053.88 158.315 1055.72 159.204 1057.02C160.093 1058.31 160.643 1058.69 161.087 1060.28C177.944 1119.46 203.89 1175.51 229.305 1231.38C232.396 1238.17 235.475 1244.97 238.54 1251.77C238.627 1251.95 241.882 1250.39 241.738 1250.06L241.699 1250.08Z" fill="#4D5139" fill-opacity="0.6"/>
<path d="M235.787 894.5C236.686 885.656 238.83 876.177 243.187 868.307C247.389 860.737 248.828 851.913 251.774 843.774C257.725 827.283 266.525 812.007 273.296 795.854C276.739 787.846 279.482 779.557 281.498 771.079C281.942 769.15 282.309 767.222 282.666 765.216C283.011 763.819 283.592 762.491 284.386 761.291C285.97 758.243 285.072 753.701 285.168 750.326C285.69 732.504 287.187 713.68 281.179 696.562C277.962 687.352 272.881 678.528 268.524 669.81C264.168 661.092 259.686 652.22 255.619 643.261C251.832 634.929 246.78 627.32 241.825 619.644C239.332 615.786 237.072 611.736 234.29 608.071C231.508 604.406 228.378 601.118 225.345 597.714C219.211 590.838 213.801 583.402 212.507 574.029C211.213 564.655 214.014 555.821 216.941 547.026C222.46 530.102 229.62 513.756 238.318 498.219C240.347 494.625 242.462 491.089 244.665 487.611C246.906 484.043 249.736 480.745 250.461 476.482C251.127 472.374 250.461 467.803 252.914 464.158C257.02 458.082 265.172 463.569 268.235 467.543C278.068 480.33 278.204 497.727 274.031 512.656C272.712 516.818 271.131 520.893 269.297 524.855C267.365 529.417 266.293 534.229 265.105 539.041C262.98 547.605 260.874 556.217 257.377 564.356C254.199 571.762 250.721 579.304 246.954 586.431C243.187 593.557 238.627 600.028 232.29 604.937C230.748 606.077 228.995 606.9 227.132 607.357C226.273 607.609 225.447 607.958 224.669 608.399C219.916 611.138 215.347 613.221 209.851 614.021C205.61 614.639 200.258 614.986 196.085 613.771C191.912 612.555 188.58 609.595 185.459 606.856C172.564 595.505 165.048 580.432 160.141 564.163C157.209 554.525 155.547 544.547 155.195 534.48C154.876 525.434 154.558 515.327 156.48 506.455C158.576 496.811 164.208 488.826 168.989 480.349C173.278 472.76 177.017 464.871 180.968 457.098C184.667 449.477 188.986 442.171 193.883 435.255C195.264 433.327 197.1 431.668 198.336 429.701C198.964 428.457 199.497 427.167 199.93 425.843C201.916 421.456 204.529 417.379 207.687 413.74C213.019 407.25 218.216 400.355 224.06 394.318C229.904 388.281 236.55 382.871 242.414 376.718C248.218 370.517 253.098 363.515 256.904 355.926C258.536 352.734 259.802 349.359 261.289 346.109C262.777 342.859 263.984 339.358 263.318 335.722C262.236 329.936 255.918 323.002 250.76 320.341C245.099 317.448 239.526 319.685 234.908 323.475C229.412 327.998 225.847 334.488 220.196 338.818C212.951 344.373 204.74 348.809 197.389 354.19C190.038 359.571 183.025 365.763 175.703 371.346C172.419 373.863 169.086 376.313 165.773 378.782C162.15 381.482 159.417 385.118 156.335 388.425C153.254 391.733 150.278 394.713 147.197 397.809C144.299 400.702 141.401 403.412 139.575 407.192C135.769 415.023 134.021 423.181 132.813 431.764C131.393 441.919 130.649 452.19 128.215 462.181C125.897 471.699 122.825 481.111 119.995 490.485C117.329 499.367 114.469 508.191 111.059 516.812C107.92 524.73 103.65 532.242 102.095 540.69C100.744 547.41 101.214 554.368 103.457 560.846C106.442 569.072 113.117 575.032 118.517 581.695C130.379 596.364 140.57 612.237 151.225 627.783C152.645 629.856 154.374 634.254 157.166 634.398C159.613 634.433 161.986 633.556 163.821 631.939C167.801 628.622 169.617 622.778 170.332 617.802C171.588 608.524 172.071 599.141 173.462 589.835C174.95 579.902 176.756 570.017 178.524 560.132C180.195 550.807 181.847 541.471 183.218 532.107C184.609 522.56 184.184 512.695 186.116 503.244C188.048 494.101 191.787 485.48 195.245 476.849C196.742 473.117 198.491 469.385 199.196 465.411C199.849 460.969 200.982 456.61 202.577 452.412C204.286 448.197 206.006 443.221 209.232 439.875C212.623 436.384 217.714 435.709 222.37 435.709C231.373 435.709 240.289 437.782 249.176 438.92C268.032 441.341 286.975 442.777 305.763 445.728C315.423 447.252 324.223 451.09 333.487 454.041C342.287 456.838 351.329 458.979 360.061 461.978C363.799 463.251 366.775 465.566 366.91 469.799C367.064 474.563 363.287 478.479 359.742 481.092C356.487 483.542 353.135 484.824 349.435 486.358C347.793 487.042 346.219 487.881 344.518 488.402C342.007 489.183 339.283 489.019 336.694 489.212C332.157 489.609 327.586 489.117 323.238 487.766C318.881 486.454 314.544 484.998 310.274 483.522C301.832 480.629 293.379 477.649 284.637 475.807C270.35 472.721 252.296 471.95 239.883 481.092C234.087 485.355 228.658 491.469 224.157 497.081C221.917 499.827 219.974 502.801 218.361 505.954C217.347 507.988 214.594 512.704 215.656 514.99C216.883 517.661 221.694 516.919 223.935 516.919C228.717 516.935 233.493 516.554 238.212 515.781C248.161 514.218 257.532 510.66 267.742 510.959C285.709 511.479 302.382 519.561 315.075 532.098C320.63 537.585 325.431 544.172 330.125 550.421C334.665 556.477 337.853 562.958 337.476 570.673L338.268 569.467C331.68 574.289 323.557 574.424 315.867 572.582C308.661 570.866 303.387 567.413 298.306 562.099C293.785 557.364 289.824 552.089 284.898 547.74C279.788 543.236 272.958 540.546 266.283 539.369C260.816 538.405 253.175 537.624 247.93 539.822C242.404 542.127 242.134 548.82 241.071 553.806C238.173 567.799 235.043 581.879 229.373 595.062C223.657 608.36 215.398 620.418 205.059 630.56C193.892 641.352 179.422 651.343 163.049 648.633C151.09 646.656 142.57 637.851 136.233 628.111C129.597 617.888 124.264 606.721 119.309 595.621C117.454 591.474 107.147 568.223 100.047 575.755C97.806 578.127 98.9942 582.621 100.124 585.235C103.438 592.95 107.302 600.481 110.634 608.216C113.967 615.95 117.135 623.569 120.516 631.187C122.168 634.929 123.868 638.661 125.636 642.355C126.457 644.071 127.568 645.807 128.206 647.601C128.843 649.395 128.592 651.111 129.249 652.857C134.89 667.65 141.304 681.74 144.511 697.372C147.61 712.6 147.656 728.291 144.647 743.537C141.834 758.038 137.877 772.294 132.813 786.172C122.825 813.849 109.214 840.022 95.3621 865.935C88.407 878.954 81.3746 891.973 74.661 905.069C67.5031 919.101 60.9344 933.422 54.0759 947.608C39.4026 977.957 24.2656 1008.09 10.1623 1038.72C6.72337 1046.13 3.36496 1053.57 0.0870525 1061.04C-0.569817 1062.53 2.82079 1061.54 3.30378 1060.42C14.7893 1034.22 27.2409 1008.47 39.7987 982.769C52.2502 957.29 64.0932 931.474 76.9504 906.207C99.4192 862.087 125.868 819.414 140.58 771.86C148.086 747.587 152.973 722.735 148.047 697.449C145.593 684.912 141.401 672.713 136.552 660.88C135.383 657.987 134.03 655.229 132.929 652.345C131.828 649.462 131.751 646.742 130.36 643.917C127.182 637.436 124.226 630.85 121.357 624.224C115.744 611.273 110.441 598.186 104.23 585.495C103.104 583.497 102.407 581.287 102.182 579.005C102.182 578.407 101.921 577.076 102.346 576.575C101.68 577.317 101.564 576.15 103.08 577.433C103.694 577.956 104.281 578.509 104.838 579.092C109.108 583.412 112.103 588.735 114.662 594.232C119.116 603.741 123.443 613.211 128.563 622.402C133.209 630.724 138.609 639.114 146.395 644.852C164.894 658.498 188.097 648.71 203.33 634.996C220.882 619.161 232.599 598.707 238.907 576.054C240.559 570.113 241.931 564.105 243.216 558.078C243.834 555.185 244.423 552.359 245.012 549.505C245.37 547.778 245.553 545.522 246.394 543.969C247.437 542.04 248.751 541.703 250.799 541.443C257.244 540.532 263.814 541.18 269.956 543.331C276.098 545.482 281.633 549.075 286.096 553.806C289.96 557.866 293.389 562.312 297.427 566.198C301.27 570.077 306.062 572.886 311.327 574.347C316.126 575.82 321.158 576.383 326.165 576.006C330.502 575.581 336.935 574.077 339.988 570.673C342.384 567.992 340.297 561.665 339.119 558.618C337.187 553.671 333.902 549.418 330.618 545.31C323.431 536.37 316.766 527.777 307.183 521.2C297.56 514.442 286.382 510.222 274.687 508.934C268.321 508.175 261.874 508.458 255.6 509.773C248.673 511.306 241.931 513.225 234.85 514.016C231.295 514.429 227.715 514.586 224.137 514.488C221.993 514.43 219.192 513.89 219.172 511.316C219.172 510.033 220.293 508.095 220.834 506.908C223.423 501.219 227.441 496.3 231.74 491.854C236.038 487.409 240.289 482.355 245.978 479.819C251.9 477.177 258.671 476.289 265.115 476.232C278.223 476.135 290.839 480.089 303.116 484.255C309.25 486.338 315.355 488.508 321.576 490.36C327.527 492.124 332.646 491.719 338.78 491.488C343.987 491.285 348.846 488.99 353.657 487.168C357.849 485.586 362.09 482.259 365.248 479.077C371.73 472.538 372.117 462.846 362.35 459.673C349.039 455.343 335.496 451.958 322.368 447.069C316.235 444.911 309.872 443.468 303.406 442.768C297.05 441.929 290.732 440.839 284.357 440.154C270.06 438.592 255.696 437.464 241.477 435.188C231.923 433.664 220.515 431.273 211.444 435.882C206.837 438.226 204.393 441.977 202.19 446.49C199.708 451.611 197.418 456.896 196.51 462.518C194.395 475.585 187.189 487.254 183.798 500.032C182.127 506.33 181.866 512.569 181.286 518.982C180.601 526.148 179.953 533.188 178.813 540.305C176.659 553.806 174.042 567.259 171.771 580.75C170.632 587.597 169.569 594.464 168.719 601.349C167.898 607.936 168.052 615.024 166.488 621.457C165.773 624.408 162.257 634.91 157.91 631.1C155.591 629.056 153.852 625.218 152.114 622.662L146.424 614.243C138.793 602.95 131.104 591.686 122.584 581.04C118.565 576.015 113.745 571.396 110.18 566.063C106.99 561.244 105.121 555.675 104.761 549.91C103.921 537.508 109.881 527.295 114.286 516.157C119.415 503.215 123.269 489.829 127.162 476.482C129.143 469.664 131.335 462.894 132.659 455.903C133.857 449.557 134.591 443.144 135.354 436.741C136.079 429.486 137.37 422.298 139.218 415.245C140.132 412.316 141.309 409.476 142.734 406.758C144.473 403.229 147.332 400.721 150.075 397.963C154.509 393.508 158.905 389.004 163.087 384.308C167.618 379.225 173.616 375.561 178.978 371.395C189.555 363.197 199.659 354.721 210.855 347.285C215.685 344.103 220.911 341.364 225.026 337.304C228.89 333.446 231.962 328.875 236.038 325.24C238.502 323.06 241.438 320.939 244.887 321.45C247.601 321.855 249.949 323.523 251.938 325.307C255.996 329.01 260.739 334.623 260.091 340.438C259.753 343.389 258.304 345.974 257.106 348.635C255.667 351.837 254.45 355.058 252.779 358.163C249.755 363.925 246.048 369.304 241.738 374.182C233.749 383.054 223.973 390.171 216.487 399.506C209.348 408.407 200.751 416.768 196.201 427.396C193.931 432.758 189.159 437.348 186.068 442.344C182.793 447.619 179.924 453.135 177.133 458.67C174.341 464.206 171.501 470.079 168.506 475.692C165.512 481.304 161.889 486.685 158.847 492.346C155.808 497.738 153.714 503.609 152.655 509.705C151.689 516.157 151.689 522.975 151.689 529.494C151.573 554.384 158.451 581.02 174.283 600.723C177.574 604.655 181.29 608.212 185.363 611.331C189.327 614.712 194.331 616.639 199.544 616.789C205.028 617.068 210.519 616.376 215.762 614.745C218.296 613.924 220.743 612.855 223.065 611.552C225.171 610.376 227.229 610.058 229.373 609.18C233.807 607.377 238.135 602.767 241.197 599.218C244.531 595.284 247.405 590.984 249.765 586.402C252.122 581.917 254.16 577.279 256.247 572.659C258.816 566.998 261.569 561.559 263.511 555.619C265.569 549.321 267.085 542.87 268.679 536.447C270.343 529.909 272.483 523.502 275.083 517.275C279.318 507.164 280.772 496.108 279.295 485.248C277.972 476.396 273.364 462.846 263.839 459.847C259.975 458.632 255.146 459.21 251.967 461.843C248.644 464.611 247.717 469.124 247.456 473.223C247.427 476.931 246.316 480.55 244.259 483.638C242.453 486.415 240.694 489.212 238.985 492.057C235.681 497.547 232.583 503.15 229.692 508.866C224.187 519.827 219.417 531.142 215.415 542.735C211.338 554.423 206.808 566.593 209.995 579.072C213.116 591.33 222.833 599.228 230.368 608.756C234.589 614.108 237.961 620.203 241.651 625.922C245.463 631.589 248.881 637.512 251.881 643.647C257.725 656.184 263.955 668.489 270.041 680.891C273.122 687.169 276.658 693.534 278.658 700.236C280.625 707.11 281.792 714.187 282.135 721.327C282.531 727.817 282.435 734.327 282.241 740.817C282.145 744.163 282.019 747.5 281.913 750.847C281.826 753.836 282.502 758.108 281.671 760.973C281.256 762.39 280.049 763.48 279.633 764.965C278.667 768.572 278.223 772.391 277.247 776.036C275.566 782.178 273.508 788.21 271.084 794.099C266.361 805.748 260.603 816.935 255.281 828.315C252.624 833.985 250.258 839.685 248.161 845.587C246.065 851.489 244.848 857.555 242.858 863.399C241.979 865.993 240.202 868.22 239.091 870.66C237.98 873.1 236.975 875.829 236.106 878.462C234.257 884.054 233.036 889.834 232.464 895.695C232.329 897.036 235.652 895.811 235.787 894.5Z" fill="#4D5139" fill-opacity="0.6"/>
<path d="M159.281 1057.3C155.041 1063.08 152.664 1069.92 150.694 1076.72C148.511 1084.26 146.588 1091.84 144.144 1099.3C141.614 1107.02 138.783 1114.67 136.465 1122.45C134.204 1130.08 132.128 1137.75 129.819 1145.37C127.317 1153.64 124.863 1162.05 124.303 1170.71C124.245 1171.54 127.201 1173.06 127.288 1172.54C127.79 1164.75 129.877 1157.11 132.118 1149.7C134.359 1142.3 136.542 1134.54 138.735 1126.95C140.928 1119.36 143.652 1111.75 146.192 1104.17C148.733 1096.59 150.829 1089.03 152.954 1081.39C155.079 1073.74 157.504 1065.86 162.266 1059.38C162.643 1058.87 159.716 1056.74 159.32 1057.28L159.281 1057.3Z" fill="#4D5139" fill-opacity="0.6"/>
<path d="M298.218 1058.43C297.127 1065.55 300.556 1072.38 304.082 1078.34C308.071 1085.09 312.38 1091.67 316.707 1098.21C325.942 1112.17 335.699 1125.77 345.59 1139.27C355.482 1152.78 365.19 1166.16 375.198 1179.45C385.205 1192.74 395.793 1205.88 405.935 1219.21C411.007 1225.88 415.982 1232.63 420.783 1239.46C425.275 1245.81 430.225 1251.82 435.591 1257.45C436.931 1258.86 438.283 1260.26 439.648 1261.65C440.672 1262.69 443.956 1261.22 442.807 1260.05C437.387 1254.63 432.309 1248.88 427.602 1242.83C422.628 1236.33 418.078 1229.51 413.171 1222.95C403.231 1209.65 392.837 1196.71 382.742 1183.54C372.648 1170.37 362.881 1156.84 353.028 1143.44C343.175 1130.04 333.438 1116.65 324.136 1102.94C319.518 1096.11 315.027 1089.21 310.66 1082.22C306.98 1076.32 302.817 1070.19 301.764 1063.18C301.503 1061.47 301.503 1059.73 301.764 1058.02C302.015 1056.39 298.47 1057.05 298.247 1058.46L298.218 1058.43Z" fill="#4D5139" fill-opacity="0.6"/>
</g>
<path d="M252.987 151.831C249.796 150.152 246.968 148.019 244.615 145.297C242.463 142.822 240.101 140.688 237.396 138.811C232.473 135.378 227.12 132.41 221.377 130.598C208.092 126.416 193.863 128.863 180.34 130.342C177.568 130.646 174.149 130.437 171.521 131.376C170.721 131.661 169.759 132.324 170.683 133.13C170.749 133.187 170.987 133.424 171.073 133.424C171.33 133.083 171.597 132.742 171.854 132.4C171.378 132.372 170.902 132.343 170.435 132.315C168.673 132.23 166.892 132.267 165.13 132.068C163.397 131.879 162.454 131.67 161.673 130.134C161.197 129.195 160.14 127.839 160.006 126.853C159.864 125.819 160.616 125.07 160.854 124.131C161.083 123.249 160.93 122.566 160.568 121.751C159.568 119.494 157.921 117.227 156.283 115.378C152.902 111.557 147.978 109.243 143.502 106.948C140.654 105.488 137.778 104.786 135.426 102.491C132.959 100.092 130.921 96.9718 129.654 93.7856C128.588 91.1208 127.864 87.9251 127.921 85.0328C127.988 81.6948 129.616 78.6318 131.245 75.8059C134.321 70.4669 137.34 65.1754 139.311 59.3339C140.33 56.2994 142.159 55.1425 145.264 54.564C147.445 54.1562 149.93 53.7959 152.121 54.2416C154.759 54.7726 157.397 56.527 160.121 55.3226C161.53 54.6968 162.416 53.4071 163.13 52.0984C163.854 50.7613 165.368 48.1725 164.94 46.5225C164.444 44.6448 160.816 45.5552 162.14 47.1104C162.854 47.9544 164.568 48.0777 165.549 48.1725C169.063 48.5044 172.644 48.0492 176.159 47.888C179.406 47.7458 183.263 47.4897 186.254 49.0165C188.873 50.3536 190.53 52.9235 192.416 55.0761C194.244 57.1623 196.606 58.196 198.635 60.0072C200.778 61.9133 201.72 64.5306 202.939 67.0436C205.492 72.3161 208.958 75.8438 213.816 79.068C219.196 82.6431 223.387 87.4509 228.33 91.5286C233.958 96.1753 238.149 102.026 242.396 107.896C246.387 113.396 251.206 119.086 253.177 125.696C253.93 128.209 254.244 130.93 254.634 133.519C254.853 135.008 255.11 136.63 254.796 138.118C254.434 139.844 253.263 141.314 252.701 142.974C251.853 145.458 251.158 148.208 251.082 150.845C251.044 152.153 251.206 153.5 251.691 154.723C252.377 156.449 253.32 157.464 253.51 159.408C253.815 162.461 254.815 164.491 256.491 167.051C258.32 169.848 259.12 172.855 259.53 176.145C260.406 183.2 260.872 190.313 261.644 197.387C262.415 204.452 264.025 211.374 264.701 218.439C265.415 225.931 266.691 233.185 268.291 240.534C269.825 247.542 271.339 254.531 272.12 261.672C272.482 264.963 272.748 268.263 273.063 271.563C273.415 275.157 274.282 278.58 274.977 282.108C276.31 288.812 275.758 296.105 275.644 302.904C275.52 309.997 275.196 317.09 274.71 324.174C270.682 381.916 255.425 438.141 239.996 493.701C238.111 500.501 236.215 507.3 234.33 514.099C234.006 515.275 236.901 515.266 237.177 514.27C247.015 478.709 257.187 443.204 265.034 407.15C272.825 371.361 278.387 334.899 278.606 298.21C278.634 293.724 278.844 289.097 278.339 284.63C277.863 280.429 276.491 276.399 276.063 272.189C275.101 262.886 274.12 253.782 272.148 244.631C271.177 240.117 270.148 235.622 269.282 231.089C268.406 226.5 267.977 221.91 267.52 217.273C267.072 212.749 266.101 208.34 265.387 203.854C264.653 199.189 264.253 194.466 263.796 189.772C263.015 181.75 263.425 172.712 258.834 165.752C257.806 164.187 256.777 162.566 256.491 160.678C256.206 158.772 256.339 157.435 255.349 155.719C253.063 151.755 254.158 147.279 255.53 143.144C256.082 141.466 257.215 140.015 257.625 138.289C258.015 136.649 257.777 134.894 257.53 133.254C256.977 129.555 256.482 125.81 254.939 122.358C253.187 118.432 250.691 114.847 248.177 111.376C245.511 107.688 242.863 103.97 240.073 100.367C234.949 93.7476 228.577 88.3803 222.368 82.8043C219.406 80.1491 216.111 78.1387 212.958 75.73C209.958 73.4446 207.816 70.5997 206.139 67.2617C204.654 64.3125 203.606 61.2021 201.054 58.9546C199.692 57.7503 197.978 57.058 196.606 55.8632C195.216 54.6588 194.14 53.1131 192.94 51.7286C191.044 49.5286 188.93 47.6509 186.044 46.8923C182.092 45.8492 177.825 46.1621 173.797 46.3992C171.473 46.5319 169.111 46.75 166.787 46.5888C166.168 46.5509 165.387 46.219 164.806 46.2474C164.349 46.2664 165.121 45.8112 164.521 46.5225C164.111 46.6931 163.711 46.8638 163.302 47.0345C161.387 47.2621 162.273 46.0862 161.902 47.869C161.702 48.8647 161.235 49.8605 160.816 50.7898C160.206 52.1269 159.435 54.2131 157.74 54.0235C156.445 53.8812 155.14 53.1131 153.864 52.8097C151.997 52.364 150.168 52.3734 148.264 52.5536C144.568 52.9045 139.521 53.3692 137.397 56.8873C136.197 58.8788 135.883 61.3159 134.902 63.4211C133.549 66.3419 132.064 69.2626 130.464 72.0506C127.854 76.6119 124.578 81.2017 125.045 86.7207C125.54 92.4674 127.892 97.8917 131.73 102.216C133.416 104.113 135.292 105.677 137.683 106.616C140.883 107.868 143.826 109.48 146.835 111.13C151.006 113.415 154.054 116.222 156.53 120.281C157.33 121.59 158.321 122.794 157.825 124.368C157.578 125.146 157.045 125.791 157.035 126.644C157.035 127.867 157.968 128.854 158.473 129.906C158.825 130.646 159.073 131.423 159.645 132.03C161.368 133.889 164.825 133.718 167.111 133.804C168.93 133.87 171.854 134.6 173.502 133.576C173.702 133.453 173.883 133.225 173.873 132.979C173.863 132.599 173.473 132.391 173.206 132.182C172.949 131.907 172.778 132.087 172.673 132.723C173.016 132.666 173.349 132.628 173.692 132.599C174.74 132.486 175.797 132.4 176.844 132.286C180.749 131.879 184.644 131.423 188.549 131.016C197.073 130.115 205.778 129.11 214.292 130.655C221.701 132.002 228.415 135.349 234.587 139.579C237.72 141.722 240.225 144.225 242.749 147.032C245.034 149.574 247.977 151.527 250.987 153.111C251.891 153.585 254.434 152.589 252.939 151.802L252.987 151.831Z" fill="#4D5139" fill-opacity="0.6"/>
<path d="M259.52 155.728C260.063 152.542 260.767 149.356 262.063 146.388C263.405 143.315 265.52 140.669 267.529 138.014C268.558 136.658 269.577 135.292 270.529 133.88C271.424 132.542 272.148 131.101 273.272 129.935C274.329 128.835 275.558 127.915 276.653 126.843C277.853 125.667 278.967 124.349 279.901 122.955C281.853 120.063 282.681 116.658 284.31 113.595C285.92 110.57 286.919 107.308 287.577 103.961C288.805 97.6641 290.072 91.4148 292.205 85.3362C294.31 79.343 297.148 73.5489 301.072 68.5229C303.081 65.953 305.31 63.6676 308.043 61.8469C310.738 60.0546 313.672 58.6511 316.595 57.2761C323.129 54.1941 329.595 51.1122 336.672 49.4621C340.291 48.6182 343.938 47.888 347.633 47.4328C351.29 46.9776 354.995 46.4466 358.681 46.3612C360.49 46.3233 362.281 46.4371 364.052 46.8259C365.014 47.0345 365.605 47.1578 365.928 48.1061C366.595 50.0785 366.262 52.2027 367.662 53.9286C368.471 54.9243 369.7 55.2752 370.624 56.1287C371.528 56.9632 372.186 58.0537 372.871 59.0589C373.624 60.1684 374.414 61.221 375.433 62.1029C376.471 63.0038 377.738 63.6107 378.833 64.4452C380.576 65.7728 382.005 67.4039 382.966 69.3764C383.976 71.4626 384.462 73.7575 384.871 76.0334C385.128 77.4843 385.481 79.0016 385.471 80.4714C385.462 82.0646 385.014 83.5629 384.404 85.0233C383.071 88.2095 381.509 91.2725 380.452 94.5726C379.538 97.446 378.814 100.215 379.566 103.202C379.795 104.122 380.176 105.07 380.176 106.028C380.176 107.175 379.462 108.095 378.652 108.854C376.776 110.618 374.033 111.452 371.624 112.192C370.347 112.581 369.062 112.941 367.776 113.311C366.586 113.662 365.157 113.956 364.233 114.838C363.576 115.464 363.633 116.089 363.509 116.896C363.528 116.744 363.443 116.896 363.548 116.82C363.338 116.962 363.109 117.028 362.871 117.104C362.005 117.36 361.119 117.474 360.214 117.521C358.433 117.616 356.652 117.436 354.881 117.322C353.024 117.199 351.205 117.237 349.357 117.389C345.481 117.702 341.643 118.299 337.776 118.697C334.405 119.048 331.072 119.01 327.681 119.01C324.472 119.01 321.129 119.143 318.091 120.29C314.681 121.58 311.424 123.448 308.196 125.127C304.996 126.796 302.005 128.787 298.996 130.769C297.529 131.736 295.986 132.609 294.577 133.642C293.243 134.619 292.024 135.738 290.767 136.81C288.167 139.029 285.281 140.337 281.986 141.219C278.596 142.13 275.034 142.272 271.691 143.306C268.539 144.282 265.234 144.937 262.586 147.013C260.282 148.815 258.272 151.262 256.929 153.86C256.377 154.932 256.329 156.041 256.205 157.208C256.053 158.677 255.653 160.109 255.101 161.475C255.586 161.266 256.063 161.058 256.548 160.849C256.967 161.655 257.177 161.826 257.196 161.361C257.224 161.314 257.244 161.266 257.263 161.219C257.377 161.115 257.453 160.915 257.567 160.792C258.71 159.597 256.31 157.976 255.244 159.076C253.844 160.536 254.12 162.869 256.32 163.277C256.844 163.372 257.548 163.201 257.767 162.651C258.348 161.228 258.786 159.692 258.986 158.165C259.158 156.876 259.129 155.814 259.796 154.657C261.263 152.115 263.291 149.631 265.853 148.123C267.329 147.25 268.986 146.843 270.624 146.369C272.367 145.866 274.062 145.297 275.853 144.984C279.377 144.368 282.862 143.884 286.234 142.642C287.777 142.073 289.281 141.381 290.634 140.442C292.034 139.474 293.3 138.327 294.577 137.218C297.253 134.904 300.396 133.13 303.357 131.196C306.529 129.119 309.805 127.317 313.186 125.601C316.319 124.017 319.434 122.215 322.967 121.741C326.262 121.305 329.605 121.542 332.919 121.504C336.691 121.466 340.433 120.926 344.167 120.471C347.957 120.006 351.748 119.551 355.567 119.807C357.395 119.93 359.243 120.11 361.081 119.977C362.509 119.873 364.3 119.712 365.5 118.84C366.328 118.233 366.205 117.588 366.376 116.725C366.376 116.715 366.262 116.81 366.433 116.668C366.624 116.507 366.862 116.393 367.1 116.289C367.7 116.033 368.357 115.871 368.986 115.691C371.671 114.904 374.386 114.183 376.957 113.064C379.233 112.078 381.871 110.513 382.728 108.038C383.509 105.8 382.3 103.733 382.062 101.524C381.9 100.016 382.319 98.508 382.728 97.0761C383.214 95.3502 383.824 93.6622 384.5 92.0027C385.757 88.9113 387.624 85.9147 388.176 82.5956C388.662 79.7033 387.871 76.5076 387.224 73.6816C386.719 71.4437 386.005 69.2057 384.776 67.2522C383.452 65.1564 381.681 63.4211 379.633 62.0176C378.471 61.221 377.271 60.6046 376.347 59.5141C375.5 58.4994 374.833 57.352 374.062 56.2899C373.281 55.2183 372.338 54.2321 371.195 53.5303C370.262 52.9614 369.681 52.6863 369.386 51.5863C368.852 49.6328 369.081 47.4328 367.538 45.8776C366.452 44.7776 364.852 44.4741 363.386 44.2181C361.548 43.9051 359.671 43.8198 357.805 43.8767C354.119 43.9905 350.405 44.512 346.757 44.9862C339.329 45.944 331.938 47.5845 325.014 50.4768C321.653 51.8803 318.376 53.4545 315.091 55.0097C312.072 56.4416 309.024 57.864 306.234 59.7227C300.777 63.3547 296.805 68.8358 293.729 74.5446C290.624 80.3197 288.529 86.5595 286.948 92.8941C285.329 99.3615 284.881 106.284 281.72 112.258C280.081 115.359 279.253 118.925 277.186 121.798C276.186 123.183 275.034 124.482 273.777 125.639C272.615 126.701 271.348 127.668 270.339 128.882C269.291 130.143 268.567 131.651 267.634 132.998C266.634 134.439 265.558 135.842 264.491 137.246C262.463 139.93 260.415 142.67 259.139 145.8C257.92 148.796 257.224 151.992 256.682 155.169C256.424 156.667 259.244 157.359 259.52 155.719V155.728Z" fill="#4D5139" fill-opacity="0.6"/>
<path d="M266.034 135.899C266.691 132.979 267.434 130.086 268.206 127.204C268.93 124.482 269.834 121.741 270.196 118.944C270.558 116.127 270.434 113.273 270.587 110.438C270.73 107.697 270.958 105.032 270.644 102.282C269.558 92.7615 264.663 84.3406 260.091 76.0999C257.768 71.9084 255.453 67.679 253.758 63.1841C251.949 58.3952 250.739 53.4261 249.882 48.3907C249.415 45.6406 248.711 42.8336 248.606 40.0456C248.501 37.324 249.053 34.5171 249.825 31.9093C251.196 27.2721 253.577 23.1754 255.987 19.0219C257.977 15.5891 260.234 11.445 263.93 9.56739C265.034 9.0079 266.272 8.73289 267.453 8.41047C268.387 8.15443 268.625 8.04064 269.358 8.02167C270.758 8.0027 272.158 8.22081 273.549 8.41995C276.853 8.8941 280.234 9.65274 283.587 9.63377C285.101 9.62429 286.625 9.18808 287.71 8.06909C288.187 7.57597 288.491 6.95009 288.691 6.29577C288.853 5.75524 288.92 5.10092 289.272 4.64573C289.787 3.97244 290.806 3.91555 291.567 3.73537C292.92 3.41295 294.244 2.89139 295.625 2.72069C296.796 2.57845 297.986 2.59741 299.167 2.4931C300.215 2.39827 301.291 2.27499 302.348 2.35086C304.253 2.4931 305.929 3.52674 307.777 3.93451C309.453 4.30435 311.186 4.42763 312.891 4.53194C315.882 4.71212 319.282 4.53194 322.005 5.63196C322.396 5.79317 322.805 6.03025 323.091 6.37163C323.377 6.71302 323.586 7.21562 323.662 7.81304C323.901 9.48205 324.091 11.0373 325.015 12.5071C328.377 17.8176 335.691 17.0305 341.062 16.4236C342.548 16.2529 343.853 16.2529 345.205 17.002C346.958 17.9693 348.358 19.5719 349.443 21.222C352.167 25.3565 353.405 30.7049 353.186 35.6266C353.129 36.9257 352.948 38.2059 352.577 39.4482C352.415 39.9887 352.224 40.5198 352.034 41.0414C351.853 41.544 351.7 42.4828 351.3 42.8431C350.91 43.194 350.243 43.194 349.815 43.5069C348.929 44.1423 349.253 45.0527 349.815 45.7828C349.881 45.8682 349.948 45.963 350.024 46.0484C350.205 46.276 349.805 45.7544 349.948 45.9535C349.986 46.0104 350.024 46.0578 350.062 46.1147C350.224 46.3423 350.386 46.5604 350.529 46.7975C350.853 47.2906 351.157 47.8122 351.434 48.3338C351.586 48.6277 351.729 48.9217 351.862 49.2157C351.967 49.4433 352.072 49.7183 351.948 49.4148C352.024 49.595 352.091 49.7752 352.157 49.9553C352.424 50.676 352.653 51.4157 352.824 52.1649C352.919 52.5726 352.996 52.9709 353.062 53.3882C353.091 53.5873 353.119 53.7959 353.148 54.0046C353.196 54.327 353.157 54.0899 353.157 54.0994C353.167 54.2132 353.177 54.3365 353.196 54.4503C353.377 56.5081 353.215 58.5848 352.824 60.6142C352.796 60.7659 352.767 60.9082 352.729 61.0599C352.653 61.4297 352.729 61.0409 352.681 61.259C352.605 61.5815 352.529 61.9039 352.443 62.2263C352.281 62.8427 352.091 63.4591 351.881 64.066C351.424 65.4126 350.891 66.7402 350.281 68.0299C348.729 71.3299 346.958 74.1464 344.834 77.0387C338.396 85.8199 330.243 93.3304 321.843 100.215C308.129 111.443 293.177 121.172 277.977 130.267C273.206 133.121 268.387 135.909 263.549 138.64C262.072 139.475 264.215 141.343 265.444 140.641C282.834 130.826 299.958 120.366 315.92 108.342C325.862 100.85 335.577 92.733 343.615 83.2026C348.234 77.7309 352.538 71.5765 354.729 64.6919C356.053 60.5478 356.557 56.1003 355.51 51.8425C355.138 50.3441 354.567 48.8838 353.843 47.5182C353.557 46.9872 353.253 46.4751 352.919 45.982C352.767 45.7544 352.615 45.5363 352.453 45.3182C352.329 45.157 352.215 44.9104 352.053 44.7966C352.024 44.7776 351.977 44.6544 351.938 44.6544C351.786 44.6354 352.138 44.4837 351.986 44.7018C351.919 44.9578 351.843 45.2139 351.777 45.4699C351.9 45.4035 351.919 45.394 351.862 45.4225C352.081 45.4794 352.796 45.0811 352.977 44.9863C353.338 44.7966 353.653 44.5406 353.891 44.1992C354.586 43.213 354.919 41.7241 355.262 40.5767C356.072 37.912 356.167 35.1524 355.862 32.3929C355.329 27.5186 353.834 22.7961 350.757 18.9176C348.262 15.7693 344.834 13.6071 340.719 14.0623C338.062 14.3563 335.339 14.7546 332.662 14.4322C330.034 14.1192 327.691 13.133 326.843 10.364C326.386 8.84669 326.596 7.21562 325.701 5.84059C324.929 4.65522 323.691 3.85865 322.367 3.39398C319.158 2.25603 315.596 2.39827 312.243 2.19913C310.586 2.1043 308.882 1.96205 307.272 1.51636C306.529 1.30773 305.853 0.95686 305.129 0.70082C303.977 0.293053 302.796 0.0559788 301.567 0.00856392C300.548 -0.0293679 299.529 0.0654617 298.52 0.160291C297.234 0.274087 295.92 0.264604 294.634 0.435297C293.358 0.605991 292.148 0.985309 290.92 1.3267C289.758 1.63963 288.482 1.76291 287.491 2.4931C286.234 3.41295 286.367 4.75005 285.682 5.98283C284.977 7.26303 283.701 7.32941 282.548 7.30096C279.206 7.2251 275.872 6.42853 272.558 6.0018C271.149 5.82162 269.672 5.60351 268.253 5.71731C267.406 5.78369 266.606 6.04921 265.787 6.2768C264.501 6.62767 263.206 6.97854 262.015 7.58545C258.244 9.49153 255.863 13.5123 253.806 17.021C251.368 21.1651 248.901 25.2807 247.406 29.8704C246.587 32.4024 246.006 35.0481 245.796 37.7034C245.577 40.5672 246.244 43.3647 246.72 46.1716C247.634 51.4821 248.672 56.6882 250.444 61.7996C253.625 70.9506 259.196 78.9448 263.339 87.6406C265.387 91.9364 267.015 96.4408 267.71 101.163C268.12 103.989 267.939 106.73 267.768 109.565C267.596 112.401 267.72 115.246 267.396 118.071C267.072 120.916 266.13 123.704 265.396 126.473C264.663 129.242 263.949 132.021 263.32 134.809C263.158 135.52 263.568 136.127 264.244 136.402C264.73 136.601 265.863 136.639 266.025 135.918L266.034 135.899Z" fill="#4D5139" fill-opacity="0.6"/>
<path d="M265.282 135.075C264.91 131.452 264.71 127.811 264.206 124.207C263.682 120.499 262.615 117.009 261.386 113.472C260.186 110.011 258.967 106.559 258.12 102.994C257.72 101.306 257.339 99.5987 256.71 97.9772C256.091 96.365 255.234 94.8952 254.282 93.4633C253.377 92.0882 252.396 90.7322 251.72 89.2244C251.063 87.7545 250.834 86.1235 250.091 84.682C248.587 81.7518 245.615 80.7182 243.11 78.869C241.825 77.9207 240.739 76.7163 239.444 75.7965C238.158 74.8861 236.71 74.2413 235.215 73.7387C233.701 73.2361 232.139 72.9137 230.596 72.5438C228.977 72.155 227.387 71.7473 225.72 71.6145C224.044 71.4817 222.349 71.88 220.692 71.7188C219.349 71.5955 218.053 71.0929 216.758 70.761C213.892 70.0309 210.996 69.974 209.206 72.6671C208.492 73.7482 211.092 75.0473 211.844 73.9094C213.206 71.8611 215.473 72.4869 217.482 73.0464C218.663 73.3689 219.834 73.7197 221.053 73.862C222.387 74.0232 223.701 73.7197 225.034 73.7292C227.968 73.7292 230.958 74.6301 233.777 75.3982C235.082 75.7491 236.377 76.1948 237.52 76.925C238.825 77.7595 239.882 78.9259 241.091 79.8837C243.196 81.5527 246.206 82.4346 247.548 84.9191C248.263 86.2467 248.472 87.8019 249.063 89.1864C249.672 90.5994 250.501 91.8891 251.348 93.1598C252.196 94.44 253.082 95.7202 253.72 97.1237C254.396 98.6125 254.787 100.215 255.167 101.799C255.977 105.165 256.987 108.437 258.12 111.708C259.387 115.35 260.672 118.963 261.301 122.775C261.929 126.606 262.11 130.485 262.501 134.335C262.577 135.046 263.139 135.558 263.825 135.729C264.263 135.843 265.348 135.776 265.272 135.065L265.282 135.075Z" fill="#4D5139" fill-opacity="0.6"/>
<path d="M180.492 131.509C180.235 134.496 179.13 137.398 179.178 140.413C179.216 142.499 179.825 144.624 180.74 146.492C181.625 148.294 182.892 149.944 184.797 150.731C187.34 151.774 190.168 152.039 192.882 152.276C194.263 152.4 195.663 152.57 197.044 152.589C198.53 152.608 200.025 152.504 201.492 152.788C204.292 153.32 206.435 155.387 209.139 156.145C210.111 156.42 211.082 156.278 212.044 156.022C213.511 155.633 214.882 155.301 216.406 155.178C219.216 154.96 222.168 154.979 224.892 154.211C227.606 153.443 230.473 152.504 232.539 150.522C233.663 149.441 234.749 148.398 235.939 147.402C236.206 147.175 236.473 146.956 236.749 146.748C236.863 146.653 236.987 146.568 237.111 146.482C237.482 146.236 237.501 146.217 237.177 146.435C236.901 146.549 236.873 146.606 237.101 146.596C237.273 146.729 237.863 146.786 238.092 146.852C238.482 146.975 238.854 147.07 239.263 147.099C239.815 147.146 240.501 146.767 240.977 146.539C241.101 146.482 242.025 145.913 241.815 145.894C240.596 145.79 239.644 145.183 238.387 145.496C237.12 145.809 235.892 146.425 234.834 147.165C233.854 147.848 232.901 148.654 232.006 149.441C230.996 150.323 230.177 151.508 229.044 152.248C228.082 152.874 226.625 153.206 225.501 153.405C224.139 153.642 222.749 153.689 221.368 153.784C219.93 153.879 218.473 153.974 217.044 154.164C215.692 154.344 214.416 154.96 213.073 155.093C211.892 155.207 210.768 154.638 209.749 154.107C208.597 153.519 207.492 152.855 206.311 152.333C203.511 151.091 200.559 151.546 197.597 151.271C194.911 151.025 192.187 150.882 189.549 150.238C187.244 149.669 185.502 148.72 184.197 146.719C182.902 144.728 182.092 142.31 181.911 139.949C181.654 136.715 182.911 133.585 183.197 130.39C183.206 130.238 181.863 130.722 181.768 130.76C181.511 130.873 180.54 131.177 180.511 131.528L180.492 131.509Z" fill="#4D5139" fill-opacity="0.6"/>
<path d="M261.368 149.261C263.682 149.024 265.996 148.73 268.311 148.521C270.292 148.351 272.053 148.806 273.892 149.555C275.653 150.276 277.472 150.958 279.177 151.783C281.063 152.694 282.806 153.68 284.968 153.633C286.958 153.585 288.834 152.827 290.825 152.694C293.006 152.561 295.187 152.722 297.368 152.646C301.768 152.485 306.187 151.878 310.567 151.376C312.634 151.139 314.691 150.826 316.71 150.342C318.844 149.83 320.929 149.119 323.072 148.597C325.263 148.066 327.501 147.639 329.748 147.45C331.653 147.289 333.596 147.44 335.472 147.051C339.082 146.312 341.301 143.457 343.596 140.812C344.262 140.044 344.939 139.256 345.701 138.574C346.377 137.967 347.148 137.436 347.653 136.658C348.453 135.425 348.701 133.842 348.786 132.41C348.881 130.779 348.739 129.034 347.967 127.564C347.234 126.151 345.929 125.193 344.51 124.52C342.653 123.647 340.643 123.192 338.691 122.585C337.824 122.32 336.663 122.035 335.948 121.438C335.472 121.04 335.377 120.347 335.234 119.778C335.091 119.228 334.272 119.153 333.815 119.115C333.615 119.096 333.405 119.077 333.205 119.058C332.863 119.029 331.739 119.029 331.71 119.551C331.682 120.082 332.834 120.186 333.129 120.215C333.329 120.234 333.539 120.253 333.739 120.272L332.32 119.608C332.615 120.765 332.815 121.59 333.92 122.206C335.615 123.164 337.567 123.61 339.415 124.15C342.377 125.013 345.196 126.208 345.758 129.574C346.005 131.054 345.939 132.628 345.634 134.098C345.272 135.795 344.453 136.772 343.158 137.881C340.396 140.262 338.548 144.159 335.072 145.638C333.529 146.293 331.805 146.122 330.167 146.207C328.072 146.312 325.986 146.596 323.929 147.004C319.729 147.839 315.71 149.346 311.472 149.982C307.272 150.598 302.987 151.034 298.758 151.357C294.644 151.67 290.444 151.072 286.396 152.068C285.225 152.352 284.444 152.589 283.311 152.077C282.32 151.632 281.396 151.082 280.387 150.674C278.434 149.887 276.52 148.995 274.539 148.284C272.558 147.582 270.463 147.184 268.358 147.298C265.796 147.431 263.234 147.829 260.692 148.095C260.358 148.133 259.425 148.199 259.625 148.739C259.806 149.223 261.015 149.289 261.396 149.251L261.368 149.261Z" fill="#4D5139" fill-opacity="0.6"/>
<path d="M271.225 114.696C271.825 112.448 272.625 110.258 273.206 108.01C273.749 105.914 274.177 103.79 274.701 101.694C275.244 99.5133 275.787 97.3227 276.12 95.0848C276.444 92.8847 276.52 90.6467 276.539 88.4277C276.568 83.8569 276.196 79.2861 275.739 74.7438C275.301 70.3437 275.091 65.9152 274.644 61.5151C274.206 57.2193 273.034 53.0752 272.444 48.7984C271.872 44.6733 271.168 40.6146 268.949 37.0016C266.834 33.5593 264.082 30.629 262.263 26.9971C261.396 25.2617 260.444 23.7729 258.939 22.5116C257.501 21.3073 255.834 20.3685 254.558 18.9745C253.396 17.7038 252.434 16.6512 250.739 16.0917C249.12 15.5606 247.415 15.4468 245.72 15.3046C243.949 15.1623 242.149 14.9632 240.549 14.1192C239.187 13.3985 238.054 12.3649 236.873 11.4071C235.749 10.4967 234.577 9.70014 233.168 9.29237C232.396 9.07426 231.596 8.96995 230.796 8.96047C229.863 8.95098 229.549 9.16909 228.796 8.87512C227.32 8.29666 226.082 7.42423 224.454 7.29147C222.635 7.13974 221.073 8.03114 219.454 8.75184C218.711 9.08375 217.93 9.45358 217.339 10.032C216.806 10.5536 217.492 10.2596 217.473 10.3545C217.473 10.3545 217.016 10.345 217.054 10.345C216.568 10.345 216.073 10.3734 215.606 10.5157C214.749 10.7717 214.339 11.445 213.768 12.0709C213.073 12.8295 212.149 13.389 211.492 14.1761C211.054 14.6977 210.825 15.5701 210.197 15.902C209.358 16.3382 208.225 16.4425 207.33 16.7649C206.054 17.2296 204.787 17.7986 203.73 18.671C202.444 19.7236 201.949 21.0133 201.644 22.597C201.539 23.1375 201.444 23.678 201.111 24.1332C200.625 24.7875 199.778 24.9582 199.025 25.1574C193.673 26.5703 187.082 26.5609 183.121 30.9989C182.006 32.2411 181.349 33.7964 180.683 35.3136C179.892 37.1344 179.235 39.031 179.073 41.0224C178.987 42.1129 179.006 43.2509 179.073 44.3414C179.14 45.3087 179.225 46.6078 179.921 47.3665C180.759 48.2768 182.502 48.2105 183.549 47.7932C184.063 47.5846 184.054 47.2811 183.559 47.0535C182.997 46.807 182.063 46.7975 181.492 47.0251C180.863 47.2716 182.797 46.9966 182.778 47.1484C182.778 47.1199 182.625 47.0251 182.616 46.9682C182.578 46.807 182.406 46.6078 182.349 46.4466C182.149 45.9156 182.073 45.3182 182.025 44.7492C181.94 43.8578 181.94 42.9664 181.949 42.075C181.978 40.0361 182.454 38.1016 183.235 36.224C183.844 34.7352 184.492 33.142 185.473 31.8523C188.892 27.3764 195.34 27.3574 200.349 26.1057C201.892 25.7169 203.701 25.3375 204.292 23.678C204.701 22.5211 204.663 21.2978 205.359 20.2357C206.892 17.9029 209.863 17.5331 212.273 16.6701C212.92 16.4425 213.33 15.9968 213.682 15.4279C214.158 14.6692 214.644 14.1761 215.32 13.5976C215.892 13.1045 216.92 12.3269 217.225 11.6157C217.301 11.5304 217.377 11.445 217.463 11.3502C216.987 11.3786 216.873 11.3976 217.12 11.3976C217.254 11.4166 217.397 11.3976 217.539 11.3976C218.016 11.3976 218.53 11.3597 218.987 11.1984C219.72 10.9424 220.12 10.2976 220.777 9.90876C221.558 9.4441 222.425 9.14064 223.254 8.77081C223.368 8.72339 224.235 8.28718 224.244 8.30614C224.111 8.30614 223.977 8.30614 223.854 8.30614C223.882 8.30614 223.911 8.32511 223.939 8.33459C224.006 8.39149 224.216 8.4389 224.311 8.46735C225.054 8.76133 225.739 9.17858 226.473 9.49151C227.158 9.78549 227.873 9.99411 228.615 10.0795C229.377 10.1648 230.111 9.96566 230.863 10.0131C232.092 10.0795 233.225 11.0278 234.13 11.7579C235.244 12.6588 236.301 13.6261 237.539 14.3658C238.996 15.2287 240.606 15.7313 242.273 16.0063C245.282 16.5089 248.987 15.921 251.13 18.5288C253.396 21.2883 256.882 22.6634 258.672 25.8496C259.596 27.4807 260.349 29.1782 261.415 30.7334C262.501 32.317 263.71 33.8058 264.825 35.361C267.215 38.6991 268.501 42.2836 269.13 46.3139C269.434 48.2484 269.644 50.1924 270.006 52.1269C270.377 54.1468 270.949 56.1193 271.263 58.1486C271.91 62.2547 272.034 66.4178 272.377 70.5523C272.729 74.8386 273.263 79.106 273.472 83.4017C273.682 87.7544 273.72 92.1735 272.929 96.4693C272.568 98.4512 272.063 100.395 271.577 102.349C271.053 104.454 270.653 106.597 270.063 108.683C269.501 110.684 268.806 112.647 268.272 114.658C268.12 115.208 270.968 115.549 271.196 114.696H271.225Z" fill="#4D5139" fill-opacity="0.6"/>
<path d="M181.94 131.964C182.463 131.964 183.406 131.737 183.406 131.063C183.406 130.39 182.463 130.143 181.949 130.143C181.435 130.143 180.482 130.371 180.482 131.044C180.482 131.718 181.425 131.964 181.94 131.964Z" fill="#4D5139" fill-opacity="0.6"/>
<path d="M184.035 130.058C183.568 127.573 183.044 125.041 181.92 122.756C181.368 121.628 180.673 120.575 179.882 119.598C179.025 118.546 178.006 117.654 177.139 116.621C175.301 114.411 173.987 111.803 172.854 109.176C171.759 106.635 170.606 103.98 170.225 101.22C169.816 98.2806 170.492 95.7107 172.416 93.4442C174.359 91.1683 176.959 89.3761 178.054 86.5122C178.53 85.2699 178.749 83.9328 179.282 82.719C179.797 81.5242 180.673 80.5284 181.692 79.7224C182.644 78.9732 183.844 78.0249 185.054 77.7689C186.473 77.4749 187.949 77.8353 189.387 77.5887C190.844 77.3422 192.273 76.3465 193.749 76.337C194.406 76.337 195.025 76.6784 195.616 76.9154C196.311 77.1904 197.044 77.3896 197.796 77.4085C199.568 77.456 201.32 77.0008 203.101 77.0292C205.035 77.0577 206.958 77.162 208.882 76.9913C209.587 76.9344 210.244 76.2706 210.149 75.5404C210.044 74.7533 209.215 74.4499 208.52 74.5068C206.796 74.6585 205.073 74.5352 203.339 74.5162C202.549 74.5162 201.749 74.5162 200.958 74.5731C200.073 74.63 199.187 74.8671 198.301 74.8956C196.996 74.943 195.835 74.0421 194.558 73.8619C193.044 73.6438 191.616 74.2318 190.225 74.7438C188.835 75.2559 187.52 75.1326 186.073 75.1706C184.444 75.2085 183.12 75.6921 181.73 76.5361C179.339 77.9775 177.159 79.9405 176.282 82.6526C175.844 84.0087 175.549 85.4217 174.882 86.6924C174.168 88.0674 172.825 89.1105 171.749 90.2011C169.559 92.4296 167.654 94.8193 167.254 98.0056C166.892 100.926 167.625 103.79 168.654 106.502C169.72 109.328 170.863 112.154 172.397 114.762C173.235 116.184 174.187 117.569 175.292 118.802C176.32 119.94 177.454 120.954 178.311 122.244C179.949 124.71 180.578 127.602 181.111 130.466C181.416 132.078 184.311 131.67 184.006 130.058H184.035Z" fill="#4D5139" fill-opacity="0.6"/>
<path d="M277.587 329.93C282.034 312.671 283.168 294.853 285.196 277.215C286.167 268.794 287.548 260.468 289.063 252.132C290.329 245.172 291.634 238.221 293.444 231.374C297.015 217.861 302.815 204.717 313.491 195.263C319.605 189.848 325.186 183.798 331.605 178.715C334.767 176.212 338.167 173.822 341.596 171.688C342.9 170.873 344.291 170.294 345.643 169.583C346.758 169.004 347.843 168.369 348.957 167.762C350.091 167.146 351.253 166.501 352.462 166.065C352.624 166.008 352.843 165.97 352.996 165.894C353.3 165.733 352.91 165.998 352.777 165.875C353.024 166.093 353.653 166.131 353.977 166.33C355.548 167.288 355.243 169.308 354.748 170.787C353.405 174.789 350.481 178.032 348.091 181.427C345.958 184.452 344.215 187.838 342.481 191.1C340.434 194.94 338.51 198.847 336.615 202.764C334.748 206.614 332.758 210.426 331.1 214.38C329.548 218.079 328.262 221.872 326.92 225.646C324.234 233.214 321.224 240.525 316.186 246.879C313.653 250.074 310.815 253.005 307.882 255.831C305.167 258.448 302.482 261.15 299.348 263.265C296.882 264.934 294.263 266.376 292.082 268.414C289.377 270.937 287.863 274.19 286.567 277.594C285.006 281.71 283.787 285.948 282.234 290.074C281.529 291.942 280.739 293.772 279.834 295.555C279.025 297.148 278.129 298.779 277.872 300.562C277.596 302.496 278.044 304.393 278.12 306.318C278.187 308.243 277.663 310.035 276.796 311.742C276.015 313.278 275.025 314.701 274.177 316.199C273.263 317.821 272.634 319.509 272.272 321.339C271.872 323.397 271.72 325.492 271.415 327.56C271.11 329.665 270.644 331.761 270.215 333.847C269.758 336.037 269.301 338.228 268.91 340.428C268.549 342.438 268.158 344.468 268.244 346.526C268.282 347.502 268.377 348.479 268.32 349.456C268.272 350.357 267.987 351.068 267.73 351.902C267.577 352.434 267.568 353.012 267.558 353.552C267.539 355.449 267.758 357.355 267.958 359.233C268.472 364.003 269.196 368.754 269.672 373.524C269.758 374.339 269.834 375.145 269.863 375.961C269.882 376.387 269.891 377.08 269.844 377.298C270.806 377.241 271.758 377.184 272.72 377.137C272.691 373.893 272.206 370.65 271.691 367.445C271.025 363.254 270.206 359.091 269.358 354.937C267.634 346.469 265.682 338.029 264.139 329.523C263.463 325.758 263.034 322.022 262.777 318.209C262.358 312.159 261.872 306.119 259.149 300.59C257.92 298.106 256.377 295.801 254.777 293.535C253.139 291.202 251.53 288.841 249.873 286.517C246.653 282.013 243.111 277.727 239.12 273.877C236.854 271.696 234.463 269.647 231.958 267.751C229.577 265.949 227.196 264.09 224.682 262.469C222.32 260.942 219.768 259.662 216.977 259.131C213.854 258.533 210.673 259.036 207.768 260.278C207.444 260.42 206.93 260.781 207.206 261.188C209.682 264.839 212.797 268.092 214.682 272.113C216.739 276.522 216.797 281.501 217.12 286.261C217.282 288.613 217.511 290.965 218.073 293.26C218.606 295.422 219.501 297.451 220.558 299.414C222.539 303.084 225.12 306.403 228.054 309.362C233.835 315.213 240.768 319.717 247.434 324.478C249.187 325.729 250.72 327.067 252.015 328.802C253.282 330.499 254.311 332.358 255.368 334.188C257.606 338.095 260.33 341.68 262.339 345.729C264.73 350.546 266.52 355.667 267.615 360.93C268.758 366.392 269.234 371.959 269.806 377.497C269.91 378.502 272.815 378.161 272.701 377.137C272.187 372.158 271.749 367.161 270.834 362.239C269.968 357.526 268.568 352.984 266.71 348.564C265.806 346.431 264.806 344.335 263.663 342.315C262.51 340.276 261.149 338.38 259.882 336.417C257.644 332.956 255.996 329.058 253.072 326.08C251.596 324.582 249.834 323.416 248.12 322.211C246.396 320.997 244.673 319.793 242.958 318.57C239.625 316.19 236.339 313.743 233.292 311.012C230.149 308.195 227.292 305.047 224.977 301.51C223.816 299.737 222.768 297.859 221.939 295.906C220.997 293.677 220.539 291.268 220.263 288.869C219.663 283.587 219.987 278.097 218.101 273.033C216.32 268.263 212.749 264.602 209.93 260.449C209.739 260.752 209.559 261.056 209.368 261.359C211.797 260.316 214.301 260.107 216.835 260.875C219.187 261.587 221.32 262.867 223.33 264.251C227.787 267.314 232.177 270.652 236.092 274.389C240.015 278.134 243.511 282.297 246.682 286.688C248.292 288.907 249.815 291.193 251.396 293.421C252.996 295.678 254.587 297.954 255.891 300.41C258.653 305.597 259.33 311.277 259.739 317.062C260.025 321.016 260.339 324.923 261.015 328.84C262.434 336.967 264.291 345.018 265.968 353.097C266.91 357.668 267.834 362.258 268.606 366.867C269.187 370.375 269.758 373.95 269.787 377.516C269.787 378.474 272.491 378.17 272.663 377.355C272.929 376.046 272.682 374.576 272.549 373.268C272.32 370.925 272.015 368.602 271.72 366.269C271.168 361.916 270.329 357.422 270.425 353.021C270.444 352.377 270.51 352.073 270.739 351.466C271.463 349.522 271.101 347.455 271.082 345.445C271.063 343.254 271.596 341.016 272.006 338.882C272.425 336.682 272.901 334.492 273.349 332.301C273.777 330.177 274.177 328.053 274.444 325.91C274.71 323.729 274.91 321.519 275.568 319.414C276.596 316.085 279.101 313.477 280.301 310.225C280.996 308.347 281.072 306.46 280.863 304.488C280.653 302.468 280.463 300.59 281.206 298.656C281.844 296.996 282.768 295.46 283.501 293.848C284.453 291.78 285.244 289.637 285.987 287.485C287.434 283.331 288.672 279.092 290.415 275.043C291.806 271.8 293.872 269.211 296.748 267.163C299.348 265.323 302.148 263.796 304.577 261.719C307.624 259.121 310.52 256.267 313.32 253.403C316.234 250.425 318.967 247.267 321.31 243.816C323.567 240.487 325.367 236.893 326.901 233.185C329.977 225.732 332.081 217.889 335.615 210.625C339.519 202.603 343.281 194.485 347.71 186.738C349.11 184.291 350.377 182.205 352.034 179.995C353.405 178.165 354.738 176.306 355.9 174.334C356.938 172.561 358.015 170.512 358.024 168.398C358.043 166.397 356.605 165.135 354.777 164.623C352.329 163.941 349.919 165.316 347.815 166.435C346.605 167.079 345.415 167.772 344.205 168.417C342.977 169.08 341.681 169.602 340.462 170.294C338.748 171.261 337.158 172.418 335.558 173.547C333.796 174.78 331.996 175.965 330.291 177.274C327.053 179.749 324.043 182.499 321.101 185.306C318.072 188.189 315.101 191.138 311.958 193.907C309.186 196.353 306.586 198.923 304.282 201.825C299.929 207.306 296.644 213.565 294.158 220.08C291.606 226.746 289.853 233.688 288.396 240.658C286.863 247.998 285.501 255.394 284.282 262.791C281.339 280.742 280.634 298.978 277.501 316.901C276.739 321.272 275.815 325.616 274.71 329.911C274.425 331.011 277.31 330.888 277.558 329.949L277.587 329.93Z" fill="#4D5139" fill-opacity="0.6"/>
<defs>
<clipPath id="clip0_1080_9724">
<rect width="445" height="942" fill="white" transform="translate(0 319)"/>
</clipPath>
</defs>
</svg>
