<svg width="40" height="40" viewBox="0 0 40 40" fill="none" xmlns="http://www.w3.org/2000/svg">
<path d="M14.8717 20C14.8717 17.1683 17.1667 14.8733 20 14.8733C22.8333 14.8733 25.13 17.1667 25.13 20C25.13 22.8333 22.8317 25.1283 20 25.1283C17.1683 25.1283 14.8717 22.8317 14.8717 20ZM28.115 18.8567C28.17 19.2317 28.205 19.6117 28.205 20C28.205 24.5333 24.5317 28.205 20.0017 28.205C15.4717 28.205 11.7967 24.5317 11.7967 20C11.7967 19.6117 11.8317 19.2317 11.8867 18.8567C11.9383 18.4883 12.0117 18.1283 12.11 17.7783H10V28.9767C10 29.5417 10.4583 30 11.0267 30H28.975C29.5417 30 30 29.5417 30 28.975V17.7767H27.8917C27.9883 18.1283 28.0617 18.4883 28.115 18.8567ZM28.9733 10H26.5583C25.99 10 25.5333 10.4583 25.5333 11.025V13.4417C25.5333 14.0083 25.99 14.4683 26.5583 14.4683H28.9733C29.54 14.4683 30 14.0083 30 13.4417V11.025C30 10.4583 29.5417 10 28.9733 10ZM40 8.33333V31.6667C40 36.2683 36.27 40 31.6667 40H8.33333C3.73167 40 0 36.2683 0 31.6667V8.33333C0 3.73167 3.73167 0 8.33333 0H31.6667C36.27 0 40 3.73167 40 8.33333ZM33.3333 9.74333C33.3333 8.045 31.9567 6.66667 30.2567 6.66667H9.74333C8.045 6.66667 6.66667 8.045 6.66667 9.74333V30.255C6.66667 31.955 8.045 33.3333 9.74333 33.3333H30.2583C31.9567 33.3333 33.3333 31.955 33.3333 30.255V9.74333Z" fill="#FFFCF5"/>
</svg>
