<svg xmlns="http://www.w3.org/2000/svg" xmlns:xlink="http://www.w3.org/1999/xlink" viewBox="0 0 631 148.5"><defs><style>.cls-1{fill:#fff;}.cls-2,.cls-3{fill:#fffcf5;}.cls-3{stroke:#fffcf5;}.cls-4{mask:url(#mask);}.cls-5{mask:url(#mask-2);}</style><mask id="mask" x="18.06" y="7.89" width="22.56" height="57.88" maskUnits="userSpaceOnUse"><g id="mask0_68_2093" data-name="mask0 68 2093"><path class="cls-1" d="M40.62,7.89H18.5V64.61H40.62Z"/></g></mask><mask id="mask-2" x="481.96" y="8.25" width="22.12" height="58.17" maskUnits="userSpaceOnUse"><g id="mask1_68_2093" data-name="mask1 68 2093"><path class="cls-1" d="M504.09,8.32H482V65.49h22.13Z"/></g></mask></defs><g id="圖層_2" data-name="圖層 2"><g id="圖層_1-2" data-name="圖層 1"><path class="cls-2" d="M185.4,107.32l-.66.66-.44.44-.66.22c-.22,0-.43.22-.65.22s-.66.22-.88.22-.66.22-.88.22h-1.75a26.44,26.44,0,0,1-3.94-.22,118.38,118.38,0,0,0-14.46-1.1c-3.28,0-5.69.22-7.23.88a20.63,20.63,0,0,0-4.59,2,16.31,16.31,0,0,0-3.73,3.07,4.57,4.57,0,0,0-1.53,3.28,3,3,0,0,0,1.31,2.41,5.57,5.57,0,0,0,3.51,1.1,13.39,13.39,0,0,0,7.44-2.19c2.41-1.54,3.51-2.85,3.51-4.39a2,2,0,0,0-.66-1.53,2.66,2.66,0,0,0-2-.65q-4.6,0-9.2,4.59h-.22a14.47,14.47,0,0,1,4.6-3.5,10.61,10.61,0,0,1,4.82-1.31,3.31,3.31,0,0,1,2.19.65,2.38,2.38,0,0,1,.66,1.54,4.51,4.51,0,0,1-2,3.5,11.61,11.61,0,0,1-4.6,2.41,21,21,0,0,1-4.6.88,6.61,6.61,0,0,1-3.51-1.1,3,3,0,0,1-1.31-2.41q0-3.29,5.26-6.57c3.5-2.41,9.2-3.5,17.08-3.5,2.85,0,5.7,0,8.76.21s5.26.22,6.57.22h2.63c.22,0,.22,0,.44-.22Zm-25,16a33.18,33.18,0,0,1-9.2,11A22.8,22.8,0,0,1,138.52,138a9.19,9.19,0,0,1-4.82-1.1,2.85,2.85,0,0,1-1.53-2.62,2,2,0,0,1,.66-1.54,1.87,1.87,0,0,1,1.31-.65,1.24,1.24,0,0,1,.88,2.19,1.65,1.65,0,0,1-.88.43,1.68,1.68,0,0,1-.87-.21c-.22-.22-.44-.44-.44-.66-.22,0-.44.22-.44.66a2.77,2.77,0,0,0,1.53,2.4,9.52,9.52,0,0,0,5,1.1,17,17,0,0,0,10.95-3.72,49,49,0,0,0,9-10.52H158a20.94,20.94,0,0,0-4.38.66,25,25,0,0,0-5.26,1.75v-.22a27.88,27.88,0,0,1,10.08-2.41h.65A53.84,53.84,0,0,1,172,110.17c-2.2,1.76-3.95,3.29-4.82,4.16a30.41,30.41,0,0,0-3.51,4.38,23.14,23.14,0,0,0-3.28,4.6c1.31-.21,2.19-.21,3.28-.43,1.75-2.41,3.07-3.51,3.94-3.51.66,0,.88.22.88.66s-.44,1.09-1.31,1.75a7.46,7.46,0,0,1-3.29,1.32A11.28,11.28,0,0,0,162.4,127h-1.54a13,13,0,0,1,.88-1.32,22.67,22.67,0,0,1,1.75-2.41,14.39,14.39,0,0,1-2.41.22h-.65Zm3.72-.65a5.61,5.61,0,0,0,2.63-1.1c.87-.66,1.31-1.09,1.31-1.53s-.22-.44-.66-.44-.87.22-1.53.88A8.36,8.36,0,0,0,164.15,122.66Zm9.86,11a70.3,70.3,0,0,1,5.47-4.82,13.48,13.48,0,0,1,1.32-.88c.21-.22.65-.22.87-.43,2.41-2.63,4.82-5,7-7a72.84,72.84,0,0,1,5.7-4.82,7.46,7.46,0,0,1,3.94-1.75,1.1,1.1,0,0,1,.87.43,1.14,1.14,0,0,1,.44.88c0,.88-.87,2.19-2.84,3.72a45.32,45.32,0,0,1-6.8,5,22.89,22.89,0,0,1-6.35,3.07c-.43.44-.87,1.09-1.75,2l-1.75,2L178,133.61c-1.54,1.75-2.41,3.07-2.41,3.5v.22c0,.44.22.66.87.66,1.32,0,3.51-1.53,6.8-4.38l.21.22-1.31,1.09c-2.63,2.19-4.6,3.29-5.7,3.29a1.14,1.14,0,0,1-.87-.44,1.67,1.67,0,0,1-.44-1.09c0-1.1.88-2.63,2.41-4.6,1.75-2,2.63-3.29,3.29-3.51v-.22a10.56,10.56,0,0,0-2.19,1.75Zm10.07-7a37.76,37.76,0,0,0,5.91-3.07,36.16,36.16,0,0,0,6.8-4.82c1.75-1.53,2.62-2.84,2.62-3.5a.81.81,0,0,0-.22-.66c-.21-.22-.43-.22-.87-.22a5.22,5.22,0,0,0-3.07,1.32,48.13,48.13,0,0,0-5.69,5.25A59.37,59.37,0,0,0,184.08,126.6Zm20.15,6.79a1.65,1.65,0,0,1-1.53.88,1.68,1.68,0,0,1-1.1-.44,22.56,22.56,0,0,1-3.5,2.85,7.48,7.48,0,0,1-3.07,1.09,1.67,1.67,0,0,1-1.09-.44,1.83,1.83,0,0,1-.44-1.31,5,5,0,0,1,1.75-3.51,14.61,14.61,0,0,1,3.73-2.63,9,9,0,0,1,3.5-.87c.88,0,1.31.44,1.31,1.09,0,.88-.65,2-2,3.51a1.68,1.68,0,0,0,1.1.44A3.39,3.39,0,0,0,204.23,133.39Zm-.87-3.29a.79.79,0,0,0-.22-.65.81.81,0,0,0-.66-.22c-1.1,0-2.85,1.09-5,3.28s-3.28,3.73-3.28,4.38a.81.81,0,0,0,.22.66.79.79,0,0,0,.65.22,5.19,5.19,0,0,0,2.63-.88,15.11,15.11,0,0,0,3.07-2.19,16,16,0,0,0,2-2.41A7.06,7.06,0,0,0,203.36,130.1Zm12.26,3.51,3.07-2.85c.44-.44.87-.66,1.09-.88a1.19,1.19,0,0,1-.65-1.09,1.32,1.32,0,0,1,.22-.88c.21-.22.43-.43.65-.43s.44,0,.44.21a.88.88,0,0,1-.66,1.54c-.22,0-.22,0-.43-.22,0,.22,0,.22.21.44s.44.22.88.22a5.07,5.07,0,0,0,1.75-.44l1.1,1.31a11.06,11.06,0,0,1-1.75,2c-.88.88-1.76,1.54-2.63,2.41l-1.54,1.54a.67.67,0,0,0-.22.43.58.58,0,0,0,.66.66,6,6,0,0,0,2.63-.87,32.16,32.16,0,0,0,4.38-3.29l.22.22c-3.28,2.85-5.69,4.38-7.23,4.38-.44,0-.66-.22-1.09-.44a1.67,1.67,0,0,1-.44-1.09,5.18,5.18,0,0,1,.44-1.76c.43-.65,1.09-1.31,2.19-2.62a23.61,23.61,0,0,0,2.41-2.63v-.22a4.84,4.84,0,0,1-1.76.22h-.43ZM248,129.23h2l-6.13,6.35c-.66.66-.88,1.1-.88,1.53a.81.81,0,0,0,.22.66.68.68,0,0,0,.44.22,4.37,4.37,0,0,0,1.75-.66c.66-.44,2.19-1.75,4.38-3.5l.22.22c-2.41,2-3.94,3.28-4.6,3.72a3.48,3.48,0,0,1-1.75.66,1.14,1.14,0,0,1-.88-.44,1.32,1.32,0,0,1-.22-.88,3.55,3.55,0,0,1,.88-2.19c-2.85,2.41-5,3.73-5.92,3.73a1.67,1.67,0,0,1-1.09-.44,3.17,3.17,0,0,1-.44-1.53c0-1.76,1.1-3.29,3.51-4.6a11.55,11.55,0,0,1,5.91-2.2c.88,0,1.31.44,1.31,1.1v.66Zm-2,.87a1,1,0,0,0-1.1-.87c-1.09,0-3.06,1.09-5.26,3.06-2.4,2.2-3.5,3.51-3.5,4.39,0,.21,0,.43.22.43a.81.81,0,0,0,.66.22,3.62,3.62,0,0,0,2-.87,14.57,14.57,0,0,0,3.5-2.63,14.36,14.36,0,0,0,2.63-2.63C246.07,131.2,246.07,130.76,246.07,130.1Zm15.33,3.51a71.56,71.56,0,0,1,5.48-4.82,12.43,12.43,0,0,1,1.31-.88c.22-.22.66-.22.88-.43,2.41-2.63,4.81-5,7-7s4.17-3.73,5.7-4.82a7.49,7.49,0,0,1,3.94-1.75,1.53,1.53,0,0,1,1.32,1.31c0,.88-.88,2.19-2.85,3.72a44.69,44.69,0,0,1-6.79,5A23.16,23.16,0,0,1,271,127c-.44.44-.88,1.09-1.76,2l-1.75,2-2.19,2.63c-1.53,1.75-2.41,3.07-2.41,3.5v.22c0,.44.22.66.88.66,1.31,0,3.5-1.53,6.79-4.38l.22.22-1.32,1.09c-2.62,2.19-4.6,3.29-5.69,3.29a1.14,1.14,0,0,1-.88-.44,1.67,1.67,0,0,1-.44-1.09c0-1.1.88-2.63,2.41-4.6,1.76-2,2.63-3.29,3.29-3.51v-.22a20.29,20.29,0,0,0-2.41,1.75Zm10.08-7a38.68,38.68,0,0,0,5.91-3.07,35.73,35.73,0,0,0,6.79-4.82c1.75-1.53,2.63-2.84,2.63-3.5a.81.81,0,0,0-.22-.66c-.22-.22-.44-.22-.88-.22a5.24,5.24,0,0,0-3.07,1.32A48.94,48.94,0,0,0,277,120.9,30,30,0,0,0,271.48,126.6Zm128.57-10.73a10.88,10.88,0,0,0-4.82-5.92,16.26,16.26,0,0,0-7.89-2,19.07,19.07,0,0,0-9.2,2.19,24.3,24.3,0,0,0-7.66,5.7c-2.19,2.41-3.29,4.6-3.29,6.35a4.49,4.49,0,0,0,2,3.28,7.3,7.3,0,0,0,5,1.54,20.73,20.73,0,0,0,11.17-3.29c3.51-2.19,5-4.38,5-6.57a3.05,3.05,0,0,0-1.1-2.19,4.3,4.3,0,0,0-3.06-1.09,15.31,15.31,0,0,0-7.89,2.62,26.77,26.77,0,0,0-7.44,7.45h-.22a26.19,26.19,0,0,1,7.22-7.45,14.66,14.66,0,0,1,8.33-2.84,5.34,5.34,0,0,1,3.28,1.09,2.8,2.8,0,0,1,1.1,2.41c0,2.41-1.75,4.6-5.26,6.79a20.73,20.73,0,0,1-11.17,3.29,7.28,7.28,0,0,1-5.47-2,6.5,6.5,0,0,1-2.2-4.39,9.49,9.49,0,0,1,2.85-6.79,17.09,17.09,0,0,1,7.67-4.81,31,31,0,0,1,9.85-1.76,17.37,17.37,0,0,1,8.33,2,11.9,11.9,0,0,1,4.82,6.36c.65-.44,1.31-.88,2.19-1.54l2.41-1.53V113l-1.54.88a4.32,4.32,0,0,0-1.31.87l-1.75,1.1a7.67,7.67,0,0,1,.65,2.84,18.2,18.2,0,0,1-2.62,8.77,21.52,21.52,0,0,1-7.23,7.44,19,19,0,0,1-10.52,2.85,15.46,15.46,0,0,1-5.69-.88,30.2,30.2,0,0,1-6.57.66,16.86,16.86,0,0,1-4.16-.44c-.88-.43-1.32-.65-1.32-1.31,0-.88,1.1-1.31,3.51-1.31a24.08,24.08,0,0,1,6.13,1.09l3.07,1.1a7,7,0,0,0,1.53-.22,12.51,12.51,0,0,0,2.63-.88,16.94,16.94,0,0,0,2.62-1.53c.88-.66,1.76-1.54,2.63-2.19.66-.66,2.19-2.41,4.17-4.82Q394.79,119.15,400.05,115.87Zm-24.32,21a1.7,1.7,0,0,1,.66.22l2.19.44h2.63a16.67,16.67,0,0,0,9.2-2.85,19.71,19.71,0,0,0,7.23-7.44,17.56,17.56,0,0,0,2.63-8.76,10.88,10.88,0,0,0-.44-2.63,14.68,14.68,0,0,0-2.85,2.41,37.83,37.83,0,0,0-2.63,3.06,44.48,44.48,0,0,0-3.28,4.82,38.64,38.64,0,0,1-2.63,3.51c-.66.65-1.32,1.31-2,2-.88.65-2,1.31-2.85,2a22,22,0,0,1-3.29,1.53A12,12,0,0,1,375.73,136.89Zm-1.53,0a22,22,0,0,0-8.76-2c-1.75,0-2.63.44-2.63,1.1,0,.44.44.66,1.31,1.09s2.2.44,4.17.44A21.9,21.9,0,0,0,374.2,136.89Zm42.71-3.5a12.71,12.71,0,0,1-4.6,3.5,10.18,10.18,0,0,1-3.5,1.1,1.62,1.62,0,0,1-1.76-1.75q0-2.31,3.29-4.6c2.19-1.54,3.94-2.19,5.26-2.19a.78.78,0,0,1,.65.22c.22.21.22.21.22.43,0,.66-.65,1.54-2.19,2.19a10.34,10.34,0,0,1-4.6,1.54c-1.53,1.53-2.19,2.41-2.19,3.06,0,.22.22.44.44.66a1.32,1.32,0,0,0,.88.22,9,9,0,0,0,3.28-.88A25.53,25.53,0,0,0,416.91,133.39Zm-6.79,0a7.06,7.06,0,0,0,2.19-.66,7.55,7.55,0,0,0,2.63-1.53c.66-.66,1.1-1.1,1.1-1.53a.47.47,0,0,0-.44-.44,3.13,3.13,0,0,0-1.32.44,7.81,7.81,0,0,0-2,1.53A20.55,20.55,0,0,1,410.12,133.39Zm18.4.22,7.88-6.79.22.22c-.65.44-1.09.87-1.09,1.09s-.22.66-.22.88a3.23,3.23,0,0,0,.22,1.31c0,.66.22,1.1.22,1.76a4.58,4.58,0,0,1-1.1,2.84l2-1.75.22.22c-3.28,2.85-5.91,4.38-7.88,4.38a3.13,3.13,0,0,1-1.32-.44c-.43-.22-.43-.65-.43-1.09a1.53,1.53,0,0,1,1.31-1.32c.22,0,.44,0,.44.22.22.22.22.22.22.44a.78.78,0,0,1-.88.88h-.44c0,.65.44.87,1.32.87,1.09,0,2.41-.87,3.94-2.41a9.52,9.52,0,0,0,2.41-5.25c0-.66.22-1.1.22-1.54Zm29.79-8.76a1.64,1.64,0,0,1-.44.87c-.22.22-.44.22-.88.22-.22,0-.43,0-.43-.22a.79.79,0,0,1-.22-.65c0-.22.22-.44.43-.88a1.14,1.14,0,0,1,.88-.44c.22,0,.44,0,.44.22C458.09,124.41,458.31,124.63,458.31,124.85Zm-10.73,8.76a60.8,60.8,0,0,1,5.25-4.38H455L448.23,136a1.13,1.13,0,0,0-.43.87v.22c0,.22,0,.44.21.44.22.22.22.22.44.22a5,5,0,0,0,2-.66,19,19,0,0,0,4.38-3.5l.22.22c-3.28,2.85-5.47,4.16-6.57,4.16a1.12,1.12,0,0,1-.87-.44c-.22-.22-.22-.44-.22-.87a5.18,5.18,0,0,1,.44-1.76,29.44,29.44,0,0,1,4.16-4.38l-2,1.54Zm30.22-4.38h2l-10.51,10.29a30.85,30.85,0,0,0,4.6-2A26.26,26.26,0,0,0,478,134.7l1.53-1.31.22.22a32.58,32.58,0,0,1-6.13,4.38,17.46,17.46,0,0,1-4.6,2,69.74,69.74,0,0,1-7.45,6.79,7.38,7.38,0,0,1-4.16,1.75c-.44,0-.66,0-.87-.22a.78.78,0,0,1-.22-.65c0-1.1,1.31-2.41,3.72-3.95a20.62,20.62,0,0,1,7.23-3.06l4.6-4.6c-2.19,1.75-3.72,2.41-4.82,2.41a1.21,1.21,0,0,1-1.1-.66,3.26,3.26,0,0,1-.43-1.31,4.09,4.09,0,0,1,1.75-3.07,12.24,12.24,0,0,1,4.38-2.63,12.92,12.92,0,0,1,4.16-1.09c.44,0,.66,0,.88.21s.43.44.43.66a1.37,1.37,0,0,1-.21.88Zm-12.26,7.66c0,.66.22.88.87.88,1.32,0,3.07-1.09,5.7-3.07,2.63-2.19,3.72-3.5,3.72-4.38,0-.65-.44-.87-1.09-.87a4.1,4.1,0,0,0-2.41.87A25,25,0,0,0,469,133a14.7,14.7,0,0,0-2.63,2.63C466,136,465.54,136.46,465.54,136.89Zm1.09,3.73a19.72,19.72,0,0,0-7.45,3.5c-2,1.54-2.84,2.63-2.84,3.29,0,.44.43.66,1.09.66a4.07,4.07,0,0,0,2.41-.88c.88-.44,2.41-2,4.6-4.38Z"/><path class="cls-2" d="M147.72,116.74l-.22.22h.22Zm-.22-.21h-.43l.21.21Zm12.93,6.79v-.22h-.22v.22Zm-27.82,10.29h.22v-.22h-.22Zm26.28-10.08.22.22.22-.43h-.44Zm-10.73,2.19-.22.22.22.22h.22Zm0,0v-.22l-.22.22.22.22Zm10.73-2.4v.21h.22v-.21ZM172,110h.22l-.22-.43-.21.22Zm0,0h.44v-.21Zm-11.6,13.15-.22-.22-.22.44h.44Zm3.5-.22v-.22h-.22Zm-1.53,3.94V127h.22v-.22Zm-1.54,0h-.21l-.22.44h.43Zm2.41-3.72.22.22.44-.44h-.66Zm.88-.44-.22-.22-.44.66h.66Zm21.25-15.12a.22.22,0,0,1-.22-.22v-.21c-.22,0-.22.21-.66.43l.44.44a.47.47,0,0,0,.44-.44h0c.21,0,.21,0,.21-.22v-.21a.21.21,0,0,0-.21-.22h-.22v.65Zm-.88.22-.44.44.22.44.44-.44Zm-.44.22-.66.22.22.44.66-.22Zm-.66.44c-.21,0-.43.22-.65.22l.22.44c.22,0,.43-.22.65-.22Zm-.65.22c-.22,0-.66.22-.88.22l.22.44c.22,0,.66-.22.88-.22Zm-.66.22c-.22,0-.66.22-.88.22v.44c.22,0,.66-.22.88-.22Zm-.88.22h-.65v.66a1.3,1.3,0,0,0,.87-.22Zm-.87.22h-.88V110h.88Zm-.66,0a26.38,26.38,0,0,1-3.94-.22v.66a30.9,30.9,0,0,0,3.94.21Zm-4.16-.44a118.38,118.38,0,0,0-14.46-1.1v.66a112.26,112.26,0,0,1,14.46,1.1ZM161.08,108c-3.28,0-5.69.22-7.23.88l.22.44a26.65,26.65,0,0,1,7.23-.88V108Zm-7.23.66a21.11,21.11,0,0,0-4.59,2l.21.44a15.87,15.87,0,0,1,4.38-2Zm-4.59,2.19a16.31,16.31,0,0,0-3.73,3.07l.44.43a12.07,12.07,0,0,1,3.72-2.84Zm-3.73,3.07a5.38,5.38,0,0,0-1.75,3.5h.66a4.56,4.56,0,0,1,1.53-3.07Zm-1.75,3.5a2.87,2.87,0,0,0,1.53,2.63l.44-.44a2.67,2.67,0,0,1-1.31-2.19Zm1.53,2.63a6,6,0,0,0,3.51,1.09v-.65a5.27,5.27,0,0,1-3.29-.88Zm3.51.87a14,14,0,0,0,7.66-2.19l-.22-.43a15.35,15.35,0,0,1-7.22,2.19v.43Zm7.66-2.19c2.41-1.53,3.73-3.06,3.73-4.81h-.66c0,1.31-1.1,2.84-3.51,4.16Zm3.51-4.6a2,2,0,0,0-.88-1.75l-.44.44a1.56,1.56,0,0,1,.66,1.31Zm-.88-1.75a3.31,3.31,0,0,0-2.19-.65v.65a3.34,3.34,0,0,1,1.75.44Zm-2-.65c-3.29,0-6.35,1.53-9.42,4.6l.44.43q4.6-4.59,9.2-4.6v-.43Zm-9.2,4.6-.44.43h.22Zm-.22.43a14.32,14.32,0,0,1,4.6-3.5l-.22-.44a14.35,14.35,0,0,0-4.6,3.51Zm4.6-3.5a10.61,10.61,0,0,1,4.82-1.31v-.44a11.59,11.59,0,0,0-5,1.31Zm4.82-1.1a2.66,2.66,0,0,1,2,.66l.44-.44a4,4,0,0,0-2.41-.87Zm2,.66a1.9,1.9,0,0,1,.66,1.31h.66a2,2,0,0,0-.88-1.75Zm.66,1.31a4.49,4.49,0,0,1-2,3.29l.44.44a5.23,5.23,0,0,0,2.19-3.73Zm-2,3.29a11.61,11.61,0,0,1-4.6,2.41l.22.44a15.09,15.09,0,0,0,4.82-2.63Zm-4.6,2.41a20.84,20.84,0,0,1-4.6.88v.65a14.29,14.29,0,0,0,4.82-.87Zm-4.6.88a5.37,5.37,0,0,1-3.29-1.1l-.22.44a6.78,6.78,0,0,0,3.73,1.09v-.43Zm-3.29-1.1A2.67,2.67,0,0,1,144,117.4h-.66a2.86,2.86,0,0,0,1.54,2.63ZM144,117.4a5.29,5.29,0,0,1,1.31-3.07,15.58,15.58,0,0,1,3.95-3.28l-.22-.44a23.21,23.21,0,0,0-4.16,3.5,5.39,5.39,0,0,0-1.32,3.51H144Zm5.26-6.35c3.5-2.19,9.2-3.51,17.08-3.51v-.43c-7.88,0-13.58,1.09-17.3,3.5Zm17.08-3.51c2.85,0,5.69,0,8.76.22v-.65c-3.07-.22-5.91-.22-8.76-.22Zm8.54.44c3.07.22,5.26.22,6.57.22v-.66c-1.31,0-3.5,0-6.57-.22Zm6.79.22h.44v-.66h-.44Zm.44,0h.66v-.66h-.44v.66Zm.66,0h.65v-.66H183Zm.44,0h.43l-.22-.44H183Zm.43-.22h.44l-.22-.44h-.44Zm.44,0c.22,0,.22,0,.44-.22l-.22-.44h-.44Zm.44-.22c.22,0,.22,0,.44-.22l-.22-.43c-.22,0-.22,0-.44.21Zm.66,0c.22,0,.22,0,.43-.22v-.43h-.21v.65h-.22v-.44a.68.68,0,0,0-.44.22Zm-25,15.56a30.25,30.25,0,0,1-9.2,10.73l.22.44a31.24,31.24,0,0,0,9.42-11ZM151,134.05a22.29,22.29,0,0,1-12.71,3.72v.66a23,23,0,0,0,12.93-3.73Zm-12.71,3.72a9.23,9.23,0,0,1-4.81-1.09l-.22.43c1.09.88,2.84,1.1,5,1.1Zm-4.6-1.09a2.8,2.8,0,0,1-1.53-2.41h-.66a3.4,3.4,0,0,0,1.76,2.84Zm-1.53-2.41a2.36,2.36,0,0,1,.44-1.32l-.44-.44a2.5,2.5,0,0,0-.66,1.76Zm.44-1.54c.44-.44.66-.65,1.09-.65v-.66a2,2,0,0,0-1.53.66Zm1.09-.44c.22,0,.66,0,.66.22l.44-.43a1.68,1.68,0,0,0-1.1-.44Zm.88.22a.81.81,0,0,1,.22.66h.66a1.63,1.63,0,0,0-.44-1.09Zm.22.66a.81.81,0,0,1-.22.66l.44.44a1.68,1.68,0,0,0,.44-1.1Zm-.22.66a.81.81,0,0,1-.66.22v.65c.44,0,.66-.21,1.1-.43Zm-.66.44a.79.79,0,0,1-.65-.22l-.22.44a1.34,1.34,0,0,0,.87.21Zm-.65-.22c-.22-.22-.44-.22-.44-.44l-.44.22.66.66Zm-.66-.66a.77.77,0,0,0-.44.22.81.81,0,0,0-.22.66h.66v-.22h.22Zm-.66.88a3.11,3.11,0,0,0,1.75,2.63l.22-.44c-1.09-.66-1.53-1.32-1.53-2.19Zm1.54,2.84a10.37,10.37,0,0,0,5.25,1.1v-.66a11.9,11.9,0,0,1-4.82-.87Zm5.25.88a16.56,16.56,0,0,0,11.17-3.94l-.44-.44a16.79,16.79,0,0,1-10.73,3.72Zm11.17-3.72a56.45,56.45,0,0,0,9.2-10.52l-.44-.22a48.69,48.69,0,0,1-9,10.52Zm9-11.17H158v.65h.87Zm-1.09,0a19.59,19.59,0,0,0-4.38.65l.22.44a17.55,17.55,0,0,1,4.16-.66Zm-4.38.65c-1.76.44-3.51,1.1-5.48,1.75l.22.44a25,25,0,0,1,5.26-1.75Zm-5,2h-.66v.22Zm-.22.22a27.88,27.88,0,0,1,10.08-2.41v-.65a28.7,28.7,0,0,0-10.3,2.41Zm10.08-2.41h.65v-.65h-.65Zm.87-.21A53.84,53.84,0,0,1,172,110l-.21-.43a58.47,58.47,0,0,0-13.15,13.36Zm12.71-13.58A62.06,62.06,0,0,0,167,113.9l.43.43c.88-.87,2.41-2.19,4.82-4.16ZM167,113.9a29.85,29.85,0,0,0-3.51,4.38l.44.43c1.53-2,2.63-3.28,3.5-4.38Zm-3.51,4.38a27.12,27.12,0,0,0-3.06,4.82l.43.22a42.14,42.14,0,0,1,3.07-4.61Zm-3.06,5a13.35,13.35,0,0,0,3.06-.22v-.44a13.35,13.35,0,0,1-3.06.22Zm3.28-.22a32.49,32.49,0,0,1,2.19-2.63c.66-.66,1.1-.88,1.53-.88v-.66a4,4,0,0,0-2,.88,32.9,32.9,0,0,0-2.41,2.63Zm3.94-3.51h.44v.22h.66a.81.81,0,0,0-.22-.66c-.22-.22-.44-.22-.88-.22Zm.44.22a.81.81,0,0,1-.22.66c-.22.22-.44.65-.87.87l.43.44c.44-.44.88-.66,1.1-1.09a1.68,1.68,0,0,0,.44-1.1h-.88ZM167,121.56a6.58,6.58,0,0,1-3.07,1.32v.44a7.46,7.46,0,0,0,3.29-1.32Zm-3.29,1.32a13.38,13.38,0,0,0-1.53,3.94l.44.22a22.08,22.08,0,0,1,1.31-3.72Zm-1.31,3.72h-1.54v.66h1.54Zm-1.32.44c.22-.44.44-.66.44-.88a.68.68,0,0,0,.22-.44l-.44-.43a.73.73,0,0,0-.22.43c-.22.22-.22.44-.43.88Zm.88-1.32a22.05,22.05,0,0,1,1.75-2.4l-.44-.22c-1.09,1.53-1.53,2.4-1.75,2.4Zm1.31-2.84a14.39,14.39,0,0,1-2.41.22v.65a18.14,18.14,0,0,0,2.63-.22Zm-2.41.22h-.43v.65h.43Zm3.29-.22a6.49,6.49,0,0,0,2.85-1.1l-.22-.44a6.8,6.8,0,0,1-2.63,1.1Zm2.85-1.1a5,5,0,0,0,1.09-.88,1.61,1.61,0,0,0,.44-.87h-.66a.81.81,0,0,1-.22.66l-.87.87Zm1.31-1.75a.78.78,0,0,0-.88-.88v.66h.22V120Zm-.88-.88a1.31,1.31,0,0,0-.87.22c-.22.22-.66.44-.88.66l.44.44c.22-.22.66-.44.88-.66a.79.79,0,0,1,.65-.22v-.44Zm-1.75,1.1a8.36,8.36,0,0,0-1.75,2.19l.44.22a8.36,8.36,0,0,1,1.75-2.19Zm14.9,8.32.22.22H181v-.22Zm0-.22h.22v-.44l-.22.22Zm3.5-1.75-.87.44.87-.22Zm-9.85,6.79-.44.22.22.22Zm-.22.22c3.28-2.63,5-4.16,5.47-4.6l-.22-.44c-.44.44-2.41,2-5.69,4.6Zm5.69-4.6a4.7,4.7,0,0,1,1.31-.88l-.21-.44a13.48,13.48,0,0,0-1.32.88Zm1.1-.88a3.32,3.32,0,0,0,.87-.65l-.44-.44c-.22.22-.43.44-.65.44Zm.87-.44c2.41-2.62,4.82-5,7-7l-.44-.44c-2.19,2-4.6,4.38-7,7Zm7.23-7a70.69,70.69,0,0,1,5.7-4.82l-.22-.44a44.44,44.44,0,0,0-5.7,4.82Zm5.7-4.82a7.49,7.49,0,0,1,3.94-1.76v-.43a8,8,0,0,0-4.16,1.75Zm3.72-1.76a1.28,1.28,0,0,1,.87.22l.44-.43a1.65,1.65,0,0,0-1.09-.44v.65Zm.87.44a.81.81,0,0,1,.22.66h.66c0-.44-.22-.66-.44-1.1Zm.22.44a2.46,2.46,0,0,1-.65,1.32,17.23,17.23,0,0,1-2,2.19l.43.43,2.19-2.19a3.45,3.45,0,0,0,.66-1.75Zm-2.62,3.51a46.69,46.69,0,0,1-6.8,4.82l.22.43a47.53,47.53,0,0,0,7-5Zm-6.8,5a25.35,25.35,0,0,1-6.13,3.07l.22.44a32.3,32.3,0,0,0,6.35-3.07Zm-6.35,3.07c-.43.44-.87,1.09-1.75,2l.44.44c.88-.88,1.53-1.75,1.75-2Zm-1.75,2.19-1.75,2,.44.44,1.75-2Zm-1.75,1.75L178,133.17l.44.44,2.19-2.63ZM178,133.17a27.13,27.13,0,0,1-1.75,2.19c-.22.22-.44.44-.44.66a.81.81,0,0,0-.22.66l.44.22a.68.68,0,0,1,.22-.44c0-.22.21-.44.43-.66a12.68,12.68,0,0,1,1.76-2.19Zm-2.63,3.73.66.21v-.21Zm0,.21c0,.22,0,.66.22.66.22.22.44.22.87.22v-.66H176v-.43h-.66Zm1.09.88a8,8,0,0,0,2.85-1.09,22.29,22.29,0,0,0,4.16-3.29l-.43-.44a39.16,39.16,0,0,1-4.17,3.29,6.83,6.83,0,0,1-2.41,1.09Zm6.58-4.38.43-.22-.21-.22Zm.22-.22-1.32,1.1.44.43,1.31-1.09Zm-1.32,1.1a20.2,20.2,0,0,1-3.29,2.41,4.07,4.07,0,0,1-2.19.87v.66a4,4,0,0,0,2.41-.88,23.21,23.21,0,0,0,3.51-2.63Zm-5.69,3.28c-.22,0-.44,0-.66-.44l-.44.44c.22.44.66.44,1.1.44Zm-.66-.44c-.22-.22-.22-.43-.22-.87h-.66a1.65,1.65,0,0,0,.44,1.09Zm-.22-.65a3.51,3.51,0,0,1,.66-1.76c.43-.65,1.09-1.53,1.75-2.63l-.44-.43c-.88,1.09-1.53,2-2,2.63a4.85,4.85,0,0,0-.66,2.19Zm2.41-4.6c.87-1.1,1.53-1.76,2-2.41a5,5,0,0,1,1.1-1.1l-.22-.44a8.38,8.38,0,0,1-1.32,1.1,29.49,29.49,0,0,0-2,2.41Zm3.28-3.73h-.65v.22Zm-.43-.22a10.32,10.32,0,0,0-2.41,1.76l.43.43a14.3,14.3,0,0,1,2.2-1.53Zm-2.41,1.76-4.38,3.5.44.44,4.37-3.51Zm6.13-3.07a38.7,38.7,0,0,0,5.91-3.07l-.22-.43a52.54,52.54,0,0,1-5.91,3.06Zm5.91-3.07a35.73,35.73,0,0,0,6.79-4.82l-.43-.43a37.34,37.34,0,0,1-6.79,4.82Zm6.79-4.82a15.49,15.49,0,0,0,2-2.19,2.92,2.92,0,0,0,.65-1.53H199a3.4,3.4,0,0,1-.66,1.32,16.59,16.59,0,0,1-2,2.18Zm2.85-3.94a1.14,1.14,0,0,0-.44-.88l-.43.44c.21.22.21.22.21.44Zm-.44-.88a1.7,1.7,0,0,0-1.09-.43v.65a.81.81,0,0,1,.66.22Zm-1.09-.21a6.36,6.36,0,0,0-3.29,1.31l.22.44a5.82,5.82,0,0,1,3.07-1.32ZM195,115.21a49.29,49.29,0,0,0-5.69,5.26l.44.43a49,49,0,0,1,5.69-5.25Zm-5.69,5.26a46.63,46.63,0,0,0-5.26,5.91l.44.44c1.09-1.32,2.85-3.29,5.26-5.92ZM204,133.61l.44-.22-.22-.22Zm0-.22a2,2,0,0,1-1.53.66v.65a2,2,0,0,0,1.75-.87Zm-1.31.66a1.14,1.14,0,0,1-.88-.44l-.44.44a1.89,1.89,0,0,0,1.32.65Zm-1.53-.44a39.8,39.8,0,0,1-3.29,2.85l.22.44a22.56,22.56,0,0,0,3.5-2.85Zm-3.29,2.85a6.77,6.77,0,0,1-2.85,1.09v.66a8.19,8.19,0,0,0,3.29-1.1ZM195,137.55a1.14,1.14,0,0,1-.87-.44l-.44.44A1.61,1.61,0,0,0,195,138Zm-.87-.44a1.63,1.63,0,0,1-.44-1.09h-.66a3.14,3.14,0,0,0,.44,1.53Zm-.44-1.09a4.59,4.59,0,0,1,1.53-3.29l-.44-.44a5.43,5.43,0,0,0-1.75,3.73Zm1.75-3.29a14.73,14.73,0,0,1,3.72-2.63l-.21-.43a12.39,12.39,0,0,0-3.95,2.62ZM199,130.1a7.39,7.39,0,0,1,3.28-.87v-.66a15.86,15.86,0,0,0-3.5.88Zm3.28-.87c.44,0,.66,0,.66.22a.8.8,0,0,1,.22.65h.65a1.72,1.72,0,0,0-.43-1.09,1.68,1.68,0,0,0-1.1-.44Zm1.1.87a3.13,3.13,0,0,1-.44,1.32,6,6,0,0,1-1.54,2l.44.44a19.66,19.66,0,0,1,1.54-2,2.41,2.41,0,0,0,.43-1.54h-.43Zm-2,3.73a1.33,1.33,0,0,0,1.32.66v-.66a1.14,1.14,0,0,1-.88-.44Zm1.32.66a2.25,2.25,0,0,0,1.75-.88l-.44-.44a1.88,1.88,0,0,1-1.31.66Zm.87-4.39a1.13,1.13,0,0,0-.43-.87l-.44.44c.22.22.22.22.22.43Zm-.43-.87c-.22-.22-.44-.22-.88-.22v.66c.22,0,.44,0,.44.22Zm-.88-.44a3.53,3.53,0,0,0-2.19.88c-.88.65-1.75,1.31-3.07,2.41l.44.43a13,13,0,0,1,2.85-2.41,6.93,6.93,0,0,1,2-.87Zm-5,3.5a13.23,13.23,0,0,0-2.41,2.85c-.21.44-.43.66-.65,1.1a1.31,1.31,0,0,0-.22.87h.66c0-.21,0-.21.21-.43s.22-.66.66-.88a22.75,22.75,0,0,1,2.41-2.63Zm-3.5,4.61a1.68,1.68,0,0,0,.44.87l.44-.44c-.22-.22-.22-.22-.22-.43Zm.44.65c.22.22.44.22.87.22v-.66c-.22,0-.43,0-.43-.21Zm.87.22a9.21,9.21,0,0,0,2.63-.87l-.22-.44a5.35,5.35,0,0,1-2.41.87Zm2.85-.87a16.92,16.92,0,0,0,3.07-2.41l-.44-.44a14.38,14.38,0,0,1-2.85,2.19Zm3.07-2.41a17.07,17.07,0,0,0,2-2.41l-.44-.22a17.07,17.07,0,0,1-2,2.41Zm2-2.41a3.53,3.53,0,0,0,.65-2h-.65a3.51,3.51,0,0,1-.66,1.76ZM220,129.67h.44l-.22-.22Zm-.44-.66.22-.22-.43-.22V129Zm3.07.22v-.44h-.22Zm1.1,1.31.22.22v-.22Zm-1.32-.87h.44v-.22Zm0,0,.22-.22-.22-.22h-.22Zm-2.19.22v-.22H220Zm-4.38,3.5-.44.22.22.22Zm-.22.22,3.29-2.63-.44-.44-3.29,2.63Zm3.29-2.63c.44-.44.87-.66,1.09-1.09l-.44-.44c-.21.22-.65.44-1.09.87Zm1.09-1.53c-.44-.22-.65-.44-.65-.88h-.66a1.21,1.21,0,0,0,.87,1.32Zm-.44-.88a.81.81,0,0,1,.22-.66l-.43-.43a1.61,1.61,0,0,0-.44.87h.65Zm.22-.66a.68.68,0,0,1,.44-.22V127a1.11,1.11,0,0,0-.87.44Zm.44-.22a.22.22,0,0,1,.22.22l.44-.43c-.22-.22-.44-.44-.66-.44Zm.22.22a.77.77,0,0,1,.22.44h.66a1.28,1.28,0,0,0-.22-.87Zm.22.44c0,.22,0,.22-.22.44l.44.44c.22-.22.22-.44.22-.88Zm-.22.44a.77.77,0,0,1-.44.22v.66a1.32,1.32,0,0,0,.88-.22Zm-.22,0a.68.68,0,0,1-.44-.22l-.22.44a.81.81,0,0,0,.66.22Zm-.87.22c0,.22.21.44.43.66l.22-.44a.22.22,0,0,1-.22-.22Zm.43.66a1.65,1.65,0,0,0,1.1.22v-.66c-.44,0-.66,0-.66-.22Zm1.1.22a6.36,6.36,0,0,0,2-.44l-.22-.44a5.12,5.12,0,0,1-1.75.44Zm1.53-.44,1.1,1.31.44-.44-1.1-1.31Zm1.1.87a10.82,10.82,0,0,1-1.76,2l.44.44a10.82,10.82,0,0,0,1.76-2Zm-1.54,2a31,31,0,0,0-2.62,2.63l.43.44a28.65,28.65,0,0,1,2.63-2.41Zm-2.62,2.41c-.44.44-.66.88-1.1,1.1-.22.22-.44.44-.44.66l.44.22.44-.44,1.09-1.1Zm-1.54,1.76a.8.8,0,0,0-.22.65h.66a.67.67,0,0,1,.22-.43Zm-.22.65a.78.78,0,0,0,.88.88v-.66H218v-.22Zm.88.88a2.33,2.33,0,0,0,1.09-.22,10.73,10.73,0,0,1,1.54-.66l-.22-.43a10.17,10.17,0,0,0-1.53.65,1.66,1.66,0,0,1-.88.22Zm2.85-1.09a32.8,32.8,0,0,0,4.38-3.29l-.44-.44a32.8,32.8,0,0,1-4.38,3.29Zm3.94-3.29.44-.22-.22-.22Zm.22-.22a22.94,22.94,0,0,1-4.38,3.29,7.44,7.44,0,0,1-2.63,1.09v.66a7.43,7.43,0,0,0,3.07-1.1,22.71,22.71,0,0,0,4.38-3.28Zm-7,4.16c-.44,0-.66,0-.88-.22l-.44.44a1.68,1.68,0,0,0,1.1.44v-.66Zm-.66-.22c-.22-.22-.22-.43-.22-.87h-.65a3.07,3.07,0,0,0,.43,1.31Zm-.44-.87a4.08,4.08,0,0,1,.44-1.54l-.44-.22a3,3,0,0,0-.65,1.76Zm.66-1.54c.44-.43,1.1-1.31,2.19-2.41l-.44-.43a22.83,22.83,0,0,0-2.41,2.62Zm2.19-2.41a21.93,21.93,0,0,0,2.41-2.62l-.44-.44c-.43.65-1.31,1.31-2.41,2.63Zm2.41-2.84-.66.22v.21Zm-.44-.44a4.22,4.22,0,0,1-1.53.22v.65a5,5,0,0,0,1.75-.43Zm-1.53.44h-.44l-.22.43h.44v-.43Zm-.66,0-4.6,3.72.44.44,4.6-3.73Zm28-.44V129h-.22Zm2,0,.66-.22H250Zm-6.57,5,.22.22.22-.22-.22-.22Zm-.22,0,.22-.22-.22-.22Zm3.29-3.51h-.22v.88Zm1.53-1.31h2v-.66h-2Zm1.75-.44-6.13,6.35.44.44,6.13-6.35Zm-6.13,6.35c-.22.22-.44.66-.66.88s-.22.44-.22.87h.66c0-.21,0-.21.22-.43a3,3,0,0,0,.66-.88Zm-.88,1.75a.88.88,0,0,0,.44.88l.44-.44a.77.77,0,0,1-.22-.44Zm.22.66a.81.81,0,0,0,.66.22v-.66a.68.68,0,0,1-.44-.22Zm.66.22a1.62,1.62,0,0,0,.87-.22,4.81,4.81,0,0,1,1.1-.66l-.22-.43a3,3,0,0,0-.88.65.78.78,0,0,1-.65.22V138Zm2-.88a46.14,46.14,0,0,0,4.38-3.5l-.44-.44a40.68,40.68,0,0,1-4.38,3.51Zm3.94-3.5.44-.22-.22-.22Zm.22-.22c-2.41,2-3.94,3.29-4.6,3.72l.22.44a30,30,0,0,0,4.6-3.72Zm-4.6,3.51c-.44.21-.66.43-.87.43s-.44.22-.66.22v.66a1.62,1.62,0,0,0,.87-.22c.22-.22.66-.22,1.1-.44Zm-1.53.65a.81.81,0,0,1-.66-.22l-.44.44a1.68,1.68,0,0,0,1.1.44Zm-.66-.22a.79.79,0,0,1-.22-.65h-.66a1.2,1.2,0,0,0,.44,1.09Zm-.22-.65a4,4,0,0,1,.88-2.19l-.44-.22a4,4,0,0,0-.88,2.41Zm.44-2.63a24.69,24.69,0,0,1-3.72,2.63,4.88,4.88,0,0,1-2.19.87v.66a6.45,6.45,0,0,0,2.4-.88,28,28,0,0,0,3.73-2.84Zm-5.91,3.5a1.14,1.14,0,0,1-.88-.44l-.44.22a1.33,1.33,0,0,0,1.32.66Zm-.88-.22c-.22-.22-.22-.65-.22-1.31h-.66a3.14,3.14,0,0,0,.44,1.53Zm-.22-1.31c0-1.53,1.1-3.07,3.29-4.38l-.22-.44c-2.41,1.53-3.51,3.07-3.51,4.82Zm3.29-4.38c2.4-1.32,4.16-2.19,5.69-2.19V129a11.63,11.63,0,0,0-6.13,2.19Zm5.69-2.19c.44,0,.66,0,.66.22.22,0,.22.22.22.65h.65c0-.43-.21-.65-.43-1.09a1.65,1.65,0,0,0-1.1-.22Zm.88.87V131h.65v-.66Zm.44.66,1.53-1.75-.44-.44-1.53,1.75Zm0-.88a.87.87,0,0,0-.44-.87,1.32,1.32,0,0,0-.88-.22v.66a.81.81,0,0,1,.66.22.73.73,0,0,1,.22.43h.44Zm-1.32-.87a4.12,4.12,0,0,0-2.41.87,13.43,13.43,0,0,0-3.07,2.41l.44.44a25,25,0,0,1,3.07-2.41,4.85,4.85,0,0,1,2.19-.65v-.66Zm-5.48,3.06-2.62,2.63c-.22.44-.44.66-.66,1.1a1.32,1.32,0,0,0-.22.88h.66a.81.81,0,0,1,.22-.66c.22-.22.43-.66.65-.88a30.33,30.33,0,0,1,2.63-2.63Zm-3.5,4.61c0,.21.22.43.22.65l.44-.44c-.22-.21-.22-.21-.22-.43h-.44Zm.22.87c.22.22.44.22.88.22v-.66c-.22,0-.44,0-.44-.22Zm.88.22a1.31,1.31,0,0,0,.87-.22l1.32-.66-.22-.43a4.82,4.82,0,0,0-1.1.65,1.7,1.7,0,0,1-.66.22V138Zm2.19-.88a28.79,28.79,0,0,0,3.5-2.62l-.44-.44c-1.31,1.09-2.63,2-3.5,2.63Zm3.72-2.62a14.61,14.61,0,0,0,2.63-2.63l-.44-.22-2.63,2.63Zm2.63-2.63a2.93,2.93,0,0,0,.66-1.76h-.66a3.13,3.13,0,0,1-.44,1.32ZM268,128.57l.22.22h.22v-.22Zm0-.22h.22v-.44l-.22.22Zm3.51-1.75-.88.44.88-.22Zm-10.08,6.79-.44.22.22.22Zm0,.22c3.28-2.63,5-4.16,5.48-4.6l-.22-.44c-.44.44-2.41,2-5.7,4.6Zm5.48-4.6a4.43,4.43,0,0,1,1.31-.88l-.22-.44a12.43,12.43,0,0,0-1.31.88Zm1.31-.88a3.23,3.23,0,0,0,.88-.65l-.44-.44c-.22.22-.44.44-.66.44Zm.88-.44c2.41-2.62,4.81-5,7-7l-.43-.44c-2.19,2-4.6,4.38-7,7Zm7-7a74.36,74.36,0,0,1,5.7-4.82l-.22-.44a45.16,45.16,0,0,0-5.69,4.82Zm5.7-4.82a7.52,7.52,0,0,1,3.94-1.76v-.43a8.06,8.06,0,0,0-4.16,1.75Zm3.94-1.76a1.32,1.32,0,0,1,.88.22l.44-.43a1.68,1.68,0,0,0-1.1-.44v.65Zm.66.44a.81.81,0,0,1,.22.66h.65c0-.44-.21-.66-.43-1.1Zm.44.44a2.42,2.42,0,0,1-.66,1.32,17.23,17.23,0,0,1-2,2.19l.44.43a20.34,20.34,0,0,0,2.19-2.19,3.52,3.52,0,0,0,.65-1.75Zm-2.63,3.51a46,46,0,0,1-6.79,4.82l.22.43a48.63,48.63,0,0,0,7-5Zm-7,5A25.71,25.71,0,0,1,271,126.6l.22.44a32.3,32.3,0,0,0,6.35-3.07Zm-6.35,3.07c-.44.44-.88,1.09-1.75,2l.43.44c.88-.88,1.54-1.75,1.76-2Zm-1.75,2.19-1.76,2,.44.44,1.75-2Zm-1.76,1.75-2.19,2.63.44.44,2.19-2.63Zm-2.19,2.63a23.32,23.32,0,0,1-1.75,2.19c-.22.22-.44.44-.44.66a.81.81,0,0,0-.22.66l.44.22a.68.68,0,0,1,.22-.44c0-.22.22-.44.44-.66a12.55,12.55,0,0,1,1.75-2.19Zm-2.41,3.73.66.21v-.21Zm0,.21c0,.22,0,.66.22.66.22.22.44.22.88.22v-.66h-.44v-.43h-.66Zm.88.88a8.07,8.07,0,0,0,2.85-1.09,22.62,22.62,0,0,0,4.16-3.29l-.44-.44a39.18,39.18,0,0,1-4.16,3.29,6.91,6.91,0,0,1-2.41,1.09Zm6.57-4.38.66-.22-.22-.22Zm.22-.22-1.31,1.1.43.43,1.32-1.09Zm-1.31,1.1a20.64,20.64,0,0,1-3.29,2.41,4.1,4.1,0,0,1-2.19.87v.66a4.07,4.07,0,0,0,2.41-.88,22.72,22.72,0,0,0,3.5-2.63Zm-5.48,3.28c-.22,0-.44,0-.66-.44l-.44.44c.22.44.66.44,1.1.44Zm-.88-.44c-.22-.22-.22-.43-.22-.87h-.65a1.7,1.7,0,0,0,.43,1.09Zm-.22-.65a3.51,3.51,0,0,1,.66-1.76c.44-.65,1.1-1.53,1.75-2.63l-.43-.43c-.88,1.09-1.54,2-2,2.63a5,5,0,0,0-.65,2.19Zm2.41-4.6c.88-1.1,1.54-1.76,2-2.41a4.77,4.77,0,0,1,1.09-1.1l-.22-.44a8.67,8.67,0,0,1-1.31,1.1,27.53,27.53,0,0,0-2,2.41Zm3.29-3.73h-.66v.22Zm-.44-.22a10.53,10.53,0,0,0-2.41,1.76l.44.43a14.39,14.39,0,0,1,2.19-1.53Zm-2.41,1.76-4.38,3.5.44.44,4.38-3.51Zm6.14-3.07a39.67,39.67,0,0,0,5.91-3.07l-.22-.43a54.35,54.35,0,0,1-5.91,3.06Zm5.91-3.07a35.73,35.73,0,0,0,6.79-4.82l-.44-.43a36.65,36.65,0,0,1-6.79,4.82Zm6.79-4.82a16,16,0,0,0,2-2.19,2.87,2.87,0,0,0,.66-1.53h-.66a3.4,3.4,0,0,1-.66,1.32,15.9,15.9,0,0,1-2,2.18ZM287,115a1.14,1.14,0,0,0-.44-.88l-.44.44c.22.22.22.22.22.44Zm-.44-.88a1.73,1.73,0,0,0-1.1-.43v.65a.81.81,0,0,1,.66.22Zm-1.1-.21a6.33,6.33,0,0,0-3.28,1.31l.22.44a5.8,5.8,0,0,1,3.06-1.32Zm-3.28,1.31a48.33,48.33,0,0,0-5.7,5.26l.44.43a49.89,49.89,0,0,1,5.69-5.25Zm-5.7,5.26a45.54,45.54,0,0,0-5.25,5.91l.43.44q1.65-2,5.26-5.92Zm123.54-4.6.22.22.21-.22v-.22Zm-29.57,8.54-.22.22.22.22.22-.22Zm-.22,0-.22-.22-.22.22.22.22Zm29.79-8.54h-.22l.22.44.22-.22Zm4.6-2.85.21-.22-.21-.22-.22.22Zm0,.22.21.22.22-.22-.22-.22Zm-4.6,2.85v-.22l-.22.22v.22Zm0,.22h.22l-.22-.44-.22.22ZM374.2,136.9v.21l.66-.21-.66-.22Zm26.07-21a11.52,11.52,0,0,0-5-6.13l-.22.43a10.27,10.27,0,0,1,4.82,5.7Zm-5-6.13a16.4,16.4,0,0,0-8.11-2v.66a16.26,16.26,0,0,1,7.89,2Zm-8.11-2A20.56,20.56,0,0,0,377.7,110l.22.44a22,22,0,0,1,9.2-2.19ZM377.7,110a22,22,0,0,0-7.66,5.92l.44.44a22.06,22.06,0,0,1,7.66-5.7ZM370,115.87q-3.29,3.61-3.29,6.57h.66c0-1.75,1.1-3.73,3.29-6.13Zm-3.51,6.57a4.5,4.5,0,0,0,2,3.5l.43-.44a4.09,4.09,0,0,1-1.75-3.06Zm2,3.5a7.94,7.94,0,0,0,5.25,1.75V127c-2.19,0-3.72-.44-4.82-1.54Zm5.25,1.75a19.67,19.67,0,0,0,11.17-3.28l-.22-.44A19.28,19.28,0,0,1,373.76,127Zm11.39-3.28c3.51-2.19,5.26-4.38,5.26-6.79h-.66c0,2.19-1.53,4.38-5,6.35Zm5.26-6.79a3,3,0,0,0-1.32-2.41l-.43.44a3,3,0,0,1,1.09,2ZM389.09,115a5.34,5.34,0,0,0-3.28-1.09v.65a3.79,3.79,0,0,1,2.85,1.1Zm-3.28-1.09a15.32,15.32,0,0,0-8.11,2.63l.22.43a15.33,15.33,0,0,1,7.89-2.63Zm-8.11,2.84a25.08,25.08,0,0,0-7.44,7.67l.44.22a24.11,24.11,0,0,1,7.44-7.45Zm-7,7.45-.44.44h.22Zm-.22.22a22.75,22.75,0,0,1,7.22-7.23l-.21-.44a26,26,0,0,0-7.23,7.45Zm7.22-7.23a14.05,14.05,0,0,1,8.11-2.85v-.65a15.73,15.73,0,0,0-8.54,2.85Zm8.11-2.85a4.34,4.34,0,0,1,3.07,1.1l.43-.44a4.59,4.59,0,0,0-3.5-1.31Zm3.07,1.1a3.51,3.51,0,0,1,1.09,2.19h.66a3.78,3.78,0,0,0-1.32-2.63Zm1.09,2.19c0,2.19-1.53,4.38-5,6.57l.22.44c3.51-2.19,5.26-4.6,5.26-7Zm-5,6.57a20.19,20.19,0,0,1-11.17,3.29v.65a20.9,20.9,0,0,0,11.39-3.28Zm-11.17,3.07a7.94,7.94,0,0,1-5.25-1.76l-.44.44a8.14,8.14,0,0,0,5.69,2Zm-5.25-1.76a5.71,5.71,0,0,1-2-4.16h-.65a5.75,5.75,0,0,0,2.19,4.6Zm-2-4.16a9,9,0,0,1,2.85-6.57l-.44-.44a10.34,10.34,0,0,0-2.84,7Zm2.63-6.79a15.93,15.93,0,0,1,7.67-4.81l-.22-.44a18.16,18.16,0,0,0-7.89,5Zm7.67-4.81a31,31,0,0,1,9.85-1.76v-.66a32.34,32.34,0,0,0-10.07,1.76Zm9.85-1.54a16.5,16.5,0,0,1,8.11,2l.22-.43a17.26,17.26,0,0,0-8.33-2Zm8.11,1.75a11.26,11.26,0,0,1,5,5.92l.44-.22a11.26,11.26,0,0,0-5.26-6.13Zm5.48,6.14a15.69,15.69,0,0,0,2-1.32l-.22-.44a8.36,8.36,0,0,1-2.19,1.32Zm2-1.32,2.41-1.53-.22-.44L402,114.33Zm2.19-1.53h.65V113Zm.22-.22-1.54.88.22.43,1.53-.87Zm-1.54.88a4.32,4.32,0,0,0-1.31.87l.22.44a4.43,4.43,0,0,1,1.31-.88Zm-1.53.87-1.53,1.1.22.44,1.75-1.1Zm-1.75,1.32a10.88,10.88,0,0,1,.44,2.62h.65a12.7,12.7,0,0,0-.44-2.84Zm.44,2.62a17.47,17.47,0,0,1-2.63,8.55l.44.22a18.2,18.2,0,0,0,2.62-8.77Zm-2.41,8.77a19.73,19.73,0,0,1-7.23,7.44l.22.44a20.25,20.25,0,0,0,7.23-7.67Zm-7.23,7.22a18.89,18.89,0,0,1-10.52,2.85v.66a20.43,20.43,0,0,0,10.74-3.07Zm-10.3,3.07a13.78,13.78,0,0,1-5.47-.87l-.22.43a15.46,15.46,0,0,0,5.69.88Zm-5.69-.87a30.24,30.24,0,0,1-6.35.65v.66a30.2,30.2,0,0,0,6.57-.66Zm-6.57.65a16.86,16.86,0,0,1-4.16-.44l-.22.44c.87.44,2.41.44,4.38.44Zm-4.16-.44c-.44-.21-.66-.43-.88-.43a.68.68,0,0,1-.22-.44h-.66a1.11,1.11,0,0,0,.44.87,4.81,4.81,0,0,0,1.1.66Zm-1.1-1.09c0-.22,0-.22.22-.44,0-.22.22-.22.44-.44a6.78,6.78,0,0,1,2.41-.22v-.65a8.45,8.45,0,0,0-2.63.43c-.22.22-.66.22-.66.44-.22.22-.22.44-.22.88Zm3.29-1.1a24.15,24.15,0,0,1,6.13,1.1l.22-.44a24.08,24.08,0,0,0-6.13-1.09v.43ZM372,136l3.07,1.09.22-.43-3.07-1.1Zm3.29,1.09h.43a9.93,9.93,0,0,1,1.1-.21l-.22-.44a2.39,2.39,0,0,1-1.1.22h-.21Zm1.53-.43c.87-.22,1.75-.66,2.63-.88l-.22-.44a12.32,12.32,0,0,1-2.63.88Zm2.63-.88a14.72,14.72,0,0,0,2.84-1.75l-.22-.44a8.12,8.12,0,0,1-2.62,1.53Zm2.84-1.75c.88-.66,1.76-1.54,2.63-2.19l-.44-.44a22.85,22.85,0,0,1-2.41,2.19Zm2.41-2.19c.66-.88,2.19-2.41,4.17-4.82l-.44-.44c-2,2.41-3.29,3.94-4.16,4.82Zm4.17-4.82c4.16-5.26,7.88-8.76,11.17-11l-.22-.44c-3.29,2.19-7,5.69-11.39,10.95Zm-13.15,9.64c-.22,0-.22,0-.22.22v.21h.22c.22,0,.22,0,.66.22l.22-.43c-.22,0-.44-.22-.66-.22h-.22c.22,0,.22,0,.22.22v.21l-.22.22Zm.88.65,2.19.44.22-.44-2.19-.43Zm2,.44h.66v-.66h-.66Zm.88.22h.65v-.66h-.65Zm.65,0h.66v-.66h-.66Zm.66,0h.66v-.66h-.66Zm.66,0a16.94,16.94,0,0,0,9.42-2.85l-.22-.44a18.35,18.35,0,0,1-9.2,2.63Zm9.42-2.85a21.46,21.46,0,0,0,7.23-7.45l-.44-.21a20.23,20.23,0,0,1-7,7.22Zm7.23-7.45a18.24,18.24,0,0,0,2.62-9h-.65a18.22,18.22,0,0,1-2.63,8.77Zm2.62-9a11.38,11.38,0,0,0-.43-2.62l-.44.22a11.19,11.19,0,0,1,.44,2.4Zm-.87-2.62A14.68,14.68,0,0,0,397,118.5l.44.43a31.22,31.22,0,0,1,2.85-2.4ZM397,118.28a37.83,37.83,0,0,0-2.63,3.06l.44.44a19.45,19.45,0,0,1,2.63-3.07Zm-2.63,3.28a44.48,44.48,0,0,0-3.28,4.82l.22.44c1.31-2.19,2.62-3.72,3.28-4.82Zm-3.5,4.82a36.83,36.83,0,0,1-2.63,3.51l.44.43a36.81,36.81,0,0,0,2.63-3.5Zm-2.41,3.51c-.66.65-1.32,1.31-2,2l.43.43a8.2,8.2,0,0,0,2-2Zm-2,2c-.88.65-2,1.31-2.85,2l.22.44a31.73,31.73,0,0,0,2.84-2Zm-2.85,2a22,22,0,0,1-3.29,1.53l.22.44a23.07,23.07,0,0,0,3.29-1.53Zm-3.29,1.53c-1.09.44-2.19.88-2.84,1.1a5,5,0,0,1-1.54.22v.65a10.3,10.3,0,0,0,1.75-.43,23.91,23.91,0,0,0,2.85-1.1Zm-5.91,1.32a22.73,22.73,0,0,0-8.76-2v.66a21.88,21.88,0,0,1,8.54,2Zm-9-2a6.72,6.72,0,0,0-2.19.22c-.22,0-.44.22-.66.44a.81.81,0,0,0-.22.66H363v-.22a.77.77,0,0,1,.44-.22,4.83,4.83,0,0,1,2-.22ZM362.59,136c0,.22.22.44.44.66s.66.43.88.65l.21-.43c-.43-.22-.65-.44-.87-.44l-.22-.22h-.44Zm1.32,1.31a10.86,10.86,0,0,0,4.16.44v-.66a13.82,13.82,0,0,1-3.95-.43Zm4.38.66a24.9,24.9,0,0,0,6.13-.66l-.22-.43a22.36,22.36,0,0,1-5.91.65Zm41.83-4.6-.66.22h.66Zm6.57.22.44-.22-.22-.22Zm.22-.22a23.09,23.09,0,0,1-4.6,3.29l.22.43a18.74,18.74,0,0,0,4.82-3.28Zm-4.6,3.29a8.27,8.27,0,0,1-3.28,1.09v.66a9,9,0,0,0,3.5-1.1Zm-3.28.87a1.29,1.29,0,0,1-1.1-.44,1.63,1.63,0,0,1-.44-1.09h-.65a3.14,3.14,0,0,0,.43,1.53,1.86,1.86,0,0,0,1.54.44v-.44ZM407.49,136c0-1.53,1.1-3.07,3.29-4.38l-.22-.44c-2.19,1.53-3.51,3.07-3.51,4.82Zm3.07-4.38c2.19-1.54,3.94-2.19,5-2.19V129c-1.32,0-3.07.66-5.48,2.19Zm5.26-2c.22,0,.22,0,.43.22l.44-.44a.8.8,0,0,0-.65-.22v.44Zm.43,0a.22.22,0,0,1,.22.22h.66c0-.22-.22-.44-.44-.66Zm0,.22a1.65,1.65,0,0,1-.43.87c-.22.44-.88.66-1.54,1.1l.22.43c.66-.43,1.32-.87,1.75-1.09a1.9,1.9,0,0,0,.66-1.31Zm-2,2.19a10.35,10.35,0,0,1-4.6,1.31v.66a12.4,12.4,0,0,0,4.82-1.54Zm-4.6,1.31a14.75,14.75,0,0,0-1.75,2c-.22.22-.44.44-.44.66s-.22.44-.22.66h.66a.68.68,0,0,1,.22-.44c0-.22.22-.44.44-.66.44-.44.87-1.09,1.53-1.75Zm-2.41,3.29a1.14,1.14,0,0,0,.44.87l.44-.44a.65.65,0,0,1-.22-.43Zm.66.87a1.68,1.68,0,0,0,1.1.44v-.66a.81.81,0,0,1-.66-.22Zm1.1.44a8.27,8.27,0,0,0,3.28-1.09l-.22-.44a7.4,7.4,0,0,1-3.06.87Zm3.28-.88a18.39,18.39,0,0,0,4.82-3.5l-.44-.44a23.65,23.65,0,0,1-4.82,3.29Zm-2.19-3.5a8,8,0,0,0,2.41-.66l-.22-.44a7.06,7.06,0,0,1-2.19.66Zm2.41-.44a12.11,12.11,0,0,0,2.85-1.53l-.44-.44a5,5,0,0,1-2.63,1.31Zm2.85-1.53c.44-.22.66-.66.87-.88a1.14,1.14,0,0,0,.44-.87H416c0,.21,0,.21-.22.43a3,3,0,0,1-.88.66Zm1.09-1.75c0-.22,0-.44-.22-.44a.65.65,0,0,0-.43-.22v.66h.65Zm-.65-.66a3.13,3.13,0,0,0-1.32.44l.22.43a2.49,2.49,0,0,1,1.1-.21Zm-1.32.44a13.65,13.65,0,0,0-2.19,1.53l.44.44a15,15,0,0,1,2-1.32ZM412.31,131a23.88,23.88,0,0,0-2.41,2.19l.44.44a24.9,24.9,0,0,1,2.41-2.19Zm23.88-4.16.21-.22-.21-.22Zm.21.22h.44l-.22-.22ZM427,136.68v-.22h-.44v.44H427Zm7.88-8.33h.22l.22-.87Zm-6.35,5-.44.22.22.22Zm0,.22L436.4,127l-.43-.44-7.89,6.57Zm7.45-6.79h.65l-.22-.22Zm.22,0a8.47,8.47,0,0,0-1.32,1.09l.44.22A5.1,5.1,0,0,1,436.4,127Zm-1.32,1.09a1.65,1.65,0,0,0-.22,1.1h.66c0-.44,0-.66.22-.88Zm-.22,1.1a4.87,4.87,0,0,0,.22,1.53h.66a7.8,7.8,0,0,0-.22-1.31h-.66Zm.22,1.53c0,.66.22,1.1.22,1.75h.66a5.44,5.44,0,0,0-.22-1.75Zm0,1.54a5.18,5.18,0,0,1-1.09,2.84l.43.44a4.08,4.08,0,0,0,1.1-3.07h-.44Zm-.66,3.28,2-1.75-.44-.44-2,1.75Zm1.76-1.75.43-.22-.21-.22Zm0-.22a48.49,48.49,0,0,1-4.38,3.29,8.31,8.31,0,0,1-3.29,1.09v.66a9.78,9.78,0,0,0,3.72-1.1,17.21,17.21,0,0,0,4.38-3.28Zm-7.67,4.16a1.63,1.63,0,0,1-1.09-.44l-.44.44a3.14,3.14,0,0,0,1.53.44Zm-1.09-.22a1.12,1.12,0,0,1-.44-.87h-.66a1.88,1.88,0,0,0,.66,1.31Zm-.44-1.09a.81.81,0,0,1,.22-.66l-.44-.44a1.68,1.68,0,0,0-.44,1.1Zm.22-.66a.79.79,0,0,1,.65-.22v-.66c-.43,0-.65.22-1.09.44Zm.65-.22c.22,0,.22,0,.22.22l.44-.44a.81.81,0,0,0-.66-.22Zm.22.22.22.22h.66c0-.22-.22-.44-.22-.66Zm.22.22c0,.22,0,.22-.22.44l.44.44a1.14,1.14,0,0,0,.44-.88Zm-.22.44c-.22.22-.22.22-.44.22v.65a1.65,1.65,0,0,0,.88-.43Zm-.44.22h-.21l-.22.44h.43Zm-.65.22a1.14,1.14,0,0,0,.44.87c.21.22.65.22,1.09.22v-.66c-.44,0-.66,0-.66-.21-.22,0-.22-.22-.22-.44h-.65ZM428.3,138c1.31,0,2.63-.88,4.16-2.63l-.44-.44c-1.31,1.76-2.62,2.41-3.72,2.41Zm3.94-2.63a8.21,8.21,0,0,0,2.41-5.47H434a8.34,8.34,0,0,1-2.41,5Zm2.63-5.47c0-.66.22-1.1.22-1.54l-.44-.22a4.29,4.29,0,0,0-.22,1.76Zm-.22-1.76-6.35,5.26.44.44,6.35-5.26Zm20.15,1.1.66-.22h-.66Zm-3.06,1.09h.43v-.22Zm0,0H452l-.22-.43-.22.21Zm6.13-5.47a.78.78,0,0,1-.22.65l.44.44a1.65,1.65,0,0,0,.44-1.09Zm-.22.65a.81.81,0,0,1-.66.22v.66c.44,0,.66-.22,1.1-.44Zm-.66.22c-.22,0-.22,0-.22-.22l-.43.44a.79.79,0,0,0,.65.22Zm-.22-.22a.74.74,0,0,1-.21-.43h-.66a.79.79,0,0,0,.22.65Zm-.21-.21a.83.83,0,0,1,.21-.66l-.43-.44a1.67,1.67,0,0,0-.44.88h.66Zm.21-.66a.81.81,0,0,1,.66-.22v-.66c-.44,0-.66.22-1.09.44Zm.66-.22c.22,0,.22,0,.44.22l.44-.44c-.22-.22-.44-.44-.66-.44v.66Zm.44,0a.77.77,0,0,1,.22.44h.66a.81.81,0,0,0-.22-.66Zm-10.07,9-.44.22.22.22Zm-.22.22c.65-.66,2.4-2,5.25-4.16l-.22-.44c-2.84,2.19-4.6,3.72-5.47,4.16Zm5.25-4.16H455v-.66h-2.19Zm1.75-.44-6.78,6.79.43.44,6.79-6.79Zm-6.78,6.79c-.22.22-.44.66-.66.88l.44.22c0-.22.22-.44.43-.66Zm-.66.88.66.22v-.22Zm0,.22a.8.8,0,0,0,.22.65l.44-.44-.22-.21Zm.44.65a.79.79,0,0,0,.65.22v-.66c-.22,0-.22,0-.43-.21Zm.65.22a5.74,5.74,0,0,0,2.19-.66l-.22-.43a6,6,0,0,1-1.75.65v.44Zm2.19-.66a40.87,40.87,0,0,0,4.6-3.5l-.44-.44a48.63,48.63,0,0,1-4.38,3.51Zm3.95-3.5.43-.22-.22-.22Zm.21-.22a33.11,33.11,0,0,1-3.94,3.07,13.12,13.12,0,0,1-1.31.87,1.66,1.66,0,0,1-.88.22v.66a2,2,0,0,0,1.1-.22,13.44,13.44,0,0,0,1.53-.88,32.43,32.43,0,0,0,4.16-3.28Zm-6.35,4.16a.79.79,0,0,1-.65-.22l-.44.44a1.67,1.67,0,0,0,1.09.44Zm-.65-.22a.79.79,0,0,1-.22-.65h-.66a1.67,1.67,0,0,0,.44,1.09Zm-.22-.87a4.08,4.08,0,0,1,.44-1.54l-.44-.22a3.55,3.55,0,0,0-.66,2h.66Zm.44-1.54c.21-.22.65-.87,1.31-1.53a34.11,34.11,0,0,1,2.85-2.85l-.44-.44L448.67,133c-.66.66-1.09,1.32-1.31,1.54Zm3.72-4.82-2,1.54.43.44,2-1.54Zm-2,1.54-2.19,1.75.44.44,2.18-1.75Zm28.25-2.41V129h-.22Zm2,0,.66-.22h-.66Zm-10.51,10.29-.88.44,1.1-.22Zm2.19-3.94h.44l-.22-.22Zm0,0,.22-.22-.22-.22-.22.22Zm-4.82,5,.88-.44-.88.22Zm11.17-11.17h2v-.66h-2Zm1.75-.44L469,139.3l.44.44L480,129.45Zm-10.29,10.73a19.15,19.15,0,0,0,4.6-2l-.22-.44a12.83,12.83,0,0,1-4.6,2Zm4.82-2a26.26,26.26,0,0,0,4.16-2.85l-.44-.43a13.58,13.58,0,0,1-4.16,2.62Zm4.16-2.85,1.53-1.31-.44-.44-1.53,1.32Zm1.09-1.31.44-.22-.22-.22Zm.22-.22a46.18,46.18,0,0,1-6.13,4.38l.22.44a26.79,26.79,0,0,0,6.13-4.38Zm-6.13,4.16c-2,1.1-3.5,1.75-4.6,1.75l.22.44a17.46,17.46,0,0,0,4.6-2Zm-4.6,2a69.81,69.81,0,0,1-7.44,6.79l.21.44c1.54-1.09,4-3.5,7.45-6.79Zm-7.44,6.79a7,7,0,0,1-3.95,1.54v.65a8,8,0,0,0,4.38-1.75Zm-4.17,1.76c-.44,0-.65,0-.65-.22l-.44.43a1.62,1.62,0,0,0,1.09.22Zm-.65-.22c-.22-.22-.22-.22-.22-.44h-.66a1.11,1.11,0,0,0,.44.87Zm-.22-.44c0-.44.22-.88.87-1.53s1.54-1.32,2.63-2.2l-.22-.43a18.47,18.47,0,0,0-2.85,2.19,3,3,0,0,0-1.09,2Zm3.5-3.73a20.62,20.62,0,0,1,7.23-3.06v-.44a20,20,0,0,0-7.45,3.28Zm7.45-3.28,4.6-4.6-.44-.44-4.6,4.6Zm3.94-5a8.06,8.06,0,0,1-2.85,1.75,5,5,0,0,1-2,.66v.66a4.85,4.85,0,0,0,2.19-.66,16.4,16.4,0,0,0,2.85-2Zm-4.6,2.41a1.11,1.11,0,0,1-.87-.44l-.44.44a1.88,1.88,0,0,0,1.31.66Zm-1.09-.44c-.22-.43-.44-.65-.44-1.09h-.66a3.14,3.14,0,0,0,.44,1.53Zm-.22-1.31a3.76,3.76,0,0,1,1.53-2.85l-.44-.44a4.94,4.94,0,0,0-1.75,3.29Zm1.53-2.85a11.47,11.47,0,0,1,4.16-2.63l-.22-.44a12.84,12.84,0,0,0-4.38,2.85Zm4.16-2.85a13.8,13.8,0,0,1,3.94-1.09v-.66a13,13,0,0,0-4.16,1.1Zm3.94-1.09a.81.81,0,0,1,.66.22l.44-.44a1.68,1.68,0,0,0-1.1-.44Zm.88.22c.22.22.22.22.22.44h.66a1.14,1.14,0,0,0-.44-.88Zm.22.44a1.65,1.65,0,0,1-.22.87l.44.22a2.38,2.38,0,0,0,.22-1.09Zm.22,1.31,1.75-1.75-.44-.44-1.75,1.75Zm-10.95,5.7c0,.43,0,.65.22.87s.43.22.87.22v-.66c-.22,0-.44,0-.44-.22a.74.74,0,0,1-.21-.43h-.44Zm1.31,1.09a4,4,0,0,0,2.41-.88,13.43,13.43,0,0,0,3.29-2.41l-.44-.43c-1.32,1.09-2.41,1.75-3.29,2.41a5.87,5.87,0,0,1-2.19.65V138Zm5.7-3.29a17.11,17.11,0,0,0,2.84-2.84c.22-.44.66-.66.66-1.1a1.31,1.31,0,0,0,.22-.87h-.66a.8.8,0,0,1-.22.65c-.22.22-.44.66-.65.88-.66.66-1.54,1.53-2.85,2.63Zm3.94-4.6a1.14,1.14,0,0,0-.44-.87,1.63,1.63,0,0,0-1.09-.22v.66c.43,0,.65,0,.65.22a.73.73,0,0,1,.22.43h.66ZM475,129a5.19,5.19,0,0,0-2.62.88l.22.43a4.07,4.07,0,0,1,2.19-.87V129Zm-2.62.88c-.88.65-2.19,1.53-3.51,2.62l.44.44a20.2,20.2,0,0,1,3.29-2.41Zm-3.51,2.62c-1.31,1.1-2.19,2-2.85,2.63l.44.44A14.7,14.7,0,0,1,469,133Zm-2.63,2.63c-.22.22-.43.66-.65.88s-.22.44-.22.88H466c0-.22,0-.22.22-.44s.22-.44.44-.88Zm.44,5.26a22.7,22.7,0,0,0-7.67,3.5l.44.44a19.65,19.65,0,0,1,7.45-3.5ZM459,143.9a10.06,10.06,0,0,0-2.19,2,3,3,0,0,0-.65.87.81.81,0,0,0-.22.66h.66a.7.7,0,0,1,.21-.44c0-.22.22-.44.44-.66l2-2Zm-2.84,3.51c0,.22.22.66.44.66a1.33,1.33,0,0,0,.87.21v-.65c-.44,0-.66,0-.66-.22l-.21-.22h-.44Zm1.31.87a4.19,4.19,0,0,0,2.63-.87l-.22-.44a4.88,4.88,0,0,1-2.19.66v.65Zm2.63-.87a9.55,9.55,0,0,0,1.75-1.53,34.59,34.59,0,0,0,2.85-2.85l-.44-.44a36.3,36.3,0,0,1-2.84,2.85,13.63,13.63,0,0,0-1.76,1.53Zm4.6-4.38,2.19-2.19-.44-.44-2.19,2.19Z"/><path class="cls-2" d="M322.73,127.26a15.39,15.39,0,0,1,.22,3.06,9.77,9.77,0,0,1-3.73,7.89,13,13,0,0,1-8.32,3.06,6.44,6.44,0,0,1-3.51-.87,2.12,2.12,0,0,1-1.31-2,3.11,3.11,0,0,1,1.53-2.63,6.05,6.05,0,0,1,3.51-1.1,11.27,11.27,0,0,1,2.41.44v.22a11.27,11.27,0,0,0-2.41-.44,5.37,5.37,0,0,0-3.29,1.1,3,3,0,0,0-1.31,2.41,2.06,2.06,0,0,0,1.31,1.75,6.37,6.37,0,0,0,3.07.66c2.63,0,5.48-1.32,8.1-3.94S323,131.64,323,129v-1.32a24,24,0,0,1-3.73,2.85,5.78,5.78,0,0,1-2.62.66,2.55,2.55,0,0,1-2.2-.88,2.49,2.49,0,0,1-.65-1.75,3.86,3.86,0,0,1,1.31-2.85,6.3,6.3,0,0,1,3.07-1.75l4.16-1.09a6.35,6.35,0,0,1,1.53-3.95,4.59,4.59,0,0,1,3.29-1.53,1.65,1.65,0,0,1,1.09.44,1.68,1.68,0,0,1,.44.87,3,3,0,0,1-1.31,2.2,15.32,15.32,0,0,1-4.82,2,16.78,16.78,0,0,0,.44,3.28,22.65,22.65,0,0,1,4.38-3.72,4,4,0,0,1,2.41-.88,1.85,1.85,0,0,1,1.31.44.88.88,0,0,1,.44.88.78.78,0,0,1-.22.65.87.87,0,0,1-1.53-.65c0-.22.21-.44.43-.66a.68.68,0,0,1,.44-.22l-.22-.22h-.65a4.08,4.08,0,0,0-1.54.44A11.12,11.12,0,0,0,326,124Zm-.66-4.38a10.12,10.12,0,0,0,4.38-1.76,2.76,2.76,0,0,0,1.53-2.41c0-.65-.43-1.09-1.31-1.09a3.85,3.85,0,0,0-3.07,1.53A5.53,5.53,0,0,0,322.07,122.88Zm.44,3.94-.22-2a3.85,3.85,0,0,1-.22-1.1v-.43a10.57,10.57,0,0,0-4.16,1.75,8.25,8.25,0,0,0-2.41,2.41,4.91,4.91,0,0,0-1.1,2.19,1.14,1.14,0,0,0,.44.87,1.86,1.86,0,0,0,1.32.44,8.27,8.27,0,0,0,3.28-1.09A20.49,20.49,0,0,0,322.51,126.82Z"/><path class="cls-2" d="M322.73,127.26h-.22v.22Zm-9.42,7.88.22.22.22-.22h-.44Zm0,.22v.22h.22v-.22Zm9.2-7.67h.22v-.43Zm-.66-4.59v.22h.22v-.22Zm.44.22v-.22h-.22v.22Zm.44,3.28h-.22l.22.44Zm-.66-3.72h-.22v.44h.44Zm.44,3.94.22.22v-.22Zm-.66-3.5h.22v-.44h-.44Zm.66,3.94a15.39,15.39,0,0,1,.22,3.06h.66a15.39,15.39,0,0,0-.22-3.06Zm.22,3.06A9.65,9.65,0,0,1,319,138l.44.44a9.77,9.77,0,0,0,3.95-8.11ZM319.22,138a12.8,12.8,0,0,1-8.32,2.85v.65a13.6,13.6,0,0,0,8.54-3.06Zm-8.32,2.85a7.33,7.33,0,0,1-3.29-.66l-.21.44a6,6,0,0,0,3.5.87Zm-3.29-.66a2.06,2.06,0,0,1-1.31-1.75h-.44a2.29,2.29,0,0,0,1.54,2.19Zm-1.31-1.75a3,3,0,0,1,1.31-2.41l-.21-.44a3.19,3.19,0,0,0-1.54,2.85Zm1.31-2.41a5.4,5.4,0,0,1,3.29-1.1v-.65a6,6,0,0,0-3.5,1.09Zm3.29-1.1a7.75,7.75,0,0,1,2.19.44l.22-.44a11.19,11.19,0,0,0-2.41-.43Zm2.19.22.44.44v-.22Zm.22,0a11.27,11.27,0,0,0-2.41-.44v.66a7.75,7.75,0,0,1,2.19.44Zm-2.41-.44a5.4,5.4,0,0,0-3.29,1.1l.44.44a5,5,0,0,1,3.07-.88v-.66Zm-3.29,1.1a3.35,3.35,0,0,0-1.53,2.63h.66a3,3,0,0,1,1.31-2.19Zm-1.53,2.41a2.1,2.1,0,0,0,1.32,2l.21-.44c-.65-.44-1.09-.87-1.09-1.53Zm1.32,2a7.2,7.2,0,0,0,3.28.88v-.66a6.37,6.37,0,0,1-3.07-.66Zm3.28.88c2.85,0,5.48-1.32,8.32-3.95l-.43-.43c-2.63,2.62-5.26,3.94-7.89,3.94Zm8.11-4.16c2.62-2.63,4.16-5.48,4.16-8.11h-.66q0,3.94-3.94,7.89Zm4.16-8.11v-1.31h-.66v1.09H323Zm-.66-1.31a23.78,23.78,0,0,1-3.72,2.84l.22.44a24,24,0,0,0,3.72-2.85Zm-3.5,2.62a5.85,5.85,0,0,1-2.63.66v.66a7.5,7.5,0,0,0,2.84-.66Zm-2.63.66a2.69,2.69,0,0,1-2-.66l-.43.44a2.72,2.72,0,0,0,2.41.88Zm-1.76-.66a2,2,0,0,1-.65-1.53h-.66a2.46,2.46,0,0,0,.66,1.75Zm-.65-1.31a3.77,3.77,0,0,1,1.31-2.63l-.44-.44a4.35,4.35,0,0,0-1.31,3.07Zm1.09-2.85a7.92,7.92,0,0,1,2.85-1.75l-.22-.44a6.34,6.34,0,0,0-3.07,1.75Zm2.85-1.53,4.16-1.09-.22-.44L317.47,124Zm4.38-1.31a4.83,4.83,0,0,1,1.53-3.73l-.43-.44a5.61,5.61,0,0,0-1.76,4.17Zm1.53-3.73a4.18,4.18,0,0,1,3.07-1.53v-.66a6.22,6.22,0,0,0-3.5,1.53Zm3.07-1.53c.44,0,.66.22.88.22l.43-.44a3,3,0,0,0-1.31-.44Zm1.1.44c.21.22.43.43.43.65h.66a1.67,1.67,0,0,0-.44-1.09Zm.21.65a3,3,0,0,1-1.09,2l.44.44a3,3,0,0,0,1.31-2.41Zm-1.09,2c-.66.66-2.41,1.32-4.82,2l.22.44c2.41-.66,4.16-1.32,5-2.2Zm-5,2.42a21.85,21.85,0,0,0,.44,3.5l.44-.22a16.88,16.88,0,0,1-.44-3.28Zm1.1,3.5a22.27,22.27,0,0,1,4.38-3.72l-.22-.44c-.88.66-2.41,2-4.6,3.72Zm4.38-3.72a4,4,0,0,1,2.41-.88v-.66a4.18,4.18,0,0,0-2.63.88Zm2.41-.88a3.13,3.13,0,0,1,1.31.44l.44-.44a1.84,1.84,0,0,0-1.53-.44v.44Zm1.09.44c.22.22.44.44.44.66h.66a1.21,1.21,0,0,0-.66-1.1Zm.44.66c0,.21,0,.21-.22.43l.44.44a1.14,1.14,0,0,0,.44-.87Zm-.22.43c-.22.22-.22.22-.44.22v.66a1.67,1.67,0,0,0,.88-.44Zm-.44.22c-.22,0-.22,0-.44-.22l-.43.44a.79.79,0,0,0,.65.22V124Zm-.44-.22a.78.78,0,0,1-.21-.43h-.66a1.31,1.31,0,0,0,.22.87Zm0-.22c0-.21,0-.43.22-.43l-.43-.66a1.14,1.14,0,0,0-.44.88h.65Zm.22-.43a.22.22,0,0,0,.22-.22v-.44H330a.22.22,0,0,0-.22.22Zm.44-.66c0-.22-.22-.22-.22-.44a.22.22,0,0,1-.22-.22l-.22.44h.22V122h.44Zm-.44-.44c-.22,0-.43-.22-.65-.22v.66h.43Zm-.65-.22a5.18,5.18,0,0,0-1.76.44l.22.44a3.13,3.13,0,0,1,1.32-.44v-.44Zm-1.76.44a11.12,11.12,0,0,0-2.19,1.75l.44.44a7.94,7.94,0,0,1,2.19-1.53ZM325.79,124a22.45,22.45,0,0,0-3.06,3.29l.44.43a39.89,39.89,0,0,1,3.06-3.06Zm-3.72-.65a11.17,11.17,0,0,0,4.6-1.76l-.22-.44a9.15,9.15,0,0,1-4.16,1.54Zm4.6-1.76c1.1-.87,1.75-1.53,1.75-2.63h-.65c0,.66-.44,1.32-1.54,2.19Zm1.75-2.63a1.67,1.67,0,0,0-.44-1.09,1.81,1.81,0,0,0-1.31-.44v.66c.44,0,.66,0,.88.22s.22.22.22.65Zm-1.75-1.31a4.16,4.16,0,0,0-3.28,1.75l.43.44a3.73,3.73,0,0,1,2.85-1.53Zm-3.28,1.53a5.13,5.13,0,0,0-1.54,3.73h.66a4.49,4.49,0,0,1,1.31-3.29Zm-.66,7.67-.22-2h-.66l.22,2Zm-.22-2c0-.44,0-.66-.22-.88v-.44l-.44.22V124a1.66,1.66,0,0,0,.22.88Zm-.22-1.1v-.43h-.66v.43Zm-.44-.65a10.57,10.57,0,0,0-4.16,1.75l.22.44a11,11,0,0,1,4.16-1.54Zm-4.38,1.75a8.37,8.37,0,0,0-2.41,2.41l.44.22a6.83,6.83,0,0,1,2.19-2.19Zm-2.41,2.41a4.43,4.43,0,0,0-.88,1.31,2.06,2.06,0,0,0-.21,1.1h.65a1.66,1.66,0,0,1,.22-.88l.66-1.31Zm-.88,2.41a1.21,1.21,0,0,0,.66,1.09l.44-.44c-.22-.22-.44-.43-.44-.65Zm.44,1.09a3.13,3.13,0,0,0,1.32.44v-.66a9.53,9.53,0,0,1-1.1-.22Zm1.32.44a6.48,6.48,0,0,0,3.28-1.1l-.22-.43a6.57,6.57,0,0,1-3.06,1.09Zm3.5-1.1a8.74,8.74,0,0,0,3.29-3.06l-.44-.44a9.44,9.44,0,0,1-3.07,2.85Z"/><path class="cls-2" d="M484.59,133.17c3.51-2.85,5.7-4.38,7-4.38a.81.81,0,0,1,.66.22c.22.22.22.44.22.88,0,.87-.66,2-1.75,3.28,3.5-3.07,5.69-4.38,7-4.38.88,0,1.54.44,1.54,1.31a2.93,2.93,0,0,1-.66,1.76,10.33,10.33,0,0,1-2.19,2.19,21.26,21.26,0,0,0-2,1.75c-.22.22-.44.44-.44.66s0,.22.22.44.22.21.44.21a7,7,0,0,0,2.19-.65,21.18,21.18,0,0,0,3.06-2.19l1.32-1.1.22.22c-3.07,2.85-5.48,4.16-6.79,4.16a1.67,1.67,0,0,1-.88-.44,1.61,1.61,0,0,1-.44-.87,2,2,0,0,1,.22-1.1,3,3,0,0,1,.66-.87,9.15,9.15,0,0,0,1.53-1.54l1.1-.87c1.09-.88,1.75-1.54,1.75-2s-.22-.66-.88-.66c-1.09,0-2.62.66-4.38,2.19a71.94,71.94,0,0,0-6.57,5.91h-2.19l5.92-5.91a4.68,4.68,0,0,0,1.31-1.75c0-.44-.22-.44-.66-.44C490.29,129,488.1,130.54,484.59,133.17Z"/><path class="cls-2" d="M486.78,137.33v.22H487Zm-2,0-.66.22h.66Zm0-3.94c1.75-1.31,3.07-2.41,4.16-3.29a6.91,6.91,0,0,1,2.41-1.09v-.66a6.69,6.69,0,0,0-2.84,1.1,31.69,31.69,0,0,0-4.39,3.28Zm6.79-4.16c.22,0,.44,0,.44.22l.44-.44a1.67,1.67,0,0,0-.88-.44Zm.44.22c.22.22.22.22.22.65h.66c0-.43-.22-.65-.44-1.09Zm.22.44a5,5,0,0,1-1.75,3.06l.43.44c1.32-1.31,2-2.41,2-3.5Zm-1.32,3.72a23,23,0,0,1,4.39-3.29,6.12,6.12,0,0,1,2.62-1.09v-.66a6.69,6.69,0,0,0-2.84,1.1c-1.1.65-2.63,2-4.38,3.28Zm7-4.38c.44,0,.66,0,.88.22a.8.8,0,0,1,.22.65h.66a1.67,1.67,0,0,0-.44-1.09,1.86,1.86,0,0,0-1.32-.44Zm1.1.87a2.38,2.38,0,0,1-.66,1.54l.44.22a3.54,3.54,0,0,0,.66-2h-.44Zm-.44,1.76a10.33,10.33,0,0,1-2.19,2.19l.44.44a20.67,20.67,0,0,0,2.19-2.2Zm-2.19,2.19a22.83,22.83,0,0,0-2,1.75l.44.44a21.26,21.26,0,0,1,2-1.75Zm-2,1.75a1.67,1.67,0,0,0-.44.88h.66a.68.68,0,0,1,.22-.44Zm-.44.88a.79.79,0,0,0,.22.65l.44-.43v-.22Zm.22.65a.81.81,0,0,0,.66.22v-.65a.22.22,0,0,1-.22-.22Zm.66.22a5.92,5.92,0,0,0,2.19-.65l-.22-.44a5,5,0,0,1-2,.65Zm2.19-.65c.87-.44,2-1.32,3.28-2.2l-.44-.43a11.72,11.72,0,0,1-3.06,2.19Zm3.28-2.41,1.32-1.1-.44-.44-1.32,1.1Zm1.1-1.1.44-.22-.22-.22Zm0-.22a33.68,33.68,0,0,1-3.94,3.07,6.07,6.07,0,0,1-2.63,1.09v.44a7.5,7.5,0,0,0,3.06-1.09,33,33,0,0,0,4.16-3.07Zm-6.57,3.94a.83.83,0,0,1-.66-.21l-.44.43a1.68,1.68,0,0,0,1.1.44Zm-.66-.21c-.22-.22-.22-.44-.22-.88h-.66a1.63,1.63,0,0,0,.44,1.09Zm-.22-.66a2.39,2.39,0,0,1,.22-1.1l-.44-.22a2.79,2.79,0,0,0-.22,1.32Zm.22-1.1a3,3,0,0,1,.66-.87l-.44-.44a4.94,4.94,0,0,0-.66,1.09Zm.44-.87,1.53-1.54-.44-.44c-.87.66-1.31,1.32-1.75,1.54Zm1.75-1.54,1.1-.87-.44-.44-1.1.87Zm.88-.87a3.78,3.78,0,0,0,1.31-1.32c.22-.22.22-.44.44-.44,0-.21.22-.21.22-.43h-.66v.22a.73.73,0,0,0-.22.43,8.67,8.67,0,0,1-1.31,1.1Zm2-2.19c0-.22,0-.44-.44-.66-.22-.22-.44-.22-.88-.22v.66h.44v.22Zm-1.32-.88a3.54,3.54,0,0,0-2,.66,27.83,27.83,0,0,0-2.63,1.75l.44.44c.88-.66,1.75-1.32,2.41-1.75a3,3,0,0,1,1.75-.44Zm-4.6,2.41a71.94,71.94,0,0,0-6.57,5.91l.44.44q3.94-3.62,6.57-5.91Zm-6.57,5.91h-2.19v.66h2.19Zm-1.75.44,5.91-5.91-.43-.44-5.92,5.91Zm5.91-5.91,1.1-1.1c.22-.22.22-.22.22-.44s.22-.21.22-.43h-.66v.22a.73.73,0,0,0-.22.43l-1.09,1.1Zm1.54-2.19a.78.78,0,0,0-.88-.88v.66h.22v.22Zm-.88-.66a1.93,1.93,0,0,0-1.09.22,12.62,12.62,0,0,0-1.54.88,22.4,22.4,0,0,0-4.16,3.28l.44.44c1.75-1.32,3.07-2.41,4.16-3.07a13.1,13.1,0,0,1,1.53-.87,1.66,1.66,0,0,1,.88-.22v-.66ZM485,133.17l-.44.22.22.22Z"/><path class="cls-3" d="M0,132.86H133.39"/><path class="cls-3" d="M500.68,132.86H631"/><path class="cls-2" d="M181.23,31.1c3.07,0,4.38-1.53,4.38-4.38,0-2.63-1.09-4.16-3.5-4.16-3.29,0-5,1.53-5,4.6C177.51,29.79,178.82,31.1,181.23,31.1Z"/><path class="cls-2" d="M142.25,59.8a.78.78,0,0,0-.44.21A8.27,8.27,0,0,1,139,61.55a25,25,0,0,1-7.67,1.09c-5.91,0-10.29-1.09-12.92-3.5a21.15,21.15,0,0,1-7.45-16.43c0-1.53.22-2.19.66-2.19h4.82q3.28,0,13.8-2a110.13,110.13,0,0,0,11-2.41c.66-.22.88-.44.88-.88a5.64,5.64,0,0,0-.44-1.53,17.56,17.56,0,0,0-6.13-6.79c-2.63-1.75-4.39-3.07-5.7-3.5a14.56,14.56,0,0,0-5.69-1.1,16.86,16.86,0,0,0-12.27,5,22.62,22.62,0,0,0-5.91,11.39,47.32,47.32,0,0,0-.66,9.42,20.49,20.49,0,0,0,6.13,15.11c3.29,3.29,7.89,5,13.58,5a24.88,24.88,0,0,0,10.74-2.19,23.54,23.54,0,0,0,4.81-2.63c.66-.44,1.54-1.32,2.63-2.19v-.22c0-.22-.22-.22-.22-.44C142.68,60,142.46,59.8,142.25,59.8ZM112.68,32.85a26,26,0,0,1,2.19-4.38c2-2.41,3.94-3.72,5.91-3.72A11.5,11.5,0,0,1,128,27.16a17.73,17.73,0,0,1,5.25,6.13,8.65,8.65,0,0,1,.44,1.32c0,.43-.21.65-.87.87-2.85,1.1-7,1.76-12.71,2.19-5.91.44-8.76.66-8.32.66-.44,0-.66-.22-.66-.88A27.65,27.65,0,0,1,112.68,32.85Z"/><path class="cls-2" d="M73.25,64.61a13.29,13.29,0,0,1-7.88-2.19,49.05,49.05,0,0,1-5.48-5q-2-2-5.91-6.57-7.89-8.88-9.86-14.46a.81.81,0,0,1,.22-.66c4.38-1.53,7.45-3.28,9.42-5.25,3.06-3.29,4.6-7.67,4.6-12.93A14.46,14.46,0,0,0,53.54,6.13a18.9,18.9,0,0,0-10.73-5A57.42,57.42,0,0,0,36.67.66c-.43,0-2.19,0-5.47.22s-5,.22-5.48.22H11.05a.46.46,0,0,0-.44.43V3.29a.47.47,0,0,0,.44.43h6.13c1.1,0,1.53,4.17,1.75,12a13.85,13.85,0,0,1,7.89-4.6V4.6c0-.44.65-.66,1.75-.66,7.67,0,13.36,2,17.3,5.7a14,14,0,0,1,4.38,10.51c0,7-3.28,11.39-9.63,13.14a9.28,9.28,0,0,1-2.41.44,40,40,0,0,1-4.6.44H32.29V36.8c1.32,0,2.41.22,3.29.22.22,0,.66.22.88.87C40,44,42.59,48.62,44.56,51.47l5.26,7.23c3.28,4.38,5.69,7.23,6.79,8.1a1.86,1.86,0,0,0,1.31.66H73.69c.22,0,.44-.22.44-.66V65.27C74.13,64.83,73.91,64.61,73.25,64.61Z"/><path class="cls-2" d="M18.27,64.61H11.48a.78.78,0,0,0-.21.44v2a.73.73,0,0,0,.43.22H37.55A.47.47,0,0,0,38,66.8V65.27a.47.47,0,0,0-.44-.44H18.27Z"/><path class="cls-2" d="M482.18,64.61h-7c-.44,0-.44.22-.44.44v1.54a.47.47,0,0,0,.44.43h26.94a.47.47,0,0,0,.44-.43V64.83a.47.47,0,0,0-.44-.44h-3.5v.22Z"/><path class="cls-2" d="M516.35.66a3.76,3.76,0,0,0-1.09.22c-.66,0-1.54.22-2.41.22H489.19c-4.38,0-10.07-.22-17.08-.44C466.19.44,462.69.22,462,0c-.65,0-.87,0-1.09.44a59.73,59.73,0,0,0-2.19,7.23A3,3,0,0,0,458.31,9c0,.22.22.44.66.44.21,0,.65-.22.87-.88.66-1.09,2.41-2,4.82-2.63q5.26-1.3,17.74-1.31c1.1,0,1.53,4.16,1.75,12A13.86,13.86,0,0,1,491.6,11V5.26c0-.44.22-.66.88-.66,8.32,0,14.23.44,17.3,1.09a5.9,5.9,0,0,1,3.94,2.85c.22.44.66.88.88.88s.44-.22.66-.66a55.14,55.14,0,0,0,1.53-7.23C516.79,1.1,516.57.66,516.35.66Z"/><path class="cls-2" d="M429,64.61a13.3,13.3,0,0,1-7.89-2.19,50,50,0,0,1-5.47-5q-2-2-5.92-6.57-7.87-8.88-9.85-14.46a.81.81,0,0,1,.22-.66c4.38-1.53,7.44-3.28,9.41-5.25,3.07-3.29,4.6-7.67,4.6-12.93a14.43,14.43,0,0,0-4.82-11.39,18.87,18.87,0,0,0-10.73-5,57.42,57.42,0,0,0-6.13-.44c-.44,0-2.19,0-5.48.22s-5,.22-5.47.22H366.75a.46.46,0,0,0-.44.43V3.29a.47.47,0,0,0,.44.43h6.14c1.09,0,1.75,4.38,1.75,13.36V63.3c0,1.1-.22,1.53-.88,1.53H367a.77.77,0,0,0-.22.44v2a.77.77,0,0,0,.44.22h26.28a.47.47,0,0,0,.44-.44V65.49a.47.47,0,0,0-.44-.44h-8.76c-1.53,0-2.19-3.5-2.19-10.73V37.24c0-.44.22-.66.88-.44,3.94.44,6.57.65,8.1.65.22,0,.66.22.88.88,3.5,6.13,6.13,10.73,8.1,13.58l5.26,7.23c3.29,4.38,5.69,7.23,6.79,8.1a1.9,1.9,0,0,0,1.31.66h15.77c.22,0,.44-.22.44-.66V65.71C429.83,64.83,429.61,64.61,429,64.61Zm-34.83-31.1a39.8,39.8,0,0,1-4.6.44,36,36,0,0,1-6.13-.22.58.58,0,0,1-.66-.66V21.9c.22-2.41.22-8.1.22-17.52,0-.44.66-.66,1.75-.66,7.67,0,13.36,2,17.31,5.7a14.06,14.06,0,0,1,4.38,10.51c0,7-3.29,11.39-9.64,13.14C396.54,33.07,395.88,33.29,394.13,33.51Z"/><path class="cls-2" d="M617.76,64.61h-7.23q-1.63,0-2-9.85V5.48c0-.88,0-1.32.22-1.54s.66-.22,1.75-.22h6.36a.57.57,0,0,0,.65-.65V1.75a.57.57,0,0,0-.65-.65h-25c-.44,0-.66.21-.66.43V3.07c0,.43.22.65.44.65h7.45q2,0,2,9.2V28.69c0,.66-.22.88-.88.88H566.07c-.44,0-.66-.44-.66-.88V5c0-.66,0-1.1.22-1.1.22-.22.66-.22,1.32-.22h7.22c.44,0,.66-.22.66-.43V2a.58.58,0,0,0-.66-.66h-25c-.44,0-.66.22-.66.44V3.29c0,.21.22.43.66.43H556c1.09,0,1.53,3.29,1.53,9.86V61.11c0,1.75,0,2.85-.22,3.07a1.85,1.85,0,0,1-1.31.43h-6.14a.58.58,0,0,0-.65.66V66.8c0,.22.21.44.65.44h25.41a.47.47,0,0,0,.44-.44V65.27c0-.44-.22-.66-.44-.66h-8.1c-1.32,0-2-3.72-2.19-11V34.17c0-.66.22-1.1.87-1.1H600c.66,0,.88.22.88.88V60.89a24.91,24.91,0,0,1-.22,3.07,1.29,1.29,0,0,1-1.1.44h-7c-.43,0-.65.21-.65.43v1.54c0,.22.22.43.65.43h25.19c.22,0,.44-.21.44-.65V64.83C618.42,64.83,618.2,64.61,617.76,64.61Z"/><path class="cls-2" d="M183.21,58.92c-3.51,0-5,1.53-5,4.6,0,2.41,1.31,3.72,3.94,3.72,2.85,0,4.38-1.31,4.38-4.16a4.46,4.46,0,0,0-.87-2.85A3.05,3.05,0,0,0,183.21,58.92Z"/><path class="cls-2" d="M266.44,38.55a24.43,24.43,0,0,0-9.86-5.48c-.66-.22-.66-.43,0-.87A21.16,21.16,0,0,0,264,26.06c1.31-1.75,2.19-3.06,2.63-3.72A15.72,15.72,0,0,0,268,15.55a13.29,13.29,0,0,0-3.07-8.76,19,19,0,0,0-6.35-4.6A29.31,29.31,0,0,0,252.2,1.1h-4.82c-.44,0-2.41,0-5.48.21-3.06,0-4.81.22-5.25.22h-14a.47.47,0,0,0-.44.44V3.5c0,.44.22.44.44.44h7.45c.87,0,1.53,3.07,2,9V32.64c0,.87,0,6.13.22,15.55s.22,14.23.22,14.67c0,1.1-.44,1.75-1.32,1.75h-6.79a.46.46,0,0,0-.43.44V66.8a.46.46,0,0,0,.43.44h7.45c2,0,5.26,0,9.42.22s6.79.22,7.66.22c7.23,0,12.71-1.75,16.87-5.48a15.82,15.82,0,0,0,5.48-12.48A14.73,14.73,0,0,0,266.44,38.55ZM239.28,5.26a.94.94,0,0,1,.87-.88,20.23,20.23,0,0,1,4.38-.22q7.56,0,11.83,4.6a14.52,14.52,0,0,1,4.38,11A17.77,17.77,0,0,1,259,27.16a10,10,0,0,1-4.38,4.6c-.66.22-.88.44-1.32.44,0,0-1.31-.22-3.5-.44a30.36,30.36,0,0,0-3.72-.22h-6.14c-.43,0-.43-.22-.43-.88C239.28,14.46,239.28,5.91,239.28,5.26Zm19.49,57.16c-2.41,2.19-5.69,3.07-9.86,3.07A23.47,23.47,0,0,1,241,64.4c-.88-.44-1.53-3.07-1.53-8.11V34.83c0-.66.21-.88.43-.88a4.29,4.29,0,0,1,1.76-.22c7,0,12.7,2.19,16.86,6.35a15.2,15.2,0,0,1,4.6,11.17C262.93,56.07,261.4,59.8,258.77,62.42Z"/><path class="cls-2" d="M331.49,64.61H324.7c-1.1,0-1.75-2-2-6.13V4.38c0-.66.22-1.09.87-1.09h6.79c.44,0,.44-.22.44-.44V1.31a.47.47,0,0,0-.44-.43H306.74a.47.47,0,0,0-.44.43V3.07c0,.22.22.43.66.43h6.13c1.1,0,1.75,3.07,1.75,9.2V63.08c0,.88-.22,1.31-.65,1.31h-7a.77.77,0,0,0-.22.44v2a.77.77,0,0,0,.44.22h23.65c.22,0,.22-.22.22-.43V64.83C331.93,64.83,331.71,64.61,331.49,64.61Z"/><g class="cls-4"><path class="cls-2" d="M29.67,8.54c.21,0,.43.22.43.66v2.63a18.71,18.71,0,0,1-.22,3.5,9.19,9.19,0,0,1-.43,2.41,25,25,0,0,1,3.28-5c.22-.43.66-.65.88-1.09.22-.22.44,0,.22.22a28,28,0,0,0-2.41,3.06,5.11,5.11,0,0,1,1.09-.65,4.6,4.6,0,0,0,1.32-.88,12.15,12.15,0,0,1,3.06-1.09,3.74,3.74,0,0,1,1.54-.22c.43,0,.87,0,1.09.43s-.22.66-.66.88a3.11,3.11,0,0,1-1.53.44,4.79,4.79,0,0,1-1.75.22H34.7a1.3,1.3,0,0,1-.87-.22l-1.32.66c-.44.22-.87.65-1.31.87a25.09,25.09,0,0,0-3.07,5.92c-.22.65-.44,1.31-.65,2l2.62-2.63a28.45,28.45,0,0,1,3.29-2.19l2-.66c.22,0,.66-.22.88-.22s.65-.22.87,0a1.32,1.32,0,0,1,.88.22.81.81,0,0,1,.22.66c0,.44-.66.87-1.32,1.09a13,13,0,0,1-5,.44c-.44.44-1.1.66-1.54,1.1-1.09.87-2,2-3.06,2.84A50.85,50.85,0,0,0,25.5,32.2c-.22,2.41-.43,4.82-.65,7.44.22-.65.43-1.09.65-1.75s.66-1.53.88-2.19l2-4.6v-.22a7.91,7.91,0,0,1,.88-2,9,9,0,0,1,1.09-2c.22-.22.44-.66.88-.66.22-.22.66,0,.87.22s.22.44.22.88c0,.22-.22.66-.22.88A5.23,5.23,0,0,1,29,30.88c-.22,0-.22.22-.44.22v.22a34.16,34.16,0,0,0-1.75,4.16c-.22.88-.66,1.54-.88,2.41-.22.44-.22.88-.44,1.32,0,.22-.22.43-.43.87,0-.22,0-.22.21-.44.22-.43.44-1.09.66-1.53a11.48,11.48,0,0,1,1.75-2.63A5.77,5.77,0,0,1,29,34.39c.22-.22.44-.44.66-.44a1.61,1.61,0,0,1,.87-.44,1.24,1.24,0,0,1,1.53.44c.22.44-.21.88-.65,1.31a4.45,4.45,0,0,1-1.75.88,6.75,6.75,0,0,1-2.19.22l-1.32,2c-.22.44-.44,1.1-.66,1.53s-.22.88-.43,1.32c0,.22,0,.22-.22.44,0,.87-.22,2-.22,2.84A58.43,58.43,0,0,1,22.88,55.2c.21-.22.43-.66.65-.88s.44-.66.66-.88l.22-.22c.44-.43.66-.87,1.09-1.31a4.7,4.7,0,0,0,.88-1.31c.22-.44.66-1.1.88-1.54H27A3.77,3.77,0,0,1,26.38,46a4.08,4.08,0,0,1,.44-1.54c.22-.22.22-.43.66-.43a.82.82,0,0,1,.65.21,1.62,1.62,0,0,1,.44,1.32,4,4,0,0,1-.44,1.53,9.24,9.24,0,0,1-1.31,3.07,6.64,6.64,0,0,1-1.1,1.53l-.65.66a3.7,3.7,0,0,1,1.09-.88c.44-.22.88-.65,1.32-.87A1.9,1.9,0,0,1,29,50.38a.79.79,0,0,1,.44,1.09,2.2,2.2,0,0,1-1.1.88,6.35,6.35,0,0,1-3.5.66l-.22.21-.44.44c-.22.44-.44.66-.66,1.1s-.44.65-.65,1.09c-.22.22-.44.66-.66.88-.88,2.85.22,8.32,2.41,8.76-.22.44-2.41.22-2.41.22s-2.41-.22-1.54-.22c1.54-2,.88-3.5.44-5.69V58.48c0-.44.22-.87.22-1.53V55.41A5.16,5.16,0,0,1,20,53c0-.44-.22-.88,0-1.32a.8.8,0,0,1,.87-.87c.44,0,.66.43.66.87s.22,1.1.22,1.53v3.07c0,.66-.22,1.1-.22,1.75a.81.81,0,0,1-.22.66c.44-.88.66-2,1.1-2.85a47.16,47.16,0,0,0,1.75-9.63,14.31,14.31,0,0,1-1.31-2.63h-.44a.81.81,0,0,1-.66-.22c-.44-.22-.88-.22-1.1-.66a1.17,1.17,0,0,1-.43-.88,1.15,1.15,0,0,1,.87-.43c.22,0,.44.22.66.22s.22.21.44.21c-.22-.87-.44-2-.66-2.84,0-.66-.22-1.1-.22-1.75v-.88a1.32,1.32,0,0,1,.22-.88,1.06,1.06,0,0,1,1.53-.22.81.81,0,0,1,.22.66v.88a6.06,6.06,0,0,1-.22,2,1.59,1.59,0,0,1-.43.87c-.22.22-.22.66-.44.88H22c.22.66.22,1.1.44,1.75l1.31,3.29v-.88c.44-3.72.44-7.44.88-11.17-.22-.44-.22-.66-.44-1.09s-.22-.66-.44-1.1a20.38,20.38,0,0,1-.87-2.19c-.22-.44-.44-.66-.66-1.09h-.44c-.22,0-.22,0-.44-.22-.22,0-.44-.22-.66-.44a4,4,0,0,1-1.09-.88,4.4,4.4,0,0,1-1.31-2.19A2.75,2.75,0,0,1,18.06,23c0-.22.22-.22.22,0a11.71,11.71,0,0,1,2.19,2.41V19.06c0-.22,0-.22.21-.44.22,0,.44,0,.44.22l.44.43a.68.68,0,0,1,.22.44,2,2,0,0,1,.22,1.1,1.6,1.6,0,0,1-1.32,1.53v3.07a3.83,3.83,0,0,0,.88,1.09,38.8,38.8,0,0,1,2.19,4.16A3.13,3.13,0,0,1,24.19,32c0,.22.22.66.22.87V31.76a39,39,0,0,1,.44-5,38.53,38.53,0,0,0,0-5V21A11.27,11.27,0,0,1,22,17.3a1.93,1.93,0,0,1-.22-1.09c0-.22-.22-.66.22-.88a1,1,0,0,1,1.09,0,1.72,1.72,0,0,1,.88.88,7.76,7.76,0,0,1,.88,2c.22.88.22,1.75.43,2.41a21,21,0,0,1,0,5.26A7.79,7.79,0,0,1,25.07,28a55.38,55.38,0,0,1,1.53-5.92,14.23,14.23,0,0,1,1.09-2.63V17.74c0-.44-.21-.87-.21-1.31-.22,0-.44-.22-.66-.22-.22-.22-.44-.22-.44-.44l-.88-.88a1.63,1.63,0,0,1-.43-1.09c0-.22,0-.88.43-.88s.66.44.88.66a4.81,4.81,0,0,0,.66,1.1,16.39,16.39,0,0,1,.87,2.4c0,.44.22.88.22,1.54v.44a.22.22,0,0,1,.22-.22L29,16.21c0-.66.22-1.1.22-1.75a3.55,3.55,0,0,1-.88-1.54c-.22-.44-.22-1.09-.44-1.53V9.86a.81.81,0,0,1,.22-.66C29.23,8.54,29.45,8.32,29.67,8.54Z"/></g><g class="cls-5"><path class="cls-2" d="M493.79,8.32c.22,0,.44.22.44.66v2.63a18.71,18.71,0,0,1-.22,3.5,9.21,9.21,0,0,1-.44,2.41,25.08,25.08,0,0,1,3.29-5c.22-.43.66-.65.87-1.09.22-.22.44,0,.22.22a32.65,32.65,0,0,0-2.41,3.28,5.22,5.22,0,0,1,1.1-.65,4.43,4.43,0,0,0,1.31-.88A12.23,12.23,0,0,1,501,12.27a3.7,3.7,0,0,1,1.53-.22c.44,0,.88,0,1.1.43s-.22.66-.66.88a3.17,3.17,0,0,1-1.53.44,4.84,4.84,0,0,1-1.76.22h-.87a1.32,1.32,0,0,1-.88-.22l-1.31.66c-.44.22-.88.65-1.32.87a37.49,37.49,0,0,0-3.06,5.92l-.66,2,2.63-2.63a27.62,27.62,0,0,1,3.29-2.19l2-.66c.21,0,.65-.22.87-.22s.66-.22.88,0a1.3,1.3,0,0,1,.87.22.81.81,0,0,1,.22.66c0,.66-.65.87-1.31,1.09a13.08,13.08,0,0,1-5,.44c-.44.44-1.09.66-1.53,1.1-1.1.87-2,2-3.07,2.84a51.9,51.9,0,0,0-1.75,8.33c-.22,2.41-.44,5-.66,7.44.22-.65.44-1.09.66-1.75s.66-1.53.88-2.19q1-2.3,2-4.6v-.22a8.25,8.25,0,0,1,.87-2,9.09,9.09,0,0,1,1.1-2c.22-.22.44-.66.87-.66.22-.22.66,0,.88.22s.22.44.22.88c0,.22-.22.66-.22.88a5.25,5.25,0,0,1-3.07,2.62c-.21,0-.21.22-.43.22v.22a36.42,36.42,0,0,0-1.76,4.38c-.21.88-.65,1.54-.87,2.41-.22.44-.22.88-.44,1.32,0,.21-.22.43-.44.87,0-.22,0-.22.22-.44.22-.43.44-1.09.66-1.53a19.91,19.91,0,0,1,1.75-2.85,6.25,6.25,0,0,1,1.31-1.09c.22-.22.44-.44.66-.44a1.67,1.67,0,0,1,.88-.44,1.25,1.25,0,0,1,1.53.44c.22.44-.22.88-.66,1.31a4.31,4.31,0,0,1-1.75.88,6.72,6.72,0,0,1-2.19.22l-1.31,2c-.22.44-.44,1.1-.66,1.53s-.22.88-.44,1.32c0,.22,0,.22-.22.44,0,1.09-.22,2-.22,3.06a61.93,61.93,0,0,1-1.75,11c.22-.21.44-.65.66-.87s.44-.66.66-.88l.22-.22c.43-.44.65-.87,1.09-1.31a4.6,4.6,0,0,0,.88-1.32c.22-.43.65-1.09.87-1.53h-.22a3.83,3.83,0,0,1-.65-3.07,4.25,4.25,0,0,1,.43-1.53c.22-.22.22-.44.66-.44a.81.81,0,0,1,.66.22,1.86,1.86,0,0,1,.44,1.54,4.08,4.08,0,0,1-.44,1.53,9.36,9.36,0,0,1-1.32,3.07,6.49,6.49,0,0,1-1.09,1.53l-.66.66a3.86,3.86,0,0,1,1.1-.88c.44-.22.87-.66,1.31-.88a2,2,0,0,1,1.53-.22.8.8,0,0,1,.44,1.1,2.17,2.17,0,0,1-1.09.88,6.38,6.38,0,0,1-3.51.65l-.22.22-.43.44c-.22.44-.44.66-.66,1.1s-.44.65-.66,1.09c-.22.22-.44.66-.66.88-.87,2.84.22,8.32,2.41,8.76-.21.44-2.41.22-2.41.22s-2.41-.22-1.53-.22c1.53-2,.88-3.51.44-5.7V59.14c0-.44.22-.88.22-1.53V56.07a3.78,3.78,0,0,1-1.32-2.41c0-.44-.22-.87,0-1.31a.81.81,0,0,1,.88-.88c.44,0,.66.44.66.88s.22,1.09.22,1.53V57c0,.66-.22,1.09-.22,1.75a.81.81,0,0,1-.22.66c.44-.88.65-2,1.09-2.85a49.42,49.42,0,0,0,1.76-9.64A14.38,14.38,0,0,1,487,44.24h-.44a.8.8,0,0,1-.65-.21c-.44-.22-.88-.22-1.1-.66a1.67,1.67,0,0,1-.44-.88,1.14,1.14,0,0,1,.88-.44c.22,0,.44.22.66.22s.21.22.43.22c-.22-.87-.43-2-.65-2.85,0-.65-.22-1.09-.22-1.75V37a1.32,1.32,0,0,1,.22-.88,1.05,1.05,0,0,1,1.53-.22.81.81,0,0,1,.22.66v.87a6.09,6.09,0,0,1-.22,2,1.68,1.68,0,0,1-.44.87c-.22.22-.22.66-.44.88h-.22c.22.65.22,1.09.44,1.75l1.32,3.29v-.88c.44-3.72.44-7.45.87-11.39-.21-.44-.21-.66-.43-1.1s-.22-.65-.44-1.09c-.22-.66-.66-1.53-.88-2.19-.22-.44-.44-.66-.66-1.1h-.43c-.22,0-.22,0-.44-.21-.22,0-.44-.22-.66-.44-.44-.22-.66-.66-1.09-.88a4.54,4.54,0,0,1-1.32-2.19,2.77,2.77,0,0,1-.22-1.31c0-.22.22-.22.44,0a11.19,11.19,0,0,1,2.19,2.41V19.49c0-.22,0-.22.22-.43.22,0,.44,0,.44.21l.44.44a.7.7,0,0,1,.21.44,2,2,0,0,1,.22,1.1A1.59,1.59,0,0,1,485,22.78v3.07a4,4,0,0,0,.88,1.09,40.69,40.69,0,0,1,2.19,4.16,3.13,3.13,0,0,1,.44,1.32c0,.22.21.65.21.87V32.2a39,39,0,0,1,.44-5,38.53,38.53,0,0,0,0-5v-.65a11.41,11.41,0,0,1-2.85-3.73,2,2,0,0,1-.22-1.09,1.14,1.14,0,0,1,.22-1.1,1,1,0,0,1,1.1,0,1.72,1.72,0,0,1,.88.88,7.91,7.91,0,0,1,.87,2c.22.87.22,1.75.44,2.41a21,21,0,0,1,0,5.25,7.48,7.48,0,0,1-.22,2.2c.44-2,.88-4.17,1.53-6.14a13.63,13.63,0,0,1,1.1-2.63V17.74c0-.44-.22-.87-.22-1.31-.22,0-.44-.22-.66-.22-.22-.22-.43-.22-.43-.44-.44-.22-.66-.66-.88-.88a1.63,1.63,0,0,1-.44-1.09c0-.22,0-.88.44-.88s.66.44.88.66c.21.44.43.88.65,1.31a17.07,17.07,0,0,1,.88,2.41c0,.44.22.88.22,1.54v.43a.21.21,0,0,1,.22-.21c.22-.88.43-1.76.65-2.63,0-.66.22-1.32.22-1.75h-.22a3.63,3.63,0,0,1-.87-1.54c-.22-.44-.22-1.09-.44-1.53V10.08a.81.81,0,0,1,.22-.66C493.35,8.32,493.57,8.1,493.79,8.32Z"/></g><path class="cls-2" d="M499.27,64.61h-21V67h21Z"/></g></g></svg>