<svg width="97" height="86" viewBox="0 0 97 86" fill="none" xmlns="http://www.w3.org/2000/svg">
<g clip-path="url(#clip0_445_9055)">
<path d="M54 50.1666H57.5833C61.525 50.1666 64.75 46.9416 64.75 43V7.16663H25C19.994 7.16663 20.0002 9.49963 19.9942 14.5125" stroke="#FFFCF5" stroke-width="1.5" stroke-linecap="round" stroke-linejoin="round"/>
<path d="M19.5 60.9166C19.5 71.6666 19.5 71.6666 28.9165 71.6666H32.4998C32.4998 67.725 35.7248 64.5 39.6665 64.5C43.6082 64.5 46.8332 67.725 46.8332 71.6666H61.1665C61.1665 67.725 64.3915 64.5 68.3332 64.5C72.2748 64.5 75.4998 67.725 75.4998 71.6666H79.0832C85.0315 71.6666 89.8332 71.6666 89.8332 60.9166V50.1666H79.0832C77.1123 50.1666 75.4998 48.5541 75.4998 46.5833V35.8333C75.4998 33.8625 77.1123 32.25 79.0832 32.25H83.7057L77.5782 21.5358C76.9468 20.4394 76.0386 19.528 74.9444 18.8928C73.8502 18.2577 72.6084 17.9211 71.3432 17.9166H64.7498V43C64.7498 46.9416 61.5248 50.1666 57.5832 50.1666H53.9998" stroke="#FFFCF5" stroke-width="1.5" stroke-linecap="round" stroke-linejoin="round"/>
<path d="M18.167 28.6666H39.667M18.167 39.4166H32.5003M18.167 50.1666H25.3337M39.667 78.8333C41.5677 78.8333 43.3906 78.0782 44.7346 76.7342C46.0786 75.3902 46.8337 73.5673 46.8337 71.6666C46.8337 69.7659 46.0786 67.943 44.7346 66.599C43.3906 65.255 41.5677 64.5 39.667 64.5C37.7663 64.5 35.9434 65.255 34.5994 66.599C33.2554 67.943 32.5003 69.7659 32.5003 71.6666C32.5003 73.5673 33.2554 75.3902 34.5994 76.7342C35.9434 78.0782 37.7663 78.8333 39.667 78.8333ZM68.3337 78.8333C70.2344 78.8333 72.0572 78.0782 73.4013 76.7342C74.7453 75.3902 75.5003 73.5673 75.5003 71.6666C75.5003 69.7659 74.7453 67.943 73.4013 66.599C72.0572 65.255 70.2344 64.5 68.3337 64.5C66.4329 64.5 64.6101 65.255 63.2661 66.599C61.922 67.943 61.167 69.7659 61.167 71.6666C61.167 73.5673 61.922 75.3902 63.2661 76.7342C64.6101 78.0782 66.4329 78.8333 68.3337 78.8333ZM89.8337 43V50.1666H79.0837C77.1128 50.1666 75.5003 48.5541 75.5003 46.5833V35.8333C75.5003 33.8625 77.1128 32.25 79.0837 32.25H83.7062L89.8337 43Z" stroke="#FFFCF5" stroke-width="1.5" stroke-linecap="round" stroke-linejoin="round"/>
</g>
<path d="M1 28.7998H19M9.53 39.4665H19M1 50.1331H19M9.53 60.7998H19" stroke="#FFFCF5" stroke-width="1.5" stroke-linecap="round" stroke-linejoin="round"/>
<defs>
<clipPath id="clip0_445_9055">
<rect width="86" height="86" fill="white" transform="translate(11)"/>
</clipPath>
</defs>
</svg>
