<svg width="86" height="86" viewBox="0 0 86 86" fill="none" xmlns="http://www.w3.org/2000/svg">
<g clip-path="url(#clip0_517_4967)">
<path d="M43 50.166H46.5833C50.525 50.166 53.75 46.941 53.75 42.9993V7.16602H14C8.99396 7.16602 9.00022 9.49902 8.99418 14.5118" stroke="#FFFCF5" stroke-width="1.5" stroke-linecap="round" stroke-linejoin="round"/>
<path d="M8.5 60.916C8.5 71.666 8.5 71.666 17.9165 71.666H21.4998C21.4998 67.7243 24.7248 64.4993 28.6665 64.4993C32.6082 64.4993 35.8332 67.7243 35.8332 71.666H50.1665C50.1665 67.7243 53.3915 64.4993 57.3332 64.4993C61.2748 64.4993 64.4998 67.7243 64.4998 71.666H68.0832C74.0315 71.666 78.8332 71.666 78.8332 60.916V50.166H68.0832C66.1123 50.166 64.4998 48.5535 64.4998 46.5827V35.8327C64.4998 33.8618 66.1123 32.2493 68.0832 32.2493H72.7057L66.5782 21.5352C65.9468 20.4388 65.0386 19.5274 63.9444 18.8922C62.8502 18.2571 61.6084 17.9205 60.3432 17.916H53.7498V42.9993C53.7498 46.941 50.5248 50.166 46.5832 50.166H42.9998" stroke="#FFFCF5" stroke-width="1.5" stroke-linecap="round" stroke-linejoin="round"/>
<path d="M7.1665 28.666H28.6665M7.1665 39.416H21.4998M7.1665 50.166H14.3332M28.6665 78.8327C30.5672 78.8327 32.3901 78.0776 33.7341 76.7336C35.0781 75.3896 35.8332 73.5667 35.8332 71.666C35.8332 69.7653 35.0781 67.9424 33.7341 66.5984C32.3901 65.2544 30.5672 64.4994 28.6665 64.4994C26.7658 64.4994 24.9429 65.2544 23.5989 66.5984C22.2549 67.9424 21.4998 69.7653 21.4998 71.666C21.4998 73.5667 22.2549 75.3896 23.5989 76.7336C24.9429 78.0776 26.7658 78.8327 28.6665 78.8327ZM57.3332 78.8327C59.2339 78.8327 61.0568 78.0776 62.4008 76.7336C63.7448 75.3896 64.4998 73.5667 64.4998 71.666C64.4998 69.7653 63.7448 67.9424 62.4008 66.5984C61.0568 65.2544 59.2339 64.4994 57.3332 64.4994C55.4325 64.4994 53.6096 65.2544 52.2656 66.5984C50.9216 67.9424 50.1665 69.7653 50.1665 71.666C50.1665 73.5667 50.9216 75.3896 52.2656 76.7336C53.6096 78.0776 55.4325 78.8327 57.3332 78.8327ZM78.8332 42.9993V50.166H68.0832C66.1123 50.166 64.4998 48.5535 64.4998 46.5827V35.8327C64.4998 33.8618 66.1123 32.2493 68.0832 32.2493H72.7057L78.8332 42.9993Z" stroke="#FFFCF5" stroke-width="1.5" stroke-linecap="round" stroke-linejoin="round"/>
</g>
<defs>
<clipPath id="clip0_517_4967">
<rect width="86" height="86" fill="white"/>
</clipPath>
</defs>
</svg>
