<svg width="86" height="86" viewBox="0 0 86 86" fill="none" xmlns="http://www.w3.org/2000/svg">
<path d="M78.8337 19.4575V60.6659C78.8337 66.0409 78.8337 66.0409 73.5005 66.0409C60.917 66.0409 66.292 66.0409 60.917 66.0409V73.6733C60.917 76.54 57.7278 78.26 55.3628 76.6833L39.417 66.0409H31.8203C32.107 64.9659 32.2503 63.855 32.2503 62.7084C32.2503 59.0534 30.8528 55.685 28.5595 53.1409C27.2267 51.6351 25.588 50.431 23.7527 49.6091C21.9174 48.7873 19.9279 48.3665 17.917 48.375C13.9037 48.375 10.2487 50.0234 7.63283 52.7109C7.31033 51.2775 7.16699 53.5005 7.16699 51.888L7.16699 19.4566C7.16699 8.70844 7.16699 8.70752 25.0837 8.70752H60.917C78.8337 8.70752 78.8337 8.70752 78.8337 19.4575Z" stroke="#FFFCF5" stroke-width="1.5" stroke-miterlimit="10" stroke-linecap="round" stroke-linejoin="round"/>
<path d="M32.2497 62.7084C32.2497 65.3959 31.4972 67.9401 30.1714 70.0901C29.4189 71.3801 28.4514 72.5267 27.3405 73.4584C24.8322 75.7159 21.5355 77.0417 17.9164 77.0417C15.4459 77.0469 13.0167 76.4085 10.8678 75.1896C8.71898 73.9707 6.92461 72.2132 5.66137 70.0901C4.29734 67.8699 3.57774 65.3141 3.58304 62.7084C3.58304 58.1934 5.66137 54.1442 8.95804 51.5284C11.065 49.8397 13.6063 48.7806 16.289 48.4733C18.9716 48.1659 21.6866 48.6228 24.1209 49.7913C26.5552 50.9598 28.6098 52.7923 30.048 55.0776C31.4862 57.363 32.2494 60.0082 32.2497 62.7084Z" stroke="#FFFCF5" stroke-width="1.5" stroke-miterlimit="10" stroke-linecap="round" stroke-linejoin="round"/>
<path d="M12.3271 62.7083L15.8746 66.2558L23.5071 59.1967" stroke="#FFFCF5" stroke-width="1.5" stroke-linecap="round" stroke-linejoin="round"/>
<path d="M30.458 37.625H55.5413" stroke="#FFFCF5" stroke-width="1.5" stroke-miterlimit="10" stroke-linecap="round" stroke-linejoin="round"/>
</svg>
