<svg width="86" height="86" viewBox="0 0 86 86" fill="none" xmlns="http://www.w3.org/2000/svg">
<path d="M34.042 49.2708C34.042 52.7467 36.7295 55.5417 40.0262 55.5417H46.7628C49.6295 55.5417 51.9587 53.105 51.9587 50.0592C51.9587 46.7983 50.5253 45.6158 48.4112 44.8633L37.6253 41.1008C35.5112 40.3483 34.0778 39.2017 34.0778 35.905C34.0778 32.895 36.407 30.4225 39.2737 30.4225H46.0103C49.307 30.4225 51.9945 33.2175 51.9945 36.6933M43.0003 26.875V59.125" stroke="#FFFCF5" stroke-width="1.5" stroke-linecap="round" stroke-linejoin="round"/>
<path d="M78.8337 43C78.8337 62.78 62.7803 78.8333 43.0003 78.8333C23.2203 78.8333 7.16699 62.78 7.16699 43C7.16699 23.22 23.2203 7.16663 43.0003 7.16663" stroke="#FFFCF5" stroke-width="1.5" stroke-linecap="round" stroke-linejoin="round"/>
<path d="M60.917 10.75V25.0833M60.917 25.0833H75.2503M60.917 25.0833L78.8337 7.16663" stroke="#FFFCF5" stroke-width="1.5" stroke-linecap="round" stroke-linejoin="round"/>
</svg>
