<svg width="37" height="37" viewBox="0 0 37 37" fill="none" xmlns="http://www.w3.org/2000/svg">
<mask id="mask0_2_2593" style="mask-type:luminance" maskUnits="userSpaceOnUse" x="6" y="22" width="25" height="12">
<path fill-rule="evenodd" clip-rule="evenodd" d="M6.1665 22.3481H30.5863V33.7164H6.1665V22.3481Z" fill="white"/>
</mask>
<g mask="url(#mask0_2_2593)">
<path fill-rule="evenodd" clip-rule="evenodd" d="M18.378 24.6606C11.809 24.6606 8.479 25.7891 8.479 28.0169C8.479 30.2646 11.809 31.4039 18.378 31.4039C24.9455 31.4039 28.274 30.2754 28.274 28.0477C28.274 25.7999 24.9455 24.6606 18.378 24.6606ZM18.378 33.7164C15.3579 33.7164 6.1665 33.7164 6.1665 28.0169C6.1665 22.9355 13.1364 22.3481 18.378 22.3481C21.3982 22.3481 30.5865 22.3481 30.5865 28.0477C30.5865 33.129 23.6182 33.7164 18.378 33.7164Z" fill="#FFFCF5"/>
</g>
<mask id="mask1_2_2593" style="mask-type:luminance" maskUnits="userSpaceOnUse" x="10" y="3" width="17" height="17">
<path fill-rule="evenodd" clip-rule="evenodd" d="M10.1899 3.0835H26.5625V19.4538H10.1899V3.0835Z" fill="white"/>
</mask>
<g mask="url(#mask1_2_2593)">
<path fill-rule="evenodd" clip-rule="evenodd" d="M18.3778 5.28439C15.0771 5.28439 12.3915 7.96843 12.3915 11.2691C12.3807 14.5591 15.0462 17.2416 18.3331 17.2539L18.3778 18.3546V17.2539C21.6769 17.2539 24.361 14.5683 24.361 11.2691C24.361 7.96843 21.6769 5.28439 18.3778 5.28439ZM18.3778 19.4538H18.3284C13.8237 19.44 10.1746 15.7662 10.19 11.2645C10.19 6.75514 13.8622 3.08289 18.3778 3.08289C22.8918 3.08289 26.5625 6.75514 26.5625 11.2691C26.5625 15.7831 22.8918 19.4538 18.3778 19.4538Z" fill="#FFFCF5"/>
</g>
</svg>
